<?xml version="1.0" encoding="utf-8"?>
<!-- Generator: Adobe Illustrator 21.0.2, SVG Export Plug-In . SVG Version: 6.00 Build 0)  -->
<svg version="1.1" id="OBJECT" xmlns="http://www.w3.org/2000/svg" xmlns:xlink="http://www.w3.org/1999/xlink" x="0px" y="0px"
	 viewBox="0 0 362 285" style="enable-background:new 0 0 362 285;" xml:space="preserve">
<style type="text/css">
	.st0{fill:#6AB0A0;}
	.st1{fill:#98D5CC;}
	.st2{opacity:0.37;}
	.st3{fill:#3C2A34;}
	.st4{fill:#DF9FA1;}
	.st5{fill:#F5EFDB;}
	.st6{fill:#FFCC05;}
	.st7{fill:#D0C4B3;}
	.st8{fill:#FFFAEF;}
	.st9{fill:#EE4623;}
</style>
<g>
	<circle class="st0" cx="244.6" cy="78.2" r="55.2"/>
	<g>
		<path class="st1" d="M197.6,107.1c0.5,0.7,0.9,1.5,1.4,2.2c10-9.4,46.5-45.3,61.3-84c-0.8-0.2-1.6-0.5-2.5-0.7
			c-0.2,0.5-0.4,0.9-0.5,1.4c0.2-0.1,0.4-0.1,0.6-0.2l0.7,2.4c-0.8,0.2-1.7,0.5-2.5,0.7c-1.6,3.7-3.3,7.4-5.3,11
			c0.2-0.1,0.4-0.2,0.4-0.2l1.1,2.3c-0.2,0.1-1.2,0.6-3.3,1.3c-2.4,4.2-4.9,8.4-7.5,12.4c0.3-0.1,0.5-0.1,0.6-0.1l0.5,2.5
			c0,0-1.1,0.2-3,0.5c-3.4,5-7,9.9-10.6,14.4c0.6,0.3,0.9,0.5,1,0.5l-1.2,2.3c-0.1-0.1-0.6-0.3-1.4-0.7c-2.5,3.1-5,6.1-7.4,8.9
			c0.3,0.2,0.6,0.3,0.9,0.5l-1.2,2.2c-0.5-0.3-1-0.5-1.4-0.8c-2.6,3-5.2,5.8-7.6,8.3c0.5,0.2,0.8,0.3,0.8,0.3l-0.9,2.4
			c-0.1,0-0.7-0.3-1.8-0.7C204,101,200.1,104.8,197.6,107.1z"/>
		<path class="st1" d="M231.7,95.8c13.5-14.6,31.1-37.2,41.4-65c-0.7-0.4-1.5-0.9-2.2-1.3c-16.3,44.5-52.1,76.6-65.4,87.4
			c0.6,0.6,1.2,1.2,1.8,1.8C212.8,114.3,221.9,106.5,231.7,95.8z"/>
		<path class="st1" d="M262.9,78c0,0,0,0.2,0,0.4c1-1.4,2-2.9,3-4.4c-0.7-0.6-1-1-1.1-1.1l1.9-1.7c0,0,0.2,0.3,0.7,0.7
			c1.1-1.7,2.2-3.5,3.3-5.3c-0.7-0.5-1.1-0.8-1.1-0.8l1.5-2c0,0,0.3,0.3,0.9,0.7c1.7-2.8,3.3-5.7,4.9-8.7c-0.7-0.7-1.2-1.1-1.2-1.2
			l1.8-1.7c0,0,0.2,0.2,0.6,0.6c2.2-4.3,4.3-8.9,6.3-13.6c-0.6-0.7-1.3-1.3-1.9-1.9c-12.1,29.6-30.1,51.7-43.7,65.5
			c-9.8,10-18.6,17-24.1,21c0.8,0.5,1.5,1,2.3,1.4c5.1-3.8,12.6-9.8,20.9-18c0-1,0-2,0-3.1l2.5,0c0,0.2,0,0.3,0,0.5
			c0,0,0.1-0.1,0.1-0.1c3.2-3.2,6.6-6.9,10.2-11.1c-0.1-1-0.1-2.1-0.2-3.1L253,91c0,0.2,0,0.3,0,0.5c2.5-3.1,5.1-6.4,7.7-9.9
			c-0.2-2-0.3-3.2-0.3-3.3L262.9,78z"/>
		<path class="st1" d="M229.8,73.5c0,0-0.4-0.2-1-0.5c-3.1-1.6-13.2-7.1-23.6-14.2c-1.5-0.2-3-0.5-4.5-0.8l0.4-2
			c-1.8-1.3-3.5-2.6-5.3-3.9c-0.4,0.8-0.8,1.5-1.2,2.3c12.6,9.8,27.8,18.1,32.4,20.6c0.8,0.4,1.3,0.7,1.4,0.7L229.8,73.5z"/>
		<path class="st1" d="M220.7,84.4c-0.3-0.2-0.6-0.3-0.9-0.5c-9.8-5.3-21-13.2-28.8-18.9c-0.2,0.9-0.4,1.8-0.6,2.7
			c7.6,5.6,18.3,13,27.7,18.2c0.5,0.3,1,0.5,1.4,0.8L220.7,84.4z"/>
		<path class="st1" d="M211.3,94.4c0,0-0.3-0.1-0.8-0.3c-2.4-1-10.2-4.6-21-12.7c0.1,1.1,0.2,2.3,0.3,3.4
			c9.1,6.6,15.8,9.9,18.8,11.3c1.1,0.5,1.7,0.7,1.8,0.7L211.3,94.4z"/>
		<path class="st1" d="M257.9,25.8c-0.2,0.1-0.4,0.1-0.6,0.2c-17.1,4.9-33.1,6.8-45,7.5c-1.2,0.9-2.3,1.7-3.4,2.7
			c11.9-0.5,28.8-2.1,47.2-7.2c0.8-0.2,1.7-0.5,2.5-0.7L257.9,25.8z"/>
		<path class="st1" d="M251.2,39.8c0,0-0.1,0.1-0.4,0.2c-2.4,1-16.8,6.3-50.4,5.2c-0.6,0.8-1.2,1.6-1.8,2.5
			c3.8,0.1,7.4,0.2,10.8,0.2c22,0,34.1-2.8,39.5-4.6c2.1-0.7,3.2-1.2,3.3-1.3L251.2,39.8z"/>
		<path class="st1" d="M205.3,58.8c5.4,0.8,10.7,1.1,15.6,1.1c8.1,0,14.9-0.8,18.6-1.4c1.9-0.3,3-0.5,3-0.5l-0.5-2.5
			c0,0-0.2,0-0.6,0.1c-3.4,0.6-21.8,3.7-40.1-0.1l-0.1,0.5l-0.4,2C202.3,58.3,203.8,58.6,205.3,58.8z"/>
		<path class="st1" d="M262.3,115.8c0,4.9-0.1,9.9-0.4,14.8c0.9-0.3,1.7-0.6,2.6-0.9c0.2-4.5,0.3-9,0.3-13.5c-0.8,0.6-1.4,1-1.5,1.1
			L262.3,115.8z"/>
		<path class="st1" d="M264.4,98.9c-0.3,0.2-0.5,0.4-0.5,0.4l-1.5-2c0,0,0.7-0.5,1.9-1.5c-0.5-9-1.1-15.6-1.3-17.3
			c0-0.3,0-0.4,0-0.4l-2.5,0.3c0,0.1,0.1,1.2,0.3,3.3c0.5,5.9,1.6,18.9,1.6,33.3c0.5-0.3,1.4-1,2.5-1.9
			C264.8,108.1,264.6,103.3,264.4,98.9z"/>
		<path class="st1" d="M250.5,91.1c0.1,1,0.1,2.1,0.2,3.1c1.1,17.4,0.8,30.8,0.4,38.7c0.9-0.1,1.7-0.2,2.5-0.4
			c0.4-8.5,0.7-22.7-0.6-41.2c0-0.2,0-0.3,0-0.5L250.5,91.1z"/>
		<path class="st1" d="M237.9,104.9c0,1,0,2,0,3.1c-0.1,10.3-0.5,19.2-0.9,24.9c0.8,0.1,1.7,0.2,2.5,0.3c0.4-6.1,0.9-16.2,0.9-27.7
			c0-0.2,0-0.3,0-0.5L237.9,104.9z"/>
		<path class="st1" d="M277.5,52.9l-1.8,1.7c0.1,0.1,0.5,0.5,1.2,1.2c2.8,2.6,10.3,9.1,22.5,15.3c-0.1-1.1-0.3-2.1-0.5-3.1
			c-11.8-6.3-18.7-12.6-20.8-14.6C277.7,53.1,277.5,52.9,277.5,52.9z"/>
		<path class="st1" d="M269.6,65.9c0,0,0.4,0.3,1.1,0.8c3.5,2.5,15.3,10.7,28.8,17.7c0.1-0.9,0.2-1.8,0.2-2.7
			c-13.2-6.9-24.5-14.8-27.7-17.1c-0.6-0.4-0.9-0.6-0.9-0.7L269.6,65.9z"/>
		<path class="st1" d="M266.7,71.3l-1.9,1.7c0.1,0.1,0.4,0.5,1.1,1.1c1.6,1.6,5.2,4.7,11,8.7c0.3-0.4,0.6-0.7,0.8-1.1l2,1.5
			c-0.2,0.3-0.5,0.6-0.7,0.9c2.6,1.7,5.6,3.5,9.1,5.4c0.2-0.4,0.5-0.7,0.7-1.1l2.2,1.3c-0.2,0.4-0.4,0.7-0.6,1.1
			c2.2,1.2,4.5,2.4,7,3.6c0.3-0.8,0.5-1.7,0.7-2.5c-18.7-9.1-28.2-17.6-30.7-20C266.9,71.5,266.7,71.3,266.7,71.3z"/>
		<path class="st1" d="M279,84.2c0.2-0.3,0.5-0.6,0.7-0.9l-2-1.5c-0.3,0.4-0.6,0.7-0.8,1.1c-5.1,6.4-10.1,10.9-12.7,13
			c-1.2,1-1.8,1.5-1.9,1.5l1.5,2c0,0,0.2-0.2,0.5-0.4C266.3,97.5,272.5,92.4,279,84.2z"/>
		<path class="st1" d="M290.3,90.9c0.2-0.4,0.4-0.7,0.6-1.1l-2.2-1.3c-0.2,0.4-0.4,0.7-0.7,1.1c-6,9.6-17.8,19.2-23.3,23.4
			c-1.2,0.9-2,1.5-2.5,1.9c-0.2,0.2-0.4,0.3-0.4,0.3l0.4,0.6l1,1.5c0.1-0.1,0.7-0.5,1.5-1.1C269.4,112.8,283.5,102,290.3,90.9z"/>
	</g>
</g>
<g>
	<path class="st2" d="M112.5,264c0,0-26.7,3.9-35.4-4.1c-6.9-6.4-14.9-13.3,42.9-14.9s69.5-12.6,53-15.5s-134.7,12.8-146.7-3.7
		c-8-11,129.5-6.7,158.6-5.2C214.1,222.1,232.1,254,112.5,264z"/>
	<ellipse class="st2" cx="200.5" cy="192.4" rx="150.4" ry="19"/>
	<path class="st3" d="M309.9,165c0,0,35.1,18.1,41,26.3c0,0-51.2,6-59.7,5.8C291.2,197.1,298.1,171.8,309.9,165z"/>
	<path class="st4" d="M313.3,173.4c0,0,19.2,9.3,28.6,19c0,0-43.7,6.4-51.2,4.7C290.7,197.1,311.6,178.6,313.3,173.4z"/>
	<path class="st5" d="M313.4,181.1c0,0,9.9,2.1,11.3,5.1c1.3,3.1-16.9,2.1-16.9,2.1s8,2.2,6.7,4.1c-1.3,1.8-11.5,0-11.5,0
		s8-0.3,8-0.8c0-0.6-6.2-4.4-6.2-4.4s14.3,0.4,14.2-0.9C318.9,184.8,313.4,181.1,313.4,181.1z"/>
	<path class="st3" d="M311.4,113.5c0,0,0.6-42.2-5-52.1c0,0-27.7,43.5-31.2,51.3C275.2,112.6,300.1,121.2,311.4,113.5z"/>
	<path class="st4" d="M305.2,106.3c0,0,1-25.2-3.3-37.7c0,0-20.3,29.9-22.4,36.4C279.4,105,300.4,105.2,305.2,106.3z"/>
	<path class="st5" d="M299.5,97c0,0,3.3-9.6,1.4-12.3c-1.9-2.7-10.5,13.4-10.5,13.4s2.2-8.1-0.1-7.9c-2.3,0.2-5.9,9.9-5.9,9.9
		s4.4-6.8,4.9-6.5c0.5,0.3,0.6,7.6,0.6,7.6s7-12.5,8.1-11.7C299.1,90.4,299.5,97,299.5,97z"/>
	<path class="st3" d="M59.8,144.5c0,0-45,3.2-31.1,46.1c13.9,42.8,173.9-1.5,179.1,31.3c5.2,32.8-97.6,44.3-118,34.6
		c-20.4-9.7,3.4-15.9,38.8-15.9c35.4,0,58.5-5.6,53.6-13.1c-3-4.5-28.4-2.5-28.4-2.5s-111.1,13.6-133.5-7.5
		c-24.5-23.2-15.8-87.7,40.8-92.6L59.8,144.5z"/>
	<path class="st5" d="M141.9,201.6c0,0,168.3,22.6,176.4-32.3c8.5-56.8-18.1-74-51.4-73.6c-33.2,0.4-79.3-1.2-101.6-34.2
		C137.8,20.5,62.8,51.8,53.1,99.5C30.3,211.6,141.9,201.6,141.9,201.6z"/>
	<path class="st3" d="M236.1,94.6c0,0,12.7,58.6,82.8,41.8C319,136.4,319.9,80.5,236.1,94.6z"/>
	<path class="st3" d="M319.9,147.6c0,0-61.4-14.3-68.1,56.7C251.8,204.3,331.5,204.4,319.9,147.6z"/>
	
		<ellipse transform="matrix(0.9998 -1.790324e-02 1.790324e-02 0.9998 -2.0776 5.1466)" class="st6" cx="286.4" cy="118.6" rx="14.8" ry="14.8"/>
	
		<ellipse transform="matrix(0.9998 -1.793244e-02 1.793244e-02 0.9998 -2.0809 5.1551)" class="st3" cx="286.4" cy="118.6" rx="11.6" ry="11.6"/>
	
		<ellipse transform="matrix(0.9998 -1.796760e-02 1.796760e-02 0.9998 -3.0054 5.2384)" class="st6" cx="290" cy="169.9" rx="14.8" ry="14.8"/>
	<path class="st7" d="M160.3,199.1c0,0,55.2-41.6-40.6-83.2C119.6,115.9,224,149.5,160.3,199.1z"/>
	<path class="st3" d="M99.1,112.1c0,0,75.7,32.9,80.9,24.1C187.3,123.4,110.9,76.6,99.1,112.1z"/>
	<g>
		<path class="st8" d="M290.3,213.3c0,0-19.6-19.9-16.1-64.6C274.2,148.7,266.9,190.9,290.3,213.3z"/>
		<path class="st8" d="M280.1,220.6c0,0-18.2-27.6-7.2-71.5C272.9,149,259.8,195.3,280.1,220.6z"/>
		<path class="st8" d="M265.5,213.4c0,0-13.5-26,6.2-64.7C271.7,148.7,248.8,185.7,265.5,213.4z"/>
	</g>
	<g>
		<path class="st8" d="M281.6,68.6c0,0-20.3,19.1-18.7,64C262.9,132.5,257.4,90.1,281.6,68.6z"/>
		<path class="st8" d="M271.7,60.9c0,0-19.3,26.8-10,71.2C261.6,132.1,250.4,85.4,271.7,60.9z"/>
		<path class="st8" d="M256.8,67.5c0,0-14.6,25.4,3.6,64.9C260.4,132.5,239,94.6,256.8,67.5z"/>
	</g>
	<polygon class="st3" points="254.2,136.4 269.3,144.9 251.7,153.2 260.5,144.8 	"/>
	<polygon class="st9" points="282,141.9 272.3,144.8 281.2,149.5 	"/>
	<path class="st3" d="M230,205.9c0,0,16.9-21.3,0.1-47.6c-8.8-13.9-26.9-17.9-30.3-7.7c-3.4,10.2,13.3,14.6,12.5,27.6
		c-0.7,10-14.8,27.7-14.8,27.7l15.5,0.5L230,205.9z"/>
	<path class="st3" d="M221.2,92.8c0,0,18.1,7.5,1.8,34.1c-8.6,14-26.7,18.3-30.2,8.1c-3.5-10.2,13.1-14.8,12.1-27.7
		c-0.8-9.9-15.3-24.6-15.3-24.6L221.2,92.8z"/>
	<circle class="st5" cx="294.3" cy="127.3" r="2.4"/>
	
		<ellipse transform="matrix(0.9998 -1.793251e-02 1.793251e-02 0.9998 -2.9998 5.2142)" class="st3" cx="289.2" cy="169.9" rx="11.6" ry="11.6"/>
	<circle class="st5" cx="297.1" cy="178.6" r="2.4"/>
	<path class="st3" d="M141.9,201.6c0,0-8.2-38.7-59.9-31.7c-21.5,2.9,13.6-70-30.7-59.6C51.3,110.2,26,204.3,141.9,201.6z"/>
	<path class="st4" d="M131.2,109.5c0,0,21.2,2.4,20.2,10.7C150.5,128.5,113.6,110,131.2,109.5z"/>
	<path class="st4" d="M162.1,116.2c0,0-3.9-2.1-5.7,0.5C154.6,119.4,169.6,122.5,162.1,116.2z"/>
	<path class="st4" d="M161.5,122.2c0,0-3.7-2.5-5.7,0C153.8,124.7,168.4,129.2,161.5,122.2z"/>
	<path class="st4" d="M158,128.4c0,0-2.9-3.4-5.5-1.5C149.9,128.7,162.8,136.9,158,128.4z"/>
	<path class="st4" d="M280.1,177"/>
	<path class="st5" d="M199.8,150.6c0,0,5.8,4.2,7.1,7.7C206.9,158.3,206.4,150.3,199.8,150.6z"/>
	<path class="st5" d="M202.1,147.4c0,0,5.8,4.2,7.1,7.7C209.2,155.1,208.7,147.2,202.1,147.4z"/>
	<path class="st5" d="M206.9,145.2c0,0,5.8,4.2,7.1,7.7C214,152.9,213.5,144.9,206.9,145.2z"/>
	<path class="st5" d="M199.9,124.5c0,0-3.9,6-7.3,7.4C192.5,131.9,200.5,131.1,199.9,124.5z"/>
	<path class="st5" d="M202.2,128.7c0,0-4.4,5.7-7.9,6.9C194.3,135.6,202.3,135.3,202.2,128.7z"/>
	<path class="st5" d="M170.9,128.5c0,0,6.7,2.7,8.7,5.7C179.6,134.2,177.2,126.6,170.9,128.5z"/>
	<path class="st5" d="M168.3,132.7c0,0,7.1,1.3,9.7,3.9C178,136.6,174.1,129.6,168.3,132.7z"/>
	<path class="st3" d="M95.4,54.6c0,0,82.3-7.1,82.6-17.3C178.4,22.4,88.8,17.7,95.4,54.6z"/>
	<path class="st4" d="M122.4,36.9c0,0,19.8-7.9,22.9-0.2C148.4,44.4,107.1,45.7,122.4,36.9z"/>
	<path class="st4" d="M152.7,28.1c0,0-4.4,0-4.7,3.2C147.7,34.5,162.4,30.1,152.7,28.1z"/>
	<path class="st4" d="M155.1,33.7c0,0-4.4-0.4-5,2.7C149.5,39.6,164.5,36.5,155.1,33.7z"/>
	<path class="st4" d="M154.9,40.8c0,0-4.1-1.6-5.6,1.3C148,44.9,163.2,46,154.9,40.8z"/>
	<path class="st5" d="M166.3,34.8c0,0,7.1-0.9,10.4,0.9C176.8,35.6,171,30.1,166.3,34.8z"/>
	<path class="st5" d="M166,39.7c0,0,6.8-2.2,10.4-1.2C176.4,38.5,169.7,34.2,166,39.7z"/>
	<path class="st5" d="M205.8,131.9c0,0-3.9,6-7.3,7.4C198.5,139.3,206.4,138.5,205.8,131.9z"/>
</g>
</svg>
