<?xml version="1.0" encoding="utf-8"?>
<!-- Generator: Adobe Illustrator 21.0.2, SVG Export Plug-In . SVG Version: 6.00 Build 0)  -->
<svg version="1.1" id="Layer_1" xmlns="http://www.w3.org/2000/svg" xmlns:xlink="http://www.w3.org/1999/xlink" x="0px" y="0px"
	 viewBox="0 0 2267.3 1766.3" style="enable-background:new 0 0 2267.3 1766.3;" xml:space="preserve">
<style type="text/css">
	.st0{fill:#F9FCFE;}
	.st1{fill:#888387;}
	.st2{fill:#DAA69F;}
	.st3{fill:#9DCEED;}
	.st4{fill:#CDDB62;}
	.st5{fill:#E5BC60;}
	.st6{fill:#C0BFBF;}
	.st7{fill:#B86B6B;}
	.st8{opacity:0.5;fill:#756557;}
	.st9{fill:#C5C3C3;}
	.st10{opacity:0.4;fill:#756557;}
	.st11{opacity:0.6;fill:#756557;}
	.st12{fill-rule:evenodd;clip-rule:evenodd;fill:#6AA8A5;}
	.st13{fill-rule:evenodd;clip-rule:evenodd;fill:#293F5D;}
	.st14{fill-rule:evenodd;clip-rule:evenodd;fill:#8FBCE6;}
	.st15{opacity:0.5;}
	.st16{fill:#040706;}
	.st17{fill:#FFFFFF;}
	.st18{fill:#E5E5E5;}
	.st19{fill:#B1B1B0;}
	.st20{fill:#475063;}
	.st21{fill:#475164;}
	.st22{fill:#6A7281;}
	.st23{fill:#E6AF88;}
	.st24{fill:#435A43;}
	.st25{fill:#DFDFDF;}
	.st26{fill:#432A1D;}
	.st27{fill:#5A351F;}
	.st28{fill:#E0E4E7;}
	.st29{fill:#D2D5D7;}
	.st30{fill:#E4CF98;}
	.st31{fill:#343432;}
	.st32{fill:#3F495B;}
	.st33{fill:#4E5D71;}
	.st34{fill:#508294;}
	.st35{fill:#47727C;}
	.st36{fill:#F8FCFE;}
</style>
<g>
	<g>
		<g>
			<g>
				<g>
					<g>
						<g>
							
								<rect x="1594.8" y="288.6" transform="matrix(0.3432 -0.9393 0.9393 0.3432 768.3558 2157.7446)" class="st0" width="664.4" height="481.9"/>
							<g>
								
									<rect x="1769.2" y="518.1" transform="matrix(0.3432 -0.9393 0.9393 0.3432 582.8956 2076.8643)" class="st1" width="14.4" height="207.1"/>
								
									<rect x="1761.5" y="539.1" transform="matrix(0.3432 -0.9393 0.9393 0.3432 558.1196 2083.4565)" class="st1" width="14.4" height="207.1"/>
								
									<rect x="1753.9" y="560.1" transform="matrix(0.3432 -0.9393 0.9393 0.3432 533.3354 2090.0403)" class="st1" width="14.4" height="207.1"/>
								
									<rect x="1746.2" y="581.2" transform="matrix(0.3432 -0.9393 0.9393 0.3432 508.559 2096.6313)" class="st1" width="14.4" height="207.1"/>
								
									<rect x="1738.5" y="602.2" transform="matrix(0.3432 -0.9393 0.9393 0.3432 483.7878 2103.2268)" class="st1" width="14.4" height="207.1"/>
								
									<rect x="1730.8" y="623.2" transform="matrix(0.3432 -0.9393 0.9393 0.3432 459.0067 2109.8149)" class="st1" width="14.4" height="207.1"/>
								
									<rect x="1723.2" y="644.2" transform="matrix(0.3432 -0.9393 0.9393 0.3432 434.2256 2116.4023)" class="st1" width="14.4" height="207.1"/>
								
									<rect x="1715.5" y="665.2" transform="matrix(0.3432 -0.9393 0.9393 0.3432 409.4529 2122.9976)" class="st1" width="14.4" height="207.1"/>
							</g>
							<g>
								
									<rect x="1984.9" y="596.9" transform="matrix(0.3432 -0.9393 0.9393 0.3432 650.5325 2331.1675)" class="st1" width="14.4" height="207.1"/>
								
									<rect x="1977.2" y="617.9" transform="matrix(0.3432 -0.9393 0.9393 0.3432 625.7456 2337.7507)" class="st1" width="14.4" height="207.1"/>
								
									<rect x="1969.5" y="638.9" transform="matrix(0.3432 -0.9393 0.9393 0.3432 600.9709 2344.3423)" class="st1" width="14.4" height="207.1"/>
								
									<rect x="1961.8" y="659.9" transform="matrix(0.3432 -0.9393 0.9393 0.3432 576.1971 2350.9358)" class="st1" width="14.4" height="207.1"/>
								
									<rect x="1954.2" y="681" transform="matrix(0.3432 -0.9393 0.9393 0.3432 551.4191 2357.5249)" class="st1" width="14.4" height="207.1"/>
								
									<rect x="1946.5" y="702" transform="matrix(0.3432 -0.9393 0.9393 0.3432 526.6403 2364.1152)" class="st1" width="14.4" height="207.1"/>
								
									<rect x="1938.8" y="723" transform="matrix(0.3432 -0.9393 0.9393 0.3432 501.86 2370.7036)" class="st1" width="14.4" height="207.1"/>
								
									<rect x="1931.1" y="744" transform="matrix(0.3432 -0.9393 0.9393 0.3432 477.0854 2377.2969)" class="st1" width="14.4" height="207.1"/>
							</g>
							
								<rect x="1709.6" y="494.3" transform="matrix(0.3432 -0.9393 0.9393 0.3432 651.5695 1958.3967)" class="st2" width="33" height="38.1"/>
							
								<rect x="1693.1" y="539.3" transform="matrix(0.3432 -0.9393 0.9393 0.3432 598.457 1972.5358)" class="st3" width="33" height="38.1"/>
							
								<rect x="1919.1" y="570.8" transform="matrix(0.3432 -0.9393 0.9393 0.3432 717.3127 2205.4688)" class="st4" width="33" height="38.1"/>
							
								<rect x="1902.6" y="615.8" transform="matrix(0.3432 -0.9393 0.9393 0.3432 664.149 2219.5671)" class="st5" width="33" height="38.1"/>
							
								<rect x="1777.5" y="512.7" transform="matrix(0.3432 -0.9393 0.9393 0.3432 669.2951 2027.3079)" class="st6" width="13.4" height="44.8"/>
							
								<rect x="1761.2" y="558.7" transform="matrix(0.3432 -0.9393 0.9393 0.3432 615.0771 2041.7104)" class="st6" width="12.4" height="44.8"/>
							
								<rect x="1982.7" y="587.7" transform="matrix(0.3432 -0.9393 0.9393 0.3432 733.6866 2269.3047)" class="st6" width="13.4" height="44.8"/>
							
								<rect x="1966.4" y="633.6" transform="matrix(0.3432 -0.9393 0.9393 0.3432 679.4515 2283.6938)" class="st6" width="12.4" height="44.8"/>
						</g>
					</g>
				</g>
				
					<rect x="2001.4" y="45.7" transform="matrix(0.3432 -0.9393 0.9393 0.3432 1086.4553 2075.6848)" class="st7" width="51.9" height="430.7"/>
			</g>
			
				<rect x="1929.9" y="300.6" transform="matrix(0.3432 -0.9393 0.9393 0.3432 783.7053 2161.1526)" class="st1" width="14.4" height="439.3"/>
			
				<rect x="1921.2" y="324.3" transform="matrix(0.3432 -0.9393 0.9393 0.3432 755.7768 2168.5771)" class="st1" width="14.4" height="439.3"/>
		</g>
		<g>
			<polygon class="st8" points="1949.6,402.6 1783,341.7 1821.4,236.8 1822.1,237 1784,341.3 1949.8,401.9 1949.6,402.6 			"/>
			<polygon class="st9" points="1799.5,347.3 1798.8,347.1 1800.7,341.9 1801.4,342.2 1799.5,347.3 			"/>
			<polygon class="st9" points="1828.5,357.9 1827.8,357.7 1829.7,352.5 1830.4,352.7 1828.5,357.9 			"/>
			<polygon class="st9" points="1857.5,368.5 1856.8,368.3 1858.7,363.1 1859.4,363.3 1857.5,368.5 			"/>
			<polygon class="st9" points="1886.5,379.1 1885.8,378.9 1887.7,373.7 1888.4,373.9 1886.5,379.1 			"/>
			<polygon class="st9" points="1915.5,389.7 1914.8,389.5 1916.7,384.3 1917.3,384.5 1915.5,389.7 			"/>
			<polygon class="st9" points="1944.5,400.3 1943.8,400.1 1945.7,394.9 1946.3,395.1 1944.5,400.3 			"/>
			<polygon class="st10" points="1799.4,347.3 1799,347.1 1837.2,242.5 1837.6,242.7 1799.4,347.3 			"/>
			<polygon class="st10" points="1828.3,357.9 1827.9,357.7 1866.2,253.1 1866.6,253.3 1828.3,357.9 			"/>
			<polygon class="st10" points="1857.3,368.5 1856.9,368.3 1895.2,263.7 1895.6,263.9 1857.3,368.5 			"/>
			<polygon class="st10" points="1886.3,379.1 1885.9,378.9 1924.2,274.3 1924.6,274.5 1886.3,379.1 			"/>
			<polygon class="st10" points="1915.3,389.7 1914.9,389.5 1953.1,284.9 1953.5,285.1 1915.3,389.7 			"/>
			<polygon class="st10" points="1944.3,400.3 1943.9,400.1 1982.1,295.5 1982.5,295.7 1944.3,400.3 			"/>
			<polygon class="st11" points="1953.5,392 1785.2,330.5 1785.3,330.1 1953.6,391.6 1953.5,392 			"/>
			<polygon class="st11" points="1957.3,381.5 1789,320 1789.1,319.6 1957.4,381.1 1957.3,381.5 			"/>
			<polygon class="st11" points="1961.1,371 1792.8,309.6 1793,309.1 1961.3,370.6 1961.1,371 			"/>
			<polygon class="st11" points="1964.9,360.6 1796.6,299.1 1796.8,298.7 1965.1,360.2 1964.9,360.6 			"/>
			<polygon class="st11" points="1968.8,350.1 1800.5,288.6 1800.6,288.2 1968.9,349.7 1968.8,350.1 			"/>
			<polygon class="st11" points="1972.6,339.7 1804.3,278.2 1804.4,277.8 1972.7,339.3 1972.6,339.7 			"/>
			<polygon class="st11" points="1976.4,329.2 1808.1,267.7 1808.2,267.3 1976.5,328.8 1976.4,329.2 			"/>
			<polygon class="st11" points="1980.2,318.7 1811.9,257.3 1812.1,256.9 1980.4,318.3 1980.2,318.7 			"/>
			<polygon class="st11" points="1984.1,308.2 1815.8,246.7 1815.9,246.3 1984.2,307.8 1984.1,308.2 			"/>
			<polygon class="st11" points="1987.9,297.7 1819.6,236.2 1819.8,235.8 1988.1,297.3 1987.9,297.7 			"/>
			<polygon class="st12" points="1946.3,303.8 1907.9,319.9 1887.6,286.5 1854,287.4 1814.7,304.6 1799.2,347.2 1944.1,400.2 
				1976.3,312.2 			"/>
			<polygon class="st13" points="1973.8,319 1944.1,400.2 1799.2,347.2 1813.1,309.1 1847.7,304.5 1871.9,329.6 1905,328 
				1934.1,337.2 			"/>
			<polygon class="st14" points="1839.8,326.1 1868.6,338.6 1899,344.4 1919.5,377.2 1953.1,375.7 1944.1,400.2 1799.2,347.2 
				1808.2,322.4 			"/>
			<g class="st15">
				<path class="st16" d="M1822.2,364.7l1.2-3.2l0.5,0.2l0.4,2c0.1,0.5,0.2,0.9,0.2,1.2l0,0c0.1-0.4,0.3-0.8,0.4-1.3l0.5-1.3
					l0.4,0.1l-1.2,3.2l-0.4-0.2l-0.4-2c-0.1-0.4-0.2-0.9-0.2-1.3l0,0c-0.1,0.4-0.3,0.8-0.5,1.3l-0.5,1.4L1822.2,364.7z"/>
				<path class="st16" d="M1827.8,365.4c-0.3,0.8-1,1-1.6,0.8c-0.6-0.2-0.9-0.9-0.7-1.6c0.3-0.8,0.9-1,1.6-0.8
					C1827.8,364.1,1828.1,364.7,1827.8,365.4z M1826,364.8c-0.2,0.5,0,1,0.4,1.1c0.4,0.1,0.8-0.1,1-0.6c0.1-0.4,0.1-1-0.4-1.1
					C1826.5,364,1826.1,364.3,1826,364.8z"/>
				<path class="st16" d="M1828.9,364.5l0,1.5c0,0.2,0,0.5,0,0.7l0,0c0.1-0.2,0.3-0.3,0.4-0.5l0.9-1.1l0.4,0.2l-1.7,2l-0.4-0.1
					l0-2.6L1828.9,364.5z"/>
			</g>
			<g class="st15">
				<path class="st16" d="M1852.2,372.1c0.3,0.1,0.6,0.1,0.9,0.3c0.6,0.2,1,0.5,1.1,0.9c0.2,0.4,0.2,0.8,0,1.3
					c-0.2,0.5-0.5,0.9-0.9,1.1c-0.4,0.2-1,0.2-1.6-0.1c-0.3-0.1-0.5-0.2-0.7-0.3L1852.2,372.1z M1851.6,375.1c0.1,0,0.3,0.1,0.4,0.2
					c0.9,0.3,1.5,0,1.9-0.8c0.3-0.8,0-1.4-0.8-1.7c-0.2-0.1-0.4-0.1-0.5-0.1L1851.6,375.1z"/>
				<path class="st16" d="M1854.8,375.4c-0.2,0.6,0.1,0.9,0.5,1.1c0.3,0.1,0.5,0.1,0.7,0.1l0,0.3c-0.2,0-0.5,0-0.8-0.1
					c-0.7-0.3-1-0.9-0.7-1.6c0.3-0.7,0.9-1.1,1.5-0.8c0.8,0.3,0.7,1,0.6,1.4c0,0.1-0.1,0.1-0.1,0.2L1854.8,375.4z M1856.2,375.5
					c0.1-0.3,0.1-0.7-0.3-0.9c-0.4-0.2-0.8,0.2-0.9,0.4L1856.2,375.5z"/>
				<path class="st16" d="M1858.3,377.8c-0.1,0-0.4,0-0.7-0.1c-0.7-0.3-1-0.9-0.7-1.6c0.3-0.7,0.9-1,1.7-0.8
					c0.2,0.1,0.4,0.2,0.5,0.3l-0.2,0.3c-0.1-0.1-0.2-0.2-0.4-0.3c-0.5-0.2-1,0.1-1.1,0.6c-0.2,0.5,0,1,0.5,1.2
					c0.2,0.1,0.4,0.1,0.6,0.1L1858.3,377.8z"/>
			</g>
			<g class="st15">
				<path class="st16" d="M1881.7,382.8l0.4,0.2l-0.8,2.1c-0.3,0.9-0.8,1-1.4,0.8c-0.2-0.1-0.3-0.2-0.4-0.2l0.2-0.3
					c0.1,0.1,0.2,0.1,0.3,0.2c0.4,0.1,0.6,0,0.9-0.6L1881.7,382.8z"/>
				<path class="st16" d="M1883.5,386.4c-0.1,0.2-0.1,0.4-0.2,0.6l-0.4-0.1l0.1-0.3l0,0c-0.2,0.1-0.5,0.2-0.8,0.1
					c-0.5-0.2-0.6-0.6-0.5-0.9c0.2-0.6,0.8-0.7,1.7-0.3l0-0.1c0.1-0.2,0.1-0.6-0.3-0.7c-0.2-0.1-0.5-0.1-0.7,0l0-0.3
					c0.2,0,0.5,0,0.8,0.1c0.7,0.3,0.7,0.8,0.5,1.2L1883.5,386.4z M1883.3,385.7c-0.4-0.2-1-0.3-1.2,0.2c-0.1,0.3,0,0.5,0.2,0.5
					c0.3,0.1,0.6,0,0.7-0.2c0,0,0.1-0.1,0.1-0.1L1883.3,385.7z"/>
				<path class="st16" d="M1884.6,385.6c0.1-0.2,0.1-0.4,0.2-0.6l0.4,0.1l-0.1,0.4l0,0c0.2-0.2,0.5-0.3,0.9-0.1
					c0.3,0.1,0.7,0.5,0.5,1.3l-0.5,1.4l-0.4-0.2l0.5-1.3c0.1-0.4,0.1-0.7-0.3-0.9c-0.3-0.1-0.6,0-0.7,0.2c0,0-0.1,0.1-0.1,0.2
					l-0.5,1.4l-0.4-0.2L1884.6,385.6z"/>
			</g>
			<g class="st15">
				<path class="st16" d="M1910.4,393.3l1.7,0.6l-0.1,0.3l-1.3-0.5l-0.4,1.1l1.2,0.4l-0.1,0.3l-1.2-0.4l-0.5,1.5l-0.4-0.2
					L1910.4,393.3z"/>
				<path class="st16" d="M1912,396.3c-0.2,0.6,0.1,0.9,0.5,1.1c0.3,0.1,0.5,0.1,0.7,0.1l0,0.3c-0.2,0-0.5,0-0.8-0.1
					c-0.7-0.3-1-0.9-0.7-1.6c0.3-0.7,0.9-1.1,1.5-0.8c0.8,0.3,0.7,1,0.6,1.4c0,0.1-0.1,0.1-0.1,0.2L1912,396.3z M1913.4,396.4
					c0.1-0.3,0.1-0.7-0.3-0.9c-0.4-0.2-0.8,0.2-0.9,0.4L1913.4,396.4z"/>
				<path class="st16" d="M1915,394.8l0.4,0.1l-0.5,1.4l0,0c0.2-0.2,0.6-0.3,0.9-0.1c0.6,0.2,0.8,0.8,0.5,1.5c-0.3,0.8-1,1-1.5,0.8
					c-0.3-0.1-0.5-0.3-0.6-0.7l0,0l-0.2,0.4l-0.4-0.1c0.1-0.2,0.2-0.4,0.2-0.6L1915,394.8z M1914.5,397.4c0,0.1,0,0.1,0,0.1
					c0,0.3,0.1,0.6,0.4,0.7c0.4,0.2,0.8-0.1,1-0.6c0.2-0.4,0.1-0.9-0.4-1.1c-0.3-0.1-0.6,0-0.8,0.3c0,0-0.1,0.1-0.1,0.2
					L1914.5,397.4z"/>
			</g>
			<g class="st15">
				<path class="st16" d="M1940.8,406.4c0.1-0.4,0.3-1,0.4-1.4l0,0c-0.2,0.3-0.5,0.7-0.8,1.1l-1.1,1.3l-0.3-0.1l0-1.7
					c0-0.5,0-1,0.1-1.4l0,0c-0.1,0.4-0.4,0.9-0.6,1.4l-0.6,1.3l-0.4-0.1l1.4-3.1l0.5,0.2l0,1.7c0,0.5,0,0.8-0.1,1.2l0,0
					c0.2-0.3,0.4-0.6,0.7-1l1.1-1.3l0.5,0.2l-1,3.3l-0.4-0.1L1940.8,406.4z"/>
				<path class="st16" d="M1943.3,408.3c-0.1,0.2-0.1,0.4-0.2,0.6l-0.4-0.1l0.1-0.3l0,0c-0.2,0.1-0.5,0.2-0.8,0.1
					c-0.5-0.2-0.6-0.6-0.5-0.9c0.2-0.6,0.8-0.7,1.7-0.4l0-0.1c0.1-0.2,0.1-0.6-0.3-0.7c-0.2-0.1-0.5-0.1-0.7,0l0-0.3
					c0.2,0,0.5,0,0.8,0.1c0.7,0.3,0.7,0.8,0.5,1.3L1943.3,408.3z M1943.1,407.5c-0.4-0.2-1-0.3-1.2,0.2c-0.1,0.3,0,0.5,0.2,0.5
					c0.3,0.1,0.6,0,0.7-0.2c0,0,0-0.1,0.1-0.1L1943.1,407.5z"/>
				<path class="st16" d="M1944.3,407.5c0.1-0.3,0.2-0.5,0.2-0.7l0.4,0.1l-0.2,0.5l0,0c0.2-0.3,0.5-0.4,0.8-0.3c0,0,0.1,0,0.1,0
					l-0.1,0.4c0,0-0.1,0-0.1-0.1c-0.3-0.1-0.6,0-0.8,0.3c0,0-0.1,0.1-0.1,0.2l-0.4,1.2l-0.4-0.2L1944.3,407.5z"/>
			</g>
			<g class="st15">
				<path class="st16" d="M1795.9,353.2c-0.4,1.1-1.3,1.4-2.1,1.1c-0.8-0.3-1.2-1.2-0.8-2.2c0.4-1,1.2-1.5,2.1-1.1
					C1795.9,351.4,1796.2,352.3,1795.9,353.2z M1793.4,352.4c-0.2,0.7-0.1,1.4,0.6,1.7c0.7,0.2,1.2-0.2,1.5-1
					c0.2-0.6,0.1-1.4-0.5-1.7C1794.2,351.1,1793.6,351.7,1793.4,352.4z"/>
				<path class="st16" d="M1797.5,355.6c-0.1,0-0.4,0-0.7-0.1c-0.7-0.3-1-0.9-0.7-1.6c0.3-0.7,0.9-1,1.7-0.8
					c0.2,0.1,0.4,0.2,0.5,0.3l-0.2,0.3c-0.1-0.1-0.2-0.2-0.4-0.3c-0.5-0.2-1,0.1-1.1,0.6c-0.2,0.5,0,1,0.5,1.2
					c0.2,0.1,0.4,0.1,0.6,0.1L1797.5,355.6z"/>
				<path class="st16" d="M1799.6,353.2l-0.2,0.5l0.6,0.2l-0.1,0.3l-0.6-0.2l-0.5,1.2c-0.1,0.3-0.1,0.5,0.2,0.6c0.1,0,0.2,0,0.3,0.1
					l-0.1,0.3c-0.1,0-0.2,0-0.4-0.1c-0.2-0.1-0.3-0.2-0.4-0.3c-0.1-0.2,0-0.4,0.1-0.7l0.5-1.3l-0.4-0.1l0.1-0.3l0.4,0.1l0.2-0.4
					L1799.6,353.2z"/>
			</g>
			<g class="st15">
				<path class="st16" d="M1777.9,326.5l-1.1-0.4l-0.4,0.7c0.1,0,0.1,0,0.2,0.1c0.2,0.1,0.4,0.2,0.6,0.4c0.2,0.2,0.3,0.5,0.1,0.9
					c-0.2,0.6-0.8,0.8-1.5,0.6c-0.3-0.1-0.5-0.3-0.7-0.4l0.2-0.3c0.1,0.1,0.3,0.3,0.6,0.4c0.4,0.1,0.8,0,0.9-0.4
					c0.1-0.4,0-0.7-0.6-0.9c-0.2-0.1-0.3-0.1-0.4-0.1l0.7-1.3l1.4,0.5L1777.9,326.5z"/>
				<path class="st16" d="M1780,328.5c-0.4,1-0.9,1.4-1.6,1.2c-0.6-0.2-0.8-0.9-0.4-1.9c0.4-1,1-1.4,1.6-1.1
					C1780.2,326.9,1780.3,327.6,1780,328.5z M1778.4,328c-0.3,0.8-0.2,1.3,0.2,1.4c0.4,0.1,0.8-0.2,1-1c0.3-0.7,0.3-1.2-0.2-1.4
					C1779.1,326.8,1778.7,327.2,1778.4,328z"/>
			</g>
			<g class="st15">
				<path class="st16" d="M1780.7,316L1780.7,316l-0.6,0.1l0-0.3l0.8-0.1l0.3,0.1l-1.1,2.9l-0.4-0.1L1780.7,316z"/>
				<path class="st16" d="M1783.7,318.3c-0.4,1-0.9,1.4-1.6,1.2c-0.6-0.2-0.8-0.9-0.4-1.9c0.4-1,1-1.4,1.6-1.1
					C1783.9,316.7,1784.1,317.4,1783.7,318.3z M1782.1,317.8c-0.3,0.8-0.2,1.3,0.2,1.4c0.4,0.1,0.8-0.2,1-1c0.3-0.7,0.3-1.3-0.2-1.4
					C1782.8,316.7,1782.4,317,1782.1,317.8z"/>
				<path class="st16" d="M1786,319.2c-0.4,1-0.9,1.4-1.6,1.2c-0.6-0.2-0.8-0.9-0.4-1.9c0.4-1,1-1.4,1.6-1.1
					C1786.2,317.6,1786.4,318.2,1786,319.2z M1784.4,318.6c-0.3,0.8-0.2,1.3,0.2,1.4c0.4,0.1,0.8-0.2,1-1c0.3-0.7,0.3-1.3-0.2-1.4
					C1785.1,317.5,1784.7,317.8,1784.4,318.6z"/>
			</g>
			<g class="st15">
				<path class="st16" d="M1784.6,305.4L1784.6,305.4l-0.6,0.1l0-0.3l0.8-0.1l0.3,0.1l-1.1,2.9l-0.4-0.1L1784.6,305.4z"/>
				<path class="st16" d="M1787.8,306.5l-1.1-0.4l-0.4,0.7c0.1,0,0.1,0,0.2,0.1c0.2,0.1,0.4,0.2,0.6,0.4c0.2,0.2,0.3,0.5,0.1,0.9
					c-0.2,0.6-0.8,0.8-1.4,0.6c-0.3-0.1-0.6-0.3-0.7-0.4l0.2-0.3c0.1,0.1,0.3,0.3,0.6,0.4c0.4,0.1,0.8,0,0.9-0.4
					c0.1-0.4,0-0.7-0.6-0.9c-0.2-0.1-0.3-0.1-0.4-0.1l0.7-1.3l1.4,0.5L1787.8,306.5z"/>
				<path class="st16" d="M1789.9,308.6c-0.4,1-0.9,1.4-1.6,1.2c-0.6-0.2-0.8-0.9-0.4-1.8c0.4-1,1-1.4,1.6-1.1
					C1790.1,307,1790.2,307.6,1789.9,308.6z M1788.3,308c-0.3,0.8-0.2,1.3,0.2,1.4c0.4,0.1,0.8-0.3,1-1c0.3-0.7,0.3-1.3-0.2-1.4
					C1789,306.9,1788.6,307.2,1788.3,308z"/>
			</g>
			<g class="st15">
				<path class="st16" d="M1786.6,297.2l0.1-0.2l0.4-0.2c1-0.4,1.5-0.7,1.6-1.1c0.1-0.3,0.1-0.6-0.4-0.8c-0.3-0.1-0.5,0-0.7,0l0-0.3
					c0.3-0.1,0.6-0.1,0.9,0c0.6,0.2,0.7,0.8,0.6,1.2c-0.2,0.5-0.8,0.8-1.6,1.2l-0.3,0.1l0,0l1.3,0.5l-0.1,0.3L1786.6,297.2z"/>
				<path class="st16" d="M1791.4,297.3c-0.4,1-0.9,1.4-1.6,1.2c-0.6-0.2-0.8-0.9-0.4-1.9c0.4-1,1-1.4,1.6-1.1
					C1791.6,295.7,1791.7,296.4,1791.4,297.3z M1789.8,296.8c-0.3,0.8-0.2,1.3,0.2,1.4c0.4,0.1,0.8-0.3,1-1c0.3-0.7,0.3-1.3-0.2-1.4
					C1790.5,295.7,1790.1,296,1789.8,296.8z"/>
				<path class="st16" d="M1793.7,298.1c-0.4,1-0.9,1.4-1.6,1.2c-0.6-0.2-0.8-0.9-0.4-1.9c0.4-1,1-1.4,1.6-1.1
					C1793.9,296.5,1794,297.2,1793.7,298.1z M1792.1,297.6c-0.3,0.8-0.2,1.3,0.2,1.4c0.4,0.1,0.8-0.3,1-1c0.3-0.7,0.3-1.3-0.2-1.4
					C1792.8,296.5,1792.4,296.8,1792.1,297.6z"/>
			</g>
			<g class="st15">
				<path class="st16" d="M1790.4,286.8l0.1-0.2l0.4-0.2c1-0.4,1.5-0.7,1.6-1.1c0.1-0.3,0.1-0.6-0.4-0.8c-0.3-0.1-0.5,0-0.7,0l0-0.3
					c0.3-0.1,0.6-0.1,0.9,0c0.6,0.2,0.7,0.8,0.6,1.2c-0.2,0.5-0.8,0.8-1.6,1.2l-0.3,0.1l0,0l1.3,0.5l-0.1,0.3L1790.4,286.8z"/>
				<path class="st16" d="M1795.4,285.7l-1.1-0.4l-0.4,0.7c0.1,0,0.1,0,0.2,0.1c0.2,0.1,0.4,0.2,0.6,0.4c0.2,0.2,0.3,0.5,0.1,0.9
					c-0.2,0.6-0.8,0.8-1.4,0.6c-0.3-0.1-0.6-0.3-0.7-0.4l0.2-0.3c0.1,0.1,0.3,0.3,0.6,0.4c0.4,0.1,0.8,0,0.9-0.4
					c0.1-0.4,0-0.7-0.6-0.9c-0.2-0.1-0.3-0.1-0.4-0.1l0.7-1.3l1.4,0.5L1795.4,285.7z"/>
				<path class="st16" d="M1797.5,287.7c-0.4,1-0.9,1.4-1.6,1.2c-0.6-0.2-0.8-0.9-0.4-1.9c0.4-1,1-1.4,1.6-1.1
					C1797.7,286.1,1797.9,286.8,1797.5,287.7z M1795.9,287.2c-0.3,0.8-0.2,1.3,0.2,1.4c0.4,0.1,0.8-0.3,1-1c0.3-0.7,0.3-1.3-0.2-1.4
					C1796.6,286,1796.2,286.4,1795.9,287.2z"/>
			</g>
			<g class="st15">
				<path class="st16" d="M1794.5,276c0.1,0.1,0.3,0.3,0.6,0.4c0.5,0.2,0.8-0.1,0.9-0.3c0.2-0.4-0.2-0.7-0.5-0.9l-0.2-0.1l0.1-0.3
					l0.2,0.1c0.3,0.1,0.7,0.1,0.8-0.3c0.1-0.2,0-0.5-0.4-0.6c-0.2-0.1-0.5-0.1-0.7,0l0-0.3c0.2-0.1,0.5-0.1,0.8,0
					c0.6,0.2,0.7,0.7,0.6,1c-0.1,0.3-0.4,0.5-0.8,0.5l0,0c0.3,0.2,0.5,0.6,0.4,1c-0.2,0.5-0.7,0.7-1.4,0.5c-0.3-0.1-0.6-0.3-0.7-0.5
					L1794.5,276z"/>
				<path class="st16" d="M1799,276.5c-0.4,1-0.9,1.4-1.6,1.2c-0.6-0.2-0.8-0.9-0.4-1.8c0.4-1,1-1.4,1.6-1.2
					C1799.2,274.9,1799.3,275.6,1799,276.5z M1797.4,276c-0.3,0.8-0.2,1.3,0.2,1.4c0.4,0.1,0.8-0.3,1-1c0.3-0.7,0.3-1.3-0.2-1.4
					C1798.1,274.8,1797.7,275.2,1797.4,276z"/>
				<path class="st16" d="M1801.3,277.3c-0.4,1-0.9,1.4-1.6,1.2c-0.6-0.2-0.8-0.9-0.4-1.8c0.4-1,1-1.4,1.6-1.2
					C1801.5,275.7,1801.6,276.4,1801.3,277.3z M1799.7,276.8c-0.3,0.8-0.2,1.3,0.2,1.4c0.4,0.1,0.8-0.3,1-1c0.3-0.7,0.3-1.3-0.2-1.4
					C1800.4,275.7,1800,276,1799.7,276.8z"/>
			</g>
			<g class="st15">
				<path class="st16" d="M1798.4,265.4c0.1,0.1,0.3,0.3,0.6,0.4c0.5,0.2,0.8-0.1,0.9-0.3c0.1-0.4-0.2-0.7-0.5-0.9l-0.2-0.1l0.1-0.3
					l0.2,0.1c0.3,0.1,0.7,0.1,0.8-0.3c0.1-0.2,0-0.5-0.4-0.6c-0.2-0.1-0.5-0.1-0.7,0l0-0.3c0.2-0.1,0.5-0.1,0.8,0.1
					c0.6,0.2,0.7,0.6,0.6,1c-0.1,0.3-0.4,0.5-0.8,0.5l0,0c0.3,0.2,0.5,0.6,0.4,1c-0.2,0.5-0.7,0.7-1.4,0.5c-0.3-0.1-0.6-0.3-0.7-0.5
					L1798.4,265.4z"/>
				<path class="st16" d="M1803.1,264.7l-1.1-0.4l-0.4,0.7c0.1,0,0.1,0,0.2,0.1c0.2,0.1,0.4,0.2,0.6,0.4c0.2,0.2,0.3,0.5,0.1,0.9
					c-0.2,0.6-0.8,0.8-1.4,0.6c-0.3-0.1-0.6-0.3-0.7-0.4l0.2-0.3c0.1,0.1,0.3,0.3,0.6,0.4c0.4,0.1,0.8,0,0.9-0.4
					c0.1-0.4,0-0.7-0.6-0.9c-0.2-0.1-0.3-0.1-0.4-0.1l0.7-1.3l1.4,0.5L1803.1,264.7z"/>
				<path class="st16" d="M1805.2,266.7c-0.4,1-0.9,1.4-1.6,1.2c-0.6-0.2-0.8-0.9-0.4-1.9c0.4-1,1-1.4,1.6-1.1
					C1805.4,265.1,1805.5,265.7,1805.2,266.7z M1803.6,266.1c-0.3,0.8-0.2,1.3,0.2,1.4c0.4,0.1,0.8-0.2,1-1c0.3-0.7,0.3-1.3-0.2-1.4
					C1804.3,265,1803.9,265.4,1803.6,266.1z"/>
			</g>
			<g class="st15">
				<path class="st16" d="M1803.2,255.7l0.3-0.8l-1.4-0.5l0.1-0.3l2-1.4l0.4,0.2l-0.7,1.8l0.4,0.1l-0.1,0.3l-0.4-0.1l-0.3,0.8
					L1803.2,255.7z M1803.6,254.6l0.4-1c0.1-0.2,0.1-0.3,0.2-0.4l0,0c-0.2,0.1-0.3,0.2-0.4,0.3l-1.1,0.7l0,0L1803.6,254.6z"/>
				<path class="st16" d="M1806.7,255.4c-0.4,1-0.9,1.4-1.6,1.2c-0.6-0.2-0.8-0.9-0.4-1.8c0.4-1,1-1.4,1.6-1.2
					C1806.9,253.7,1807.1,254.4,1806.7,255.4z M1805.1,254.8c-0.3,0.8-0.2,1.3,0.2,1.4c0.4,0.1,0.8-0.3,1-1c0.3-0.7,0.3-1.3-0.2-1.4
					C1805.8,253.7,1805.4,254,1805.1,254.8z"/>
				<path class="st16" d="M1809,256.2c-0.4,1-0.9,1.4-1.6,1.2c-0.6-0.2-0.8-0.9-0.4-1.8c0.4-1,1-1.4,1.6-1.2
					C1809.2,254.6,1809.4,255.3,1809,256.2z M1807.4,255.7c-0.3,0.8-0.2,1.3,0.2,1.4c0.4,0.1,0.8-0.3,1-1c0.3-0.7,0.3-1.3-0.2-1.4
					C1808.1,254.5,1807.7,254.9,1807.4,255.7z"/>
			</g>
			<g class="st15">
				<path class="st16" d="M1807.1,245l0.3-0.8l-1.4-0.5l0.1-0.3l2-1.4l0.4,0.2l-0.7,1.8l0.4,0.1l-0.1,0.3l-0.4-0.1l-0.3,0.8
					L1807.1,245z M1807.5,243.9l0.4-1c0.1-0.2,0.1-0.3,0.2-0.4l0,0c-0.2,0.1-0.3,0.2-0.4,0.3l-1.1,0.7l0,0L1807.5,243.9z"/>
				<path class="st16" d="M1810.8,243.5l-1.1-0.4l-0.4,0.7c0.1,0,0.1,0,0.2,0.1c0.2,0.1,0.4,0.2,0.6,0.4c0.2,0.2,0.3,0.5,0.1,0.9
					c-0.2,0.6-0.8,0.8-1.4,0.6c-0.3-0.1-0.6-0.3-0.7-0.4l0.2-0.3c0.1,0.1,0.3,0.3,0.6,0.4c0.4,0.1,0.8,0,0.9-0.4
					c0.1-0.4,0-0.7-0.6-1c-0.2-0.1-0.3-0.1-0.4-0.1l0.7-1.3l1.4,0.5L1810.8,243.5z"/>
				<path class="st16" d="M1812.9,245.5c-0.4,1-0.9,1.4-1.6,1.2c-0.6-0.2-0.8-0.9-0.4-1.8c0.4-1,1-1.4,1.6-1.1
					C1813.1,243.9,1813.3,244.6,1812.9,245.5z M1811.3,245c-0.3,0.8-0.2,1.3,0.2,1.4c0.4,0.1,0.8-0.3,1-1c0.3-0.7,0.3-1.3-0.2-1.4
					C1812,243.8,1811.6,244.2,1811.3,245z"/>
			</g>
			<g class="st15">
				<path class="st16" d="M1812.3,232.3l-1.1-0.4l-0.4,0.7c0.1,0,0.1,0,0.2,0.1c0.2,0.1,0.4,0.2,0.6,0.4c0.2,0.2,0.3,0.5,0.1,0.9
					c-0.2,0.6-0.8,0.8-1.5,0.6c-0.3-0.1-0.6-0.3-0.7-0.4l0.2-0.3c0.1,0.1,0.3,0.3,0.6,0.4c0.4,0.1,0.8,0,0.9-0.4
					c0.1-0.4,0-0.7-0.6-0.9c-0.2-0.1-0.3-0.1-0.4-0.1l0.7-1.3l1.4,0.5L1812.3,232.3z"/>
				<path class="st16" d="M1814.4,234.3c-0.4,1-0.9,1.4-1.6,1.2c-0.6-0.2-0.8-0.9-0.4-1.9c0.4-1,1-1.4,1.6-1.1
					C1814.6,232.7,1814.8,233.3,1814.4,234.3z M1812.8,233.7c-0.3,0.8-0.2,1.3,0.2,1.4c0.4,0.1,0.8-0.2,1-1c0.3-0.7,0.3-1.3-0.2-1.4
					C1813.5,232.6,1813.1,232.9,1812.8,233.7z"/>
				<path class="st16" d="M1816.7,235.1c-0.4,1-0.9,1.4-1.6,1.2c-0.6-0.2-0.8-0.9-0.4-1.9c0.4-1,1-1.4,1.6-1.1
					C1816.9,233.5,1817.1,234.2,1816.7,235.1z M1815.1,234.6c-0.3,0.8-0.2,1.3,0.2,1.4c0.4,0.1,0.8-0.2,1-1c0.3-0.7,0.3-1.3-0.2-1.4
					C1815.8,233.5,1815.4,233.8,1815.1,234.6z"/>
			</g>
		</g>
		<g>
			<polygon class="st8" points="2175.7,480.7 1987.2,411.8 2024.1,310.9 2024.9,311.2 1988.3,411.4 2176,479.9 2175.7,480.7 			"/>
			<polygon class="st9" points="2012.5,420.6 2011.7,420.4 2014,414.1 2014.8,414.4 2012.5,420.6 			"/>
			<polygon class="st9" points="2037.7,429.8 2037,429.6 2039.2,423.3 2040,423.6 2037.7,429.8 			"/>
			<polygon class="st9" points="2062.5,438.9 2061.7,438.6 2064,432.4 2064.8,432.7 2062.5,438.9 			"/>
			<polygon class="st9" points="2087.7,448.1 2087,447.8 2089.2,441.6 2090,441.9 2087.7,448.1 			"/>
			<polygon class="st9" points="2112.4,457.2 2111.7,456.9 2114,450.7 2114.7,450.9 2112.4,457.2 			"/>
			<polygon class="st9" points="2137.4,466.3 2136.7,466 2138.9,459.8 2139.7,460.1 2137.4,466.3 			"/>
			<polygon class="st10" points="2012.3,420.6 2011.9,420.4 2048.6,319.9 2049.1,320 2012.3,420.6 			"/>
			<polygon class="st10" points="2037.6,429.8 2037.1,429.6 2073.8,329.1 2074.3,329.2 2037.6,429.8 			"/>
			<polygon class="st10" points="2062.3,438.9 2061.9,438.7 2098.6,338.1 2099.1,338.3 2062.3,438.9 			"/>
			<polygon class="st10" points="2087.6,448.1 2087.1,447.9 2123.8,347.4 2124.3,347.5 2087.6,448.1 			"/>
			<polygon class="st10" points="2112.3,457.1 2111.8,456.9 2148.6,356.4 2149,356.5 2112.3,457.1 			"/>
			<polygon class="st10" points="2137.3,466.2 2136.8,466.1 2173.6,365.5 2174,365.7 2137.3,466.2 			"/>
			<polygon class="st11" points="2180.3,467.9 1989.8,398.3 1989.9,397.9 2180.5,467.5 2180.3,467.9 			"/>
			<polygon class="st11" points="2184.9,455.4 1994.3,385.8 1994.5,385.3 2185.1,454.9 2184.9,455.4 			"/>
			<polygon class="st11" points="2189.5,442.8 1998.9,373.2 1999.1,372.7 2189.7,442.4 2189.5,442.8 			"/>
			<polygon class="st11" points="2194.1,430.3 2003.5,360.6 2003.7,360.2 2194.3,429.8 2194.1,430.3 			"/>
			<polygon class="st11" points="2198.7,417.7 2008.1,348.1 2008.3,347.6 2198.9,417.3 2198.7,417.7 			"/>
			<polygon class="st11" points="2203.3,405.1 2012.7,335.5 2012.9,335.1 2203.4,404.7 2203.3,405.1 			"/>
			<polygon class="st11" points="2207.9,392.6 2017.3,323 2017.5,322.5 2208,392.1 2207.9,392.6 			"/>
			<polygon class="st11" points="2212.5,380 2021.9,310.4 2022,309.9 2212.6,379.6 2212.5,380 			"/>
			<g class="st15">
				<path class="st16" d="M2030.2,438l1.4-3.8l0.5,0.2l0.5,2.4c0.1,0.5,0.2,1,0.2,1.5l0,0c0.1-0.5,0.3-1,0.5-1.6l0.6-1.6l0.5,0.2
					l-1.4,3.8l-0.5-0.2l-0.5-2.4c-0.1-0.5-0.2-1.1-0.2-1.6l0,0c-0.1,0.5-0.3,1-0.5,1.6l-0.6,1.6L2030.2,438z"/>
				<path class="st16" d="M2036.9,438.8c-0.4,1-1.3,1.2-1.9,1c-0.7-0.3-1.1-1-0.8-1.9c0.3-0.9,1.1-1.2,1.9-1
					C2036.9,437.2,2037.2,438,2036.9,438.8z M2034.7,438.1c-0.2,0.6,0,1.2,0.4,1.4c0.5,0.2,1-0.1,1.2-0.8c0.2-0.5,0.2-1.1-0.4-1.4
					C2035.4,437.1,2034.9,437.5,2034.7,438.1z"/>
				<path class="st16" d="M2038.2,437.8l0,1.7c0,0.3,0,0.5,0,0.8l0,0c0.1-0.2,0.3-0.4,0.5-0.6l1.1-1.3l0.5,0.2l-2.1,2.4l-0.5-0.2
					l0-3.1L2038.2,437.8z"/>
			</g>
			<g class="st15">
				<path class="st16" d="M2056.2,443.2c0.3,0.1,0.7,0.2,1.1,0.3c0.7,0.3,1.2,0.6,1.4,1c0.2,0.5,0.3,1,0,1.6
					c-0.2,0.6-0.6,1.1-1.1,1.3c-0.5,0.2-1.2,0.2-1.9-0.1c-0.4-0.1-0.6-0.3-0.9-0.4L2056.2,443.2z M2055.4,446.8
					c0.1,0.1,0.3,0.1,0.5,0.2c1.1,0.4,1.8,0,2.2-1c0.3-0.9,0-1.7-1-2.1c-0.3-0.1-0.5-0.1-0.6-0.2L2055.4,446.8z"/>
				<path class="st16" d="M2059.4,447.2c-0.2,0.7,0.1,1.1,0.6,1.3c0.4,0.1,0.6,0.1,0.8,0.1l0,0.4c-0.2,0-0.5,0-1-0.1
					c-0.9-0.3-1.2-1.1-0.8-1.9c0.3-0.8,1-1.3,1.8-1c0.9,0.3,0.9,1.2,0.7,1.7c0,0.1-0.1,0.2-0.1,0.2L2059.4,447.2z M2061,447.3
					c0.1-0.3,0.2-0.9-0.4-1.1c-0.5-0.2-0.9,0.2-1.1,0.5L2061,447.3z"/>
				<path class="st16" d="M2063.5,450c-0.1,0-0.5,0-0.9-0.1c-0.8-0.3-1.2-1.1-0.9-1.9c0.3-0.9,1.1-1.3,2-0.9
					c0.3,0.1,0.5,0.3,0.6,0.4l-0.3,0.3c-0.1-0.1-0.3-0.2-0.5-0.3c-0.6-0.2-1.2,0.1-1.4,0.7c-0.2,0.6,0,1.2,0.6,1.4
					c0.3,0.1,0.5,0.1,0.7,0.1L2063.5,450z"/>
			</g>
			<g class="st15">
				<path class="st16" d="M2082.1,452.5l0.5,0.2l-0.9,2.6c-0.4,1-1,1.2-1.7,0.9c-0.2-0.1-0.4-0.2-0.5-0.3l0.2-0.4
					c0.1,0.1,0.2,0.2,0.4,0.2c0.5,0.2,0.8,0.1,1.1-0.7L2082.1,452.5z"/>
				<path class="st16" d="M2084.1,456.9c-0.1,0.2-0.2,0.5-0.2,0.7l-0.4-0.2l0.1-0.4l0,0c-0.2,0.2-0.6,0.3-1,0.1
					c-0.6-0.2-0.7-0.7-0.6-1.1c0.2-0.7,1-0.8,2-0.4l0-0.1c0.1-0.2,0.2-0.7-0.4-0.9c-0.3-0.1-0.6-0.1-0.8-0.1l0-0.4
					c0.3-0.1,0.7,0,1,0.1c0.9,0.3,0.8,1,0.6,1.5L2084.1,456.9z M2083.9,456c-0.5-0.2-1.2-0.3-1.4,0.2c-0.1,0.3,0,0.6,0.3,0.6
					c0.4,0.1,0.7,0,0.8-0.2c0,0,0.1-0.1,0.1-0.2L2083.9,456z"/>
				<path class="st16" d="M2085.5,455.9c0.1-0.3,0.2-0.5,0.2-0.8l0.4,0.2l-0.1,0.5l0,0c0.2-0.2,0.6-0.3,1.1-0.2
					c0.4,0.1,0.9,0.6,0.5,1.5l-0.6,1.6l-0.5-0.2l0.6-1.6c0.2-0.5,0.1-0.9-0.3-1.1c-0.3-0.1-0.7,0-0.9,0.3c0,0.1-0.1,0.1-0.1,0.2
					l-0.6,1.7l-0.5-0.2L2085.5,455.9z"/>
			</g>
			<g class="st15">
				<path class="st16" d="M2106.4,461.4l2.1,0.8l-0.2,0.4l-1.6-0.6l-0.5,1.3l1.5,0.5l-0.1,0.4l-1.5-0.5l-0.6,1.8l-0.5-0.2
					L2106.4,461.4z"/>
				<path class="st16" d="M2108.3,465c-0.2,0.7,0.1,1.1,0.6,1.3c0.4,0.1,0.6,0.1,0.8,0.1l0,0.4c-0.2,0-0.6,0-1-0.1
					c-0.9-0.3-1.1-1.1-0.8-1.9c0.3-0.8,1-1.3,1.8-1c0.9,0.3,0.9,1.2,0.7,1.7c0,0.1-0.1,0.2-0.1,0.2L2108.3,465z M2109.9,465.2
					c0.1-0.3,0.2-0.9-0.4-1.1c-0.5-0.2-0.9,0.2-1.1,0.5L2109.9,465.2z"/>
				<path class="st16" d="M2111.9,463.2l0.5,0.2l-0.6,1.7l0,0c0.3-0.2,0.7-0.3,1.1-0.2c0.7,0.3,1,1,0.7,1.8c-0.4,1-1.2,1.3-1.8,1
					c-0.4-0.1-0.7-0.4-0.7-0.9l0,0l-0.2,0.4l-0.4-0.2c0.1-0.2,0.2-0.5,0.3-0.7L2111.9,463.2z M2111.3,466.4c0,0.1,0,0.1,0,0.2
					c0,0.4,0.2,0.7,0.5,0.9c0.5,0.2,1-0.1,1.2-0.8c0.2-0.6,0.1-1.1-0.5-1.3c-0.3-0.1-0.8,0-1,0.3c0,0-0.1,0.1-0.1,0.2L2111.3,466.4z
					"/>
			</g>
			<g class="st15">
				<path class="st16" d="M2133.1,473.6c0.2-0.5,0.4-1.2,0.5-1.7l0,0c-0.3,0.4-0.6,0.8-1,1.3l-1.4,1.6l-0.4-0.1l0-2.1
					c0-0.6,0-1.2,0.1-1.7l0,0c-0.2,0.5-0.5,1.1-0.7,1.7l-0.7,1.6l-0.5-0.2l1.7-3.7l0.6,0.2l0,2.1c0,0.5,0,1-0.1,1.4l0,0
					c0.2-0.3,0.5-0.7,0.9-1.1l1.4-1.6l0.6,0.2l-1.2,3.9l-0.5-0.2L2133.1,473.6z"/>
				<path class="st16" d="M2136.1,475.9c-0.1,0.2-0.2,0.5-0.2,0.7l-0.4-0.2l0.1-0.4l0,0c-0.2,0.2-0.6,0.3-1,0.1
					c-0.6-0.2-0.7-0.7-0.6-1.1c0.2-0.7,1-0.8,2-0.4l0-0.1c0.1-0.2,0.2-0.7-0.4-0.9c-0.3-0.1-0.6-0.1-0.8-0.1l0-0.4
					c0.3-0.1,0.6,0,1,0.1c0.9,0.3,0.8,1,0.6,1.5L2136.1,475.9z M2135.8,475c-0.5-0.2-1.2-0.3-1.4,0.2c-0.1,0.3,0,0.5,0.3,0.6
					c0.4,0.1,0.7,0,0.8-0.2c0-0.1,0.1-0.1,0.1-0.2L2135.8,475z"/>
				<path class="st16" d="M2137.3,474.9c0.1-0.3,0.2-0.6,0.3-0.9l0.4,0.2l-0.2,0.5l0,0c0.3-0.3,0.7-0.4,1-0.3c0.1,0,0.1,0,0.1,0.1
					l-0.2,0.5c0,0-0.1,0-0.2-0.1c-0.4-0.1-0.7,0-0.9,0.4c0,0.1-0.1,0.1-0.1,0.2l-0.5,1.5l-0.5-0.2L2137.3,474.9z"/>
			</g>
			<polygon class="st9" points="2162.2,475.3 2161.5,475.1 2163.7,468.8 2164.5,469.1 2162.2,475.3 			"/>
			<polygon class="st10" points="2162.1,475.3 2161.6,475.1 2198.4,374.6 2198.8,374.7 2162.1,475.3 			"/>
			<g class="st15">
				<path class="st16" d="M2155.1,482.2l-0.8,1.1l-0.5-0.2l2.7-3.4l0.6,0.2l-0.1,4.3l-0.5-0.2l0-1.4L2155.1,482.2z M2156.5,482.3
					l0-1.2c0-0.3,0-0.5,0.1-0.8l0,0c-0.1,0.2-0.3,0.4-0.4,0.6l-0.8,1L2156.5,482.3z"/>
				<path class="st16" d="M2158.2,482.6c0.1-0.4,0.2-0.6,0.3-0.9l0.4,0.2l-0.1,0.5l0,0c0.3-0.3,0.7-0.3,1.2-0.2c0.7,0.2,1,1,0.7,1.8
					c-0.4,1-1.2,1.3-1.8,1c-0.4-0.1-0.6-0.4-0.7-0.8l0,0l-0.5,1.5l-0.5-0.2L2158.2,482.6z M2158.4,483.5c0,0.1,0,0.1,0,0.2
					c0,0.4,0.2,0.7,0.5,0.9c0.5,0.2,1-0.1,1.2-0.8c0.2-0.6,0.1-1.1-0.4-1.3c-0.3-0.1-0.8,0-1,0.3c0,0-0.1,0.1-0.1,0.2L2158.4,483.5z
					"/>
				<path class="st16" d="M2161.4,483.8c0.1-0.3,0.2-0.6,0.3-0.9l0.4,0.2l-0.2,0.5l0,0c0.3-0.3,0.7-0.4,1-0.3c0.1,0,0.1,0,0.1,0.1
					l-0.2,0.5c-0.1,0-0.1,0-0.2-0.1c-0.4-0.1-0.7,0-0.9,0.4c0,0.1-0.1,0.1-0.1,0.2l-0.5,1.5l-0.5-0.2L2161.4,483.8z"/>
			</g>
			<g class="st15">
				<path class="st16" d="M2008.2,427.7c-0.5,1.3-1.6,1.7-2.5,1.4c-1-0.4-1.4-1.4-1-2.6c0.4-1.2,1.5-1.7,2.5-1.4
					C2008.2,425.5,2008.6,426.5,2008.2,427.7z M2005.2,426.7c-0.3,0.8-0.1,1.7,0.7,2c0.8,0.3,1.5-0.3,1.8-1.1c0.3-0.8,0.2-1.7-0.7-2
					C2006.2,425.2,2005.5,425.8,2005.2,426.7z"/>
				<path class="st16" d="M2010.1,430.5c-0.1,0-0.5,0-0.9-0.1c-0.8-0.3-1.2-1.1-0.9-1.9c0.3-0.9,1.1-1.3,2-0.9
					c0.3,0.1,0.5,0.3,0.6,0.4l-0.2,0.3c-0.1-0.1-0.3-0.3-0.5-0.4c-0.6-0.2-1.2,0.1-1.4,0.7c-0.2,0.6,0,1.2,0.6,1.4
					c0.3,0.1,0.5,0.1,0.7,0.1L2010.1,430.5z"/>
				<path class="st16" d="M2012.6,427.6l-0.2,0.7l0.7,0.3l-0.1,0.4l-0.7-0.3l-0.5,1.5c-0.1,0.3-0.1,0.6,0.2,0.7
					c0.1,0.1,0.2,0.1,0.3,0.1l-0.1,0.4c-0.1,0-0.3,0-0.5-0.1c-0.2-0.1-0.4-0.2-0.5-0.4c-0.1-0.2,0-0.5,0.1-0.8l0.6-1.5l-0.4-0.2
					l0.1-0.4l0.4,0.2l0.2-0.5L2012.6,427.6z"/>
			</g>
			<g class="st15">
				<path class="st16" d="M1980.8,394.9c-0.4,1.2-1.1,1.7-1.9,1.4c-0.7-0.3-0.9-1.1-0.5-2.2c0.4-1.2,1.2-1.6,1.9-1.4
					C1981,393,1981.2,393.8,1980.8,394.9z M1978.9,394.3c-0.3,0.9-0.2,1.5,0.2,1.7c0.5,0.2,0.9-0.3,1.2-1.2c0.3-0.9,0.3-1.5-0.2-1.7
					C1979.7,393,1979.2,393.4,1978.9,394.3z"/>
				<path class="st16" d="M1980.1,397.5c0.2-0.3,0.6-0.8,0.8-1.2l0.5,0.1c-0.3,0.4-0.7,0.9-1,1.1L1980.1,397.5z"/>
				<path class="st16" d="M1984.7,396.4c-0.4,1.2-1.1,1.7-1.9,1.4c-0.7-0.3-0.9-1.1-0.5-2.2c0.4-1.2,1.2-1.6,1.9-1.4
					C1984.9,394.4,1985.1,395.2,1984.7,396.4z M1982.7,395.7c-0.3,0.9-0.2,1.5,0.2,1.7c0.5,0.2,0.9-0.3,1.2-1.2
					c0.3-0.9,0.3-1.5-0.2-1.7C1983.6,394.4,1983.1,394.8,1982.7,395.7z"/>
			</g>
			<g class="st15">
				<path class="st16" d="M1985.2,382.7c-0.4,1.2-1.1,1.7-1.9,1.4c-0.7-0.3-0.9-1-0.5-2.2c0.4-1.2,1.2-1.6,1.9-1.4
					C1985.5,380.8,1985.6,381.6,1985.2,382.7z M1983.3,382.1c-0.3,0.9-0.2,1.5,0.2,1.7c0.5,0.2,0.9-0.3,1.2-1.2
					c0.3-0.9,0.3-1.5-0.2-1.7C1984.1,380.8,1983.7,381.1,1983.3,382.1z"/>
				<path class="st16" d="M1984.6,385.3c0.2-0.3,0.6-0.8,0.8-1.2l0.6,0.1c-0.3,0.4-0.7,0.9-1,1.1L1984.6,385.3z"/>
				<path class="st16" d="M1989.4,382.8l-1.3-0.5l-0.5,0.8c0.1,0,0.2,0,0.3,0.1c0.3,0.1,0.5,0.3,0.7,0.5c0.2,0.2,0.3,0.6,0.2,1.1
					c-0.2,0.7-1,1-1.7,0.7c-0.4-0.1-0.7-0.4-0.8-0.5l0.2-0.3c0.1,0.1,0.4,0.3,0.7,0.5c0.4,0.2,0.9,0,1.1-0.4c0.2-0.5,0-0.9-0.7-1.1
					c-0.2-0.1-0.4-0.1-0.5-0.2l0.8-1.6l1.7,0.6L1989.4,382.8z"/>
			</g>
			<g class="st15">
				<path class="st16" d="M1989.1,368.2L1989.1,368.2l-0.7,0.1l0-0.4l0.9-0.1l0.4,0.1l-1.3,3.5l-0.5-0.2L1989.1,368.2z"/>
				<path class="st16" d="M1989.3,372.5c0.2-0.3,0.6-0.8,0.8-1.2l0.6,0.1c-0.3,0.4-0.7,0.9-1,1.1L1989.3,372.5z"/>
				<path class="st16" d="M1993.8,371.4c-0.4,1.2-1.1,1.7-1.9,1.4c-0.7-0.3-0.9-1.1-0.5-2.2c0.4-1.2,1.2-1.6,1.9-1.4
					C1994,369.5,1994.2,370.3,1993.8,371.4z M1991.8,370.8c-0.3,0.9-0.2,1.5,0.2,1.7c0.5,0.2,0.9-0.3,1.3-1.2
					c0.3-0.9,0.3-1.5-0.2-1.7C1992.7,369.4,1992.2,369.8,1991.8,370.8z"/>
			</g>
			<g class="st15">
				<path class="st16" d="M1993.6,355.8L1993.6,355.8l-0.7,0.1l0-0.4l0.9-0.1l0.4,0.1l-1.3,3.5l-0.5-0.2L1993.6,355.8z"/>
				<path class="st16" d="M1993.8,360.1c0.2-0.3,0.6-0.8,0.8-1.2l0.5,0.1c-0.3,0.4-0.7,0.9-1,1.1L1993.8,360.1z"/>
				<path class="st16" d="M1998.6,357.5l-1.3-0.5l-0.5,0.9c0.1,0,0.2,0,0.3,0.1c0.3,0.1,0.5,0.2,0.7,0.4c0.2,0.3,0.3,0.7,0.2,1.1
					c-0.3,0.7-1,1-1.7,0.7c-0.4-0.1-0.7-0.4-0.8-0.5l0.2-0.3c0.1,0.1,0.4,0.3,0.7,0.5c0.4,0.2,0.9,0,1.1-0.5c0.2-0.5,0-0.9-0.7-1.1
					c-0.2-0.1-0.4-0.1-0.5-0.2l0.8-1.6l1.7,0.6L1998.6,357.5z"/>
			</g>
			<g class="st15">
				<path class="st16" d="M1996.1,345.9l0.1-0.3l0.5-0.2c1.2-0.5,1.8-0.8,2-1.4c0.1-0.4,0.1-0.8-0.4-0.9c-0.3-0.1-0.6,0-0.9,0l0-0.4
					c0.3-0.1,0.7-0.1,1.1,0c0.8,0.3,0.9,0.9,0.7,1.4c-0.2,0.6-0.9,1-1.9,1.4l-0.4,0.2l0,0l1.6,0.6l-0.1,0.4L1996.1,345.9z"/>
				<path class="st16" d="M1998.4,347.5c0.2-0.3,0.6-0.8,0.8-1.2l0.5,0.1c-0.3,0.4-0.7,0.9-1,1.1L1998.4,347.5z"/>
				<path class="st16" d="M2002.9,346.3c-0.4,1.2-1.1,1.7-1.9,1.4c-0.7-0.3-0.9-1-0.5-2.2c0.4-1.2,1.2-1.6,1.9-1.4
					C2003.1,344.4,2003.3,345.2,2002.9,346.3z M2001,345.7c-0.3,0.9-0.2,1.5,0.2,1.7c0.5,0.2,0.9-0.3,1.2-1.2
					c0.3-0.9,0.3-1.5-0.2-1.7C2001.8,344.4,2001.3,344.8,2001,345.7z"/>
			</g>
			<g class="st15">
				<path class="st16" d="M2000.6,333.4l0.1-0.3l0.5-0.2c1.2-0.5,1.8-0.8,2-1.3c0.1-0.4,0.1-0.7-0.4-0.9c-0.3-0.1-0.6,0-0.8,0l0-0.4
					c0.3-0.1,0.7-0.1,1.1,0c0.8,0.3,0.9,0.9,0.7,1.4c-0.2,0.7-0.9,1-1.9,1.4l-0.4,0.1l0,0l1.6,0.6l-0.1,0.4L2000.6,333.4z"/>
				<path class="st16" d="M2003,335c0.2-0.3,0.6-0.8,0.8-1.2l0.5,0.1c-0.3,0.4-0.7,0.9-1,1.1L2003,335z"/>
				<path class="st16" d="M2007.7,332.5l-1.3-0.5l-0.5,0.9c0.1,0,0.2,0,0.3,0.1c0.3,0.1,0.5,0.2,0.7,0.5c0.2,0.3,0.3,0.7,0.2,1.1
					c-0.3,0.7-1,1-1.7,0.7c-0.4-0.1-0.7-0.4-0.8-0.5l0.2-0.3c0.1,0.1,0.4,0.4,0.7,0.5c0.4,0.2,0.9,0,1.1-0.5c0.2-0.5,0-0.9-0.7-1.1
					c-0.2-0.1-0.4-0.1-0.5-0.2l0.8-1.6l1.7,0.6L2007.7,332.5z"/>
			</g>
			<g class="st15">
				<path class="st16" d="M2005.6,320.1c0.1,0.1,0.4,0.4,0.7,0.5c0.6,0.2,0.9-0.1,1-0.4c0.2-0.5-0.2-0.9-0.7-1l-0.3-0.1l0.1-0.4
					l0.3,0.1c0.3,0.1,0.9,0.1,1-0.3c0.1-0.3,0-0.6-0.4-0.8c-0.3-0.1-0.6-0.1-0.8,0l0-0.4c0.2-0.1,0.6-0.1,1,0.1
					c0.7,0.3,0.9,0.8,0.7,1.2c-0.1,0.4-0.5,0.6-0.9,0.6l0,0c0.4,0.2,0.6,0.7,0.5,1.2c-0.2,0.6-0.8,0.9-1.7,0.6
					c-0.4-0.1-0.7-0.4-0.8-0.6L2005.6,320.1z"/>
				<path class="st16" d="M2007.6,322.3c0.2-0.3,0.6-0.8,0.8-1.2l0.5,0.1c-0.3,0.4-0.7,0.9-1,1.1L2007.6,322.3z"/>
				<path class="st16" d="M2012.1,321.1c-0.4,1.2-1.1,1.7-1.9,1.4c-0.7-0.3-0.9-1.1-0.5-2.2c0.4-1.2,1.2-1.6,1.9-1.4
					C2012.4,319.2,2012.6,320,2012.1,321.1z M2010.2,320.5c-0.3,0.9-0.2,1.5,0.2,1.7c0.5,0.2,0.9-0.3,1.2-1.2
					c0.3-0.9,0.3-1.5-0.2-1.7C2011.1,319.1,2010.6,319.5,2010.2,320.5z"/>
			</g>
			<g class="st15">
				<path class="st16" d="M2010.2,307.5c0.1,0.1,0.4,0.4,0.7,0.5c0.6,0.2,0.9-0.1,1-0.4c0.2-0.5-0.2-0.9-0.7-1l-0.3-0.1l0.1-0.4
					l0.3,0.1c0.3,0.1,0.9,0.1,1-0.3c0.1-0.3,0-0.6-0.4-0.8c-0.3-0.1-0.6-0.1-0.8,0l0-0.4c0.2-0.1,0.6-0.1,1,0.1
					c0.7,0.3,0.9,0.8,0.7,1.2c-0.1,0.4-0.5,0.6-0.9,0.6l0,0c0.4,0.2,0.6,0.7,0.5,1.2c-0.2,0.6-0.8,0.9-1.7,0.6
					c-0.4-0.1-0.7-0.4-0.8-0.6L2010.2,307.5z"/>
				<path class="st16" d="M2012.2,309.7c0.2-0.3,0.6-0.8,0.8-1.2l0.5,0.1c-0.3,0.4-0.7,0.9-1,1.1L2012.2,309.7z"/>
				<path class="st16" d="M2017,307.1l-1.3-0.5l-0.5,0.8c0.1,0,0.2,0,0.3,0.1c0.3,0.1,0.5,0.2,0.7,0.5c0.2,0.2,0.3,0.6,0.2,1.1
					c-0.2,0.7-1,1-1.7,0.7c-0.4-0.1-0.7-0.4-0.8-0.5l0.2-0.3c0.1,0.1,0.4,0.3,0.7,0.5c0.4,0.2,0.9,0,1.1-0.5c0.2-0.5,0-0.9-0.7-1.1
					c-0.2-0.1-0.4-0.1-0.5-0.2l0.8-1.6l1.7,0.6L2017,307.1z"/>
			</g>
			
				<rect x="1983.2" y="371" transform="matrix(0.3432 -0.9393 0.9393 0.3432 975.7247 2153.2451)" class="st12" width="88.5" height="16"/>
			
				<rect x="1992.4" y="384.2" transform="matrix(0.3432 -0.9393 0.9393 0.3432 960.1767 2157.3806)" class="st13" width="60.4" height="16"/>
			
				<rect x="2005.7" y="403.3" transform="matrix(0.3432 -0.9393 0.9393 0.3432 937.6702 2163.3665)" class="st14" width="19.8" height="16"/>
			
				<rect x="2016" y="391.4" transform="matrix(0.3432 -0.9393 0.9393 0.3432 970.2228 2186.23)" class="st13" width="64.4" height="16"/>
			
				<rect x="2034" y="417.1" transform="matrix(0.3432 -0.9393 0.9393 0.3432 939.9526 2194.281)" class="st14" width="9.8" height="16"/>
			
				<rect x="2042.7" y="402.9" transform="matrix(0.3432 -0.9393 0.9393 0.3432 975.2393 2216.3916)" class="st12" width="59.4" height="16"/>
			
				<rect x="2046.3" y="408.1" transform="matrix(0.3432 -0.9393 0.9393 0.3432 969.1392 2218.0142)" class="st13" width="48.4" height="16"/>
			
				<rect x="2056.3" y="422.5" transform="matrix(0.3432 -0.9393 0.9393 0.3432 952.1919 2222.522)" class="st14" width="17.8" height="16"/>
			
				<rect x="2068.4" y="413.2" transform="matrix(0.3432 -0.9393 0.9393 0.3432 981.6757 2246.1975)" class="st12" width="56.9" height="16"/>
			
				<rect x="2070.1" y="415.6" transform="matrix(0.3432 -0.9393 0.9393 0.3432 978.9 2246.936)" class="st13" width="51.9" height="16"/>
			
				<rect x="2077.7" y="426.4" transform="matrix(0.3432 -0.9393 0.9393 0.3432 966.12 2250.3354)" class="st14" width="28.8" height="16"/>
			
				<rect x="2090.6" y="418.3" transform="matrix(0.3432 -0.9393 0.9393 0.3432 994.231 2274.3823)" class="st12" width="65.4" height="16"/>
			
				<rect x="2093.6" y="422.6" transform="matrix(0.3432 -0.9393 0.9393 0.3432 989.2316 2275.7122)" class="st13" width="56.4" height="16"/>
			
				<rect x="2104.6" y="438.3" transform="matrix(0.3432 -0.9393 0.9393 0.3432 970.6289 2280.6594)" class="st14" width="22.8" height="16"/>
			
				<rect x="2108" y="416.6" transform="matrix(0.3432 -0.9393 0.9393 0.3432 1014.7639 2300.376)" class="st12" width="88.5" height="16"/>
			
				<rect x="2116.1" y="428.1" transform="matrix(0.3432 -0.9393 0.9393 0.3432 1001.1548 2303.9954)" class="st13" width="63.9" height="16"/>
			
				<rect x="2126.8" y="443.5" transform="matrix(0.3432 -0.9393 0.9393 0.3432 983.1008 2308.7964)" class="st14" width="31.3" height="16"/>
			
				<rect x="2129.8" y="421.2" transform="matrix(0.3432 -0.9393 0.9393 0.3432 1027.9412 2328.458)" class="st12" width="98" height="16"/>
			
				<rect x="2134.4" y="427.8" transform="matrix(0.3432 -0.9393 0.9393 0.3432 1020.1627 2330.5269)" class="st13" width="84" height="16"/>
			
				<rect x="2147.8" y="446.9" transform="matrix(0.3432 -0.9393 0.9393 0.3432 997.667 2336.5095)" class="st14" width="43.4" height="16"/>
		</g>
		
			<rect x="1947.2" y="253.2" transform="matrix(0.3432 -0.9393 0.9393 0.3432 839.5548 2146.2988)" class="st1" width="14.4" height="439.3"/>
		
			<rect x="1938.5" y="276.9" transform="matrix(0.3432 -0.9393 0.9393 0.3432 811.6286 2153.7244)" class="st1" width="14.4" height="439.3"/>
		
			<rect x="1955.9" y="229.5" transform="matrix(0.3432 -0.9393 0.9393 0.3432 867.4791 2138.8704)" class="st1" width="14.4" height="439.3"/>
	</g>
	<g>
		<g>
			<g>
				<g>
					<g>
						
							<rect x="1571.4" y="261" transform="matrix(0.2456 -0.9694 0.9694 0.2456 950.9159 2244.8811)" class="st0" width="692.5" height="501.1"/>
						<g>
							
								<rect x="1764.1" y="515.5" transform="matrix(0.2456 -0.9694 0.9694 0.2456 732.5264 2187.5298)" class="st1" width="15" height="215.3"/>
							
								<rect x="1758.4" y="538.1" transform="matrix(0.2455 -0.9694 0.9694 0.2455 706.3077 2199.0364)" class="st1" width="15" height="215.3"/>
							
								<rect x="1752.7" y="560.7" transform="matrix(0.2456 -0.9694 0.9694 0.2456 680.0698 2210.5295)" class="st1" width="15" height="215.3"/>
							
								<rect x="1746.9" y="583.3" transform="matrix(0.2456 -0.9694 0.9694 0.2456 653.834 2222.0251)" class="st1" width="15" height="215.3"/>
							
								<rect x="1741.2" y="605.9" transform="matrix(0.2456 -0.9694 0.9694 0.2456 627.6198 2233.5325)" class="st1" width="15" height="215.3"/>
							
								<rect x="1735.5" y="628.5" transform="matrix(0.2455 -0.9694 0.9694 0.2455 601.4 2245.0422)" class="st1" width="15" height="215.3"/>
							
								<rect x="1729.8" y="651.1" transform="matrix(0.2456 -0.9694 0.9694 0.2456 575.161 2256.5337)" class="st1" width="15" height="215.3"/>
							
								<rect x="1724" y="673.7" transform="matrix(0.2456 -0.9694 0.9694 0.2456 548.9315 2268.0347)" class="st1" width="15" height="215.3"/>
						</g>
						<g>
							
								<rect x="1995.5" y="574.1" transform="matrix(0.2456 -0.9694 0.9694 0.2456 850.2897 2456.0916)" class="st1" width="15" height="215.3"/>
							
								<rect x="1989.8" y="596.7" transform="matrix(0.2456 -0.9694 0.9694 0.2456 824.0616 2467.5923)" class="st1" width="15" height="215.3"/>
							
								<rect x="1984.1" y="619.3" transform="matrix(0.2456 -0.9694 0.9694 0.2456 797.8386 2479.0957)" class="st1" width="15" height="215.3"/>
							
								<rect x="1978.4" y="641.9" transform="matrix(0.2456 -0.9694 0.9694 0.2456 771.6075 2490.5945)" class="st1" width="15" height="215.3"/>
							
								<rect x="1972.6" y="664.5" transform="matrix(0.2456 -0.9694 0.9694 0.2456 745.3799 2502.0928)" class="st1" width="15" height="215.3"/>
							
								<rect x="1966.9" y="687.1" transform="matrix(0.2456 -0.9694 0.9694 0.2456 719.1588 2513.6001)" class="st1" width="15" height="215.3"/>
							
								<rect x="1961.2" y="709.7" transform="matrix(0.2456 -0.9694 0.9694 0.2456 692.9353 2525.104)" class="st1" width="15" height="215.3"/>
							
								<rect x="1955.5" y="732.3" transform="matrix(0.2456 -0.9694 0.9694 0.2456 666.7047 2536.604)" class="st1" width="15" height="215.3"/>
						</g>
						
							<rect x="1690.9" y="496.4" transform="matrix(0.2455 -0.9694 0.9694 0.2455 788.2819 2045.3027)" class="st2" width="34.4" height="39.6"/>
						
							<rect x="1678.6" y="544.9" transform="matrix(0.2456 -0.9694 0.9694 0.2456 732.0101 2069.9397)" class="st3" width="34.4" height="39.6"/>
						
							<rect x="1915.7" y="553.4" transform="matrix(0.2455 -0.9694 0.9694 0.2455 902.663 2306.1838)" class="st4" width="34.4" height="39.6"/>
						
							<rect x="1903.5" y="601.8" transform="matrix(0.2456 -0.9694 0.9694 0.2456 846.4142 2330.8325)" class="st5" width="34.4" height="39.6"/>
						
							<rect x="1763.6" y="509.3" transform="matrix(0.2455 -0.9694 0.9694 0.2455 819.4817 2118.1541)" class="st6" width="14" height="46.6"/>
						
							<rect x="1751.6" y="558.7" transform="matrix(0.2455 -0.9694 0.9694 0.2455 762.1085 2143.313)" class="st6" width="12.9" height="46.6"/>
						
							<rect x="1983.8" y="565.1" transform="matrix(0.2456 -0.9694 0.9694 0.2456 931.5348 2373.6917)" class="st6" width="14" height="46.6"/>
						
							<rect x="1971.8" y="614.5" transform="matrix(0.2456 -0.9694 0.9694 0.2456 874.1579 2398.8472)" class="st6" width="12.9" height="46.6"/>
					</g>
				</g>
			</g>
			
				<rect x="1966.2" y="-1.4" transform="matrix(0.2456 -0.9694 0.9694 0.2456 1288.0542 2100.0342)" class="st3" width="54.1" height="447.8"/>
		</g>
		
			<rect x="1942.8" y="181.1" transform="matrix(0.2456 -0.9694 0.9694 0.2456 1074.489 2199.5022)" class="st1" width="15" height="456.8"/>
		
			<rect x="1936.9" y="204.4" transform="matrix(0.2456 -0.9694 0.9694 0.2456 1047.3672 2211.3965)" class="st1" width="15" height="456.8"/>
		
			<rect x="1931" y="227.8" transform="matrix(0.2456 -0.9694 0.9694 0.2456 1020.237 2223.2864)" class="st1" width="15" height="456.8"/>
		
			<rect x="1925" y="251.2" transform="matrix(0.2456 -0.9694 0.9694 0.2456 993.1199 2235.1826)" class="st1" width="15" height="456.8"/>
		
			<rect x="1919.1" y="274.6" transform="matrix(0.2456 -0.9694 0.9694 0.2456 965.9993 2247.0779)" class="st1" width="15" height="456.8"/>
		
			<rect x="1913.2" y="297.9" transform="matrix(0.2456 -0.9694 0.9694 0.2456 938.875 2258.97)" class="st1" width="15" height="456.8"/>
		
			<rect x="1954.6" y="134.3" transform="matrix(0.2456 -0.9694 0.9694 0.2456 1128.7303 2175.7131)" class="st1" width="15" height="456.8"/>
		
			<rect x="1948.7" y="157.7" transform="matrix(0.2456 -0.9694 0.9694 0.2456 1101.6101 2187.6077)" class="st1" width="15" height="456.8"/>
		
			<rect x="1751.6" y="256.9" transform="matrix(0.2456 -0.9694 0.9694 0.2456 1066.2491 1923.3719)" class="st3" width="34.4" height="39.6"/>
		
			<rect x="1976.4" y="313.8" transform="matrix(0.2455 -0.9694 0.9694 0.2455 1180.6624 2184.2705)" class="st5" width="34.4" height="39.6"/>
		
			<rect x="1824.5" y="270.7" transform="matrix(0.2455 -0.9694 0.9694 0.2455 1096.3513 1996.7461)" class="st6" width="12.9" height="46.6"/>
		
			<rect x="2044.7" y="326.5" transform="matrix(0.2455 -0.9694 0.9694 0.2455 1208.4054 2252.2839)" class="st6" width="12.9" height="46.6"/>
		
			<rect x="1978.6" y="39.9" transform="matrix(0.2456 -0.9694 0.9694 0.2456 1238.3304 2127.6558)" class="st1" width="15" height="456.8"/>
		
			<rect x="1972.6" y="63.3" transform="matrix(0.2456 -0.9694 0.9694 0.2456 1211.2031 2139.5476)" class="st1" width="15" height="456.8"/>
	</g>
	<g>
		<g>
			<g>
				<path class="st17" d="M396.6,813.4h1021.1c8.3,0,15.1-6.8,15.1-15.1V213.6c0-8.3-6.8-15.1-15.1-15.1h-52.9v15.3h-62.9v-15.3
					H516.5v15.3h-62.9v-15.3h-57c-8.3,0-15.1,6.8-15.1,15.1v584.7C381.5,806.6,388.3,813.4,396.6,813.4z"/>
				<rect x="456.1" y="179.8" class="st17" width="57.8" height="18.6"/>
				<rect x="456.1" y="198.5" class="st17" width="57.8" height="12.8"/>
				<rect x="1304.4" y="179.8" class="st17" width="57.8" height="18.6"/>
				<rect x="1304.4" y="198.5" class="st17" width="57.8" height="12.8"/>
			</g>
			<path class="st18" d="M1526,39c25.1-36.5-12.6-39-12.6-39H289.9c-55.3,2.5,89.3,187.4,89.3,187.4h1051.3"/>
			<rect x="746.3" y="620.6" class="st19" width="328.3" height="140.1"/>
			<rect x="914.3" y="765.6" class="st19" width="160.2" height="31.4"/>
			<rect x="746.3" y="765.7" class="st19" width="160.2" height="31.1"/>
			<g>
				<g>
					<g>
						<path class="st20" d="M1322.5,562.9c0-4.4,3.6-8,8-8h33c4.4,0,8,3.6,8,8v33c0,4.4-3.6,8-8,8h-33c-4.4,0-8-3.6-8-8V562.9z"/>
					</g>
					<g>
						<path class="st20" d="M1259.6,562.9c0-4.4,3.6-8,8-8h33c4.4,0,8,3.6,8,8v33c0,4.4-3.6,8-8,8h-33c-4.4,0-8-3.6-8-8V562.9z"/>
					</g>
					<g>
						<path class="st20" d="M1197.1,562.9c0-4.4,3.6-8,8-8h33c4.4,0,8,3.6,8,8v33c0,4.4-3.6,8-8,8h-33c-4.4,0-8-3.6-8-8V562.9z"/>
					</g>
					<g>
						<path class="st20" d="M1134.9,562.9c0-4.4,3.6-8,8-8h33c4.4,0,8,3.6,8,8v33c0,4.4-3.6,8-8,8h-33c-4.4,0-8-3.6-8-8V562.9z"/>
					</g>
					<g>
						<path class="st20" d="M1071.8,562.9c0-4.4,3.6-8,8-8h33c4.4,0,8,3.6,8,8v33c0,4.4-3.6,8-8,8h-33c-4.4,0-8-3.6-8-8V562.9z"/>
					</g>
					<g>
						<path class="st20" d="M1009.9,562.9c0-4.4,3.6-8,8-8h33c4.4,0,8,3.6,8,8v33c0,4.4-3.6,8-8,8h-33c-4.4,0-8-3.6-8-8V562.9z"/>
					</g>
					<g>
						<path class="st20" d="M946.7,562.9c0-4.4,3.6-8,8-8h33c4.4,0,8,3.6,8,8v33c0,4.4-3.6,8-8,8h-33c-4.4,0-8-3.6-8-8V562.9z"/>
					</g>
					<g>
						<path class="st20" d="M884.2,562.9c0-4.4,3.6-8,8-8h33c4.4,0,8,3.6,8,8v33c0,4.4-3.6,8-8,8h-33c-4.4,0-8-3.6-8-8V562.9z"/>
					</g>
					<g>
						<path class="st20" d="M821.7,562.9c0-4.4,3.6-8,8-8h33c4.4,0,8,3.6,8,8v33c0,4.4-3.6,8-8,8h-33c-4.4,0-8-3.6-8-8V562.9z"/>
					</g>
					<g>
						<path class="st20" d="M759.9,562.9c0-4.4,3.6-8,8-8h33c4.4,0,8,3.6,8,8v33c0,4.4-3.6,8-8,8h-33c-4.4,0-8-3.6-8-8V562.9z"/>
					</g>
					<g>
						<path class="st20" d="M697.1,562.9c0-4.4,3.6-8,8-8h33c4.4,0,8,3.6,8,8v33c0,4.4-3.6,8-8,8h-33c-4.4,0-8-3.6-8-8V562.9z"/>
					</g>
					<g>
						<path class="st20" d="M633.6,562.9c0-4.4,3.6-8,8-8h33c4.4,0,8,3.6,8,8v33c0,4.4-3.6,8-8,8h-33c-4.4,0-8-3.6-8-8V562.9z"/>
					</g>
					<g>
						<path class="st20" d="M571,562.9c0-4.4,3.6-8,8-8h33c4.4,0,8,3.6,8,8v33c0,4.4-3.6,8-8,8h-33c-4.4,0-8-3.6-8-8V562.9z"/>
					</g>
					<g>
						<path class="st20" d="M507.7,562.9c0-4.4,3.6-8,8-8h33c4.4,0,8,3.6,8,8v33c0,4.4-3.6,8-8,8h-33c-4.4,0-8-3.6-8-8V562.9z"/>
					</g>
					<g>
						<path class="st20" d="M446,562.9c0-4.4,3.6-8,8-8h33c4.4,0,8,3.6,8,8v33c0,4.4-3.6,8-8,8h-33c-4.4,0-8-3.6-8-8V562.9z"/>
					</g>
					<g>
						<path class="st20" d="M1322.5,502.6c0-4.4,3.6-8,8-8h33c4.4,0,8,3.6,8,8v33c0,4.4-3.6,8-8,8h-33c-4.4,0-8-3.6-8-8V502.6z"/>
					</g>
					<g>
						<path class="st20" d="M1259.6,502.6c0-4.4,3.6-8,8-8h33c4.4,0,8,3.6,8,8v33c0,4.4-3.6,8-8,8h-33c-4.4,0-8-3.6-8-8V502.6z"/>
					</g>
					<g>
						<path class="st20" d="M1197.1,502.6c0-4.4,3.6-8,8-8h33c4.4,0,8,3.6,8,8v33c0,4.4-3.6,8-8,8h-33c-4.4,0-8-3.6-8-8V502.6z"/>
					</g>
					<g>
						<path class="st20" d="M1134.9,502.6c0-4.4,3.6-8,8-8h33c4.4,0,8,3.6,8,8v33c0,4.4-3.6,8-8,8h-33c-4.4,0-8-3.6-8-8V502.6z"/>
					</g>
					<g>
						<path class="st20" d="M1071.8,502.6c0-4.4,3.6-8,8-8h33c4.4,0,8,3.6,8,8v33c0,4.4-3.6,8-8,8h-33c-4.4,0-8-3.6-8-8V502.6z"/>
					</g>
					<g>
						<path class="st20" d="M1009.9,502.6c0-4.4,3.6-8,8-8h33c4.4,0,8,3.6,8,8v33c0,4.4-3.6,8-8,8h-33c-4.4,0-8-3.6-8-8V502.6z"/>
					</g>
					<g>
						<path class="st20" d="M946.7,502.6c0-4.4,3.6-8,8-8h33c4.4,0,8,3.6,8,8v33c0,4.4-3.6,8-8,8h-33c-4.4,0-8-3.6-8-8V502.6z"/>
					</g>
					<g>
						<path class="st20" d="M884.2,502.6c0-4.4,3.6-8,8-8h33c4.4,0,8,3.6,8,8v33c0,4.4-3.6,8-8,8h-33c-4.4,0-8-3.6-8-8V502.6z"/>
					</g>
					<g>
						<path class="st20" d="M821.7,502.6c0-4.4,3.6-8,8-8h33c4.4,0,8,3.6,8,8v33c0,4.4-3.6,8-8,8h-33c-4.4,0-8-3.6-8-8V502.6z"/>
					</g>
					<g>
						<path class="st20" d="M759.9,502.6c0-4.4,3.6-8,8-8h33c4.4,0,8,3.6,8,8v33c0,4.4-3.6,8-8,8h-33c-4.4,0-8-3.6-8-8V502.6z"/>
					</g>
					<g>
						<path class="st20" d="M697.1,502.6c0-4.4,3.6-8,8-8h33c4.4,0,8,3.6,8,8v33c0,4.4-3.6,8-8,8h-33c-4.4,0-8-3.6-8-8V502.6z"/>
					</g>
					<g>
						<path class="st20" d="M633.6,502.6c0-4.4,3.6-8,8-8h33c4.4,0,8,3.6,8,8v33c0,4.4-3.6,8-8,8h-33c-4.4,0-8-3.6-8-8V502.6z"/>
					</g>
					<g>
						<path class="st20" d="M571,502.6c0-4.4,3.6-8,8-8h33c4.4,0,8,3.6,8,8v33c0,4.4-3.6,8-8,8h-33c-4.4,0-8-3.6-8-8V502.6z"/>
					</g>
					<g>
						<path class="st20" d="M442.8,502.6c0-4.4,8.4-8,18.8-8H539c10.4,0,18.8,3.6,18.8,8v33c0,4.4-8.4,8-18.8,8h-77.5
							c-10.4,0-18.8-3.6-18.8-8V502.6z"/>
					</g>
					<g>
						<path class="st20" d="M1322.5,442.4c0-4.4,3.6-8,8-8h33c4.4,0,8,3.6,8,8v33c0,4.4-3.6,8-8,8h-33c-4.4,0-8-3.6-8-8V442.4z"/>
					</g>
					<g>
						<path class="st20" d="M1259.6,442.4c0-4.4,3.6-8,8-8h33c4.4,0,8,3.6,8,8v33c0,4.4-3.6,8-8,8h-33c-4.4,0-8-3.6-8-8V442.4z"/>
					</g>
					<g>
						<path class="st20" d="M1197.1,442.4c0-4.4,3.6-8,8-8h33c4.4,0,8,3.6,8,8v33c0,4.4-3.6,8-8,8h-33c-4.4,0-8-3.6-8-8V442.4z"/>
					</g>
					<g>
						<path class="st20" d="M1134.9,442.4c0-4.4,3.6-8,8-8h33c4.4,0,8,3.6,8,8v33c0,4.4-3.6,8-8,8h-33c-4.4,0-8-3.6-8-8V442.4z"/>
					</g>
					<g>
						<path class="st20" d="M1071.8,442.4c0-4.4,3.6-8,8-8h33c4.4,0,8,3.6,8,8v33c0,4.4-3.6,8-8,8h-33c-4.4,0-8-3.6-8-8V442.4z"/>
					</g>
					<g>
						<path class="st20" d="M1009.9,442.4c0-4.4,3.6-8,8-8h33c4.4,0,8,3.6,8,8v33c0,4.4-3.6,8-8,8h-33c-4.4,0-8-3.6-8-8V442.4z"/>
					</g>
					<g>
						<path class="st20" d="M946.7,442.4c0-4.4,3.6-8,8-8h33c4.4,0,8,3.6,8,8v33c0,4.4-3.6,8-8,8h-33c-4.4,0-8-3.6-8-8V442.4z"/>
					</g>
					<g>
						<path class="st20" d="M884.2,442.4c0-4.4,3.6-8,8-8h33c4.4,0,8,3.6,8,8v33c0,4.4-3.6,8-8,8h-33c-4.4,0-8-3.6-8-8V442.4z"/>
					</g>
					<g>
						<path class="st20" d="M821.7,442.4c0-4.4,3.6-8,8-8h33c4.4,0,8,3.6,8,8v33c0,4.4-3.6,8-8,8h-33c-4.4,0-8-3.6-8-8V442.4z"/>
					</g>
					<g>
						<path class="st20" d="M759.9,442.4c0-4.4,3.6-8,8-8h33c4.4,0,8,3.6,8,8v33c0,4.4-3.6,8-8,8h-33c-4.4,0-8-3.6-8-8V442.4z"/>
					</g>
					<g>
						<path class="st20" d="M697.1,442.4c0-4.4,3.6-8,8-8h33c4.4,0,8,3.6,8,8v33c0,4.4-3.6,8-8,8h-33c-4.4,0-8-3.6-8-8V442.4z"/>
					</g>
					<g>
						<path class="st20" d="M633.6,442.4c0-4.4,3.6-8,8-8h33c4.4,0,8,3.6,8,8v33c0,4.4-3.6,8-8,8h-33c-4.4,0-8-3.6-8-8V442.4z"/>
					</g>
					<g>
						<path class="st20" d="M571,442.4c0-4.4,3.6-8,8-8h33c4.4,0,8,3.6,8,8v33c0,4.4-3.6,8-8,8h-33c-4.4,0-8-3.6-8-8V442.4z"/>
					</g>
					<g>
						<path class="st20" d="M507.7,442.4c0-4.4,3.6-8,8-8h33c4.4,0,8,3.6,8,8v33c0,4.4-3.6,8-8,8h-33c-4.4,0-8-3.6-8-8V442.4z"/>
					</g>
					<g>
						<path class="st20" d="M446,442.4c0-4.4,3.6-8,8-8h33c4.4,0,8,3.6,8,8v33c0,4.4-3.6,8-8,8h-33c-4.4,0-8-3.6-8-8V442.4z"/>
					</g>
					<g>
						<path class="st20" d="M1322.5,382.1c0-4.4,3.6-8,8-8h33c4.4,0,8,3.6,8,8v33c0,4.4-3.6,8-8,8h-33c-4.4,0-8-3.6-8-8V382.1z"/>
					</g>
					<g>
						<path class="st20" d="M1259.6,382.1c0-4.4,3.6-8,8-8h33c4.4,0,8,3.6,8,8v33c0,4.4-3.6,8-8,8h-33c-4.4,0-8-3.6-8-8V382.1z"/>
					</g>
					<g>
						<path class="st20" d="M1197.1,382.1c0-4.4,3.6-8,8-8h33c4.4,0,8,3.6,8,8v33c0,4.4-3.6,8-8,8h-33c-4.4,0-8-3.6-8-8V382.1z"/>
					</g>
					<g>
						<path class="st20" d="M1134.9,382.1c0-4.4,3.6-8,8-8h33c4.4,0,8,3.6,8,8v33c0,4.4-3.6,8-8,8h-33c-4.4,0-8-3.6-8-8V382.1z"/>
					</g>
					<g>
						<path class="st20" d="M1071.8,382.1c0-4.4,3.6-8,8-8h33c4.4,0,8,3.6,8,8v33c0,4.4-3.6,8-8,8h-33c-4.4,0-8-3.6-8-8V382.1z"/>
					</g>
					<g>
						<path class="st20" d="M1009.9,382.1c0-4.4,3.6-8,8-8h33c4.4,0,8,3.6,8,8v33c0,4.4-3.6,8-8,8h-33c-4.4,0-8-3.6-8-8V382.1z"/>
					</g>
					<g>
						<path class="st20" d="M946.7,382.1c0-4.4,3.6-8,8-8h33c4.4,0,8,3.6,8,8v33c0,4.4-3.6,8-8,8h-33c-4.4,0-8-3.6-8-8V382.1z"/>
					</g>
					<g>
						<path class="st20" d="M884.2,382.1c0-4.4,3.6-8,8-8h33c4.4,0,8,3.6,8,8v33c0,4.4-3.6,8-8,8h-33c-4.4,0-8-3.6-8-8V382.1z"/>
					</g>
					<g>
						<path class="st20" d="M821.7,382.1c0-4.4,3.6-8,8-8h33c4.4,0,8,3.6,8,8v33c0,4.4-3.6,8-8,8h-33c-4.4,0-8-3.6-8-8V382.1z"/>
					</g>
					<g>
						<path class="st20" d="M759.9,382.1c0-4.4,3.6-8,8-8h33c4.4,0,8,3.6,8,8v33c0,4.4-3.6,8-8,8h-33c-4.4,0-8-3.6-8-8V382.1z"/>
					</g>
					<g>
						<path class="st20" d="M697.1,382.1c0-4.4,3.6-8,8-8h33c4.4,0,8,3.6,8,8v33c0,4.4-3.6,8-8,8h-33c-4.4,0-8-3.6-8-8V382.1z"/>
					</g>
					<g>
						<path class="st20" d="M633.6,382.1c0-4.4,3.6-8,8-8h33c4.4,0,8,3.6,8,8v33c0,4.4-3.6,8-8,8h-33c-4.4,0-8-3.6-8-8V382.1z"/>
					</g>
					<g>
						<path class="st20" d="M571,382.1c0-4.4,3.6-8,8-8h33c4.4,0,8,3.6,8,8v33c0,4.4-3.6,8-8,8h-33c-4.4,0-8-3.6-8-8V382.1z"/>
					</g>
					<g>
						<path class="st20" d="M507.7,382.1c0-4.4,3.6-8,8-8h33c4.4,0,8,3.6,8,8v33c0,4.4-3.6,8-8,8h-33c-4.4,0-8-3.6-8-8V382.1z"/>
					</g>
					<g>
						<path class="st20" d="M446,382.1c0-4.4,3.6-8,8-8h33c4.4,0,8,3.6,8,8v33c0,4.4-3.6,8-8,8h-33c-4.4,0-8-3.6-8-8V382.1z"/>
					</g>
					<g>
						<path class="st20" d="M1322.5,321.9c0-4.4,3.6-8,8-8h33c4.4,0,8,3.6,8,8v33c0,4.4-3.6,8-8,8h-33c-4.4,0-8-3.6-8-8V321.9z"/>
					</g>
					<g>
						<path class="st20" d="M1259.6,321.9c0-4.4,3.6-8,8-8h33c4.4,0,8,3.6,8,8v33c0,4.4-3.6,8-8,8h-33c-4.4,0-8-3.6-8-8V321.9z"/>
					</g>
					<g>
						<path class="st20" d="M1197.1,321.9c0-4.4,3.6-8,8-8h33c4.4,0,8,3.6,8,8v33c0,4.4-3.6,8-8,8h-33c-4.4,0-8-3.6-8-8V321.9z"/>
					</g>
					<g>
						<path class="st20" d="M1134.9,321.9c0-4.4,3.6-8,8-8h33c4.4,0,8,3.6,8,8v33c0,4.4-3.6,8-8,8h-33c-4.4,0-8-3.6-8-8V321.9z"/>
					</g>
					<g>
						<path class="st20" d="M1071.8,321.9c0-4.4,3.6-8,8-8h33c4.4,0,8,3.6,8,8v33c0,4.4-3.6,8-8,8h-33c-4.4,0-8-3.6-8-8V321.9z"/>
					</g>
					<g>
						<path class="st20" d="M1009.9,321.9c0-4.4,3.6-8,8-8h33c4.4,0,8,3.6,8,8v33c0,4.4-3.6,8-8,8h-33c-4.4,0-8-3.6-8-8V321.9z"/>
					</g>
					<g>
						<path class="st20" d="M946.7,321.9c0-4.4,3.6-8,8-8h33c4.4,0,8,3.6,8,8v33c0,4.4-3.6,8-8,8h-33c-4.4,0-8-3.6-8-8V321.9z"/>
					</g>
					<g>
						<path class="st20" d="M884.2,321.9c0-4.4,3.6-8,8-8h33c4.4,0,8,3.6,8,8v33c0,4.4-3.6,8-8,8h-33c-4.4,0-8-3.6-8-8V321.9z"/>
					</g>
					<g>
						<path class="st20" d="M821.7,321.9c0-4.4,3.6-8,8-8h33c4.4,0,8,3.6,8,8v33c0,4.4-3.6,8-8,8h-33c-4.4,0-8-3.6-8-8V321.9z"/>
					</g>
					<g>
						<path class="st20" d="M759.9,321.9c0-4.4,3.6-8,8-8h33c4.4,0,8,3.6,8,8v33c0,4.4-3.6,8-8,8h-33c-4.4,0-8-3.6-8-8V321.9z"/>
					</g>
					<g>
						<path class="st20" d="M697.1,321.9c0-4.4,3.6-8,8-8h33c4.4,0,8,3.6,8,8v33c0,4.4-3.6,8-8,8h-33c-4.4,0-8-3.6-8-8V321.9z"/>
					</g>
					<g>
						<path class="st20" d="M633.6,321.9c0-4.4,3.6-8,8-8h33c4.4,0,8,3.6,8,8v33c0,4.4-3.6,8-8,8h-33c-4.4,0-8-3.6-8-8V321.9z"/>
					</g>
					<g>
						<path class="st20" d="M571,321.9c0-4.4,3.6-8,8-8h33c4.4,0,8,3.6,8,8v33c0,4.4-3.6,8-8,8h-33c-4.4,0-8-3.6-8-8V321.9z"/>
					</g>
					<g>
						<path class="st20" d="M507.7,321.9c0-4.4,3.6-8,8-8h33c4.4,0,8,3.6,8,8v33c0,4.4-3.6,8-8,8h-33c-4.4,0-8-3.6-8-8V321.9z"/>
					</g>
					<g>
						<path class="st20" d="M446,321.9c0-4.4,3.6-8,8-8h33c4.4,0,8,3.6,8,8v33c0,4.4-3.6,8-8,8h-33c-4.4,0-8-3.6-8-8V321.9z"/>
					</g>
					<g>
						<path class="st20" d="M1324.9,263.3c0-4,3.2-7.2,7.2-7.2h29.7c4,0,7.2,3.2,7.2,7.2V293c0,4-3.2,7.2-7.2,7.2h-29.7
							c-4,0-7.2-3.2-7.2-7.2V263.3z"/>
					</g>
					<g>
						<path class="st20" d="M1262.1,263.3c0-4,3.2-7.2,7.2-7.2h29.7c4,0,7.2,3.2,7.2,7.2V293c0,4-3.2,7.2-7.2,7.2h-29.7
							c-4,0-7.2-3.2-7.2-7.2V263.3z"/>
					</g>
					<g>
						<path class="st20" d="M1199.6,263.3c0-4,3.2-7.2,7.2-7.2h29.7c4,0,7.2,3.2,7.2,7.2V293c0,4-3.2,7.2-7.2,7.2h-29.7
							c-4,0-7.2-3.2-7.2-7.2V263.3z"/>
					</g>
					<g>
						<path class="st20" d="M1137.4,263.3c0-4,3.2-7.2,7.2-7.2h29.7c4,0,7.2,3.2,7.2,7.2V293c0,4-3.2,7.2-7.2,7.2h-29.7
							c-4,0-7.2-3.2-7.2-7.2V263.3z"/>
					</g>
					<g>
						<path class="st20" d="M1074.2,263.3c0-4,3.2-7.2,7.2-7.2h29.7c4,0,7.2,3.2,7.2,7.2V293c0,4-3.2,7.2-7.2,7.2h-29.7
							c-4,0-7.2-3.2-7.2-7.2V263.3z"/>
					</g>
					<g>
						<path class="st20" d="M1012.3,263.3c0-4,3.2-7.2,7.2-7.2h29.7c4,0,7.2,3.2,7.2,7.2V293c0,4-3.2,7.2-7.2,7.2h-29.7
							c-4,0-7.2-3.2-7.2-7.2V263.3z"/>
					</g>
					<g>
						<path class="st20" d="M950.9,263.3c0-4,3.2-7.2,7.2-7.2h29.7c4,0,7.2,3.2,7.2,7.2V293c0,4-3.2,7.2-7.2,7.2h-29.7
							c-4,0-7.2-3.2-7.2-7.2V263.3z"/>
					</g>
					<g>
						<path class="st20" d="M886.7,263.3c0-4,3.2-7.2,7.2-7.2h29.7c4,0,7.2,3.2,7.2,7.2V293c0,4-3.2,7.2-7.2,7.2h-29.7
							c-4,0-7.2-3.2-7.2-7.2V263.3z"/>
					</g>
					<g>
						<path class="st20" d="M824.2,263.3c0-4,3.2-7.2,7.2-7.2h29.7c4,0,7.2,3.2,7.2,7.2V293c0,4-3.2,7.2-7.2,7.2h-29.7
							c-4,0-7.2-3.2-7.2-7.2V263.3z"/>
					</g>
					<g>
						<path class="st20" d="M762.4,263.3c0-4,3.2-7.2,7.2-7.2h29.7c4,0,7.2,3.2,7.2,7.2V293c0,4-3.2,7.2-7.2,7.2h-29.7
							c-4,0-7.2-3.2-7.2-7.2V263.3z"/>
					</g>
					<g>
						<path class="st20" d="M699.6,263.3c0-4,3.2-7.2,7.2-7.2h29.7c4,0,7.2,3.2,7.2,7.2V293c0,4-3.2,7.2-7.2,7.2h-29.7
							c-4,0-7.2-3.2-7.2-7.2V263.3z"/>
					</g>
					<g>
						<path class="st20" d="M636,263.3c0-4,3.2-7.2,7.2-7.2h29.7c4,0,7.2,3.2,7.2,7.2V293c0,4-3.2,7.2-7.2,7.2h-29.7
							c-4,0-7.2-3.2-7.2-7.2V263.3z"/>
					</g>
					<g>
						<path class="st20" d="M573.4,263.3c0-4,3.2-7.2,7.2-7.2h29.7c4,0,7.2,3.2,7.2,7.2V293c0,4-3.2,7.2-7.2,7.2h-29.7
							c-4,0-7.2-3.2-7.2-7.2V263.3z"/>
					</g>
					<g>
						<path class="st20" d="M510.1,263.3c0-4,3.2-7.2,7.2-7.2h29.7c4,0,7.2,3.2,7.2,7.2V293c0,4-3.2,7.2-7.2,7.2h-29.7
							c-4,0-7.2-3.2-7.2-7.2V263.3z"/>
					</g>
					<g>
						<path class="st20" d="M448.4,263.3c0-4,3.2-7.2,7.2-7.2h29.7c4,0,7.2,3.2,7.2,7.2V293c0,4-3.2,7.2-7.2,7.2h-29.7
							c-4,0-7.2-3.2-7.2-7.2V263.3z"/>
					</g>
				</g>
			</g>
			<g>
				<polygon class="st21" points="414.4,166.8 414.9,167.6 1392.8,167.2 1467.8,45.8 1460.6,45.8 				"/>
				<polygon class="st22" points="341.2,45.8 414.4,166.8 1460.6,45.8 				"/>
			</g>
		</g>
	</g>
	<g>
		<path class="st23" d="M663.6,652.6c-16.1-3.9-32.3,6.1-36.2,22.2l-54.1,226.1c-3.9,16.1,6.1,32.3,22.2,36.2l0,0
			c16.1,3.9,32.3-6.1,36.2-22.2l54.1-226.1C689.6,672.6,679.7,656.5,663.6,652.6L663.6,652.6z"/>
		<path class="st23" d="M512.9,895.9c-2.7,16.3,8.3,31.8,24.7,34.5l0,0c16.3,2.7,31.8-8.3,34.5-24.7l42.1-254.2
			c2.7-16.3-8.3-31.8-24.7-34.5l0,0c-16.3-2.7-31.8,8.3-34.5,24.7L512.9,895.9z"/>
		<path class="st23" d="M457.3,890c-1.2,15,10,28.1,25,29.3l0,0c15,1.2,28.1-10,29.3-25l16.8-210.4c1.2-15-10-28.1-25-29.3l0,0
			c-15-1.2-28.1,10-29.3,25L457.3,890z"/>
		<path class="st23" d="M410.1,892.1c0.5,12.4,10.9,22,23.3,21.5l0,0c12.4-0.5,22-10.9,21.5-23.3L448,716.7
			c-0.5-12.4-10.9-22-23.3-21.5l0,0c-12.4,0.5-22,10.9-21.5,23.3L410.1,892.1z"/>
		<path class="st23" d="M735.9,853.7c-27.8,21-57.1,75.7-67,83.1c-9.9,7.4-44.3,15.4-39.5-38.7l-1.4-62.1c0,0-55,53.5-66.7,0.3
			c0,0-46.4,37.7-68,19.5c0,0-30.3,31.8-50,18.9l-28.5-10.1c0,0-48.4,134.7-3.7,239.6c29.4,69-9.6,217.1-9.6,217.1l155.2,37.1
			c0,0,38-226.5,44.4-239.6c6.4-13.1,80.9-73.3,124.5-160.4c43.6-87.1,54.6-92.6,54.6-92.6S763.7,832.8,735.9,853.7z"/>
		<polygon class="st17" points="586,1201.6 594.1,1167.7 413.3,1148.8 408.7,1188.3 		"/>
		<polygon class="st24" points="595.8,1187.5 404.3,1166.1 278.2,1766.3 574.5,1766.2 		"/>
	</g>
	<g>
		<path class="st23" d="M1051.8,605.6c16.1-3.9,32.3,6.1,36.2,22.2l54.1,226.1c3.9,16.1-6.1,32.3-22.2,36.2l0,0
			c-16.1,3.9-32.3-6.1-36.2-22.2l-54.1-226.1C1025.7,625.7,1035.6,609.5,1051.8,605.6L1051.8,605.6z"/>
		<path class="st23" d="M1202.5,848.9c2.7,16.3-8.3,31.8-24.7,34.5l0,0c-16.3,2.7-31.8-8.3-34.5-24.7l-42.1-254.2
			c-2.7-16.3,8.3-31.8,24.7-34.5l0,0c16.3-2.7,31.8,8.3,34.5,24.7L1202.5,848.9z"/>
		<path class="st23" d="M1258,843c1.2,15-10,28.1-25,29.3l0,0c-15,1.2-28.1-10-29.3-25l-16.8-210.4c-1.2-15,10-28.1,25-29.3l0,0
			c15-1.2,28.1,10,29.3,25L1258,843z"/>
		<path class="st23" d="M1305.2,845.1c-0.5,12.4-10.9,22-23.3,21.5l0,0c-12.4-0.5-22-10.9-21.5-23.3l6.9-173.5
			c0.5-12.4,10.9-22,23.3-21.5l0,0c12.4,0.5,22,10.9,21.5,23.3L1305.2,845.1z"/>
		<path class="st23" d="M1304.3,1057.4c44.8-105-3.7-239.6-3.7-239.6l-28.5,10.1c-19.7,12.8-50-18.9-50-18.9
			c-21.7,18.2-68-19.5-68-19.5c-11.7,53.2-66.7-0.3-66.7-0.3l-1.4,62.1c4.8,54.1-29.6,46.1-39.5,38.7c-9.9-7.4-39.2-62.1-67-83.1
			c-27.8-21-44.2,12.2-44.2,12.2s11.1,5.5,54.6,92.6c43.6,87.1,118.1,147.3,124.5,160.4c6.4,13.1,44.4,239.6,44.4,239.6l155.2-37.1
			C1313.9,1274.4,1274.9,1126.3,1304.3,1057.4z"/>
		<polygon class="st17" points="1129.4,1154.6 1121.3,1120.7 1302.1,1101.8 1306.7,1141.3 		"/>
		<polygon class="st24" points="1119.5,1140.5 1311.1,1119.1 1417.5,1766.3 1132,1766.3 		"/>
	</g>
	<g>
		<g>
			<path class="st17" d="M1603.1,1121l12-4.8c-4.5-6.4-8.4-13.3-11.5-20.8c-3.2-7.8-5.4-15.7-6.7-23.7l-12.2,4.9
				c-12.4,5-18.4,19-13.3,31.2C1576.4,1120,1590.6,1125.9,1603.1,1121z"/>
			<path class="st25" d="M1615.1,1116.2l70.6-28.2c12.4-5,18.4-18.9,13.3-31.2c-5.1-12.3-19.3-18.2-31.7-13.2l-70.4,28.1
				c1.3,7.9,3.5,15.9,6.7,23.7C1606.7,1102.8,1610.6,1109.8,1615.1,1116.2z"/>
		</g>
		<path class="st17" d="M1620.5,1087.7c-30-72.5,5.2-155.1,78.8-184.5c73.6-29.4,157.5,5.6,187.6,78.1c30,72.5-5.2,155.1-78.8,184.5
			C1734.5,1195.2,1650.5,1160.2,1620.5,1087.7z"/>
		<g>
			<path class="st26" d="M1821.1,1116c7.6-6.1,14.4-13.3,20.2-21.6c33.5-47.6,21.3-112.9-27-146c-14.3-9.8-30.2-15.6-46.3-17.8
				c4.9,2.5,9.7,5.4,14.3,8.6C1840.8,979.2,1857.2,1056.8,1821.1,1116z"/>
			<path class="st27" d="M1666,974.7c-33.5,47.6-21.3,112.9,27,146c40,27.3,92.2,24,128-4.7c36.2-59.2,19.8-136.8-38.8-176.8
				c-4.7-3.2-9.4-6-14.3-8.6C1729.5,925.4,1689.6,941.2,1666,974.7z"/>
		</g>
	</g>
	<g>
		<polygon class="st28" points="254.8,442.8 20,432.4 150.2,606.6 		"/>
		<polygon class="st17" points="144.3,722.3 194.4,665.6 150.2,606.6 113.8,663.7 		"/>
		<g>
			<polygon class="st28" points="144.3,722.3 0,885.8 234.8,896.2 			"/>
			<polygon class="st17" points="113.8,663.7 150.2,606.6 20,432.4 0,885.8 144.3,722.3 			"/>
			<polygon class="st29" points="65.9,660.9 254.8,442.8 234.8,896.2 			"/>
			<polygon class="st17" points="234.8,896.2 254.8,442.8 72.8,661.9 			"/>
		</g>
	</g>
	<g>
		<path class="st30" d="M151.7,291.1c-0.8,7.6-7.7,13-15.2,12.1l-10-1.1c-7.5-0.8-13-7.7-12.1-15.2l1.1-10c0.8-7.6,7.7-13,15.2-12.1
			l10,1.1c7.6,0.8,13,7.6,12.1,15.2L151.7,291.1z"/>
		<g>
			<polygon class="st31" points="85.2,717.7 91.8,706.1 81.1,704.9 			"/>
			<polygon class="st30" points="70.5,671.3 81.1,704.9 91.8,706.1 109.3,675.7 			"/>
		</g>
		<g>
			<path class="st32" d="M131.9,300.8L90.2,672.3c1.9-4.3,5.8-8.3,10-7.8c5.1,0.6,8.6,5.5,8.6,11.2l0.4,0L151,302.9L131.9,300.8z"/>
			<path class="st33" d="M112.3,298.6L70.5,671.4l0.1,0c1.1-5.8,5.7-10,10.9-9.5c4.6,0.5,7.8,5.8,8.4,10.7c0.1-0.1,0.1-0.3,0.2-0.4
				l41.7-371.6L112.3,298.6z"/>
		</g>
		<path class="st30" d="M100.6,664.5c-4.5-0.5-8.5,2.5-10.3,7.1c-0.6-5-3.9-9.1-8.6-9.7c-5.2-0.6-10,3.7-11.1,9.6l19,2.1l0.7,0.1
			l18.9,2.1C109.3,670,105.7,665,100.6,664.5z"/>
		
			<rect x="127.2" y="276.5" transform="matrix(0.1114 -0.9938 0.9938 0.1114 -176.3928 394.2448)" class="st34" width="10.1" height="38.6"/>
		<path class="st35" d="M152.4,298c-0.1,0.8-0.8,1.4-1.6,1.3l-37.3-4.2c-0.8-0.1-1.4-0.8-1.3-1.6l0,0c0.1-0.8,0.8-1.4,1.6-1.3
			l37.3,4.2C151.9,296.5,152.5,297.2,152.4,298L152.4,298z"/>
		<path class="st35" d="M152,302.9c-0.1,0.8-0.8,1.4-1.6,1.3l-37.3-4.2c-0.8-0.1-1.4-0.8-1.3-1.6l0,0c0.1-0.8,0.8-1.4,1.6-1.3
			l37.3,4.2C151.6,301.4,152.1,302.1,152,302.9L152,302.9z"/>
	</g>
	<g>
		<polygon class="st36" points="243,1033.9 238.6,1064.5 207.1,1057.1 202.2,1047.4 206.6,1045.2 204.4,1040.9 200.8,1042.6 
			196.1,1040 195.9,1032.3 198.5,1031.1 197.2,1028.5 194.7,1029.7 189.9,1020.2 192.4,1019 190,1014.4 186,1013.1 180.2,1001.8 
			182.9,1000.4 176.7,996.3 180.3,994.5 177.4,988.9 170.2,986.5 168.1,982.3 170.2,976 167.7,971.1 160.9,957.7 195.6,940.6 		"/>
		<path class="st32" d="M132.3,865.4c-25,12.3-35.1,42.3-22.6,66.9c12.5,24.6,43,34.6,68,22.3c25-12.3,35.1-42.3,22.6-66.9
			C187.7,863,157.3,853,132.3,865.4z M137.6,875.9c7.4-3.6,16.3-0.7,20,6.5c3.7,7.2,0.7,16.1-6.7,19.7c-7.4,3.6-16.3,0.7-20-6.5
			C127.3,888.3,130.3,879.5,137.6,875.9z"/>
	</g>
</g>
</svg>
