<?xml version="1.0" encoding="utf-8"?>
<!-- Generator: Adobe Illustrator 21.0.2, SVG Export Plug-In . SVG Version: 6.00 Build 0)  -->
<svg version="1.1" id="OBJECTS" xmlns="http://www.w3.org/2000/svg" xmlns:xlink="http://www.w3.org/1999/xlink" x="0px" y="0px"
	 viewBox="0 0 500 500" style="enable-background:new 0 0 500 500;" xml:space="preserve">
<style type="text/css">
	.st0{fill:#2674A6;}
	.st1{fill:#202B33;}
	.st2{fill:#586B7D;}
	.st3{fill:#A0D4EC;}
	.st4{fill:#FFFFFF;}
	.st5{fill:#3E5873;}
	.st6{fill:#00DBAB;}
	.st7{fill:#FCB237;}
	.st8{fill:#638CB5;}
	.st9{opacity:0.15;fill:#0F0B08;}
	.st10{fill:#FFB387;}
	.st11{fill:#FFC19C;}
	.st12{fill:#241C29;}
	.st13{fill:#151D21;}
	.st14{fill:#C93D4B;}
	.st15{fill:#D1D1D1;}
	.st16{fill:#FFB17D;}
	.st17{fill:#FF9D5C;}
	.st18{fill:#E07B48;}
	.st19{fill:#F57454;}
	.st20{fill:#F88670;}
	.st21{fill:#FF4D60;}
	.st22{fill:#A22D36;}
	.st23{fill:#FEFEFC;}
	.st24{fill:#C93646;}
	.st25{fill:#422014;}
	.st26{fill:#1E60A6;}
	.st27{font-family:'BebasNeueBold';}
	.st28{font-size:16.7932px;}
	.st29{letter-spacing:1;}
	.st30{fill:#ABABAB;}
	.st31{fill:#D4D4D4;}
	.st32{fill:#7EB2E6;}
	.st33{fill:#455866;}
	.st34{fill:#F65B45;}
	.st35{fill:#236B99;}
	.st36{fill:#1E5B82;}
	.st37{fill:#F2AA80;}
</style>
<path class="st0" d="M58,213.7c-12.5,0-22.6,10.1-22.6,22.6c0,9.6,5.9,17.7,14.3,21c-1.5,2.7-3.7,5.3-6.5,7.4
	c0.7-0.1,1.5-0.2,2.2-0.3c4.5-0.9,8.4-2.9,11.2-5.6c0.4,0,0.9,0,1.3,0c12.5,0,22.6-10.1,22.6-22.6C80.6,223.8,70.5,213.7,58,213.7z"
	/>
<g>
	<path class="st1" d="M360.2,363h-253c-8.6,0-15.6-7-15.6-15.6V200.6c0-8.6,7-15.6,15.6-15.6h253c8.6,0,15.6,7,15.6,15.6v146.8
		C375.8,356,368.9,363,360.2,363z"/>
	<rect x="110.7" y="185" class="st2" width="244.2" height="178"/>
	<rect x="110.7" y="185" class="st3" width="244.2" height="17.3"/>
	<rect x="118.1" y="192.6" class="st4" width="3.7" height="5.1"/>
	<rect x="123.7" y="190.2" class="st4" width="3.7" height="7.6"/>
	<rect x="129.3" y="187.7" class="st4" width="3.7" height="10"/>
	<rect x="110.7" y="340.9" class="st5" width="244.2" height="22.1"/>
	<circle class="st4" cx="147.7" cy="351.8" r="8.1"/>
	<path class="st6" d="M151.8,350.1c1.3,0.7,1.3,2.5,0,3.3l-2.4,1.3l-2.6,1.4c-1.2,0.7-2.8-0.2-2.8-1.6v-2.8V349
		c0-1.4,1.5-2.3,2.8-1.6l2.6,1.4L151.8,350.1z"/>
	<circle class="st4" cx="162.7" cy="351.8" r="5.6"/>
	<path class="st7" d="M166.2,351c0.6,0.3,0.6,1.1,0,1.5l-1.1,0.6l-1.2,0.6c-0.6,0.3-1.2-0.1-1.2-0.7v-1.2v-1.2c0-0.6,0.7-1,1.2-0.7
		l1.2,0.6L166.2,351z"/>
	<path class="st7" d="M163.2,351c0.6,0.3,0.6,1.1,0,1.5l-1.1,0.6l-1.2,0.6c-0.6,0.3-1.2-0.1-1.2-0.7v-1.2v-1.2c0-0.6,0.7-1,1.2-0.7
		l1.2,0.6L163.2,351z"/>
	<path class="st8" d="M346.4,350.2H187c-0.9,0-1.7,0.7-1.7,1.7l0,0c0,0.9,0.7,1.7,1.7,1.7h159.4c0.8,0,1.4-0.6,1.4-1.4v-0.5
		C347.8,350.8,347.1,350.2,346.4,350.2z"/>
	<path class="st9" d="M150.4,363.2c-2.2-37.1-34-56.4-34-56.4c28.8-27.9,10.5-60.7,0-55.7c-6.6,3.2-18.8,11.5-29.5,42.6
		c-4.8,13.9,7.3,46.4,17.4,69.5H150.4z"/>
	<circle class="st4" cx="185.9" cy="351.8" r="5.1"/>
	<g>
		<path class="st10" d="M136,363c-2.2-37.1-34-56.4-34-56.4c28.8-27.9,10.5-60.7,0-55.7c-6.6,3.2-18.8,11.5-29.5,42.6
			c-7.8,22.7,29.5,95.2,29.5,95.2l-2.5,24.4h70l1.6-21c24.3-2.4,25.3-29.1,25.3-29.1H136z"/>
		<path class="st11" d="M89.1,279.7c4.3,0.7,8.5-2.2,10.7-5.9c2.2-3.7,2.8-8.1,3.4-12.4c2-14.2-9.8-11.2-16.3-3.3
			c-1.6,1.9-8.7,12.4-6.6,15C82.6,276.1,85.4,279,89.1,279.7z"/>
		<polygon class="st4" points="89.6,434 92.2,412 175.8,412 175.6,434 		"/>
		<polygon class="st12" points="74.5,500 84.6,431.6 178.8,428.2 171.4,500 		"/>
	</g>
	<circle class="st13" cx="365.8" cy="274" r="7"/>
</g>
<g>
	<path class="st14" d="M285.9,255.7c-36.5,18-69.4,20.5-107.6,6.7c-3.2-22.7-4-42.6-1.6-62.5s8.4-39.9,21.3-55
		c12.8-15.1,33.6-24.1,52.3-18.5c15.2,4.5,26.9,17.8,33.1,32.8c6.2,15,7.5,31.6,7.7,47.9C291.3,223.3,291.2,239.6,285.9,255.7z"/>
	<path class="st12" d="M288.3,340.9c-12.5,0.1-25,0.1-37.5,0c-9.6,0-19.3,0-28.9,0c-16,0-31.9-0.1-47.9,0
		c3.4-19.5,7.2-44.1,17.7-60.8c4.8-7.5,11.3-14.3,18.8-19.2c9.1-5.9,19.7-9.1,30.4-7.6c7,1,13.5,3.9,19.1,8
		c8.8,6.5,15.7,16,19.8,26.2C286.9,304.3,287.6,322.8,288.3,340.9z"/>
	<path class="st15" d="M260.2,261.4c-3,26.2-6.4,53.5-9.3,79.5c-9.6,0-19.3,0-28.9,0c-1.4-26.9-5.2-53.7-11.3-80
		c9.1-5.9,19.7-9.1,30.4-7.6C248.1,254.3,254.5,257.2,260.2,261.4z"/>
	<path class="st16" d="M242.5,255.8c0,2-0.1,3,0,5.1c-6,4-13.4,3.4-19.5-0.5c0-1.7,0-3.4,0-5.1l0-2.7c0-2.3,0-4.6-0.1-6.8
		c6.8,0.8,13.1-0.5,19.7-2c0.1,3,0,6-0.1,9C242.5,253.8,242.5,254.8,242.5,255.8z"/>
	<path class="st17" d="M242.5,252.8c-0.9,0.5-1.8,0.9-2.7,1.2c-5,1.8-12.2,1.6-16.9-1.4c0-2.3,0-4.6-0.1-6.8
		c6.8,0.8,13.1-0.5,19.7-2C242.7,246.7,242.6,249.8,242.5,252.8z"/>
	<path class="st18" d="M293.2,185.9c-0.2,2.9-2,5.8-4.8,7c-2.7,1.2-6.2,0.4-7.9-2c-1.2-1.7-1.4-3.9-1.2-6c0.3-2.8,1.4-5.6,3.7-7.3
		C288.9,173,293.6,180.4,293.2,185.9z"/>
	<path class="st16" d="M283,171.5c-1.3-19.6-7.8-37-25.6-47.1c-14.4-8.2-32.8-10.3-48.6-4.8c-36.5,12.6-43.8,50.5-33.4,83.9
		c6.9,22.4,23.4,39.9,46.6,45.2c27.8,6.4,47.9-15.7,56.1-39.9C282.1,197.1,283.8,184.2,283,171.5z"/>
	<path class="st19" d="M235.5,206.2c0-3.8,0.1-7.7-0.5-11.5c-0.4-2.6-4.9-2.6-5.3,0c-0.6,3.8-0.5,7.6-0.5,11.5
		c0,3.8-0.5,7.8,0.6,11.4c0.8,2.6,4.4,2.6,5.2,0C236,214,235.5,210,235.5,206.2z"/>
	<path class="st20" d="M234,209.8c-0.1-1.3-2.1-1.8-2.4-0.3c-0.2,1-0.2,2.1-0.3,3.1c-0.1,1.1-0.3,2.1,0,3.1c0.3,1.3,2,1.1,2.4,0
		c0.3-0.9,0.3-1.9,0.3-2.9C233.9,211.8,234.1,210.8,234,209.8z"/>
	<path class="st21" d="M251,105.5c-7.5-6.7-17.2-9.1-27.1-7.1c-9.6,2-18.1,7.2-26.4,12.3c-10.8,6.7-22.2,14-27.2,25.7
		c-3.3,7.8-3.3,16.6-3.2,25.1c0.2,17.6,1.4,35.1,1.3,52.7c0,14.5-2.5,30.8,6.1,43.6c3.5,5.3,8.8,9.2,14.7,11.5
		c1.5,0.6,17.9,3.6,17.9,3.5c-13.3-36.8-17.6-76.3-16.3-115.4c10.8,0.8,22.5-3.6,30.4-10.9c-3.3,5.4,2.2,5.5,4.5,5
		c6.3-1.3,10.1-4.6,14-7.4c1.3-0.9,13.2-9.8,12.5-11c23.6,40.4,28.7,92,10,134.8c17.3-0.4,27.1-3.4,32.1-21.1
		c4.2-15.1,2.3-31.2,1.5-46.6c-1.4-26.4-5.4-52.8-12.3-78.4c-1.5-5.6-3.3-11.4-6.6-16.2C267.1,91.7,262.8,101,251,105.5z"/>
	<path class="st22" d="M243,232.4c-0.8,2.3-2.3,4.4-4.3,5.8c-0.1,0.1-0.3,0.2-0.4,0.3c-3.4,2.2-8.1,2.5-11.7,0.6
		c-0.1,0-0.1-0.1-0.2-0.1c-2.3-1.2-3.8-3.3-4.7-5.7c-0.5-1.3-0.7-2.7-0.8-4.1c7.6-0.6,15.2-1,22.8-1.1
		C243.7,229.5,243.5,231,243,232.4z"/>
	<path class="st23" d="M243,232.4c-7.1,0.3-14.2,0.6-21.3,0.9c-0.5-1.3-0.7-2.7-0.8-4.1c7.6-0.6,15.2-1,22.8-1.1
		C243.7,229.5,243.5,231,243,232.4z"/>
	<path class="st24" d="M238.7,238.2c-0.1,0.1-0.3,0.2-0.4,0.3c-3.4,2.2-8.1,2.5-11.7,0.6c-0.1,0-0.1-0.1-0.2-0.1
		c1.5-1.6,3.5-2.6,5.7-2.8C234.4,236,236.8,236.7,238.7,238.2z"/>
	<path class="st25" d="M218,192c-0.2-1.7-0.7-8.4-4.1-5.6c-1.6,1.4-1,4.8-0.6,6.6c0.3,1.3,1.6,2.1,2.9,1.8
		C217.6,194.6,218.2,193.3,218,192z"/>
	<path class="st25" d="M244.4,192c0.2-1.7,0.7-8.4,4.1-5.6c1.6,1.4,1,4.8,0.6,6.6c-0.3,1.3-1.6,2.1-2.9,1.8
		C244.9,194.6,244.3,193.3,244.4,192z"/>
	<path class="st12" d="M220.9,236c-2.4-1.3-4.8-0.9-7.3-0.5c-0.9,0.1-1.4,0.6-1.8,1.2c-0.4,0.2-0.6,0.6-0.8,1
		c-0.1,0.4-0.2,0.8-0.3,1.2c-12.6,0.5-21.4-1.3-26.2-14.4c-3.5-9.5-3.9-19.4-4.5-29.3c-0.1-0.9-1.5-1.2-1.6-0.2
		c-1.5,11.3-0.1,26.8,5.7,36.8c5.8,10.2,16.2,11.4,27,11.5c0.3,0,0.5,0,0.7-0.1c0.2,0.3,0.5,0.6,0.8,0.8c2.2,1.8,5.6,1.2,8.2,1
		c1.5-0.1,2.3-1.1,2.5-2.5C223.6,240.3,223.2,237.3,220.9,236z"/>
	<path class="st16" d="M181,197.4c-0.3-4.1-0.5-8.2-0.8-12.4c-2.9-0.7-6.8,0.7-8.4,3.2c-1.6,2.5-1.4,6,0.4,8.3
		C174.1,198.8,178.3,198.4,181,197.4z"/>
	<path class="st16" d="M281.2,196.4c-0.4-4.1-0.9-8.2-1.3-12.3c2.7-1.1,6.9-0.5,8.8,1.7c2,2.2,2.4,5.6,1,8.2
		C288.3,196.6,284.1,196.8,281.2,196.4z"/>
</g>
<path class="st4" d="M278.4,65.7c-0.2-7.7,3.2-14.8,10-19.8c7.5-5.4,17.1-7.1,26.4-6.8c7.3,0.3,14.9,1.9,20.6,6.5
	c9,7.3,12.9,22,7.1,32.3c-7.7,13.5-23.9,10.9-37.1,11.5c-4.3,6.2-12.9,9.1-20.1,6.8c3.9-1.4,7.3-4.2,9.6-7.7
	c-0.9,1.4-9.4-4.6-10.3-5.5c-3.4-3.3-4.4-7.1-5.5-11.6C278.7,69.5,278.4,67.6,278.4,65.7z"/>
<g>
	<text transform="matrix(1 0 0 1 285.2782 71.3847)" class="st26 st27 st28 st29">красбер</text>
</g>
<path class="st7" d="M94,445.7c-5,0-5,8,0,8S99,445.7,94,445.7z"/>
<path class="st7" d="M91,468.3c-6,0-6,8,0,8C96,476.3,96,468.3,91,468.3z"/>
<g>
	<path class="st4" d="M150.2,245.3l0-1c0.8,0,1.7-0.1,2.5-0.2l0.1,1C151.9,245.2,151,245.3,150.2,245.3z"/>
	<path class="st4" d="M145.2,245.3c-1.6,0-3.3-0.1-5-0.3l0.1-1c1.6,0.2,3.3,0.3,4.9,0.3L145.2,245.3z M135.3,244.4
		c-1.6-0.3-3.3-0.6-4.9-1l0.2-1c1.6,0.4,3.2,0.7,4.8,1L135.3,244.4z M125.6,242.1c-1.6-0.5-3.2-1-4.7-1.6l0.3-0.9
		c1.5,0.6,3.1,1.1,4.7,1.6L125.6,242.1z M116.2,238.7c-1.5-0.7-3-1.4-4.5-2.2l0.5-0.9c1.5,0.8,3,1.5,4.4,2.1L116.2,238.7z
		 M107.4,234.1c-1.4-0.8-2.8-1.8-4.2-2.7l0.6-0.8c1.4,0.9,2.7,1.8,4.1,2.7L107.4,234.1z M99.2,228.4c-1.3-1-2.6-2.1-3.8-3.2l0.7-0.8
		c1.2,1.1,2.5,2.1,3.8,3.1L99.2,228.4z M91.7,221.9c-1.2-1.2-2.3-2.4-3.4-3.6l0.7-0.7c1.1,1.2,2.2,2.4,3.4,3.6L91.7,221.9z
		 M85,214.5c-1-1.3-2-2.7-3-4l0.8-0.6c0.9,1.3,1.9,2.7,2.9,4L85,214.5z M79.3,206.3c-0.4-0.7-0.8-1.4-1.2-2.1
		c-0.4-0.8-0.8-1.5-1.2-2.3l0.9-0.5c0.4,0.8,0.8,1.5,1.2,2.3c0.4,0.7,0.8,1.4,1.2,2L79.3,206.3z M74.8,197.4
		c-0.7-1.5-1.3-3.1-1.8-4.7l0.9-0.3c0.5,1.5,1.1,3.1,1.8,4.6L74.8,197.4z M71.5,188c-0.4-1.6-0.8-3.3-1-4.9l1-0.2
		c0.2,1.6,0.6,3.2,1,4.8L71.5,188z M70,178.1c0-0.8-0.1-1.5-0.1-2.3c0-0.9,0-1.8,0.1-2.7l1,0.1c-0.1,0.9-0.1,1.8-0.1,2.6
		c0,0.8,0,1.5,0.1,2.3L70,178.1z M71.6,168.3l-1-0.2c0.3-1.6,0.7-3.3,1.3-4.9l0.9,0.3C72.3,165.1,71.9,166.7,71.6,168.3z
		 M74.8,159.1l-0.9-0.5c0.8-1.5,1.6-2.9,2.6-4.3l0.8,0.6C76.4,156.2,75.5,157.6,74.8,159.1z M118.2,153c-0.8-1.3-1.9-2.6-3.1-3.7
		l0.7-0.7c1.2,1.2,2.3,2.5,3.2,3.9L118.2,153z M80.4,151.1l-0.7-0.7c1.2-1.2,2.4-2.4,3.7-3.4l0.6,0.8
		C82.7,148.8,81.5,149.9,80.4,151.1z M111.3,146.3c-1.4-0.8-2.8-1.6-4.4-2.1l0.3-0.9c1.6,0.6,3.1,1.3,4.5,2.2L111.3,146.3z
		 M88.1,145.3l-0.5-0.9c1.5-0.8,3.1-1.4,4.7-1.9l0.3,1C91.1,143.9,89.6,144.5,88.1,145.3z M102.2,142.9c-1.2-0.2-2.5-0.3-3.7-0.3
		c-0.4,0-0.8,0-1.2,0l-0.1-1c0.4,0,0.8,0,1.2,0c1.3,0,2.5,0.1,3.8,0.3L102.2,142.9z"/>
	<path class="st4" d="M119.5,161.6l-0.5-0.8c0.6-0.4,1.2-0.8,1.8-1.2c-0.1-0.7-0.3-1.4-0.5-2.1l1-0.3c0.2,0.8,0.4,1.7,0.6,2.5l0,0.3
		l-0.2,0.2C120.9,160.6,120.2,161.1,119.5,161.6z"/>
	<path class="st4" d="M109.7,164.7l-0.1-1c1.7-0.1,3.3-0.5,4.8-1l0.3,1C113.2,164.3,111.5,164.6,109.7,164.7z M104.6,164.6
		c-1.7-0.2-3.4-0.6-5-1.1l0.3-1c1.6,0.5,3.2,0.9,4.8,1.1L104.6,164.6z M94.9,161.5c-1.5-0.8-2.9-1.8-4.2-2.9l0.7-0.8
		c1.2,1.1,2.6,2,4.1,2.8L94.9,161.5z M87.1,154.9c-1-1.3-2-2.8-2.8-4.3l0.9-0.5c0.8,1.5,1.7,2.9,2.7,4.1L87.1,154.9z M82.2,145.9
		c-0.6-1.6-1-3.2-1.4-4.9l1-0.2c0.3,1.6,0.8,3.3,1.3,4.8L82.2,145.9z M80.2,135.9c-0.1-0.8-0.1-1.6-0.1-2.5c0-0.9,0-1.8,0.1-2.6
		l1,0.1c-0.1,0.9-0.1,1.7-0.1,2.6c0,0.8,0,1.6,0.1,2.4L80.2,135.9z M81.9,125.9l-1-0.2c0.3-1.6,0.8-3.3,1.3-4.9l1,0.3
		C82.6,122.7,82.2,124.3,81.9,125.9z M84.9,116.4l-0.9-0.4c0.7-1.5,1.4-3.1,2.2-4.6l0.9,0.5C86.2,113.4,85.5,114.9,84.9,116.4z
		 M89.6,107.6l-0.8-0.5c0.9-1.4,1.9-2.8,2.9-4.2l0.8,0.6C91.5,104.9,90.5,106.3,89.6,107.6z M95.6,99.6L94.9,99
		c0.6-0.7,1.2-1.4,1.8-2c0.5-0.6,1.1-1.2,1.6-1.7l0.7,0.7c-0.5,0.6-1.1,1.1-1.6,1.7C96.8,98.3,96.2,99,95.6,99.6z M102.6,92.4
		l-0.7-0.7c1.2-1.2,2.5-2.3,3.8-3.4l0.6,0.8C105,90.1,103.8,91.2,102.6,92.4z M110.2,85.9l-0.6-0.8c1.3-1,2.7-2,4.1-3l0.6,0.8
		C112.9,83.9,111.5,84.9,110.2,85.9z M118.5,80.2l-0.5-0.9c1.4-0.9,2.9-1.7,4.4-2.5l0.5,0.9C121.4,78.5,119.9,79.3,118.5,80.2z
		 M127.3,75.4l-0.4-0.9c1.5-0.7,3.1-1.4,4.6-2.1l0.4,0.9C130.3,74,128.8,74.7,127.3,75.4z M136.5,71.5l-0.3-0.9
		c1.6-0.6,3.2-1.1,4.8-1.6l0.3,1C139.7,70.4,138.1,70.9,136.5,71.5z"/>
	<path class="st4" d="M146.2,68.5l-0.2-1c0.8-0.2,1.6-0.4,2.4-0.6l0.2,1C147.8,68.1,147,68.3,146.2,68.5z"/>
</g>
<g>
	<polygon class="st30" points="243.1,47.5 167.8,60 163.1,79.4 	"/>
	<polygon class="st4" points="167.8,60 243.1,47.5 191.2,89.5 	"/>
	<polygon class="st31" points="159.3,54.2 163.1,79.4 167.8,60 243.1,47.5 	"/>
	<polygon class="st4" points="133.1,46 159.3,54.2 243.1,47.5 	"/>
</g>
<path class="st4" d="M148,64.3c-5,0-5,8,0,8S153,64.3,148,64.3z"/>
<path class="st4" d="M152,241c-6,0-6,8,0,8C157,249,157,241,152,241z"/>
<path class="st32" d="M417.6,107.4V244c0,5.3-4,10-9.3,10h-92c-5.3,0-9.6-4.6-9.6-10V107.4c0-5.3,4.3-9.4,9.6-9.4h92
	C413.6,98,417.6,102,417.6,107.4z"/>
<path class="st13" d="M418,107.4v9.6H307v-9.6c0-5.3,3.9-9.4,9.2-9.4h92C413.6,98,418,102,418,107.4z"/>
<rect x="332.6" y="182" class="st33" width="18" height="24.4"/>
<rect x="356.8" y="173.4" class="st33" width="18" height="33"/>
<rect x="381.1" y="164.9" class="st33" width="18" height="41.5"/>
<path class="st33" d="M399.5,137.5c-3.5-0.6-7.4-1.5-10.9-1.3c-1.6,0.1-1.8,2.1-0.4,2.7c1.8,0.6,3.7,1,5.7,1.3
	c-9.1,5.3-17.8,11.1-27.3,15.7c-5.5,2.7-11.2,4.8-17.1,6.6c-6,1.8-12.1,2.3-18.2,3.6c-1.2,0.2-0.8,1.9,0.3,2
	c11.3,1,23.3-3.8,33.4-8.2c11-4.8,22.2-11,32.1-17.9c-0.2,0.4-0.3,0.8-0.5,1.2c-0.6,1.5-1.7,3.3-1.2,4.9c0.2,0.6,0.9,1,1.5,0.6
	c1.4-0.9,1.6-2.7,2.1-4.2c0.5-1.4,1.1-2.7,1.4-4.2C401,139.4,400.8,137.7,399.5,137.5z"/>
<circle class="st6" cx="380.2" cy="107.5" r="3.2"/>
<circle class="st34" cx="393.9" cy="107.5" r="3.2"/>
<circle class="st7" cx="407.7" cy="107.5" r="3.2"/>
<g>
	<path class="st0" d="M243,86.3c-5,0-5.1-4.1-5.2-8.1l0-0.7c0-0.6-0.1-1.3-0.2-1.9c-0.1-0.7-0.2-1.5-0.2-2.2c0-1.3,0.2-3.2,1.3-4.5
		c1.3-1.5,3.2-1.6,4.4-1.6l14.1-0.7c0.2,0,0.4,0,0.6,0c0.8,0,2,0.1,2.8,1.1c0.9,1,1,2.4,1,3.7c0,0.8,0,1.5,0,2.3c0,1.5,0,3,0.1,4.5
		c0,0.5,0.1,0.9,0.1,1.4c0.2,2,0.4,4.1-2,5.4c-1.1,0.6-2.3,0.7-3.4,0.7c-0.3,0-0.6,0-0.9,0c-0.6,0-1.1,0-1.6,0
		c-3.4,0.3-6.9,0.5-10.4,0.7C243.2,86.3,243.1,86.3,243,86.3z M257.7,68.6c-0.2,0-0.3,0-0.5,0l-14.1,0.7c-1.2,0.1-2.3,0.2-3,0.9
		c-0.5,0.6-0.8,1.7-0.8,3.1c0,0.7,0.1,1.3,0.2,2c0.1,0.7,0.2,1.4,0.2,2.1l0,0.7c0.2,4.8,0.5,6.3,3.5,6.1c3.4-0.1,6.9-0.4,10.3-0.7
		c0.6,0,1.2,0,1.8,0c1.1,0,2.3,0.1,3.3-0.4c1.1-0.6,1.2-1.4,1-3.5c0-0.5-0.1-1-0.1-1.5c-0.1-1.5-0.1-3.1-0.1-4.6c0-0.7,0-1.5,0-2.2
		c0-0.9-0.1-1.9-0.5-2.4C258.7,68.7,258.3,68.6,257.7,68.6z"/>
	<path class="st0" d="M254.7,76.5c-2.2-2-5.2-3.2-8-4.1c-0.1,2.7,0.2,5.4,0.8,8C249.8,79.2,252.4,77.7,254.7,76.5z"/>
</g>
<path class="st35" d="M455.3,213.3h-20.5c-5.1,0-9.3-4.1-9.3-9.3v-12.1c0-5.1,4.1-9.3,9.3-9.3h20.5c5.1,0,9.3,4.1,9.3,9.3V204
	C464.6,209.1,460.5,213.3,455.3,213.3z"/>
<path class="st35" d="M434,209.1c0,0-0.9,7.1-5.5,10.2c0,0,8.6,1.9,11.8-9.4L434,209.1z"/>
<path class="st0" d="M431.9,168.3h20.5c5.1,0,9.3-4.1,9.3-9.3v-12.1c0-5.1-4.1-9.3-9.3-9.3h-20.5c-5.1,0-9.3,4.1-9.3,9.3V159
	C422.6,164.1,426.7,168.3,431.9,168.3z"/>
<path class="st0" d="M453.2,164.1c0,0,0.9,7.1,5.5,10.2c0,0-8.6,1.9-11.8-9.4L453.2,164.1z"/>
<path class="st21" d="M444.3,207.1c1.1,0.6,2.3,0.6,3.3,0c1.8-0.9,3.5-2,5-3.3c1.9-1.7,3.4-4.1,3.6-6.7c0.2-2.7-1.2-5.6-3.7-6.9
	c-2.5-1.3-5.8,0.2-7.1,2.5c-1.1-0.7-2.3-1.4-3.6-1.8c-1.3-0.4-2.6-0.5-3.8-0.1c-1.1,0.4-2,1.4-2.5,2.5c-1.3,2.7-0.4,6.1,1.5,8.6
	C438.4,203.8,442.1,206,444.3,207.1z"/>
<path class="st31" d="M452.4,155.7c0-1.3,0-2.6-0.6-3.7c-0.6-1.1-2.1-1.9-3.3-1.4c0.7-1.5,1-3.2,0.8-4.8c-0.2-1.3-0.9-2.9-2.3-2.9
	c-0.8,0-1.4,0.5-1.8,1.1c-0.4,0.6-0.7,1.3-1,2c-1,2.1-2.3,4.7-4.9,4.7c0-0.2,0-0.4-0.1-0.4c-0.2-0.2-0.7-0.1-0.9-0.1
	c-0.7,0-1.3,0-2,0.1c-0.6,0-1.4-0.2-2,0.1c-0.7,0.3-0.5,2.3-0.5,3c0,1.3,0,2.6,0.1,3.9c0,0.6,0.1,1.1,0.1,1.7c0,0.5,0,1.4,0.2,1.9
	c0.3,0.7,0.8,0.7,1.5,0.7c1.2,0.1,2.6,0.2,3.8-0.1c0.3-0.1,0.4-0.2,0.5-0.3c0.1-0.1,0.1-0.3,0.1-0.5c3.1,0,6.1-0.3,9.1-1
	c0.7-0.1,1.4-0.3,1.9-0.8C452.3,158.3,452.4,156.9,452.4,155.7z"/>
<g>
	<path class="st4" d="M296.8,299.5c-0.8-0.1-1.7-0.2-2.5-0.3l0.2-1c0.8,0.1,1.6,0.2,2.4,0.3L296.8,299.5z"/>
	<path class="st4" d="M302.1,299.5l-0.1-1c1.7-0.1,3.4-0.4,5.1-0.7l0.2,1C305.6,299.1,303.8,299.4,302.1,299.5z M312.5,297.3
		l-0.3-0.9c1.6-0.6,3.2-1.3,4.8-2.1l0.5,0.9C315.8,296,314.1,296.7,312.5,297.3z M322,292.4l-0.6-0.8c1.4-1,2.8-2,4.2-3.1l0.6,0.8
		C324.9,290.4,323.4,291.5,322,292.4z M330.1,285.6l-0.7-0.7c1.2-1.3,2.3-2.6,3.3-4l0.8,0.6C332.4,282.9,331.3,284.3,330.1,285.6z
		 M336.4,277l-0.9-0.4l0-0.1c0.8-1.5,1.6-3,2.3-4.6l0.9,0.4C338.1,273.9,337.3,275.4,336.4,277z M340.6,267.2l-1-0.3
		c0.5-1.7,0.9-3.4,1.3-5.1l1,0.2C341.6,263.8,341.1,265.6,340.6,267.2z M342.6,256.8l-1-0.1c0.1-1.5,0.2-3,0.2-4.4
		c0-0.3,0-0.5,0-0.8l1,0c0,0.3,0,0.5,0,0.8C342.9,253.8,342.8,255.3,342.6,256.8z"/>
	<path class="st4" d="M341.5,246.3c-0.1-0.8-0.2-1.6-0.4-2.4l1-0.2c0.1,0.8,0.3,1.7,0.4,2.5L341.5,246.3z"/>
</g>
<path class="st4" d="M340.8,239.9c-5.1,0.7-4.1,8.6,1,7.9C346.9,247.2,345.9,239.3,340.8,239.9z"/>
<path class="st4" d="M295.4,295.1c-5.1,0.7-4.1,8.6,1,7.9C301.5,302.4,300.5,294.5,295.4,295.1z"/>
<path class="st4" d="M200.4,323.1c-5.1,0.7-4.1,8.6,1,7.9C206.5,330.4,205.5,322.5,200.4,323.1z"/>
<path class="st4" d="M298.4,315.1c-5.1,0.7-4.1,8.6,1,7.9C304.5,322.4,303.5,314.5,298.4,315.1z"/>
<path class="st4" d="M340.4,369.1c-5.1,0.7-4.1,8.6,1,7.9C346.5,376.4,345.5,368.5,340.4,369.1z"/>
<path class="st4" d="M434.4,310.1c-5.1,0.7-4.1,8.6,1,7.9C440.5,317.4,439.5,309.5,434.4,310.1z"/>
<path class="st4" d="M389.4,409.1c-5.1,0.7-4.1,8.6,1,7.9C395.5,416.4,394.5,408.5,389.4,409.1z"/>
<path class="st4" d="M229.4,400.1c-5.1,0.7-4.1,8.6,1,7.9C235.5,407.4,234.5,399.5,229.4,400.1z"/>
<g>
	<path class="st0" d="M134,136.9c-11.2,0-20.3-9.1-20.3-20.3c0-5.6,2.2-10.7,6.2-14.6c3.8-3.7,8.8-5.7,14.1-5.7
		c5.3,0,10.3,2,14.1,5.7c4,3.8,6.2,9,6.2,14.6C154.3,127.8,145.2,136.9,134,136.9L134,136.9z M134,98.3c-4.8,0-9.3,1.8-12.7,5.2
		c-3.6,3.5-5.6,8.1-5.6,13.2c0,10.1,8.2,18.3,18.3,18.3v1l0-1c10.1,0,18.3-8.2,18.3-18.3c0-5-2-9.7-5.6-13.1
		C143.3,100.1,138.8,98.3,134,98.3z"/>
	<path class="st0" d="M134,109.1c-5.3,0-10.3-2-14.1-5.7c-0.2-0.2-0.3-0.4-0.3-0.7c0-0.3,0.1-0.5,0.3-0.7c3.8-3.7,8.8-5.7,14.1-5.7
		c5.3,0,10.3,2,14.1,5.7c0.2,0.2,0.3,0.4,0.3,0.7c0,0.3-0.1,0.5-0.3,0.7C144.3,107.1,139.3,109.1,134,109.1L134,109.1z M122.1,102.7
		c3.3,2.8,7.5,4.4,11.9,4.4v1l0-1c4.4,0,8.6-1.6,11.9-4.4c-3.3-2.9-7.5-4.4-11.9-4.4C129.6,98.3,125.4,99.8,122.1,102.7z"/>
	<path class="st0" d="M134,136.9c-5.3,0-10.3-2-14.1-5.7c-0.2-0.2-0.3-0.4-0.3-0.7c0-0.3,0.1-0.5,0.3-0.7c3.8-3.7,8.8-5.7,14.1-5.7
		c5.3,0,10.3,2,14.1,5.7c0.2,0.2,0.3,0.4,0.3,0.7c0,0.3-0.1,0.5-0.3,0.7C144.3,134.9,139.3,136.9,134,136.9L134,136.9z M122.1,130.5
		c3.3,2.9,7.5,4.4,11.9,4.4v1l0-1c4.4,0,8.6-1.6,11.9-4.4c-3.3-2.8-7.5-4.4-11.9-4.4C129.6,126.1,125.4,127.6,122.1,130.5z"/>
	<path class="st0" d="M134,136.9C134,136.9,134,136.9,134,136.9c-4.9,0-8.7-8.7-8.7-20.3c0-11.6,3.7-20.3,8.7-20.3
		c4.9,0,8.7,8.7,8.7,20.3c0,5.3-0.8,10.3-2.3,14C138.8,134.7,136.5,136.9,134,136.9z M134,98.3c-3.2,0-6.7,7.5-6.7,18.3
		c0,10.8,3.5,18.3,6.7,18.3v1l0-1c1.6,0,3.2-1.8,4.5-5c1.4-3.5,2.2-8.3,2.2-13.3C140.7,105.8,137.1,98.3,134,98.3z"/>
	<path class="st0" d="M114.7,117.6c-0.6,0-1-0.4-1-1c0-0.6,0.4-1,1-1l38.6,0h0c0.6,0,1,0.4,1,1c0,0.6-0.4,1-1,1L114.7,117.6
		C114.7,117.6,114.7,117.6,114.7,117.6z"/>
</g>
<path class="st31" d="M424.4,310.6v-15.9l-9.6-1.6c-0.5-1.5-1.1-3-1.8-4.4l5.7-8l-11.2-11.2l-8,5.7c-1.4-0.7-2.9-1.3-4.4-1.8
	l-1.6-9.6h-7.9v17.8c11.7,0,21.2,9.5,21.2,21.2c0,11.7-9.5,21.2-21.2,21.2v17.8h7.9l1.6-9.6c1.5-0.5,3-1.1,4.4-1.8l8,5.7l11.2-11.2
	l-5.7-8c0.7-1.4,1.3-2.9,1.8-4.4L424.4,310.6z"/>
<path class="st31" d="M452.2,264.5v-7l-4.3-0.7c-0.2-0.7-0.5-1.3-0.8-2l2.5-3.5l-5-5l-3.5,2.5c-0.6-0.3-1.3-0.6-2-0.8l-0.7-4.3h-3.5
	h-3.5l-0.7,4.3c-0.7,0.2-1.3,0.5-2,0.8l-3.5-2.5l-5,5l2.5,3.5c-0.3,0.6-0.6,1.3-0.8,2l-4.3,0.7v7l4.3,0.7c0.2,0.7,0.5,1.3,0.8,2
	l-2.5,3.5l5,5l3.5-2.5c0.6,0.3,1.3,0.6,2,0.8l0.7,4.3h3.5h3.5l0.7-4.3c0.7-0.2,1.3-0.5,2-0.8l3.5,2.5l5-5l-2.5-3.5
	c0.3-0.6,0.6-1.3,0.8-2L452.2,264.5z M434.9,270.6c-5.3,0-9.6-4.3-9.6-9.6c0-5.3,4.3-9.6,9.6-9.6c5.3,0,9.6,4.3,9.6,9.6
	C444.5,266.3,440.2,270.6,434.9,270.6z"/>
<g id="wifi">
	<path id="Path1" class="st36" d="M393.9,86.8c-2.8,0-5.5,0.9-7.7,2.5l3.2,4.1c1.3-0.9,2.9-1.4,4.6-1.4c1.6,0,3.2,0.5,4.6,1.4
		l3.2-4.1C399.4,87.7,396.7,86.8,393.9,86.8z"/>
	<path id="Path2" class="st36" d="M393.9,76.2c-5.1,0-10,2-13.7,5.5l3.2,4.1c2.7-2.9,6.5-4.5,10.5-4.5c3.9,0,7.7,1.6,10.5,4.5
		l3.2-4.1C403.9,78.2,399,76.2,393.9,76.2z"/>
	<path id="Path3" class="st36" d="M393.9,64.8c-7.6,0-15,2.9-20.7,7.9l3.2,4.1c4.8-4.4,11-6.9,17.5-6.9c6.5,0,12.7,2.5,17.5,6.9
		l3.2-4.1C409,67.6,401.6,64.8,393.9,64.8z"/>
</g>
<circle class="st35" cx="269" cy="404.8" r="26.2"/>
<path class="st0" d="M269,420c-8.4,0-15.2-6.8-15.2-15.2c0-8.4,6.8-15.2,15.2-15.2c8.4,0,15.2,6.8,15.2,15.2
	C284.1,413.2,277.3,420,269,420z M269,391.6c-7.3,0-13.2,5.9-13.2,13.2c0,7.3,5.9,13.2,13.2,13.2c7.3,0,13.2-5.9,13.2-13.2
	C282.1,397.5,276.2,391.6,269,391.6z"/>
<circle class="st0" cx="269" cy="404.8" r="4.7"/>
<path class="st36" d="M269,405.8c-0.3,0-0.5-0.1-0.7-0.3c-0.4-0.4-0.4-1,0-1.4l32.1-32.1c0.4-0.4,1-0.4,1.4,0c0.4,0.4,0.4,1,0,1.4
	l-32.1,32.1C269.5,405.7,269.2,405.8,269,405.8z"/>
<path class="st36" d="M295.6,369.5l-5.8,5.8c-0.2,0.2-0.3,0.6-0.2,0.9l1.8,6.5l7.3-7.3l-1.5-5.6C296.9,369.2,296.1,369,295.6,369.5z
	"/>
<path class="st36" d="M304.5,378.4l-5.8,5.8c-0.2,0.2-0.6,0.3-0.9,0.2l-6.5-1.8l7.3-7.3l5.6,1.5C304.8,377.1,305,378,304.5,378.4z"
	/>
<g>
	<path class="st4" d="M201.6,329.6l-1-0.1c0.1-0.8,0.2-1.7,0.3-2.5l1,0.1C201.8,327.9,201.7,328.7,201.6,329.6z"/>
	<path class="st4" d="M221.9,403.4c-1.6-0.6-3.3-1.3-4.8-2.1l0.5-0.9c1.5,0.8,3,1.5,4.6,2L221.9,403.4z M212.8,398.4
		c-1.4-1.1-2.6-2.3-3.7-3.7l0.8-0.6c1.1,1.3,2.3,2.5,3.6,3.5L212.8,398.4z M206.1,390.4c-0.8-1.4-1.6-3-2.2-4.7l0.9-0.4
		c0.6,1.6,1.4,3.2,2.1,4.6L206.1,390.4z M202.3,380.7c-0.4-1.6-0.8-3.2-1.1-5.1l1-0.2c0.3,1.8,0.7,3.4,1.1,5L202.3,380.7z
		 M200.5,370.6c-0.2-1.7-0.4-3.4-0.6-5.1l1-0.1c0.2,1.7,0.3,3.4,0.6,5.1L200.5,370.6z M199.5,360.3c-0.1-1.7-0.2-3.4-0.2-5.2l1,0
		c0,1.7,0.1,3.4,0.2,5.1L199.5,360.3z M200.2,350l-1,0c0-1.7,0-3.4,0.1-5.2l1,0C200.3,346.6,200.2,348.3,200.2,350z M200.6,339.8
		l-1-0.1c0.1-1.7,0.3-3.4,0.4-5.1l1,0.1C200.8,336.3,200.7,338.1,200.6,339.8z"/>
	<path class="st4" d="M229.6,404.9c-0.8,0-1.7-0.1-2.5-0.2l0.1-1c0.8,0.1,1.6,0.2,2.4,0.2L229.6,404.9z"/>
</g>
<circle class="st31" cx="46.5" cy="236.9" r="3.1"/>
<circle class="st31" cx="58.5" cy="236.9" r="3.1"/>
<circle class="st31" cx="70.5" cy="236.9" r="3.1"/>
<path class="st3" d="M371.9,406.6c0,10.2-6.5,18.9-15.5,22.3c-2.9,1.1-6.1,1.6-9.4,1.5c-12.2-0.6-22.1-10.4-22.6-22.6
	c-0.6-12.6,8.6-23.1,20.6-24.7c1.1-0.1,2.1-0.2,3.2-0.2v23.8H371.9z"/>
<path class="st21" d="M353.1,377.8v23.8h23.8C376.9,388.4,366.3,377.8,353.1,377.8z"/>
<g>
	<path class="st4" d="M297.7,319.6l-0.1-1c0.8-0.1,1.6-0.2,2.5-0.2l0.1,1C299.3,319.5,298.5,319.6,297.7,319.6z"/>
	<path class="st4" d="M339.2,365.4c-0.2-1.6-0.5-3.2-0.8-4.8l1-0.2c0.3,1.6,0.5,3.2,0.8,4.8L339.2,365.4z M337.5,355.8
		c-0.4-1.6-0.8-3.2-1.2-4.7l1-0.3c0.4,1.5,0.8,3.1,1.2,4.8L337.5,355.8z M334.9,346.5c-0.5-1.6-1.1-3.1-1.7-4.5l0.9-0.4
		c0.6,1.4,1.2,3,1.7,4.6L334.9,346.5z M331.2,337.6c-0.8-1.5-1.6-2.9-2.4-4.2l0.8-0.5c0.9,1.3,1.7,2.8,2.5,4.2L331.2,337.6z
		 M325.9,329.6c-1.1-1.2-2.2-2.4-3.4-3.4l0.7-0.8c1.2,1.1,2.4,2.2,3.5,3.5L325.9,329.6z M318.6,323.3c-1.4-0.8-2.8-1.5-4.3-2.1
		l0.4-0.9c1.5,0.6,3,1.3,4.5,2.2L318.6,323.3z M309.7,319.9c-1.5-0.3-3.1-0.5-4.8-0.6l0-1c1.7,0.1,3.3,0.3,4.9,0.6L309.7,319.9z"/>
	<path class="st4" d="M340.1,372.7c-0.1-0.8-0.2-1.7-0.3-2.5l1-0.1c0.1,0.8,0.2,1.6,0.3,2.5L340.1,372.7z"/>
</g>
<g>
	<path class="st4" d="M392.3,414.4c-0.8,0-1.7-0.1-2.5-0.1l0-1c0.8,0,1.7,0.1,2.5,0.1L392.3,414.4z"/>
	<path class="st4" d="M398,414.5l-0.8,0l0-1l0.8,0c1.4,0,2.8,0,4.1-0.1l0,1C400.8,414.5,399.4,414.5,398,414.5z M407,414.1l-0.1-1
		c1.7-0.2,3.3-0.4,4.8-0.7l0.2,1C410.4,413.7,408.7,413.9,407,414.1z M416.7,412.3l-0.3-1c1.6-0.5,3.1-1,4.6-1.6l0.4,0.9
		C419.9,411.2,418.4,411.8,416.7,412.3z M425.8,408.4l-0.5-0.9c1.4-0.8,2.7-1.8,3.9-2.8l0.6,0.8
		C428.6,406.5,427.3,407.5,425.8,408.4z M433.4,402l-0.8-0.7c1.1-1.2,2-2.5,2.8-3.9l0.9,0.5C435.5,399.3,434.5,400.7,433.4,402z
		 M438.5,393.4l-0.9-0.3c0.3-0.8,0.5-1.4,0.7-2.2l0,0.1c0,0,0,0,0,0c0.2-1,0.3-1.7,0.4-2.4l1,0.1c-0.1,0.7-0.2,1.3-0.3,2
		c1.2-0.2,2.4-0.5,3.6-0.8l0.3,0.9c-1.4,0.4-2.8,0.7-4.2,0.9C438.9,392.3,438.7,392.8,438.5,393.4z M433.3,391.6
		c-1.7-0.3-3.3-0.8-4.8-1.5l0.4-0.9c1.4,0.7,3,1.1,4.5,1.4L433.3,391.6z M447.8,388.8l-0.5-0.9c1.4-0.8,2.8-1.6,4-2.6l0.6,0.8
		C450.7,387.1,449.3,388,447.8,388.8z M424.3,387.3c-1.3-1.2-2.2-2.6-2.6-4.1c0-0.1-0.1-0.2-0.1-0.3l1-0.3c0,0.1,0,0.2,0.1,0.2
		c0.4,1.3,1.2,2.5,2.4,3.6L424.3,387.3z M438.6,383.7l0-0.1c-0.2-1.5-0.7-3-1.3-4.4l0.9-0.4c0.7,1.5,1.2,3.1,1.4,4.7l0,0.1
		L438.6,383.7z M455.6,382.7l-0.7-0.7c1.1-1.2,2-2.5,2.9-3.9l0.9,0.5C457.7,380.1,456.7,381.4,455.6,382.7z M423,378.3l-0.9-0.4
		c0.7-1.6,1.9-2.9,3.3-3.9l0.6,0.8C424.7,375.7,423.7,376.9,423,378.3z M434.4,375.4c-1.1-1-2.4-1.6-3.8-1.8c-0.1,0-0.3,0-0.4,0
		l0.1-1c0.1,0,0.3,0,0.4,0.1c1.5,0.2,3,0.9,4.3,2L434.4,375.4z M460.8,374.2l-0.9-0.4c0.6-1.5,1-3,1.4-4.6l1,0.2
		C461.8,371.1,461.4,372.7,460.8,374.2z M463,364.6l-1-0.1c0.1-1.3,0.2-2.7,0.2-4.1c0-0.2,0-0.5,0-0.7l1,0c0,0.3,0,0.5,0,0.8
		C463.2,361.8,463.1,363.2,463,364.6z M461.9,354.8c-0.2-1.6-0.4-3.2-0.8-4.8l1-0.2c0.3,1.6,0.6,3.3,0.8,4.9L461.9,354.8z
		 M460,345.3c-0.4-1.5-0.9-3.1-1.4-4.7l0.9-0.3c0.5,1.6,1,3.2,1.5,4.7L460,345.3z M456.8,336.1c-0.6-1.5-1.3-3-2.1-4.4l0.9-0.5
		c0.7,1.4,1.4,2.9,2.1,4.5L456.8,336.1z M452.3,327.5c-0.9-1.4-1.9-2.7-2.9-3.9l0.8-0.6c1,1.2,2,2.6,2.9,4L452.3,327.5z
		 M446.1,320.1c-1.2-1.1-2.5-2.1-3.9-2.9l0.5-0.9c1.4,0.8,2.7,1.8,4,3L446.1,320.1z"/>
	<path class="st4" d="M437.9,315.2c-0.8-0.3-1.6-0.5-2.4-0.7l0.2-1c0.8,0.2,1.7,0.4,2.5,0.7L437.9,315.2z"/>
</g>
<path class="st0" d="M436.2,347.9c-1.8-0.5-3.5-1.4-5-2.5c-1.2-0.9-2.3-1.9-2.9-3.2c-0.6-1.3-0.7-2.9,0-4.2c0.6-1.1,1.9-1.8,3.2-1.8
	c1.3,0,2.5,0.8,3.1,1.9c0.5-0.8,1.3-1.8,2.1-2.3c0.8-0.5,1.9-0.7,2.8-0.3c1,0.5,1.6,1.6,1.7,2.8c0.1,1.1-0.3,2.2-0.8,3.3
	C439.6,343.6,437.6,346.1,436.2,347.9z"/>
<path class="st0" d="M447.4,354.2c1.1-0.3,2.2-0.9,3.2-1.6c0.7-0.5,1.4-1.2,1.8-2.1c0.4-0.8,0.5-1.9,0-2.7c-0.4-0.7-1.2-1.1-2-1.1
	c-0.8,0-1.6,0.5-2,1.2c-0.3-0.5-0.8-1.2-1.4-1.5c-0.5-0.3-1.2-0.4-1.8-0.2c-0.7,0.3-1,1-1.1,1.8s0.2,1.4,0.5,2.1
	C445.3,351.5,446.5,353.1,447.4,354.2z"/>
<g>
	<path class="st0" d="M385.2,381.6c-1.5,0-2.8-0.5-3.9-1.3c-1.9-1.4-2.7-4.1-1.9-6.3c0.7-2.2,3-3.9,5.3-3.9c0,0,0,0,0,0
		c1.5,0,3.1,0.6,4.3,1.6c1.3,1,2.1,2.3,2.3,3.7c0.2,1.6-0.4,3.3-1.5,4.5c-1.1,1.1-2.6,1.7-4.2,1.8
		C385.4,381.6,385.3,381.6,385.2,381.6z M384.8,372c-1.6,0-3.1,1.1-3.5,2.6c-0.5,1.5,0,3.2,1.3,4.1c0.8,0.6,1.8,0.9,3,0.9
		c1.1-0.1,2.2-0.5,2.9-1.2c0.7-0.7,1.1-1.8,1-2.7c-0.1-0.9-0.7-1.7-1.6-2.4C386.8,372.5,385.8,372,384.8,372z"/>
	<path class="st0" d="M395.6,368.4c-1.5,0-2.8-0.5-3.9-1.3c-1.9-1.4-2.7-4.1-1.9-6.3c0.7-2.2,3-3.9,5.3-3.9c0,0,0,0,0,0
		c1.5,0,3.1,0.6,4.3,1.6c1.3,1,2.1,2.3,2.3,3.7c0.2,1.6-0.4,3.3-1.5,4.5c-1.1,1.1-2.6,1.7-4.2,1.8
		C395.8,368.3,395.7,368.4,395.6,368.4z M395.2,358.8c-1.6,0-3.1,1.1-3.5,2.6c-0.5,1.5,0.1,3.2,1.3,4.1c0.8,0.6,1.9,0.9,3,0.9
		c1.1-0.1,2.2-0.5,2.9-1.2c0.7-0.7,1.1-1.8,1-2.7c-0.1-0.9-0.7-1.7-1.6-2.4C397.2,359.2,396.2,358.8,395.2,358.8z"/>
	<path class="st0" d="M402.6,381.1c-1.5,0-2.8-0.5-3.9-1.3c-1.9-1.4-2.7-4.1-1.9-6.3s3-3.9,5.3-3.9c0,0,0,0,0,0
		c1.5,0,3.1,0.6,4.3,1.6c1.3,1,2.1,2.3,2.3,3.7c0.2,1.6-0.4,3.3-1.5,4.5c-1.1,1.1-2.6,1.7-4.2,1.8
		C402.9,381.1,402.8,381.1,402.6,381.1z M402.2,371.5c-1.6,0-3.1,1.1-3.5,2.6c-0.5,1.5,0,3.2,1.3,4.1c0.8,0.6,1.8,0.9,3,0.9
		c1.1-0.1,2.2-0.5,2.9-1.2c0.7-0.7,1.1-1.8,1-2.7c-0.1-0.9-0.7-1.7-1.6-2.4C404.3,372,403.2,371.5,402.2,371.5z"/>
	<path class="st0" d="M387.9,372.6c-0.2,0-0.5-0.1-0.6-0.2c-0.4-0.4-0.5-1-0.1-1.4l4.7-5.6c0.4-0.4,1-0.5,1.4-0.1
		c0.4,0.4,0.5,1,0.1,1.4l-4.7,5.6C388.5,372.5,388.2,372.6,387.9,372.6z"/>
	<path class="st0" d="M390.2,376.8c-0.5,0-1-0.4-1-1c0-0.6,0.4-1,1-1l7.5-0.1c0,0,0,0,0,0c0.5,0,1,0.4,1,1c0,0.6-0.4,1-1,1
		L390.2,376.8C390.2,376.8,390.2,376.8,390.2,376.8z"/>
</g>
<path class="st37" d="M77.5,295.6c-2.3-1-4.8-0.3-7.1,0.4c-1.8,0.6-1,3.5,0.8,2.9c1.8-0.6,3.6-1.2,5.5-0.4
	C78.5,299.3,79.3,296.3,77.5,295.6z"/>
<path class="st37" d="M76.3,300.6c-2.1-0.5-4.3-0.2-6.2,1c-1.6,1.1-0.1,3.7,1.5,2.6c1.2-0.8,2.5-1.1,3.9-0.7
	C77.4,304,78.2,301.1,76.3,300.6z"/>
</svg>
