<?xml version="1.0" encoding="UTF-8" standalone="no"?>
<!-- Generator: Adobe Illustrator 21.0.2, SVG Export Plug-In . SVG Version: 6.00 Build 0)  -->

<svg
   xmlns:dc="http://purl.org/dc/elements/1.1/"
   xmlns:cc="http://creativecommons.org/ns#"
   xmlns:rdf="http://www.w3.org/1999/02/22-rdf-syntax-ns#"
   xmlns:svg="http://www.w3.org/2000/svg"
   xmlns="http://www.w3.org/2000/svg"
   xmlns:sodipodi="http://sodipodi.sourceforge.net/DTD/sodipodi-0.dtd"
   xmlns:inkscape="http://www.inkscape.org/namespaces/inkscape"
   version="1.1"
   x="0px"
   y="0px"
   viewBox="0 0 500 500"
   xml:space="preserve"
   id="svg454"
   sodipodi:docname="in_main.svg"
   style="enable-background:new 0 0 500 500;"
   inkscape:version="0.92.3 (2405546, 2018-03-11)"><metadata
   id="metadata460"><rdf:RDF><cc:Work
       rdf:about=""><dc:format>image/svg+xml</dc:format><dc:type
         rdf:resource="http://purl.org/dc/dcmitype/StillImage" /></cc:Work></rdf:RDF></metadata><defs
   id="defs458" /><sodipodi:namedview
   pagecolor="#ffffff"
   bordercolor="#666666"
   borderopacity="1"
   objecttolerance="10"
   gridtolerance="10"
   guidetolerance="10"
   inkscape:pageopacity="0"
   inkscape:pageshadow="2"
   inkscape:window-width="1920"
   inkscape:window-height="1008"
   id="namedview456"
   showgrid="false"
   inkscape:zoom="1.3350176"
   inkscape:cx="447.07185"
   inkscape:cy="188.04866"
   inkscape:window-x="0"
   inkscape:window-y="27"
   inkscape:window-maximized="1"
   inkscape:current-layer="svg454" />
<style
   type="text/css"
   id="style2">
	.st0{fill:#E8FBFF;}
	.st1{fill:#BAF1FF;}
	.st2{opacity:0.5;fill:#DEDEDE;}
	.st3{fill:#133447;}
	.st4{fill:#1E5370;}
	.st5{fill:#003C5E;}
	.st6{fill:#003757;}
	.st7{fill:#005C91;}
	.st8{fill:#5498BF;}
	.st9{fill:#99D0DE;}
	.st10{fill:#FFFFFF;}
	.st11{fill:#8BC9D9;}
	.st12{fill:#FF9CBD;}
	.st13{opacity:0.15;}
	.st14{fill:#0E2533;}
	.st15{fill:#FFBE8F;}
	.st16{fill:#004973;}
	.st17{fill:#FF595F;}
	.st18{fill:#CC3F44;}
	.st19{fill:#70C6DB;}
	.st20{fill:#00CFFF;}
</style>
<g
   id="BACKGROUND">
	<path
   class="st0"
   d="M172.2,187.1H15.5c0,0,16.6,0.9,18.9-16.6c2.3-17.6,22.6-24.8,37.4-14.5c14.8,10.3,23.6,4.9,32.4,0   c8.8-4.9,19.4-1.7,26.8,9.4c7.4,11.1,13.2,11.9,21.3,10.2C162.5,173.4,165.3,186.6,172.2,187.1z"
   id="path4" />
	<path
   class="st0"
   d="M301.7,60h156.7c0,0-16.6,0.9-18.9-16.6c-2.3-17.6-22.6-24.8-37.4-14.5c-14.8,10.3-23.6,4.9-32.4,0   c-8.8-4.9-19.4-1.7-26.8,9.4c-7.4,11.1-13.2,11.9-21.3,10.2C311.4,46.3,308.6,59.5,301.7,60z"
   id="path6" />
	<path
   class="st1"
   d="M283.2,90.1h-222c0,0,23.6,1.3,26.9-23.6c3.3-24.9,32.1-35.1,53.1-20.5c21,14.6,33.4,7,45.8,0   c12.4-7,27.5-2.4,38,13.3C235.4,75,243.6,76.1,255,73.7C269.4,70.6,273.4,89.4,283.2,90.1z"
   id="path8" />
	
		<ellipse
   transform="matrix(5.327637e-02 -0.9986 0.9986 5.327637e-02 -294.486 585.7247)"
   class="st2"
   cx="161.7"
   cy="448.2"
   rx="6.4"
   ry="90.2"
   id="ellipse10" />
</g>
<g
   id="OBJECTS">
	<ellipse
   class="st2"
   cx="77.2"
   cy="331.2"
   rx="55.8"
   ry="9.2"
   id="ellipse13" />
	<ellipse
   class="st2"
   cx="436.7"
   cy="327.2"
   rx="55.8"
   ry="9.2"
   id="ellipse15" />
	<ellipse
   class="st2"
   cx="411.7"
   cy="448.4"
   rx="46.6"
   ry="9.2"
   id="ellipse17" />
	<ellipse
   class="st2"
   cx="364.3"
   cy="426"
   rx="36.8"
   ry="7.2"
   id="ellipse19" />
	<ellipse
   class="st2"
   cx="96.7"
   cy="409.8"
   rx="46.6"
   ry="9.2"
   id="ellipse21" />
	<ellipse
   class="st2"
   cx="292.8"
   cy="440"
   rx="46.6"
   ry="9.2"
   id="ellipse23" />
	<ellipse
   class="st2"
   cx="265.7"
   cy="405.2"
   rx="138.9"
   ry="17.2"
   id="ellipse25" />
	<g
   id="g33">
		<path
   class="st3"
   d="M114.6,279.7c0-5.7-1.2-11.2-3.3-16.2l10.1-4.2c-2.7-6.5-6.6-12.3-11.6-17.2l-7.7,7.8    c-3.9-3.9-8.6-7-13.8-9.1l4.2-10.1c-6.4-2.6-13.2-4-20.2-4h-0.1l0.1,10.9c-5.8,0-11.2,1.2-16.2,3.3l-4.2-10.1    c-6.5,2.7-12.3,6.6-17.2,11.6l7.7,7.7c-3.9,3.9-7,8.6-9.1,13.7L23,259.6c-2.7,6.4-4,13.3-4,20.3l0,0.3l10-0.2h0.9    c0,5.7,1.2,11.2,3.2,16.2l-10.1,4.2c2.7,6.5,6.6,12.3,11.6,17.2l7.7-7.7c3.9,3.9,8.6,7,13.7,9.2l-4.2,10.1c6.5,2.7,13.3,4,20.3,4    h0.5l0.5,0l-1-10.9v0c5.7,0,11.2-1.2,16.2-3.2l4.2,10.1c6.5-2.7,12.3-6.6,17.3-11.6l-7.7-7.7c3.9-3.9,7-8.6,9.2-13.7l10.1,4.2    c2.7-6.5,4-13.3,4-20.5L114.6,279.7z M72.3,300.1c-11.2,0-20.3-9.1-20.3-20.3c0-11.2,9.1-20.3,20.3-20.3s20.3,9.1,20.3,20.3    C92.5,291.1,83.4,300.1,72.3,300.1z"
   id="path27" />
		<path
   class="st4"
   d="M72.3,237.5c-23.4,0-42.3,19-42.3,42.3c0,23.4,19,42.3,42.3,42.3c23.4,0,42.3-19,42.3-42.3    C114.6,256.5,95.6,237.5,72.3,237.5z M72.3,300.1c-11.2,0-20.3-9.1-20.3-20.3c0-11.2,9.1-20.3,20.3-20.3s20.3,9.1,20.3,20.3    C92.5,291.1,83.4,300.1,72.3,300.1z"
   id="path29" />
		<circle
   class="st3"
   cx="72.3"
   cy="279.9"
   r="12.4"
   id="circle31" />
	</g>
	<g
   id="g39">
		<path
   class="st5"
   d="M478.5,282.8c0.9-5.7,0.5-11.3-0.8-16.5l10.6-2.6c-1.7-6.8-4.7-13.1-8.9-18.8l-8.8,6.5    c-3.3-4.4-7.4-8.2-12.2-11.1l5.6-9.4c-5.9-3.6-12.5-5.9-19.4-7l-0.1,0l-1.6,10.8c-5.7-0.9-11.3-0.6-16.6,0.8l-2.6-10.6    c-6.8,1.7-13.1,4.7-18.8,8.8l6.5,8.8c-4.4,3.3-8.2,7.4-11.1,12.2l-9.4-5.6c-3.6,6-6,12.5-7,19.4l0,0.3l9.9,1.4l0.9,0.1    c-0.9,5.7-0.6,11.2,0.7,16.5l-10.6,2.6c1.7,6.8,4.6,13.1,8.8,18.8l8.8-6.5c3.3,4.4,7.4,8.2,12.2,11.1l-5.7,9.3    c6,3.6,12.5,6,19.5,7.1l0.5,0.1l0.5,0l0.7-10.9l0,0c5.7,0.9,11.2,0.6,16.5-0.7l2.6,10.6c6.8-1.7,13.1-4.6,18.8-8.8l-6.5-8.8    c4.4-3.3,8.2-7.4,11.2-12.2l9.3,5.7c3.6-6,6-12.6,7.1-19.6L478.5,282.8z M432.2,305.6c-16-2.5-27-17.5-24.6-33.5    c2.5-16,17.5-27,33.5-24.6c16,2.5,27,17.5,24.6,33.5C463.2,297,448.2,308,432.2,305.6z"
   id="path35" />
		<path
   class="st3"
   d="M443.1,234.7c-23.1-3.6-44.7,12.3-48.3,35.4c-3.6,23.1,12.3,44.7,35.4,48.3c23.1,3.6,44.7-12.3,48.3-35.4    C482.1,259.9,466.2,238.3,443.1,234.7z M432.2,305.6c-16-2.5-27-17.5-24.6-33.5c2.5-16,17.5-27,33.5-24.6    c16,2.5,27,17.5,24.6,33.5C463.2,297,448.2,308,432.2,305.6z"
   id="path37" />
	</g>
	<g
   id="g139">
		<polygon
   class="st6"
   points="339.6,379 167.8,379 178.5,333.7 328.9,333.7   "
   id="polygon41" />
		<path
   class="st7"
   d="M348,405.9H159.4c-8.8,0-16-7.2-16-16l0,0c0-8.8,7.2-16,16-16H348c8.8,0,16,7.2,16,16l0,0    C364.1,398.6,356.9,405.9,348,405.9z"
   id="path43" />
		<path
   class="st6"
   d="M348,392.5H159.4c-6.4,0-12-3.9-14.6-9.4c-0.9,2-1.5,4.3-1.5,6.7l0,0c0,8.8,7.2,16,16,16H348    c8.8,0,16-7.2,16-16l0,0c0-2.4-0.5-4.6-1.5-6.7C360,388.7,354.5,392.5,348,392.5z"
   id="path45" />
		<path
   class="st8"
   d="M278.5,382h-97.8c-1.1,0-2.1-0.9-2.1-2.1l0,0c0-1.1,0.9-2.1,2.1-2.1h97.8c1.1,0,2.1,0.9,2.1,2.1l0,0    C280.6,381.1,279.7,382,278.5,382z"
   id="path47" />
		<path
   class="st8"
   d="M326.7,382h-35.3c-1.1,0-2.1-0.9-2.1-2.1l0,0c0-1.1,0.9-2.1,2.1-2.1h35.3c1.1,0,2.1,0.9,2.1,2.1l0,0    C328.7,381.1,327.8,382,326.7,382z"
   id="path49" />
		<path
   class="st7"
   d="M428.4,336.2H79c-4.5,0-8.2-3.7-8.2-8.2V119.8c0-4.5,3.7-8.2,8.2-8.2h349.5c4.5,0,8.2,3.7,8.2,8.2V328    C436.7,332.5,433,336.2,428.4,336.2z"
   id="path51" />
		<path
   class="st5"
   d="M422.9,306.2H84.5c-3.8,0-7-3.1-7-7V133.1c0-3.8,3.1-7,7-7h338.4c3.8,0,7,3.1,7,7v166.1    C429.9,303,426.8,306.2,422.9,306.2z"
   id="path53" />
		<path
   class="st1"
   d="M420,303.1H87.4c-3.7,0-6.8-3.1-6.8-6.8V136c0-3.7,3.1-6.8,6.8-6.8H420c3.7,0,6.8,3.1,6.8,6.8v160.4    C426.8,300.1,423.7,303.1,420,303.1z"
   id="path55" />
		<path
   class="st9"
   d="M102.7,303.1h301.9l8.9-173.8c-0.4-0.1-0.8-0.1-1.2-0.1H95.1c-0.4,0-0.8,0-1.2,0.1L102.7,303.1z"
   id="path57" />
		<circle
   class="st0"
   cx="253.7"
   cy="321.1"
   r="8.4"
   id="circle59" />
		<circle
   class="st6"
   cx="253.7"
   cy="321.1"
   r="5.7"
   id="circle61" />
		<rect
   x="102.8"
   y="78.6"
   class="st10"
   width="301.9"
   height="224.5"
   id="rect63" />
		<path
   class="st7"
   d="M275.3,236h-12.1c-2.9,0-5.2-2.3-5.2-5.2v-12.1c0-2.9,2.3-5.2,5.2-5.2h12.1c2.9,0,5.2,2.3,5.2,5.2v12.1    C280.5,233.6,278.2,236,275.3,236z"
   id="path65" />
		<path
   class="st1"
   d="M312.4,236h-12.1c-2.9,0-5.2-2.3-5.2-5.2v-12.1c0-2.9,2.3-5.2,5.2-5.2h12.1c2.9,0,5.2,2.3,5.2,5.2v12.1    C317.6,233.6,315.2,236,312.4,236z"
   id="path67" />
		<path
   class="st11"
   d="M386.5,236h-12.1c-2.9,0-5.2-2.3-5.2-5.2v-12.1c0-2.9,2.3-5.2,5.2-5.2h12.1c2.9,0,5.2,2.3,5.2,5.2v12.1    C391.7,233.6,389.3,236,386.5,236z"
   id="path69" />
		<path
   class="st12"
   d="M349.4,236h-12.1c-2.9,0-5.2-2.3-5.2-5.2v-12.1c0-2.9,2.3-5.2,5.2-5.2h12.1c2.9,0,5.2,2.3,5.2,5.2v12.1    C354.6,233.6,352.3,236,349.4,236z"
   id="path71" />
		<polygon
   class="st1"
   points="198.3,274.4 182.6,274.4 176.6,303.1 205.2,303.1   "
   id="polygon73" />
		<rect
   x="116"
   y="216.1"
   class="st1"
   width="33.6"
   height="87"
   id="rect75" />
		<polygon
   class="st1"
   points="179.3,303.1 145.7,303.1 157.2,256.3 172.7,256.3   "
   id="polygon77" />
		<rect
   x="115.7"
   y="140.7"
   class="st12"
   width="133.8"
   height="62"
   id="rect79" />
		<circle
   class="st10"
   cx="146.7"
   cy="171.7"
   r="19.2"
   id="circle81" />
		<path
   class="st7"
   d="M145.3,180.7L145.3,180.7c-0.9,0.9-2.5,0.9-3.4,0l-6.9-6.9c-0.9-0.9-0.9-2.5,0-3.4l0,0c0.9-0.9,2.5-0.9,3.4,0    l6.9,6.9C146.2,178.2,146.2,179.7,145.3,180.7z"
   id="path83" />
		<path
   class="st7"
   d="M141.9,180.5L141.9,180.5c-0.9-0.9-0.9-2.5,0-3.4l12-12c0.9-0.9,2.5-0.9,3.4,0l0,0c0.9,0.9,0.9,2.5,0,3.4    l-12,12C144.4,181.5,142.9,181.5,141.9,180.5z"
   id="path85" />
		<rect
   x="258.1"
   y="140.7"
   class="st1"
   width="133.8"
   height="62"
   id="rect87" />
		<rect
   x="106.8"
   y="83"
   class="st1"
   width="293.7"
   height="14.2"
   id="rect89" />
		<rect
   x="170.8"
   y="87.1"
   class="st11"
   width="165.8"
   height="5.9"
   id="rect91" />
		<g
   id="g107">
			<g
   id="g97">
				<path
   class="st10"
   d="M388.3,93.8L388.3,93.8c-0.3-0.3-0.3-0.7,0-0.9l6.6-6.6c0.3-0.3,0.7-0.3,0.9,0l0,0c0.3,0.3,0.3,0.7,0,0.9      l-6.6,6.6C389,94.1,388.6,94.1,388.3,93.8z"
   id="path93" />
				<path
   class="st10"
   d="M395.8,93.8L395.8,93.8c0.3-0.3,0.3-0.7,0-0.9l-6.6-6.6c-0.3-0.3-0.7-0.3-0.9,0l0,0      c-0.3,0.3-0.3,0.7,0,0.9l6.6,6.6C395.1,94.1,395.6,94.1,395.8,93.8z"
   id="path95" />
			</g>
			<g
   id="g101">
				<path
   class="st10"
   d="M379,86.7c1.9,0,3.4,1.5,3.4,3.4c0,1.9-1.5,3.4-3.4,3.4s-3.4-1.5-3.4-3.4C375.6,88.2,377.2,86.7,379,86.7       M379,85.7c-2.4,0-4.4,2-4.4,4.4s2,4.4,4.4,4.4s4.4-2,4.4-4.4S381.5,85.7,379,85.7L379,85.7z"
   id="path99" />
			</g>
			<g
   id="g105">
				<path
   class="st10"
   d="M370,93.8h-8c-0.3,0-0.5-0.2-0.5-0.5c0-0.3,0.2-0.5,0.5-0.5h8c0.3,0,0.5,0.2,0.5,0.5      C370.5,93.6,370.3,93.8,370,93.8z"
   id="path103" />
			</g>
		</g>
		<g
   id="g113">
			<g
   id="g111">
				<path
   class="st10"
   d="M120,93.5h-8c-0.3,0-0.5-0.2-0.5-0.5c0-0.3,0.2-0.5,0.5-0.5h8c0.3,0,0.5,0.2,0.5,0.5      C120.5,93.3,120.3,93.5,120,93.5z"
   id="path109" />
			</g>
		</g>
		<g
   id="g119">
			<g
   id="g117">
				<path
   class="st10"
   d="M120,90.6h-8c-0.3,0-0.5-0.2-0.5-0.5c0-0.3,0.2-0.5,0.5-0.5h8c0.3,0,0.5,0.2,0.5,0.5      C120.5,90.4,120.3,90.6,120,90.6z"
   id="path115" />
			</g>
		</g>
		<g
   id="g125">
			<g
   id="g123">
				<path
   class="st10"
   d="M120,87.7h-8c-0.3,0-0.5-0.2-0.5-0.5c0-0.3,0.2-0.5,0.5-0.5h8c0.3,0,0.5,0.2,0.5,0.5      C120.5,87.4,120.3,87.7,120,87.7z"
   id="path121" />
			</g>
		</g>
		<path
   class="st10"
   d="M232.9,175.4h-56.1c-1.5,0-2.7-1.2-2.7-2.7l0,0c0-1.5,1.2-2.7,2.7-2.7h56.1c1.5,0,2.7,1.2,2.7,2.7l0,0    C235.6,174.2,234.4,175.4,232.9,175.4z"
   id="path127" />
		<path
   class="st10"
   d="M232.9,163.4h-56.1c-1.5,0-2.7-1.2-2.7-2.7l0,0c0-1.5,1.2-2.7,2.7-2.7h56.1c1.5,0,2.7,1.2,2.7,2.7l0,0    C235.6,162.2,234.4,163.4,232.9,163.4z"
   id="path129" />
		<path
   class="st10"
   d="M232.9,187.4h-56.1c-1.5,0-2.7-1.2-2.7-2.7l0,0c0-1.5,1.2-2.7,2.7-2.7h56.1c1.5,0,2.7,1.2,2.7,2.7l0,0    C235.6,186.2,234.4,187.4,232.9,187.4z"
   id="path131" />
		<path
   class="st13"
   d="M180.4,260.9h-2.9v-0.2c0-1-0.8-1.8-1.8-1.8H162c-1,0-1.8,0.8-1.8,1.8v2c0,1,0.8,1.8,1.8,1.8h13.8    c1,0,1.8-0.8,1.8-1.8v-0.2h2v5h-10.7c-0.5,0-0.8,0.4-0.8,0.8v6.4c-1,0.4-1.8,1.3-1.8,2.5v4c-0.6,0.4-1.3,0.9-2.2,1.4    c-1.6,0.9-2.3,1.9-2.5,2.7c-4.9,1.2-11.5,2.8-17.5,3.9c-7.1,1.3-13.4,1.9-15.1,2.1c-0.3,0-0.5,0.1-0.8,0.1c-0.3-0.4-0.7-0.7-1.1-1    c0,0-5.4,1-9.6,1.7c-0.3,0.1-1.7,0.4-3.7,0.7c-0.1-0.7-0.1-1.3-0.1-1.7c1.5-0.5,2.8-1.5,3.7-3.1c3.9-6.9,2.4-13.3,0.2-17.6l0,0    c0,0-2.7-11.4-15.7-7.9c-8.7,2.3-11,18.2-11.5,28.4c-0.3-0.2-0.6-0.3-0.9-0.5c-2.1-1.3-4.6-3.2-6.7-5.7c-2.2-2.5-3.9-5.6-5-8.8    c-0.8-2.2-1.3-4.5-1.6-6.5c0.7-0.6,1.4-1.7,1.4-3.8c-0.1-4.1,0.6-5.2,1.1-5.9c0.5-0.7-1.2-1.8-2.4,1c-1.2,2.8-1.2,2.8-1.2,2.8    s-1.6-6.1-3.6-7.9c-0.3-0.2-0.5-0.3-0.8-0.3v13.5c0.3,0.3,0.6,0.5,1,0.7c-0.2,2.3-0.2,5,0.2,7.9c0.3,2,0.9,4.1,1.6,6.2    c0.8,2.1,1.8,4,3,5.8c2.4,3.6,5.5,6.4,8.1,8.3c2.6,1.9,4.8,2.9,5.7,3.3c0.4,0.2,0.8,0.3,1.1,0.4c-0.1,0.6-0.2,1.3-0.3,1.9    c0,0,2.2,0.9,6.6,1.4c0,0,9.5,6.6,3.2,21c-1.6,3.6-2.9,7.1-4,10.5h29.8c-1-3.7-2.1-7.3-3.6-10.5c-5.2-11.3,1.6-13.5,1.8-21.3    c0,0,3.1-0.2,5-1.9c0,0,0.2-0.9,0.2-2.3c1.9-0.2,8.5-1.3,15.7-3.5c6.2-1.9,12.6-4.6,17.2-7.1c0.7,0.4,1.8,0.7,3.3,0.6v2.7    c0,1.5,1.2,2.6,2.6,2.6c1.5,0,2.6-1.2,2.6-2.6V289c3.6-1.7,6.3-5.3,4.2-6.1c-1-0.4-2.6-0.3-4.2-0.1v-5.5c0-1.2-0.8-2.1-1.8-2.5    v-5.6h10.7c0.5,0,0.8-0.4,0.8-0.8v-6.7C181.3,261.2,180.9,260.9,180.4,260.9z"
   id="path133" />
		<path
   class="st13"
   d="M401.2,138.5c-2.4,1.2-5.4,6.7-5.4,6.7s0,0-0.5-3c-0.5-3-2.4-2.4-2.1-1.6c0.4,0.8,0.7,2.1-0.3,6    c-0.5,2.1-0.1,3.3,0.5,4.1c-0.8,1.9-1.8,3.9-3.1,5.9c-1.8,2.8-4.2,5.4-6.9,7.3c-2.5,1.8-5.2,2.9-7.4,3.6c-0.6-1.6-1-2.6-1-2.6    c-5.7,4.9-12.2,5.8-17.2,5.6c0.4-2.6,0.4-4.5,0.3-6c0.6-0.2,1.1-0.5,1.7-0.8c0.6-0.3,1.2-0.7,1.7-1c3.2-0.9,5.7-4,7.4-7.2    c2.7-5.2,2.6-12.8-3.2-17c-5.6-4.1-10.4-3.9-17.5-3.6c0,0-1.8,3.3,0.5,7.4c-3.8,3.2-7.8,9-6,17.5c0.7,3.4,3.6,5.4,7.3,5.9    c0,0.8-0.1,1.9-0.3,3.3c-0.2-0.1-0.4-0.1-0.5-0.1c-4.2-0.7-13.4-6-13.4-6c-1.1,0.6-2.2,1.7-3.1,2.9c-0.2-0.2-0.4-0.4-0.7-0.6    c-1.6-1.6-3.2-4-4.5-6.9c-0.3-0.7-0.6-1.5-0.9-2.3c-0.2-0.8-0.4-1.6-0.6-2.4c-0.1-0.4-0.2-0.8-0.3-1.2l-0.2-1.2    c-0.1-0.4-0.1-0.8-0.2-1.2c-0.1-0.4-0.1-0.8-0.1-1.2c-0.1-0.8-0.1-1.6-0.2-2.4c-0.1-0.8-0.1-1.6-0.1-2.3c0-0.6,0-1.1,0-1.7    c0.8-0.4,1.7-1.4,2-3.5c0.5-4.1,1.4-5.1,2-5.7c0.6-0.6-0.9-2-2.5,0.5c-0.5,0.9-0.9,1.4-1.1,1.8c-0.5,0.7-0.5,0.7-0.5,0.7    s-0.7-6.4-2.5-8.5c-1.8-2.2-4.9,3.7-4.2,8.4c0.5,3,1.2,4.7,2.2,5.7c-0.1,0.5-0.3,1-0.4,1.5c-0.3,0.8-0.4,1.6-0.5,2.5    c-0.1,0.9-0.3,1.8-0.4,2.7c-0.1,0.5-0.1,1-0.1,1.4c0,0.5,0,1,0,1.5c0,0.5,0,1,0,1.5c0,0.5,0,1,0.1,1.5c0.1,1,0.3,2.1,0.4,3.1    c0.2,1,0.5,2.1,0.7,3.1c1.1,4,3.2,7.7,5.3,10.2c1.1,1.2,2,2.2,2.9,3c-0.3,0.7-0.4,1.1-0.4,1.1v0c1.6,1.6,3.6,2.8,5.5,3.7    c0.8,0.4,1.5,0.7,2.3,0.9c0.7,0.3,1.4,0.5,2.1,0.7c1,0.3,1.8,0.5,2.5,0.6c0.4,0.1,0.8,0.2,1,0.2c0.2,0,0.4,0.1,0.4,0.1    c0.2,4.3,0,8.5-0.3,12.4c-0.1,1.1-0.2,2.2-0.3,3.3c-0.1,0.5-0.1,1.1-0.2,1.6c-0.4,3.1-0.9,6-1.4,8.5c-0.1,0.4-0.2,0.8-0.3,1.2    c-0.2,0.8-0.3,1.6-0.5,2.3c-0.1,0.2-0.1,0.4-0.2,0.6l-1,0l-0.1-8.2c0-0.9-0.8-1.7-1.7-1.7c-0.9,0-1.7,0.7-1.7,1.7l0.4,22.3l0,0v0    l1.4,86.1l0.2,12.2v0l0,0l0.2,13h49.2l0-0.9v0l0,0l-0.4-36.3v0v0l-0.1-12.2l0,0c0,0,0,0,0,0l-0.1-12.2l0,0v0l-0.1-12.2v0l0,0    l-0.1-12.3v0l0,0l-0.1-12.3v0l0,0l-0.3-24.7v0v0l-0.1-9.8c0-0.9-0.8-1.7-1.7-1.7c-0.9,0-1.7,0.7-1.7,1.6l0.1,8.2l-5.3-0.1    c-0.2-0.5-0.5-1.1-0.7-1.7c-0.6-1.5-1.2-3-1.6-4.6c-0.5-1.5-0.9-3.1-1.3-4.6c-2.4-10-2.3-18.8-2.3-18.8c0.3,0,0.6,0,0.9,0    c0.9,0,1.7-0.1,2.6-0.3c2.5-0.5,4.7-1.5,5.6-2c0.3-0.2,0.5-0.3,0.5-0.3c-0.1-1.1-0.3-2.3-0.6-3.3c0,0,0.1,0,0.1,0    c3-1.1,6.7-3,9.9-6c1.6-1.4,3.1-3.1,4.3-4.9c1.2-1.8,2.3-3.7,3-5.5c1.1-2.7,1.7-5.3,2.1-7.6c1.7-0.5,3.5-1.9,3.9-4.4    C402.4,143.4,403.6,137.3,401.2,138.5z M365.2,256.5l-12.1,0c-0.1-2.9-0.2-6-0.3-9.2l11.2,0C364.4,250.5,364.8,253.6,365.2,256.5z     M362.6,238.5c0.3,1.8,0.6,3.6,0.8,5.5l-10.8,0c-0.1-2-0.1-4-0.1-6c0-1.1,0-2.1,0-3.2l9.6,0C362.3,236.1,362.5,237.3,362.6,238.5z     M352.7,224.6c0-0.8,0.1-1.5,0.1-2.1l0.7,0c0.7,0.1,1.4,0.2,2.2,0.2c1.1,0,2.1-0.1,3.1-0.2l1,0c0.2,0.9,0.4,2,0.6,3.1    c0.3,1.8,0.7,3.8,1.1,5.9l-9,0C352.6,229,352.6,226.7,352.7,224.6z M336.5,210.4l0-0.2l0.1,0C336.6,210.3,336.5,210.3,336.5,210.4    z M336.7,219.2l-0.1-5.2c1.6,0.5,3.1,1,4.6,1.4c0,0.1,0,0.2,0,0.3c0,0.1,0,0.3,0,0.5c0,0.1,0,0.2,0,0.3c0,0.1,0,0.1,0,0.2    c-0.1,0.7-0.1,1.5-0.1,2.5L336.7,219.2z M337,231.6l-0.2-9.1l4.1,0c0,0.6,0,1.1,0,1.7c0.1,2.2,0.2,4.7,0.4,7.3L337,231.6z     M337.1,234.9l4.6,0c0.1,1.2,0.3,2.4,0.4,3.7c0.2,1.8,0.5,3.6,0.8,5.4l-5.6,0L337.1,234.9z M337.3,247.4l6.1,0    c0.6,3.1,1.2,6.3,1.8,9.2l-7.7,0L337.3,247.4z M337.6,260l8.4,0c0.4,1.7,0.9,3.3,1.3,4.8c-0.5,0.5-1,1.3-1.4,2.3    c-0.3,0.8-0.3,1.5-0.2,2.1l-7.9,0L337.6,260z M381.4,323.9l0.3,9.5l-42.5,0L339,324L381.4,323.9z M381.3,320.4l-42.4,0l-0.2-9.5    l42.3,0L381.3,320.4z M380.6,298.1l0.3,9.4l-42.3,0l-0.2-9.4L380.6,298.1z M380.5,294.6l-42.1,0l-0.2-9.3l42-0.1L380.5,294.6z     M379.7,269.1l-4.2,0c0-0.1,0-0.2,0-0.3c-0.1-0.4-0.3-0.9-0.5-1.3c-0.7-1.3-1.7-2.2-2.8-2.7c0.2-1.5,0.4-3.1,0.5-4.9l6.7,0    L379.7,269.1z M379.3,256.5l-6.4,0c0.2-2.9,0.3-6,0.3-9.2l5.7,0L379.3,256.5z M378.9,244l-5.6,0c0-2.1-0.1-4.2-0.1-6.2    c0-1-0.1-2-0.1-2.9l5.6,0L378.9,244z M378.5,231.5l-5.7,0c-0.2-2.7-0.4-5.2-0.7-7.4c-0.1-0.6-0.1-1.1-0.2-1.6l6.3,0L378.5,231.5z     M376.5,213.6c-0.8-1.1-1.5-2.3-2.2-3.5l3.5,0l0.3,9l-6.6,0c-0.1-0.4-0.1-0.7-0.2-1.1h0c0,0,0-0.1,0-0.1c0-0.3-0.1-0.6-0.1-0.8    c0-0.1,0-0.2-0.1-0.3c0-0.1,0-0.2,0-0.2c0-0.2-0.1-0.3-0.1-0.4c-0.1-0.3-0.1-0.6-0.2-0.9C374.4,214.4,376.5,213.6,376.5,213.6z     M367.4,272.6l5.1,0c0.1,0,0.2,0,0.2,0l7.1,0l0.3,9.3l-42,0.1l-0.2-9.3l29.2-0.1C367.2,272.6,367.3,272.6,367.4,272.6z     M365.7,259.9c0.3,1.8,0.6,3.5,0.8,5.1c-0.7,0.5-1.5,1.3-2.1,2.6c-0.3,0.6-0.4,1.1-0.4,1.6l-7.3,0c0.1-0.5,0.1-1,0-1.5    c-0.1-0.4-0.3-0.9-0.6-1.3c-0.8-1.2-1.9-2.1-3-2.5c0-1.2,0-2.5-0.1-3.9L365.7,259.9z"
   id="path135" />
		<path
   class="st13"
   d="M315.1,254.9l-11.9-4.2c-2.8-1-6.1,0.6-7.4,3.5l-5.2,12.2c-1.2,2.9,0.1,6.1,2.9,7.1l11.9,4.2    c0.1,0,0.1,0,0.2,0.1c0.2,0.5,0.4,1.1,0.6,1.8c0.5,1.6,1.3,2.5,2.1,3c-0.5,2.3-1,5-1.6,7.9c-0.2,0.9-0.4,1.9-0.6,2.9    c-0.2,1-0.5,1.9-0.7,2.9c-0.4,2-1.1,3.8-1.6,5.7c-0.9,2.8-1.9,5.5-3,7.6c-1-1.9-1.9-3.1-1.9-3.1c-6.2,6.2-10.8,9.3-14.2,10.7    c0.2-1.3,0.3-2.6,0.4-3.7c1.7-0.8,3.4-1.9,5-3.4c2.7-2.5,4.5-5.6,5.5-8.9c0.2,0.1,0.4,0.2,0.7,0.2c2.8,0,6.5-7.4,3.5-8.7    c-0.7-0.3-1.3-0.3-1.9-0.1c0-0.5,0-0.9,0-1.4c-0.7-8.7-5.4-12.6-15.3-11.1c-9.9,1.5-12.5,10.4-12.5,10.4c0,0.2-0.1,0.3-0.1,0.5    c-0.5-0.2-1.1-0.3-1.9-0.1c-3.3,0.8-2,8.5,0.7,8.9c0.5,0.1,0.9-0.1,1.2-0.3c-0.1,3.1,0.4,6.4,1.9,9.9c0.9,2,2.3,3.5,4.1,4.3    c0,1.1-0.2,2.5-0.4,3.8c-4.6-1.7-10.9-7.6-10.9-7.6c0,0,0,0-0.1,0c-0.1-0.2-0.3-0.5-0.4-0.7c-0.2-0.4-0.5-0.8-0.8-1.3    c-1.1-1.9-2.1-4.6-2.9-7.7c-0.2-0.8-0.4-1.5-0.5-2.4c-0.1-0.8-0.3-1.6-0.4-2.5c-0.2-0.8-0.2-1.7-0.3-2.5c-0.1-0.8-0.2-1.7-0.2-2.5    c0-0.8-0.1-1.6-0.1-2.4c0-0.8-0.1-1.6-0.1-2.3c0-0.9,0-1.7,0-2.5c0.1,0,0.3,0,0.4-0.1c1-0.3,2.3-1.1,3.5-3.4    c0.5-1,0.9-1.7,1.3-2.4l1.6,0.5c2.8,1,6.1-0.6,7.4-3.5l5.2-12.2c1.2-2.9-0.1-6.1-2.9-7.1l-11.9-4.2c-2.8-1-6.1,0.6-7.4,3.5    l-5.2,12.2c-1.2,2.9,0.1,6.1,2.9,7.1l0.9,0.3c0,0.2-0.1,0.4-0.1,0.5c-0.6,3.2-0.5,5.3,0.1,6.6c-0.4,1.2-0.9,2.6-1.3,4.2    c-0.3,0.8-0.4,1.7-0.6,2.5c-0.2,0.9-0.3,1.8-0.5,2.7c-0.2,0.9-0.2,1.9-0.3,2.9c-0.1,1-0.2,2-0.2,3c0,1,0,2,0,3c0,1,0.1,2,0.2,3    c0.4,3.9,1.3,7.5,2.5,10.3c0.3,0.7,0.6,1.3,0.9,1.9c0.3,0.6,0.5,1.1,0.8,1.6c0.6,0.9,1,1.6,1.2,2c0,0,0,0,0,0    c-1,1.8-1.6,3.1-1.6,3.1c3.7,8.5,9.4,10.6,9.4,10.6c-0.1,1.5-0.2,3.1-0.3,4.5h30c0.4-5.3,1-8.8,1-8.8c5.1,0.1,9.1-4.6,9.1-4.6    c0-0.5,0-1-0.1-1.5c0,0,0,0,0,0c0.4-0.5,0.9-1.3,1.7-2.4c0.4-0.6,0.7-1.2,1.1-1.9c0.4-0.7,0.8-1.4,1.1-2.2    c1.6-3.2,2.7-7.3,3.6-11.5c1.5-7.6,1.5-15.7,1-21.2c1.4-1.1,2.2-3.4,2.1-7.6c0-1.4-0.4-2.8-0.9-4.1l3.6-8.4    C319.2,259.1,317.9,255.9,315.1,254.9z"
   id="path137" />
	</g>
	<g
   id="g223">
		<g
   id="g145">
			<g
   id="g143">
				<path
   class="st14"
   d="M341.1,426.6c-0.9,0-1.7-0.8-1.7-1.7V200.5c0-0.9,0.8-1.7,1.7-1.7c0.9,0,1.7,0.8,1.7,1.7v224.4      C342.8,425.8,342,426.6,341.1,426.6z"
   id="path141" />
			</g>
		</g>
		<g
   id="g151">
			<g
   id="g149">
				<path
   class="st14"
   d="M387,426.6c-0.9,0-1.7-0.8-1.7-1.7V200.5c0-0.9,0.8-1.7,1.7-1.7c0.9,0,1.7,0.8,1.7,1.7v224.4      C388.7,425.8,387.9,426.6,387,426.6z"
   id="path147" />
			</g>
		</g>
		<g
   id="g221">
			<g
   id="g155">
				<path
   class="st14"
   d="M387,212.1h-45.9c-0.9,0-1.7-0.8-1.7-1.7c0-0.9,0.8-1.7,1.7-1.7H387c0.9,0,1.7,0.8,1.7,1.7      C388.7,211.3,387.9,212.1,387,212.1z"
   id="path153" />
			</g>
			<g
   id="g159">
				<path
   class="st14"
   d="M387,224.5h-45.9c-0.9,0-1.7-0.8-1.7-1.7c0-0.9,0.8-1.7,1.7-1.7H387c0.9,0,1.7,0.8,1.7,1.7      C388.7,223.8,387.9,224.5,387,224.5z"
   id="path157" />
			</g>
			<g
   id="g163">
				<path
   class="st14"
   d="M387,237h-45.9c-0.9,0-1.7-0.8-1.7-1.7c0-0.9,0.8-1.7,1.7-1.7H387c0.9,0,1.7,0.8,1.7,1.7      C388.7,236.3,387.9,237,387,237z"
   id="path161" />
			</g>
			<g
   id="g167">
				<path
   class="st14"
   d="M387,249.5h-45.9c-0.9,0-1.7-0.8-1.7-1.7c0-0.9,0.8-1.7,1.7-1.7H387c0.9,0,1.7,0.8,1.7,1.7      C388.7,248.7,387.9,249.5,387,249.5z"
   id="path165" />
			</g>
			<g
   id="g171">
				<path
   class="st14"
   d="M387,262h-45.9c-0.9,0-1.7-0.8-1.7-1.7c0-0.9,0.8-1.7,1.7-1.7H387c0.9,0,1.7,0.8,1.7,1.7      C388.7,261.2,387.9,262,387,262z"
   id="path169" />
			</g>
			<g
   id="g175">
				<path
   class="st14"
   d="M387,274.4h-45.9c-0.9,0-1.7-0.8-1.7-1.7c0-0.9,0.8-1.7,1.7-1.7H387c0.9,0,1.7,0.8,1.7,1.7      C388.7,273.7,387.9,274.4,387,274.4z"
   id="path173" />
			</g>
			<g
   id="g179">
				<path
   class="st14"
   d="M387,286.9h-45.9c-0.9,0-1.7-0.8-1.7-1.7c0-0.9,0.8-1.7,1.7-1.7H387c0.9,0,1.7,0.8,1.7,1.7      C388.7,286.1,387.9,286.9,387,286.9z"
   id="path177" />
			</g>
			<g
   id="g183">
				<path
   class="st14"
   d="M387,299.4h-45.9c-0.9,0-1.7-0.8-1.7-1.7c0-0.9,0.8-1.7,1.7-1.7H387c0.9,0,1.7,0.8,1.7,1.7      C388.7,298.6,387.9,299.4,387,299.4z"
   id="path181" />
			</g>
			<g
   id="g187">
				<path
   class="st14"
   d="M387,311.8h-45.9c-0.9,0-1.7-0.8-1.7-1.7c0-0.9,0.8-1.7,1.7-1.7H387c0.9,0,1.7,0.8,1.7,1.7      C388.7,311.1,387.9,311.8,387,311.8z"
   id="path185" />
			</g>
			<g
   id="g191">
				<path
   class="st14"
   d="M387,324.3h-45.9c-0.9,0-1.7-0.8-1.7-1.7c0-0.9,0.8-1.7,1.7-1.7H387c0.9,0,1.7,0.8,1.7,1.7      C388.7,323.5,387.9,324.3,387,324.3z"
   id="path189" />
			</g>
			<g
   id="g195">
				<path
   class="st14"
   d="M387,336.8h-45.9c-0.9,0-1.7-0.8-1.7-1.7c0-0.9,0.8-1.7,1.7-1.7H387c0.9,0,1.7,0.8,1.7,1.7      C388.7,336,387.9,336.8,387,336.8z"
   id="path193" />
			</g>
			<g
   id="g199">
				<path
   class="st14"
   d="M387,349.2h-45.9c-0.9,0-1.7-0.8-1.7-1.7c0-0.9,0.8-1.7,1.7-1.7H387c0.9,0,1.7,0.8,1.7,1.7      C388.7,348.5,387.9,349.2,387,349.2z"
   id="path197" />
			</g>
			<g
   id="g203">
				<path
   class="st14"
   d="M387,361.7h-45.9c-0.9,0-1.7-0.8-1.7-1.7c0-0.9,0.8-1.7,1.7-1.7H387c0.9,0,1.7,0.8,1.7,1.7      C388.7,360.9,387.9,361.7,387,361.7z"
   id="path201" />
			</g>
			<g
   id="g207">
				<path
   class="st14"
   d="M387,374.2h-45.9c-0.9,0-1.7-0.8-1.7-1.7c0-0.9,0.8-1.7,1.7-1.7H387c0.9,0,1.7,0.8,1.7,1.7      C388.7,373.4,387.9,374.2,387,374.2z"
   id="path205" />
			</g>
			<g
   id="g211">
				<path
   class="st14"
   d="M387,386.6h-45.9c-0.9,0-1.7-0.8-1.7-1.7c0-0.9,0.8-1.7,1.7-1.7H387c0.9,0,1.7,0.8,1.7,1.7      C388.7,385.9,387.9,386.6,387,386.6z"
   id="path209" />
			</g>
			<g
   id="g215">
				<path
   class="st14"
   d="M387,399.1h-45.9c-0.9,0-1.7-0.8-1.7-1.7c0-0.9,0.8-1.7,1.7-1.7H387c0.9,0,1.7,0.8,1.7,1.7      C388.7,398.3,387.9,399.1,387,399.1z"
   id="path213" />
			</g>
			<g
   id="g219">
				<path
   class="st14"
   d="M387,411.6h-45.9c-0.9,0-1.7-0.8-1.7-1.7c0-0.9,0.8-1.7,1.7-1.7H387c0.9,0,1.7,0.8,1.7,1.7      C388.7,410.8,387.9,411.6,387,411.6z"
   id="path217" />
			</g>
		</g>
	</g>
	<g
   id="g323">
		<path
   class="st15"
   d="M331.7,140.7c0.8-0.4,1.7-1.4,2-3.6c0.6-4,1.4-5,2.1-5.6c0.6-0.6-0.9-2-2.5,0.6c-0.5,0.9-0.9,1.4-1.1,1.8    L331.7,140.7z"
   id="path225" />
		<rect
   x="115.7"
   y="107.1"
   class="st11"
   width="276"
   height="26.4"
   id="rect227" />
		<g
   id="g249">
			<path
   class="st7"
   d="M142,117.5L142,117.5c0.2-0.2,0.3-0.4,0.5-0.6l1.5-1.8h1.1l-2,2.1l2.3,3.1h-1.1l-1.8-2.5l-0.5,0.5v1.9h-0.9     v-7.6h0.9V117.5z"
   id="path229" />
			<path
   class="st7"
   d="M146.3,116.7c0-0.6,0-1.1,0-1.6h0.8l0,1h0c0.2-0.7,0.8-1.1,1.4-1.1c0.1,0,0.2,0,0.3,0v0.9     c-0.1,0-0.2,0-0.3,0c-0.7,0-1.1,0.5-1.3,1.2c0,0.1,0,0.3,0,0.4v2.8h-0.9V116.7z"
   id="path231" />
			<path
   class="st7"
   d="M152.6,120.3l-0.1-0.7h0c-0.3,0.4-0.8,0.8-1.6,0.8c-1,0-1.6-0.7-1.6-1.5c0-1.3,1.1-1.9,3.1-1.9v-0.1     c0-0.4-0.1-1.2-1.2-1.2c-0.5,0-1,0.1-1.3,0.4l-0.2-0.6c0.4-0.3,1-0.5,1.7-0.5c1.6,0,2,1.1,2,2.1v1.9c0,0.5,0,0.9,0.1,1.2H152.6z      M152.5,117.6c-1,0-2.2,0.2-2.2,1.2c0,0.6,0.4,0.9,0.9,0.9c0.7,0,1.1-0.4,1.3-0.9c0-0.1,0.1-0.2,0.1-0.3V117.6z"
   id="path233" />
			<path
   class="st7"
   d="M154.8,119.3c0.3,0.2,0.8,0.4,1.2,0.4c0.7,0,1-0.3,1-0.8c0-0.4-0.3-0.7-1-1c-0.9-0.3-1.4-0.8-1.4-1.5     c0-0.8,0.7-1.5,1.8-1.5c0.5,0,1,0.1,1.3,0.3l-0.2,0.7c-0.2-0.1-0.6-0.3-1.1-0.3c-0.6,0-0.9,0.3-0.9,0.7c0,0.4,0.3,0.6,1,0.9     c0.9,0.3,1.4,0.8,1.4,1.6c0,0.9-0.7,1.6-1.9,1.6c-0.6,0-1.1-0.1-1.5-0.4L154.8,119.3z"
   id="path235" />
			<path
   class="st7"
   d="M159.1,120.3c0-0.4,0-0.9,0-1.3v-6.3h0.9v3.3h0c0.3-0.6,0.9-1,1.8-1c1.3,0,2.2,1.1,2.2,2.6     c0,1.9-1.2,2.8-2.3,2.8c-0.8,0-1.3-0.3-1.7-1h0l0,0.9H159.1z M160.1,118.2c0,0.1,0,0.2,0,0.3c0.2,0.7,0.7,1.1,1.4,1.1     c1,0,1.6-0.8,1.6-2c0-1-0.5-1.9-1.5-1.9c-0.6,0-1.2,0.4-1.4,1.2c0,0.1-0.1,0.2-0.1,0.4V118.2z"
   id="path237" />
			<path
   class="st7"
   d="M165.8,117.9c0,1.3,0.8,1.8,1.8,1.8c0.7,0,1.1-0.1,1.4-0.3l0.2,0.7c-0.3,0.1-0.9,0.3-1.7,0.3     c-1.6,0-2.5-1-2.5-2.6s0.9-2.8,2.4-2.8c1.7,0,2.1,1.5,2.1,2.4c0,0.2,0,0.3,0,0.4H165.8z M168.5,117.2c0-0.6-0.2-1.5-1.3-1.5     c-1,0-1.4,0.9-1.4,1.5H168.5z"
   id="path239" />
			<path
   class="st7"
   d="M170.6,116.7c0-0.6,0-1.1,0-1.6h0.8l0,1h0c0.2-0.7,0.8-1.1,1.4-1.1c0.1,0,0.2,0,0.3,0v0.9     c-0.1,0-0.2,0-0.3,0c-0.7,0-1.1,0.5-1.3,1.2c0,0.1,0,0.3,0,0.4v2.8h-0.9V116.7z"
   id="path241" />
			<path
   class="st7"
   d="M173.3,119.7c0-0.4,0.3-0.7,0.6-0.7c0.4,0,0.6,0.3,0.6,0.7c0,0.4-0.2,0.7-0.6,0.7     C173.6,120.4,173.3,120.1,173.3,119.7z"
   id="path243" />
			<path
   class="st7"
   d="M175.8,116.7c0-0.6,0-1.1,0-1.6h0.8l0,1h0c0.2-0.7,0.8-1.1,1.4-1.1c0.1,0,0.2,0,0.3,0v0.9     c-0.1,0-0.2,0-0.3,0c-0.7,0-1.1,0.5-1.3,1.2c0,0.1,0,0.3,0,0.4v2.8h-0.9V116.7z"
   id="path245" />
			<path
   class="st7"
   d="M183.6,118.9c0,0.5,0,1,0,1.4h-0.8l-0.1-0.8h0c-0.2,0.4-0.8,1-1.7,1c-0.8,0-1.8-0.4-1.8-2.3v-3h0.9v2.9     c0,1,0.3,1.6,1.2,1.6c0.6,0,1.1-0.4,1.2-0.9c0.1-0.1,0.1-0.3,0.1-0.5v-3.2h0.9V118.9z"
   id="path247" />
		</g>
		<rect
   x="124.1"
   y="124.5"
   class="st7"
   width="259.2"
   height="1.3"
   id="rect251" />
		<path
   class="st15"
   d="M332.1,133.9c-0.5,0.7-0.5,0.7-0.5,0.7s-0.5-6.3-2.3-8.4c-1.7-2.1-4.9,3.7-4.2,8.4c0.8,5.8,2.8,6.9,5.2,6.5    c0,0,0.6,0,1.3-0.4L332.1,133.9z"
   id="path253" />
		<g
   id="g269">
			<g
   id="g267">
				<g
   id="g257">
					<path
   class="st7"
   d="M136.1,122.4c-0.1,0-0.3,0-0.4-0.1l-3.3-3.3c-0.2-0.2-0.2-0.5,0-0.7c0.2-0.2,0.5-0.2,0.7,0l3.3,3.3       c0.2,0.2,0.2,0.5,0,0.7C136.4,122.4,136.2,122.4,136.1,122.4z"
   id="path255" />
				</g>
				<g
   id="g261">
					<path
   class="st7"
   d="M129.7,112.1c0.9,0,1.8,0.4,2.4,1c1.3,1.3,1.3,3.5,0,4.8c-0.6,0.6-1.5,1-2.4,1c-0.9,0-1.8-0.4-2.4-1       c-1.3-1.3-1.3-3.5,0-4.8C128,112.5,128.8,112.1,129.7,112.1 M129.7,111.1c-1.1,0-2.3,0.4-3.1,1.3c-1.7,1.7-1.7,4.5,0,6.2       c0.9,0.9,2,1.3,3.1,1.3c1.1,0,2.3-0.4,3.1-1.3c1.7-1.7,1.7-4.5,0-6.2C132,111.6,130.9,111.1,129.7,111.1L129.7,111.1z"
   id="path259" />
				</g>
				<g
   id="g265">
					<path
   class="st7"
   d="M133.6,120.4c-0.3,0-0.5-0.1-0.7-0.3l-0.8-0.8c-0.4-0.4-0.4-1,0-1.4c0.4-0.4,1-0.4,1.4,0l0.8,0.8       c0.4,0.4,0.4,1,0,1.4C134.1,120.3,133.9,120.4,133.6,120.4z"
   id="path263" />
				</g>
			</g>
		</g>
		<g
   id="g321">
			<g
   id="g279">
				<path
   class="st15"
   d="M356.5,138.8c-4.1,2.8-9.9,9.1-8,18.9c1.2,6.2,9.5,7.6,16.7,3.5c7.2-4,9.3-11.6,8.4-16.9      C372.8,139.2,363.1,134.2,356.5,138.8z"
   id="path271" />
				<g
   id="g275">
					<path
   class="st15"
   d="M358.9,173.5c-0.3,0-0.6,0-0.9-0.1c-2.2-0.5-3.5-2.6-3-4.8c1.1-5.1,0.6-7.1,0.6-7.1       c0.1,0.2,0.1,0.3,0.1,0.3l7.3-3.2c0.4,0.9,1.5,4.2-0.2,11.8C362.4,172.3,360.7,173.5,358.9,173.5z"
   id="path273" />
				</g>
				<path
   class="st5"
   d="M356.4,142.7c0,0-2.9,4.5-3.9,6.1c0,0,1.9,1.5,3.3-0.2c1.3-1.7,2.3-4.9,4.9-4.9c1.8,0,1.5,1.9,0.8,3.4      c-1.2,2.3-3.1,3.5-4.3,3.4c0,0-3.2,5.1,3.3,8.8c6.5,3.6,11.2-1.1,14-6.4c2.7-5.3,2.7-12.7-2.9-16.8c-5.5-4-10.1-3.6-17.1-3.1      C354.3,132.9,351.8,137.6,356.4,142.7z"
   id="path277" />
			</g>
			<g
   id="g283">
				<path
   class="st15"
   d="M399.7,145.4c-1,2.3-2.3,5.4-4.1,8.2c-1.8,2.9-4.3,5.5-6.9,7.4c-2.7,1.9-5.5,3.2-7.9,3.9      c-2.4,0.7-4.2,1-5,1.2c-3.9,0.6-5.4,1.8-5.6,4.9c-0.1,1.5,0.4,2.7,1.6,3.4c1.2,0.7,3.1,0.9,5.6,0.5c1-0.2,3.3-0.7,6.3-1.8      c3-1.2,6.7-3.2,9.9-6.1c1.6-1.5,3.1-3.1,4.3-4.9c1.2-1.8,2.3-3.7,3.1-5.6c1.6-3.8,2.2-7.4,2.4-10.2L399.7,145.4z"
   id="path281" />
			</g>
			<g
   id="g287">
				<path
   class="st15"
   d="M328.1,137.5c-0.4,1.2-0.9,2.6-1.3,4.2c-0.3,0.8-0.4,1.6-0.5,2.5c-0.1,0.9-0.3,1.8-0.4,2.7      c-0.1,0.5-0.1,0.9-0.1,1.4c0,0.5,0,1,0,1.5c0,0.5,0,1,0,1.5c0,0.5,0,1,0,1.5c0.1,1,0.2,2,0.3,3.1c0.1,1,0.4,2,0.7,3      c1,4,3,7.5,5,10c1.1,1.2,2,2.2,2.9,3c0.4,0.4,0.8,0.7,1.1,1c0.3,0.2,0.6,0.4,0.8,0.6c2.1,1.5,3.9,2,5.3,1.7      c1.3-0.2,2.2-1.1,2.7-2.6c0.4-1.5,0.4-2.6,0-3.6c-0.4-1-1.4-1.8-2.8-2.8c-0.1-0.1-0.3-0.2-0.6-0.4c-0.2-0.2-0.5-0.4-0.8-0.6      c-0.6-0.4-1.3-1.1-2.1-1.9c-1.5-1.6-3.1-3.9-4.2-6.7c-0.2-0.7-0.6-1.4-0.8-2.2c-0.2-0.8-0.4-1.6-0.6-2.4      c-0.1-0.4-0.2-0.8-0.2-1.2l-0.2-1.2c-0.1-0.4-0.1-0.8-0.2-1.2c-0.1-0.4-0.1-0.8-0.1-1.2c0-0.8-0.1-1.6-0.1-2.4      c0-0.8-0.1-1.6-0.1-2.3c0-1.5,0.1-2.9,0-4.1L328.1,137.5z"
   id="path285" />
			</g>
			<path
   class="st7"
   d="M349.2,215.8c0,0,4,9,13.1,9s14.5-4.6,13.1-14.2C375.4,210.6,356.5,207.3,349.2,215.8z"
   id="path289" />
			<g
   id="g295">
				<g
   id="g293">
					<path
   class="st7"
   d="M377.5,268.2c1.3-6.9,2.2-18.1,2.1-28.3c0-5.1-0.3-9.9-0.6-13.8c-0.3-3.8-0.8-6.7-1-7.9       c-1.1-6.1-4-8.5-8-7.1c-4.1,1.4-5.3,3.8-4.3,9.3c0.2,1.1,0.7,3.7,1.3,7.2c0.6,3.6,1.3,8.1,1.9,12.9c1.3,9.7,2.3,20.7,3.5,27.5       L377.5,268.2z"
   id="path291" />
				</g>
			</g>
			<g
   id="g307">
				<g
   id="g299">
					<path
   class="st7"
   d="M358.6,269c0.3-7.2-0.1-18.7,0-28.8c0-5.1,0.2-9.8,0.5-13.5c0.3-3.7,0.7-6.3,0.8-7.3       c0.4-2.7,0.4-4.4-0.3-5.4c-0.3-0.5-0.8-1-1.4-1.5c-0.3-0.3-0.6-0.6-0.9-1c-0.3-0.4-0.6-0.7-1-1.1c-0.4-0.4-0.8-0.7-1.2-0.9       c-0.4-0.3-0.9-0.4-1.3-0.4c-1,0-2,0.4-2.9,1.2c-1.8,1.5-3,4.1-3.4,7.5c-0.2,1.3-0.5,4.5-0.5,8.6c0,4.1,0.3,9.2,0.8,14.4       c1.1,10.6,3.4,22.1,5.6,29L358.6,269z"
   id="path297" />
				</g>
				<g
   id="g303">
					<path
   class="st7"
   d="M377.5,268.2c1.3-6.9,2.2-18.1,2.1-28.3c0-5.1-0.3-9.9-0.6-13.8c-0.3-3.8-0.8-6.7-1-7.9       c-1.1-6.1-4-8.5-8-7.1c-4.1,1.4-5.3,3.8-4.3,9.3c0.2,1.1,0.7,3.7,1.3,7.2c0.6,3.6,1.3,8.1,1.9,12.9c1.3,9.7,2.3,20.7,3.5,27.5       L377.5,268.2z"
   id="path301" />
				</g>
				<path
   class="st16"
   d="M378.4,220.1c-0.1-0.8-0.2-1.4-0.3-1.8c-0.5-2.8-1.4-4.8-2.5-6c0-0.6-0.1-1.1-0.2-1.7      c0,0-9.9-1.7-18.2,0.6c-0.2-0.3-0.5-0.6-0.8-0.8c-0.4-0.4-0.8-0.7-1.2-0.9c-0.4-0.3-0.9-0.4-1.3-0.4c-1,0-2,0.4-2.9,1.2      c-1.8,1.5-3,4.1-3.4,7.5c-0.1,0.4-0.1,1.1-0.2,1.9C359.7,223.1,371.4,221.7,378.4,220.1z"
   id="path305" />
			</g>
			<path
   class="st17"
   d="M354.9,166.6c1.1,0.2,14.4,5.1,25.4-4.5c0,0,2.9,6.9,3.8,14.3c0,0-5,2.8-9.5,2.7c0,0-0.5,22.5,9.4,36.5     c0,0-20.5,7.9-42.1,0c0,0,6.1-17.2,5.7-36.7c0,0-8.4-1-13.5-5.9c0,0,3.5-9.5,7.9-12.1C341.9,160.9,350.8,166,354.9,166.6z"
   id="path309" />
			<path
   class="st18"
   d="M374.5,179.1c4.5,0.1,9.5-2.7,9.5-2.7s-6,2.3-11.5,0.7c0,0-1.2,26.9,11.4,38.5     C374,201.7,374.5,179.1,374.5,179.1z"
   id="path311" />
			<path
   class="st18"
   d="M350.9,177.8c-12.1-1-16.9-4.8-16.9-4.8c5,4.9,13.5,5.9,13.5,5.9c0.4,19.5-5.7,36.7-5.7,36.7     C350.6,203.7,350.9,177.8,350.9,177.8z"
   id="path313" />
			<path
   class="st15"
   d="M399.8,148.5c0,0-2.5-1-1.5-4.9c1.1-4,0.7-5.2,0.4-6c-0.3-0.8,1.6-1.5,2.1,1.5c0.5,3,0.5,3,0.5,3     s3-5.6,5.4-6.8c2.4-1.2,1.2,4.8,0.4,9C406.1,148.5,401.7,149.9,399.8,148.5z"
   id="path315" />
			<path
   class="st5"
   d="M374.9,266.2c-1.5,0.1-3.5,0.4-4.9,3.3c-0.5,1-0.5,1.9-0.3,2.6c0.3,1.4,1.6,2.3,3.1,2.3h5.2     c1.9,0,3.5-1.7,3.2-3.7c-0.1-0.4-0.2-0.9-0.5-1.3C379.3,267.2,377,266.1,374.9,266.2z"
   id="path317" />
			<path
   class="st5"
   d="M355.7,265.4c-1.5,0.2-3.4,0.6-4.7,3.6c-0.4,1-0.4,1.9-0.2,2.6c0.4,1.4,1.8,2.2,3.2,2.2l5.1-0.3     c1.9-0.1,3.4-2,2.9-3.8c-0.1-0.4-0.3-0.9-0.5-1.3C360.3,266.1,357.8,265.1,355.7,265.4z"
   id="path319" />
		</g>
	</g>
	<g
   id="g379">
		<g
   id="g331">
			<path
   class="st15"
   d="M112.7,263c3,4,6.5,11.8,1.6,20.5c-3.1,5.5-11.4,4.2-17-1.9c-5.6-6.1-5.2-14-2.8-18.6     C97.1,258.3,107.9,256.7,112.7,263z"
   id="path325" />
			<g
   id="g329">
				<path
   class="st15"
   d="M107.4,296.5c-1.8,0-3.5-1.3-3.9-3.1c-1.7-7.5-0.6-10.9-0.2-11.8l7.3,3.2c0,0,0-0.1,0.1-0.3      c0,0-0.5,2,0.6,7.1c0.5,2.2-0.9,4.3-3,4.8C108,296.5,107.7,296.5,107.4,296.5z"
   id="path327" />
			</g>
		</g>
		<g
   id="g335">
			<path
   class="st15"
   d="M69,262.3c-0.5,2.7-0.8,6.4-0.1,10.5c0.3,2,0.9,4.1,1.6,6.2c0.8,2.1,1.8,4,3,5.8c2.4,3.6,5.5,6.4,8.1,8.3     c2.6,1.9,4.8,2.9,5.7,3.3c2.3,1,4.2,1.2,5.5,0.8c1.3-0.4,2.1-1.4,2.4-2.9c0.6-3.1-0.6-4.6-4.3-6.1c-0.7-0.3-2.4-1-4.6-2.3     c-2.1-1.3-4.6-3.2-6.7-5.7c-2.2-2.5-3.9-5.6-5-8.8c-1.1-3.2-1.6-6.4-2.1-8.9L69,262.3z"
   id="path333" />
		</g>
		<g
   id="g357">
			<path
   class="st15"
   d="M158.3,281.2c0.1-0.9,0.8-2.1,2.6-3.1c3.6-2,4.2-3.1,4.6-3.9c0.4-0.8,2.2,0.2,0.3,2.5     c-0.6,0.8-1,1.3-1.3,1.7L158.3,281.2z"
   id="path337" />
			<path
   class="st6"
   d="M165.9,277.2L165.9,277.2c-0.5,0-0.8-0.4-0.8-0.8v-12.5c0-0.5,0.4-0.8,0.8-0.8l0,0c0.5,0,0.8,0.4,0.8,0.8     v12.5C166.7,276.8,166.3,277.2,165.9,277.2z"
   id="path339" />
			<path
   class="st6"
   d="M165,263.9L165,263.9c0-0.5,0.4-0.8,0.8-0.8h11.5c0.5,0,0.8,0.4,0.8,0.8l0,0c0,0.5-0.4,0.8-0.8,0.8h-11.5     C165.4,264.7,165,264.3,165,263.9z"
   id="path341" />
			<path
   class="st6"
   d="M177.4,256.3L177.4,256.3c0.5,0,0.8,0.4,0.8,0.8v6.7c0,0.5-0.4,0.8-0.8,0.8l0,0c-0.5,0-0.8-0.4-0.8-0.8v-6.7     C176.6,256.7,176.9,256.3,177.4,256.3z"
   id="path343" />
			<path
   class="st6"
   d="M178.2,257.2L178.2,257.2c0,0.5-0.4,0.8-0.8,0.8h-8.1c-0.5,0-0.8-0.4-0.8-0.8l0,0c0-0.5,0.4-0.8,0.8-0.8h8.1     C177.9,256.3,178.2,256.7,178.2,257.2z"
   id="path345" />
			<path
   class="st19"
   d="M172.7,260H159c-1,0-1.8-0.8-1.8-1.8v-2c0-1,0.8-1.8,1.8-1.8h13.8c1,0,1.8,0.8,1.8,1.8v2     C174.5,259.2,173.7,260,172.7,260z"
   id="path347" />
			<path
   class="st7"
   d="M165.9,291L165.9,291c-1.5,0-2.6-1.2-2.6-2.6v-15.6c0-1.5,1.2-2.6,2.6-2.6l0,0c1.5,0,2.6,1.2,2.6,2.6v15.6     C168.5,289.8,167.3,291,165.9,291z"
   id="path349" />
			<path
   class="st15"
   d="M164.6,278.5c-0.5,0.7-0.5,0.7-0.5,0.7s6.1-1.7,8.6-0.8c2.6,0.9-1.8,5.9-6.4,6.8c-5.7,1.2-7.5-0.3-7.9-2.7     c0,0-0.2-0.6-0.1-1.4L164.6,278.5z"
   id="path351" />
			<g
   id="g355">
				<path
   class="st15"
   d="M160.9,280.2c-5,1.2-12.8,3.2-19.9,4.4c-7.1,1.3-13.4,1.9-15.1,2.1c-4.2,0.5-5.8,1.9-5.7,5      c0.1,3.1,2.2,4.4,6.8,3.9c1.8-0.2,8.5-1.3,15.8-3.6c7.3-2.2,15.1-5.6,19.5-8.5L160.9,280.2z"
   id="path353" />
			</g>
		</g>
		<g
   id="g361">
			<path
   class="st15"
   d="M119.5,407.1c1.1-3.3,2.2-7.8,2.8-12.6c0.7-4.9,1-10.1,1.2-15.1c0.3-9.9-0.3-18.7-0.5-21     c-0.6-5.9-2.9-8.1-7.2-7.5c-4.3,0.6-5.9,3.1-5.3,8.8c0.2,2.2,1.3,10.6,2.3,20.1c0.5,4.7,0.8,9.8,1.1,14.4     c0.3,4.7,0.4,8.9,0.6,12.2L119.5,407.1z"
   id="path359" />
		</g>
		<g
   id="g365">
			<path
   class="st15"
   d="M75.1,388.1c1.7,0.4,3.9,0.7,6.2,0.7c2.4-0.1,5-0.6,7.5-1.6c2.6-1,5-2.6,7.2-4.5c1.1-1,2.1-2,3.1-3.2     c0.5-0.6,0.9-1.2,1.3-1.8c0.1-0.2,0.2-0.3,0.3-0.5l0.3-0.5l0.6-1.1c1.4-2.8,2-5.3,2.6-7.6c0.5-2.3,0.9-4.4,1.2-6.2     c0.6-3.7,0.8-6.4,0.8-7.5c0.3-5.8-1.7-8.3-6-8.3c-4.3,0-6.2,2.2-6.5,7.5c-0.1,1-0.1,3.5-0.3,6.9c-0.1,1.7-0.3,3.5-0.5,5.4     c-0.3,1.9-0.6,3.9-1.1,5.4l-0.2,0.5l-0.1,0.2c0,0.1-0.1,0.2-0.1,0.3c-0.2,0.4-0.4,0.8-0.7,1.2c-0.5,0.8-1,1.6-1.6,2.3     c-1.2,1.5-2.6,2.8-4.2,3.8c-1.5,1-3.2,1.8-4.8,2.3c-1.6,0.5-3.3,0.8-4.7,1L75.1,388.1z"
   id="path363" />
		</g>
		<path
   class="st17"
   d="M114.4,287.6c-1.1,0.2-12.4,3.1-20.7-0.8c0,0-4.7,4.5-5.5,11.9c0,0,2.2,0.9,6.6,1.4c0,0,9.5,6.6,3.2,21    c-7.4,17-9.3,33.2-12.6,37.8c0,0,20.5,7.9,42.1,0c0,0-0.6-22.8-7.5-37.8c-5.2-11.3,1.6-13.5,1.8-21.3c0,0,3.1-0.2,5-1.9    c0,0,1.5-9.4-2.9-12C124,285.9,118.5,287,114.4,287.6z"
   id="path367" />
		<path
   class="st15"
   d="M71.9,265.4c0,0,2.7-0.3,2.6-4.4c-0.1-4.1,0.6-5.2,1.1-5.9c0.5-0.7-1.2-1.8-2.4,1c-1.2,2.8-1.2,2.8-1.2,2.8    s-1.6-6.1-3.6-7.9c-2.1-1.8-2.3,4.4-2.5,8.7C65.7,263.8,69.6,266.2,71.9,265.4z"
   id="path369" />
		<path
   class="st6"
   d="M114.3,403.7c0,0,4.6,1,6.3,0c0,0,2.3,1.2,5.8,1c3.5-0.3,5.9,0.2,5.4,2.2c-0.4,2-13.5,3.9-16.8,2.3    c-1.8-0.9-0.7-5.9-0.7-5.9"
   id="path371" />
		<path
   class="st6"
   d="M78.8,382.3c0,0-2.5,4-2.1,5.9c0,0-1.9,1.7-2.9,5.1s-2.2,5.4-4,4.3s0.9-14,3.6-16.6c1.4-1.4,5.8,1.4,5.8,1.4"
   id="path373" />
		<path
   class="st5"
   d="M114.5,265.9c0,0-8.5,10.3-10.4,30.6c0,0-10.1,2.6-16.9-1.5c0,0-1.4-33.5,11.6-37    C111.8,254.5,114.5,265.9,114.5,265.9z"
   id="path375" />
		<path
   class="st15"
   d="M113.4,270.1c0,0-1.5-3.6-4.4-2.4c-2.9,1.2,0,8,2.7,8C114.2,275.7,113.4,270.1,113.4,270.1z"
   id="path377" />
	</g>
	<g
   id="g437">
		<g
   id="g387">
			<path
   class="st15"
   d="M280.4,286.2c-3.5,4.4-6.7,13.1-1.4,23.1c3.3,6.3,11.7,7.3,18.2,0.6c6.6-6.7,6.4-17.8,3.7-23.2     C298.2,281.3,286.1,279.1,280.4,286.2z"
   id="path381" />
			<g
   id="g385">
				<path
   class="st15"
   d="M287.1,325.6c-0.5,0-0.9-0.1-1.4-0.2c-2.4-0.8-3.7-3.3-2.9-5.7c0.9-3,0.6-7.1,0.4-8.5      c-0.4-2.5,1.3-4.8,3.7-5.2c2.5-0.4,4.8,1.3,5.2,3.7c0.1,0.7,1.1,7.1-0.7,12.7C290.8,324.4,289.1,325.6,287.1,325.6z"
   id="path383" />
			</g>
		</g>
		<g
   id="g391">
			<path
   class="st15"
   d="M313.4,280.3c-0.5,2.7-0.7,6.3-1.3,10c-0.1,0.9-0.2,1.9-0.4,2.9c-0.2,1-0.3,1.9-0.5,2.9     c-0.3,2-0.7,3.8-1.1,5.7c-0.9,3.6-1.9,6.9-3,9.2c-0.2,0.6-0.5,1.1-0.8,1.6c-0.3,0.4-0.5,0.9-0.7,1.2c-0.5,0.6-0.8,1.2-1,1.4     c-1,1.4-1.5,2.3-1.6,3.3c-0.1,1,0.1,2.3,0.6,4c0.5,1.7,1.7,2.7,3.5,2.6c1.8-0.1,4-1.4,5.7-3.8c0.4-0.5,0.8-1.3,1.5-2.4     c0.3-0.6,0.6-1.2,0.9-1.9c0.3-0.7,0.7-1.4,0.9-2.2c1.3-3.2,2-7.3,2.6-11.5c0.9-8.5,0-17.6-1.2-23.1L313.4,280.3z"
   id="path389" />
		</g>
		<path
   class="st15"
   d="M264,282.9c1-0.3,2.2-1.1,3.2-3.4c1.8-4.3,2.9-5.1,3.8-5.6c0.9-0.5-0.4-2.4-2.9-0.1    c-0.8,0.8-1.4,1.3-1.7,1.7L264,282.9z"
   id="path393" />
		<path
   class="st1"
   d="M269.9,277.7l-12.2-4.2c-2.9-1-4.5-4.2-3.5-7.1l4.2-12.2c1-2.9,4.2-4.5,7.1-3.5l12.2,4.2    c2.9,1,4.5,4.2,3.5,7.1l-4.2,12.2C276,277.1,272.8,278.7,269.9,277.7z"
   id="path395" />
		<path
   class="st15"
   d="M266.4,275.5c-0.7,0.7-0.7,0.7-0.7,0.7s1.1-7-0.2-9.8c-1.3-2.8-6.4,2.8-6.9,8c-0.7,6.6,1.2,8.4,3.9,8.5    c0,0,0.7,0.2,1.5,0L266.4,275.5z"
   id="path397" />
		<g
   id="g405">
			<path
   class="st15"
   d="M313.9,282.9c-1-0.3-2.2-1.1-3.2-3.4c-1.8-4.3-2.9-5.1-3.8-5.6c-0.9-0.5,0.4-2.4,2.9-0.1     c0.8,0.8,1.4,1.3,1.7,1.7L313.9,282.9z"
   id="path399" />
			<path
   class="st12"
   d="M309.8,277.7l-12.2-4.2c-2.9-1-4.5-4.2-3.5-7.1l4.2-12.2c1-2.9,4.2-4.5,7.1-3.5l12.2,4.2     c2.9,1,4.5,4.2,3.5,7.1l-4.2,12.2C315.8,277.1,312.7,278.7,309.8,277.7z"
   id="path401" />
			<path
   class="st15"
   d="M311.5,275.5c0.7,0.7,0.7,0.7,0.7,0.7s-1.1-7,0.2-9.8c1.3-2.8,6.4,2.8,6.9,8c0.7,6.6-1.2,8.4-3.9,8.5     c0,0-0.7,0.2-1.5,0L311.5,275.5z"
   id="path403" />
		</g>
		<g
   id="g409">
			<path
   class="st15"
   d="M259.3,280.9c-0.3,1.2-0.7,2.7-1,4.3c-0.2,0.8-0.3,1.7-0.4,2.5c-0.1,0.9-0.2,1.8-0.3,2.7     c-0.1,0.9-0.1,1.9-0.1,2.9c0,1,0,2,0.1,3c0.1,1,0.2,2,0.3,3c0.1,1,0.3,2,0.5,3c0.7,3.9,2,7.5,3.4,10.3c0.3,0.7,0.7,1.3,1,1.9     c0.3,0.6,0.6,1.1,1,1.6c0.6,0.9,1.1,1.6,1.4,2c1.6,2,3.3,3,4.7,3.1c1.5,0.1,2.7-0.6,3.6-2.1c1.9-3,1.8-4.7-0.4-7.4     c-0.2-0.3-0.6-0.7-1.1-1.3c-0.3-0.3-0.5-0.7-0.8-1.1c-0.3-0.4-0.6-0.8-0.9-1.3c-1.3-1.9-2.5-4.6-3.6-7.7     c-0.2-0.8-0.6-1.5-0.7-2.4c-0.2-0.8-0.4-1.6-0.6-2.5c-0.2-0.8-0.3-1.7-0.5-2.5c-0.1-0.8-0.4-1.7-0.4-2.5     c-0.1-0.8-0.2-1.6-0.3-2.4c-0.1-0.8-0.2-1.6-0.3-2.3c-0.1-1.5-0.3-2.9-0.5-4.1L259.3,280.9z"
   id="path407" />
		</g>
		<path
   class="st17"
   d="M274.5,371.8c0,0,4.5,9.5,14.8,10.2c13.3,0.9,16.5-5.2,14.8-16.1C304.1,366,282.8,362.3,274.5,371.8z"
   id="path411" />
		<path
   class="st6"
   d="M311.6,430.7c-1.7,0.1-3.9,0.5-5.5,3.7c-0.5,1.1-0.6,2.1-0.4,3c0.4,1.6,1.9,2.7,3.5,2.7l5.9,0    c2.2,0,4-2,3.6-4.1c-0.1-0.5-0.3-1-0.5-1.5C316.7,431.9,314,430.6,311.6,430.7z"
   id="path413" />
		<g
   id="g419">
			<g
   id="g417">
				<path
   class="st17"
   d="M314.6,432.6c0.3-8-0.6-20.8-2-32.2c-1.3-11.5-3.2-21.5-3.7-24.2c-1.5-6.7-4.4-9.1-9.2-7.8      c-4.7,1.3-6.2,4.4-4.7,10.9c0.6,2.5,3,12.2,5.6,23.2c2.7,11,5.6,23.4,8.2,30.9L314.6,432.6z"
   id="path415" />
			</g>
		</g>
		<path
   class="st6"
   d="M273.1,432c-1.7,0.1-3.9,0.5-5.5,3.8c-1,2-0.2,3.7,0.4,4.6c0.7,0.3,1.3,0.6,2,1l7.9-0.1    c1.2,0,2.2-0.9,2.4-2.1c0.1-1,0.1-2.3-0.6-3.6C278.1,433.1,275.4,431.8,273.1,432z"
   id="path421" />
		<g
   id="g427">
			<g
   id="g425">
				<path
   class="st17"
   d="M277.2,434.5c2-7.9,4.1-20.9,6.2-32.3c1-5.7,2.1-11,3-15.2c0.9-4.2,1.7-7.2,2-8.4c0.8-3.2,0.9-5.5,0.3-7.3      c-0.6-1.8-2.1-3.1-4.4-3.9c-2.3-0.8-4.2-0.7-5.9,0.5c-1.6,1.3-3,3.7-3.8,7.3c-0.3,1.4-1,4.8-1.7,9.3c-0.7,4.5-1.2,10.2-1.6,16.2      c-0.8,11.9-0.8,25.2,0.1,33.4L277.2,434.5z"
   id="path423" />
			</g>
		</g>
		<path
   class="st1"
   d="M284.8,317.8c1.2,0.2,7.6,3.3,20.9-11.5c0,0,6.4,8.1,7.4,16.5c0,0-3.6,4.8-8.7,4.6c0,0-1.9,24.7,5.2,43    c0,0-16,9.1-35.1,1.4c0,0,0.1-18.1-0.3-40.2c0,0-5.9-2.1-10.3-10.6c0,0,2.9-8.3,7.9-11.3C271.8,309.8,280.1,317,284.8,317.8z"
   id="path429" />
		<path
   class="st15"
   d="M277.8,294c0,0-1-4.1-4.3-3.3c-3.3,0.8-1.3,8.5,1.5,8.9C277.8,300.1,277.8,294,277.8,294z"
   id="path431" />
		<path
   class="st15"
   d="M300.7,295.2c0,0,1.6-3.9,4.7-2.7c3.1,1.2,0.1,8.6-2.7,8.7C299.9,301.2,300.7,295.2,300.7,295.2z"
   id="path433" />
		<path
   class="st5"
   d="M275.5,290.4c0,0,1.8-8.9,11.6-10.4c9.8-1.5,14.8,2.4,16.3,11.1c1.4,8.7-4.6,17.4-14,17    C280,307.6,273.8,299.4,275.5,290.4z"
   id="path435" />
	</g>
	<g
   id="g451">
		<rect
   x="379.3"
   y="398.8"
   class="st7"
   width="64.8"
   height="49.7"
   id="rect439" />
		<polygon
   class="st5"
   points="396.6,388 379.3,398.8 444.1,398.8 426.9,388   "
   id="polygon441" />
		<rect
   x="396.6"
   y="388"
   class="st3"
   width="30.3"
   height="10.8"
   id="rect443" />
		<polygon
   class="st20"
   points="379.3,398.8 388.7,410.4 411.7,410.4 434.3,410.4 444.1,398.8   "
   id="polygon445" />
		<polygon
   class="st20"
   points="426.9,388 444.1,393.4 457.6,402.6 444.1,398.8   "
   id="polygon447" />
		<polygon
   class="st20"
   points="396.6,388 377.8,393.4 364.3,402.6 379.3,398.8   "
   id="polygon449" />
	</g>
</g>
</svg>