<?xml version="1.0" encoding="utf-8"?>
<!-- Generator: Adobe Illustrator 21.0.2, SVG Export Plug-In . SVG Version: 6.00 Build 0)  -->
<svg version="1.1" id="Objects" xmlns="http://www.w3.org/2000/svg" xmlns:xlink="http://www.w3.org/1999/xlink" x="0px" y="0px"
	 viewBox="0 0 273.9 194.6" style="enable-background:new 0 0 273.9 194.6;" xml:space="preserve">
<style type="text/css">
	.st0{fill:#F9F9FC;}
	.st1{fill:#72D7E4;}
	.st2{fill:url(#SVGID_1_);}
	.st3{opacity:0.3;clip-path:url(#SVGID_3_);}
	.st4{fill:url(#SVGID_4_);}
	.st5{opacity:0.3;clip-path:url(#SVGID_6_);}
	.st6{fill:#BDBDEC;}
	.st7{fill:#E8E8FC;}
	.st8{fill:url(#SVGID_7_);}
	.st9{fill:#FFFFFF;}
	.st10{opacity:0.35;fill:#FFFFFF;}
	.st11{fill:#FFA272;}
	.st12{fill:#FF3C88;}
	.st13{fill:#C5C5EA;}
	.st14{opacity:0.2;fill:#1C1E38;}
	.st15{fill:#DB928D;}
	.st16{fill:#F8B7B0;}
	.st17{fill:#1876AA;}
	.st18{fill:#1E8FDC;}
	.st19{fill:#1C1E38;}
	.st20{fill:#D17198;}
	.st21{fill:#F28FB5;}
	.st22{fill:#9B1F51;}
	.st23{fill:#43A2CC;}
	.st24{fill:#2B7D99;}
	.st25{opacity:0.3;fill:#CD4776;}
	.st26{fill:#CD4776;}
	.st27{fill:#B23062;}
	.st28{opacity:0.3;fill:#48BFCC;}
	.st29{fill:#48BFCC;}
</style>
<g>
	<g>
		<g>
			<path class="st0" d="M256.2,24.1C256.2,24.1,256.2,24.1,256.2,24.1c-6.3-8-16.1-13.1-27.1-13.1c-13.7,0-25.5,7.9-31,19.5l0,0
				c-2.9-1.1-6-1.8-9.3-1.8c-13,0-23.7,9.7-25.4,22.2c-0.2,1.1-0.2,2.3-0.2,3.4c0,14.1,11.5,25.6,25.6,25.6H229c0,0,0.1,0,0.1,0
				c0,0,0.1,0,0.1,0h15.6c5.9,0,11.3-1.7,15.9-4.7c7.9-5.2,13.2-14.1,13.2-24.3C273.9,38.9,266.6,28.6,256.2,24.1z"/>
			<path class="st0" d="M58.6,13.7C58.6,13.7,58.6,13.7,58.6,13.7c-1.9-2-4.3-3.7-7-4.7c-4.1-5.5-10.6-9-18-9
				C25,0,17.6,4.8,13.8,11.9c0,0,0,0,0,0C6,13.3,0,20.1,0,28.3c0,9.2,7.4,16.6,16.6,16.6h17c0,0,0,0,0.1,0c0,0,0,0,0.1,0H45
				c0,0,0,0,0.1,0c0,0,0,0,0.1,0h12.6c8.6,0,15.6-7,15.6-15.6c0-0.3,0-0.7,0-1C72.8,20.4,66.5,14.1,58.6,13.7z"/>
			<path class="st1" d="M255.2,150.4c-4.7,0-9.4-1.8-13-5.4l7.8-7.8c2.9,2.9,7.6,2.9,10.5,0c1.4-1.4,2.2-3.3,2.2-5.2
				c0-2-0.8-3.8-2.2-5.2l7.8-7.8c3.5,3.5,5.4,8.1,5.4,13s-1.9,9.5-5.4,13C264.7,148.6,259.9,150.4,255.2,150.4z"/>
			<g>
				
					<linearGradient id="SVGID_1_" gradientUnits="userSpaceOnUse" x1="110.1382" y1="-183.1967" x2="143.4401" y2="-111.2562" gradientTransform="matrix(0.9581 -0.2865 0.2865 0.9581 16.3034 225.9236)">
					<stop  offset="0" style="stop-color:#3FEA85"/>
					<stop  offset="1" style="stop-color:#221783"/>
				</linearGradient>
				<path class="st2" d="M93,66.6C70.7,55.2,51.8,4.7,77.5,8.4c23.8,3.4,2.2,49.7,32.3,53.2L93,66.6z"/>
				<g>
					<defs>
						<path id="SVGID_2_" d="M93,66.6C70.7,55.2,51.8,4.7,77.5,8.4c23.8,3.4,2.2,49.7,32.3,53.2L93,66.6z"/>
					</defs>
					<clipPath id="SVGID_3_">
						<use xlink:href="#SVGID_2_"  style="overflow:visible;"/>
					</clipPath>
					<g class="st3">
						<path class="st1" d="M114.6,72.8c-0.3-0.1-25.2-13.8-34.1-34.5c-4.5-10.4-5.7-18-4.1-24.7c1.7-6.8,6.4-12.8,12.9-19.7l0.4,0.4
							C75.7,8.9,72.3,17.8,81,38c8.8,20.5,33.6,34.1,33.9,34.2L114.6,72.8z"/>
						<path class="st1" d="M76.3,24.5c-10.6-2.2-13.1-7.9-13.3-8.1l0.6-0.2c0,0.1,2.6,5.6,12.8,7.7L76.3,24.5z"/>
						<path class="st1" d="M81.2,39.3L81,38.8c6-2.2,10.3-9.8,10.4-9.9l0.5,0.3C91.8,29.5,87.4,37.1,81.2,39.3z"/>
						<path class="st1" d="M87.1,49.2c-18.4,0.1-21.3-8.6-21.5-8.9l0.6-0.2l-0.3,0.1l0.3-0.1c0,0.1,3,8.6,20.9,8.5L87.1,49.2z"/>
					</g>
				</g>
			</g>
			<g>
				
					<linearGradient id="SVGID_4_" gradientUnits="userSpaceOnUse" x1="161.2312" y1="327.9223" x2="182.1552" y2="373.1235" gradientTransform="matrix(0.916 0.4011 -0.4011 0.916 85.2365 -332.976)">
					<stop  offset="0" style="stop-color:#3FEA85"/>
					<stop  offset="1" style="stop-color:#221783"/>
				</linearGradient>
				<path class="st4" d="M93.3,64.6c-6.1-14.5,5.4-46.4,16.2-34.2c10,11.3-19.2,24.7-6.2,38.6L93.3,64.6z"/>
				<g>
					<defs>
						<path id="SVGID_5_" d="M93.3,64.6c-6.1-14.5,5.4-46.4,16.2-34.2c10,11.3-19.2,24.7-6.2,38.6L93.3,64.6z"/>
					</defs>
					<clipPath id="SVGID_6_">
						<use xlink:href="#SVGID_5_"  style="overflow:visible;"/>
					</clipPath>
					<g class="st5">
						<path class="st1" d="M101.2,76.3c-0.1-0.2-6.5-16.9-2.3-30.4c2.1-6.8,4.6-10.9,8.1-13.5c3.6-2.6,8.3-3.5,14.2-4.2l0,0.4
							c-12.7,1.4-18,4.2-22,17.4c-4.1,13.4,2.2,30,2.3,30.2L101.2,76.3z"/>
						<path class="st1" d="M102.4,37.6c-4.2-5.3-3.1-9.1-3.1-9.3l0.4,0.1c0,0-1,3.7,3,8.9L102.4,37.6z"/>
						<path class="st1" d="M98.8,46.7l0.1-0.4c3.8,1.4,9-0.5,9-0.5l0.1,0.4C107.8,46.3,102.7,48.2,98.8,46.7z"/>
						<path class="st1" d="M97.6,53.8c-8.8-7.4-6.7-12.8-6.7-13l0.4,0.1l-0.2-0.1l0.2,0.1c0,0.1-2,5.3,6.5,12.6L97.6,53.8z"/>
					</g>
				</g>
			</g>
			<g>
				<path class="st6" d="M255.5,173.7c-0.7,1.9-2.6,3.3-4.8,3.3H75.4c-2.2,0-4-1.4-4.8-3.3c-0.3-0.9,0.3-1.8,1.3-1.8h182.4
					C255.2,171.9,255.8,172.8,255.5,173.7z"/>
				<path class="st7" d="M246.1,171.9H80c-5.4,0-9.7-4.4-9.7-9.7V63.6c0-5.4,4.4-9.7,9.7-9.7h166.1c5.4,0,9.7,4.4,9.7,9.7v98.6
					C255.8,167.5,251.5,171.9,246.1,171.9z"/>
				<linearGradient id="SVGID_7_" gradientUnits="userSpaceOnUse" x1="163.0615" y1="188.7812" x2="163.0615" y2="76.8736">
					<stop  offset="0" style="stop-color:#545B9C"/>
					<stop  offset="1" style="stop-color:#6B3383"/>
				</linearGradient>
				<path class="st8" d="M80,159.3V66.4c0-1.6,1.3-2.8,2.8-2.8h160.4c1.6,0,2.8,1.3,2.8,2.8v92.9c0,1.6-1.3,2.8-2.8,2.8H82.8
					C81.3,162.2,80,160.9,80,159.3z"/>
				<path class="st9" d="M179.7,171.9v0.8c0,0.9-0.8,1.7-1.7,1.7h-29.8c-0.9,0-1.7-0.8-1.7-1.7v-0.8H179.7z"/>
				<path class="st10" d="M238.1,73.1v77.6c0,1.6-1.3,2.9-2.9,2.9H90.9c-1.6,0-2.9-1.3-2.9-2.9V73.1H238.1 M238.8,72.4H87.3v78.4
					c0,2,1.6,3.6,3.6,3.6h144.4c2,0,3.6-1.6,3.6-3.6V72.4L238.8,72.4z"/>
				<path class="st7" d="M237.5,74.9H88.6c-0.8,0-1.4-0.6-1.4-1.4v-2.3c0-0.8,0.6-1.4,1.4-1.4h148.9c0.8,0,1.4,0.6,1.4,1.4v2.3
					C238.8,74.3,238.2,74.9,237.5,74.9z"/>
				<path class="st10" d="M225.7,122.7H100.4c-1.9,0-3.4-1.5-3.4-3.4V86.5c0-1.9,1.5-3.4,3.4-3.4h125.3c1.9,0,3.4,1.5,3.4,3.4v32.8
					C229.1,121.2,227.6,122.7,225.7,122.7z M100.4,83.9c-1.5,0-2.6,1.2-2.6,2.6v32.8c0,1.5,1.2,2.6,2.6,2.6h125.3
					c1.5,0,2.6-1.2,2.6-2.6V86.5c0-1.5-1.2-2.6-2.6-2.6H100.4z"/>
				<path class="st10" d="M193,149.8h-92.6c-1.9,0-3.4-1.5-3.4-3.4v-17.6c0-1.9,1.5-3.4,3.4-3.4H193c1.9,0,3.4,1.5,3.4,3.4v17.6
					C196.4,148.3,194.9,149.8,193,149.8z M100.4,126.2c-1.5,0-2.6,1.2-2.6,2.6v17.6c0,1.5,1.2,2.6,2.6,2.6H193
					c1.5,0,2.6-1.2,2.6-2.6v-17.6c0-1.5-1.2-2.6-2.6-2.6H100.4z"/>
				<path class="st10" d="M225.7,149.8H203c-1.9,0-3.4-1.5-3.4-3.4v-17.6c0-1.9,1.5-3.4,3.4-3.4h22.7c1.9,0,3.4,1.5,3.4,3.4v17.6
					C229.1,148.3,227.6,149.8,225.7,149.8z M203,126.2c-1.5,0-2.6,1.2-2.6,2.6v17.6c0,1.5,1.2,2.6,2.6,2.6h22.7
					c1.5,0,2.6-1.2,2.6-2.6v-17.6c0-1.5-1.2-2.6-2.6-2.6H203z"/>
				<circle class="st11" cx="92.4" cy="72.4" r="1.3"/>
				<circle class="st1" cx="96.4" cy="72.4" r="1.3"/>
				<circle class="st12" cx="100.4" cy="72.4" r="1.3"/>
				<circle class="st13" cx="163.1" cy="59.1" r="2.7"/>
			</g>
			<g>
				<ellipse class="st14" cx="222.1" cy="193.8" rx="23.1" ry="0.8"/>
				<path class="st15" d="M222.2,120.6c-0.2-0.5-1.2-4.2-0.7-4.3l3.5-0.9c0.3-0.1,1.4,1.2,1.5,1.6c0,0,0.3,0.9,0.3,0.9
					c0,0.1,0.3,1.8,0.6,2.5c0.1,0.2,0.3,0.4,0.6,0.6c0.4,0.3,0.9,0.5,1.2,0.7c0.1,0.1,0.1,0.2,0,0.3c-1.2,0.8-5.7,3.8-7.1,3.5
					C220.3,125,223.4,123.5,222.2,120.6z"/>
				<path class="st16" d="M218.5,114.6c0,3.8,0.2,8.4,2.6,7.4c2.4-1,6.7-2.4,6.7-6.3c0-3.8-0.6-6.9-4.7-6.9
					C220.6,108.7,218.5,110.7,218.5,114.6z"/>
				<g>
					<path class="st11" d="M209.1,190.4l2.3,0.7c0.1,0,0.2,0,0.3-0.1l0.6-1.8c0-0.1,0-0.2-0.1-0.3l-2.3-0.7c-0.1,0-0.2,0-0.3,0.1
						l-0.6,1.8C209,190.3,209,190.4,209.1,190.4z"/>
					<path class="st12" d="M212,190.8c0,0-0.5,2.6-0.9,2.8c-0.4,0.2-2.3-0.4-3.2-1c-1-0.6-1.9-0.4-3.8-1c-1.1-0.3-1.8-0.9-1.8-0.9
						s-0.2-1.2,1.7-0.9s4.2,0.2,4.7-0.1C209.1,189.4,209.9,190.5,212,190.8z"/>
				</g>
				<g>
					<path class="st11" d="M238.6,188.8l2-1.3c0.1-0.1,0.1-0.2,0.1-0.3l-1-1.6c-0.1-0.1-0.2-0.1-0.3-0.1l-2,1.3
						c-0.1,0.1-0.1,0.2-0.1,0.3l1,1.6C238.4,188.9,238.6,188.9,238.6,188.8z"/>
					<path class="st12" d="M240.7,186.8c0,0,1.7,2,1.6,2.5c-0.1,0.4-1.7,1.5-2.8,1.8c-1.1,0.3-1.6,2.5-3.7,2.6c-2.6,0.2-2.4,0-2.4,0
						s-0.5-0.8,1.7-1.7c1.8-0.7,2.4-2.7,2.5-3.3C237.8,188.2,239.2,188.3,240.7,186.8z"/>
				</g>
				<path class="st17" d="M231.7,149.7c0.1,4.5,1.5,15.1,1.4,16.5c-0.1,1.4-6.6,5.3-7.3,2.7s-4.8-17.6-6.6-23.3
					c-1.8-5.7,9.6-4.8,9.6-4.8S231.4,140.5,231.7,149.7z"/>
				<path class="st17" d="M236.2,174c1.5,3.9,4.1,8.9,4.4,10.2c0.4,1.3-3.4,4.8-4.8,2.5c-1.4-2.3-8.4-12.5-10.1-18.1
					c-1.4-4.4,6.6-4.9,6.6-4.9S233.1,166,236.2,174z"/>
				<path class="st18" d="M228.3,152.3c-2.1,4-6.2,13.8-7,15c-0.8,1.2-8.4,1.3-7.7-1.3c0.7-2.7,4.6-17.6,5.9-23.4
					c1.3-5.8,10.7,0.6,10.7,0.6S232.6,144.2,228.3,152.3z"/>
				<path class="st11" d="M217.5,136.6c-4,0.1-10-0.7-11.2-1.4c-1.1-0.7-0.9-2.9,0.4-2.9c1.3,0.1,8-0.4,10,0.2"/>
				<path class="st18" d="M218.5,176.8c-1.3,4-3.6,10.5-4.1,11.7s-5.7,1.6-5.3-1.1c0.4-2.7,2.5-16,4.6-21.5c1.7-4.3,8.2,0.3,8.2,0.3
					S221,168.6,218.5,176.8z"/>
				<path class="st11" d="M230.9,130.7c1.7,3.5,2.2,6.7,2.8,7.6c1.9,2.6,2.2,1.3,3.4,0.2c0.4-0.4,0.7-1,0.5-1.6
					c-0.9-3.1-2.8-10.9-4.7-12.9c-2.1-2.3-3.2-2.5-5.1-3c0,0-3.1,2.3-5.4,1.3c0,0-1.3,0.5-1.8,1.8c-1.9,4.9-1.8,7.1-1.7,9.9
					c0.1,3.5,0.6,6.6,0.4,8c-0.4,2.1-0.5,2.7,0.4,2.9c0.9,0.1,11.1,0.4,11.2-0.4c0-0.1,0.4-0.3,0.4-0.7c0-1.9-1.3-6.7-0.5-10.6
					c0.1-0.7,0.2-1.4,0.2-2L230.9,130.7z"/>
				<path class="st19" d="M221.7,111.9c0,0-3.1,1.1-3.7,0.6c-0.3-0.3-0.6-0.7-0.8-1c-0.1-0.1,0-0.2,0.1-0.1c0.1,0.1,0.2,0.1,0.3,0.1
					c0.3,0.1,1-1.1,2.1-1.8c0.1,0,0.1-0.1,0-0.2c-0.2-0.1-0.4-0.2-0.5-0.3c-0.2-0.2,1.6,0,2.7-0.5c1.1-0.6,5.1-0.5,5.5,0.6"/>
				<path class="st19" d="M223.5,116.6c0,0-3-2.8-2.5-4.2c0.6-1.4,3.3-3.3,5.9-3.1c2.5,0.2,2.6,3.4,1.9,5.3
					c-0.8,1.9-1.5,3.3-1.5,3.3S225,116.5,223.5,116.6z"/>
				
					<ellipse transform="matrix(0.2346 -0.9721 0.9721 0.2346 58.5236 306.3561)" class="st16" cx="223.8" cy="116" rx="1.4" ry="1.1"/>
				
					<rect x="216.8" y="111.8" transform="matrix(0.4389 -0.8985 0.8985 0.4389 1.4247 275.5163)" class="st12" width="9" height="49.7"/>
				<path class="st16" d="M205,134.5c1,0.4,2.6,1.2,2.9,0.5c0.4-0.8-0.5-1.5-1.5-1.9c-1-0.4-2.4-0.6-2.8,0.2
					C203.4,134.1,204,134.1,205,134.5z"/>
				<path class="st16" d="M229.1,142.1c0.2,0.4,0.7,0.8,0.7,0.8s-1.6,1.2-2.5,1.6c-0.9,0.4-1.1,0.4-2.2,0.5c-1,0.1-2,0-2.4-1.3
					c-0.3-1.1,1.1-1.8,1.9-1.8c0.8,0,2.1,0.5,2.7,0.2c0.6-0.2,1.5-0.7,1.5-0.7S228.9,141.7,229.1,142.1z"/>
				<path class="st11" d="M235.3,134.7c-3.1,2.5-6.8,5.7-7.3,6.9c-0.5,1.2,1.5,3.6,2.5,2.7c1-0.9,5.6-4.2,6.8-6"/>
			</g>
			<g>
				<ellipse class="st14" cx="54.4" cy="177.8" rx="25.6" ry="0.8"/>
				<path class="st20" d="M77.1,177L64,124.9c-0.1-0.3-0.4-0.5-0.7-0.4c-0.3,0.1-0.5,0.4-0.4,0.7l4.8,18.9H49.3L47.9,125
					c0-0.3-0.3-0.6-0.6-0.5c-0.3,0-0.6,0.3-0.5,0.6l3.8,52.1c0,0.3,0.3,0.5,0.6,0.5c0,0,0,0,0,0c0.3,0,0.6-0.3,0.5-0.6l-1-14.2h21.7
					l3.6,14.4c0.1,0.3,0.3,0.4,0.6,0.4c0,0,0.1,0,0.1,0C77,177.6,77.2,177.3,77.1,177z M50.6,161.7l-1.2-16.4h18.5l4.1,16.4H50.6z"
					/>
				<path class="st21" d="M64.1,124.1H46.6c-0.5,0-1,0.4-1,1c0,0.5,0.4,0.9,0.8,0.9l-12.8,51c-0.1,0.3,0.1,0.6,0.4,0.7
					c0,0,0.1,0,0.1,0c0.3,0,0.5-0.2,0.6-0.4l3.6-14.4H60l-1,14.2c0,0.3,0.2,0.6,0.5,0.6c0,0,0,0,0,0c0.3,0,0.6-0.2,0.6-0.5l3.7-51.2
					h0.2c0.5,0,1-0.4,1-1C65,124.5,64.6,124.1,64.1,124.1z M38.7,161.7l4.1-16.4h18.5l-1.2,16.4H38.7z M61.4,144.1H43.1l4.6-18.1
					h15.1L61.4,144.1z"/>
				<g>
					<g>
						<path class="st16" d="M50.6,92c0.4,0.1,0.8,0.5,0.8,0.5s0.7-1.5,0.9-2.3c0.2-0.8,0.2-1,0.1-1.9c-0.1-0.9-0.3-1.7-1.5-1.8
							c-1-0.1-1.3,1.2-1.2,1.9c0.2,0.7,0.8,1.7,0.7,2.3c-0.1,0.5-0.4,1.3-0.4,1.3S50.2,91.8,50.6,92z"/>
						<path class="st22" d="M45.2,106c2.2-1.3,5-2.9,5.9-4.9c0.9-2,1-8.3,0.9-9.5c0-0.1-0.1-0.3-0.2-0.4c-0.8-0.5-1.7-0.5-1.8-0.3
							c-0.2,0.2,0.1,7.4-1.9,9.7c-1.4,1.6-1.7,1.5-3.4,2.3c-1.6,0.8-2.8,0.1-2.9,2.1C41.6,107,43.1,107.3,45.2,106z"/>
					</g>
					<g>
						<path class="st16" d="M45.5,106.4c2,0.3,3.3-0.8,3.7-1.3c0.4-0.5-0.9-1-1.3-1.5c-0.2-0.2-0.3-0.6-0.3-1c0-0.6,0-2.5,0.1-3.3
							l-3.9,0.4c0,0,0.1,2,0.1,2.7c0,0.1,0,0.2,0,0.3c-0.1,0.5-0.6,0.7-1.4,1.3C41.6,104.7,43.6,106.1,45.5,106.4z"/>
						<g>
							<g>
								<path class="st16" d="M42.2,99.1c1.1,1.9,1.7,2.9,2.9,3.3c1.2,0.4,2.2,0.4,2.9,0.1c0.8-0.4,1.4-2.4,1.2-3.4
									c-0.2-1-1-3.4-2.3-5.5c-0.7-1.1-2.6-1.8-3.9-1.2C41.7,93.1,39.4,94.4,42.2,99.1z"/>
							</g>
							<path class="st19" d="M47,95.9c0.6,1.9,0.5,2.7-0.1,3.8c-0.5,1.1-1.5,1.7-2.2,1.7c-0.9,0.1-1.1-0.2-2.6-1.6
								c-0.6-0.6-1.7-1.4-2.3-3.5c-0.3-1.1,0.5-2.8,1.8-3.4C42.9,92.3,45.5,91.3,47,95.9z"/>
							<path class="st16" d="M47.9,97.1c0.2,0.7,0,1.4-0.5,1.6c-0.5,0.2-1.1-0.3-1.3-1c-0.2-0.7,0-1.4,0.5-1.6
								C47.2,95.9,47.7,96.4,47.9,97.1z"/>
							<path class="st19" d="M45.9,95.2c0.7-1,1.7-1.9,0.7-2.6c-0.9-0.7-3.3-1.4-5.5,0.4C38.6,95.2,45.9,95.2,45.9,95.2z"/>
						</g>
					</g>
					<path class="st22" d="M55,160.7c-2.1-0.1-3.8-0.7-3.8,0.6c0.1,1.1,0.2,1,3.7,1c2.1,0,3.7-0.2,3.8-0.6S57.1,160.8,55,160.7z"/>
					<path class="st22" d="M45.1,160.7c-1.9-0.7-3.8-0.7-3.8,0.6c0.1,1.1-0.1,1,3.4,1c2.1,0,2.6-0.4,2.3-0.7
						C46.5,161.2,46,161,45.1,160.7z"/>
					<path class="st12" d="M47.9,102.9c-1.9,0-2.9-0.1-5.1,0.4c-1.5,0.4-3.2,1.4-2.6,6c0,0,1.2,11.4,1.2,12.9
						c0.2,3.7-0.9,4.4,2.1,4.1c3.1-0.3,6.8-0.1,8.3-0.3c0.5-0.1,0.3-1.2,0.2-2.5c-0.1-1.1-1-9.8-0.9-13.8
						C51.1,106.9,51.8,102.9,47.9,102.9z"/>
					<path class="st23" d="M41.7,159.4c-0.1,1.1-0.2,1.5-0.2,1.5s0.7,0.1,3-0.1c0.2,0,0.6-3.3,0.8-4.8c0.2-1.6,0.8-9.1,0.8-10.9
						c-0.1-1.8,0.3-12.5,0.3-12.5h0.8c0,0,2.2,5.6,2.5,7.6c0.5,3,0.8,4.9,0.8,5.9c-0.1,1.9,0.8,11.7,1,12.8c0.2,1,0,2.1,0,2.1
						s1.7,0.5,3.4,0.1c0,0-0.2-14.6-0.3-16.9c0-1.6-1.2-10-1.9-14.5c0-0.1,0-0.2,0-0.3c-0.2-1.6-0.4-2.7-0.4-2.7s0-0.4-0.4-0.5
						c-0.2,0-0.4-0.1-1.3-0.1c-0.1,0-0.2,0-0.3,0c-0.8,0-1.9,0-3.8,0c-4.3,0-5,0.1-5,0.4c0,0,0.5,15.5,0.6,18
						C42.1,146.6,41.8,158.3,41.7,159.4z"/>
					<path class="st16" d="M53.8,120.7"/>
					<path class="st24" d="M50.2,125.8c0.1,0,0.2,0,0.3,0c-0.1,0.3-0.2,0.5-0.2,0.8c0,1.3,1,2.3,2.2,2.5c0,0.1,0,0.2,0,0.3
						c-1.4-0.1-2.5-1.3-2.5-2.8C50,126.4,50.1,126.1,50.2,125.8z"/>
					<path class="st11" d="M66.7,101.7c-6.5,0-12.5-2.5-17.1-7.1c-4.6-4.6-7.1-10.6-7.1-17.1s2.5-12.5,7.1-17.1l7.8,7.8
						c-5.1,5.1-5.1,13.5,0,18.6c2.5,2.5,5.8,3.9,9.3,3.9c3.5,0,6.8-1.4,9.3-3.9l7.8,7.8C79.2,99.2,73.2,101.7,66.7,101.7z"/>
					<path class="st16" d="M63.8,102.3c0.1,0.4,0.1,0.9,0.1,0.9s1.7-0.4,2.4-0.8c0.7-0.4,0.9-0.5,1.5-1.1c0.6-0.6,1.1-1.3,0.5-2.3
						c-0.5-0.8-1.8-0.3-2.2,0.3c-0.4,0.5-0.9,1.7-1.3,1.9c-0.5,0.3-1.3,0.6-1.3,0.6S63.7,101.9,63.8,102.3z"/>
					<path class="st12" d="M49.5,106.9c2.4,0.9,5.4,2.1,7.5,1.6c2.1-0.6,7.1-4.5,8-5.2c0.1-0.1,0.2-0.2,0.2-0.4
						c-0.1-1-0.7-1.6-0.9-1.6c-0.3,0-5.7,4.7-8.8,4.5c-2.2-0.1-2.3-0.4-4-1.2c-1.6-0.8-1.8-2.1-3.4-1
						C46.4,104.7,47.2,106,49.5,106.9z"/>
				</g>
			</g>
			<path class="st12" d="M173.9,46.9c-9.4,0-17-7.6-17-17c0-9.4,7.6-17,17-17s17,7.6,17,17C190.9,39.3,183.3,46.9,173.9,46.9z
				 M173.9,21.9c-4.4,0-8,3.6-8,8c0,4.4,3.6,8,8,8c4.4,0,8-3.6,8-8C181.9,25.5,178.3,21.9,173.9,21.9z"/>
			<g>
				<path class="st25" d="M143.1,94.4h-38.9c-2.4,0-4.3,1.9-4.3,4.3v22.4c0,2.4,1.9,4.3,4.3,4.3h4.4l5.5,7.4c1.2,1.6,3.5,1.6,4.7,0
					l5.5-7.4h18.8c2.4,0,4.3-1.9,4.3-4.3V98.6C147.4,96.3,145.5,94.4,143.1,94.4z"/>
				<path class="st26" d="M135.1,101.4H96.2c-2.4,0-4.3,1.9-4.3,4.3v22.4c0,2.4,1.9,4.3,4.3,4.3h4.4l5.5,7.4c1.2,1.6,3.5,1.6,4.7,0
					l5.5-7.4h18.8c2.4,0,4.3-1.9,4.3-4.3v-22.4C139.4,103.3,137.5,101.4,135.1,101.4z"/>
				<path class="st27" d="M129.5,109.2H98.4c-0.8,0-1.5-0.7-1.5-1.5c0-0.8,0.7-1.5,1.5-1.5h31.1c0.8,0,1.5,0.7,1.5,1.5
					C131,108.5,130.3,109.2,129.5,109.2z"/>
				<path class="st27" d="M129.5,116.3H98.4c-0.8,0-1.5-0.7-1.5-1.5c0-0.8,0.7-1.5,1.5-1.5h31.1c0.8,0,1.5,0.7,1.5,1.5
					C131,115.6,130.3,116.3,129.5,116.3z"/>
				<path class="st27" d="M115.2,123.4H98.4c-0.8,0-1.5-0.7-1.5-1.5c0-0.8,0.7-1.5,1.5-1.5h16.8c0.8,0,1.5,0.7,1.5,1.5
					C116.7,122.7,116.1,123.4,115.2,123.4z"/>
			</g>
			<g>
				<g>
					<path class="st28" d="M168.5,86h24.1c1.5,0,2.6,1.2,2.6,2.6v13.9c0,1.5-1.2,2.6-2.6,2.6h-2.7l-3.4,4.6c-0.7,1-2.2,1-2.9,0
						l-3.4-4.6h-11.6c-1.5,0-2.6-1.2-2.6-2.6V88.6C165.9,87.1,167.1,86,168.5,86z"/>
					<path class="st29" d="M164.5,90.3h24.1c1.5,0,2.6,1.2,2.6,2.6v13.9c0,1.5-1.2,2.6-2.6,2.6h-2.7l-3.4,4.6c-0.7,1-2.2,1-2.9,0
						l-3.4-4.6h-11.6c-1.5,0-2.6-1.2-2.6-2.6V92.9C161.8,91.5,163,90.3,164.5,90.3z"/>
				</g>
			</g>
		</g>
	</g>
	<g>
		<path class="st9" d="M165.9,97.6v1.6h0.1l1.1-1.6h1.1l-1.4,1.8c0.5,0.1,0.7,0.5,0.9,1c0.1,0.4,0.3,0.8,0.5,1.2h-1
			c-0.1-0.3-0.2-0.6-0.3-0.9c-0.1-0.4-0.3-0.8-0.8-0.8h-0.2v1.7H165v-3.9H165.9z"/>
		<path class="st9" d="M168.6,97.6c0.3,0,0.7-0.1,1.2-0.1c0.6,0,0.9,0.1,1.2,0.3c0.3,0.2,0.4,0.5,0.4,0.9s-0.1,0.7-0.4,0.9
			c-0.3,0.3-0.8,0.4-1.3,0.4c-0.1,0-0.2,0-0.3,0v1.4h-0.9V97.6z M169.4,99.4c0.1,0,0.2,0,0.3,0c0.5,0,0.8-0.2,0.8-0.6
			c0-0.4-0.3-0.6-0.7-0.6c-0.2,0-0.3,0-0.4,0V99.4z"/>
		<path class="st9" d="M172.5,100.5l-0.3,1h-0.9l1.2-3.9h1.2l1.2,3.9h-1l-0.3-1H172.5z M173.5,99.9l-0.2-0.8
			c-0.1-0.2-0.1-0.5-0.2-0.8h0c-0.1,0.2-0.1,0.5-0.2,0.8l-0.2,0.8H173.5z"/>
		<path class="st9" d="M178.2,101.4c-0.2,0.1-0.5,0.2-1,0.2c-1.4,0-2.1-0.8-2.1-2c0-1.3,1-2.1,2.2-2.1c0.5,0,0.8,0.1,1,0.2l-0.2,0.7
			c-0.2-0.1-0.4-0.1-0.8-0.1c-0.7,0-1.3,0.4-1.3,1.3c0,0.8,0.5,1.3,1.3,1.3c0.3,0,0.6-0.1,0.7-0.1L178.2,101.4z"/>
		<path class="st9" d="M181.4,97.6v0.7h-1.7V99c0.1,0,0.3,0,0.5,0c0.4,0,0.8,0.1,1.1,0.3c0.3,0.2,0.5,0.5,0.5,0.9
			c0,0.4-0.1,0.7-0.4,0.9c-0.4,0.3-1,0.5-1.6,0.5c-0.4,0-0.8,0-1-0.1v-3.9H181.4z M179.7,100.9c0.1,0,0.2,0,0.3,0
			c0.2,0,0.4-0.1,0.6-0.2c0.1-0.1,0.2-0.3,0.2-0.5c0-0.2-0.1-0.3-0.2-0.4c-0.2-0.1-0.4-0.2-0.6-0.2c-0.1,0-0.2,0-0.3,0V100.9z"/>
		<path class="st9" d="M184.7,99.9h-1.5v0.9h1.6v0.7h-2.5v-3.9h2.4v0.7h-1.5v0.8h1.5V99.9z"/>
		<path class="st9" d="M185.4,97.6c0.3,0,0.7-0.1,1.2-0.1c0.6,0,0.9,0.1,1.2,0.3c0.3,0.2,0.4,0.5,0.4,0.9s-0.1,0.7-0.4,0.9
			c-0.3,0.3-0.8,0.4-1.3,0.4c-0.1,0-0.2,0-0.3,0v1.4h-0.9V97.6z M186.3,99.4c0.1,0,0.2,0,0.3,0c0.5,0,0.8-0.2,0.8-0.6
			c0-0.4-0.3-0.6-0.7-0.6c-0.2,0-0.3,0-0.4,0V99.4z"/>
	</g>
</g>
</svg>
