<?xml version="1.0" encoding="utf-8"?>
<!-- Generator: Adobe Illustrator 21.0.2, SVG Export Plug-In . SVG Version: 6.00 Build 0)  -->
<svg version="1.1" xmlns="http://www.w3.org/2000/svg" xmlns:xlink="http://www.w3.org/1999/xlink" x="0px" y="0px"
	 viewBox="0 0 418 356" style="enable-background:new 0 0 418 356;" xml:space="preserve">
<style type="text/css">
	.st0{display:none;fill:#5046AF;}
	.st1{fill:none;stroke:#007724;stroke-width:0.7557;stroke-miterlimit:10;}
	.st2{fill:#6E64C3;}
	.st3{fill:#04A836;}
	.st4{fill:#1E2D64;}
	.st5{fill:#FFFFFF;}
	.st6{fill:#39D866;}
	.st7{opacity:0.4;fill:#6C9BAA;}
	.st8{fill:#D2AFFF;}
	.st9{fill:none;stroke:#8841E6;stroke-width:2.8043;stroke-linecap:round;stroke-miterlimit:10;}
	.st10{fill:#8841E6;}
	.st11{fill:none;stroke:#FFFFFF;stroke-width:1.8724;stroke-linecap:round;stroke-miterlimit:10;}
	.st12{fill:#0F1446;}
	.st13{fill:none;stroke:#D2AFFF;stroke-width:0.8641;stroke-miterlimit:10;}
	.st14{fill:none;stroke:#41378C;stroke-width:1.7282;stroke-miterlimit:10;}
	.st15{fill:none;stroke:#41378C;stroke-width:1.7282;stroke-linecap:round;stroke-miterlimit:10;}
	.st16{fill:#FA968C;}
	.st17{fill:#FA870A;}
	.st18{fill:#FAB9AF;}
	.st19{fill:#46738C;}
	.st20{fill:#1C9585;}
	.st21{fill:#177D74;}
	.st22{fill:#39AE96;}
	.st23{fill:#FFA50A;}
	.st24{fill:#3C5A73;}
	.st25{fill:#FFA0BE;}
	.st26{fill:#F57A2F;}
	.st27{fill:#0091C8;}
	.st28{fill:#0073AA;}
	.st29{fill:#00558C;}
	.st30{fill:#FF8C46;}
	.st31{fill:#FF82AA;}
	.st32{fill:none;stroke:#41B4E6;stroke-width:1.2962;stroke-linecap:round;stroke-miterlimit:10;}
	.st33{fill:none;stroke:#A8E5FF;stroke-width:1.2962;stroke-linecap:round;stroke-miterlimit:10;}
	.st34{fill:none;stroke:#FFFFFF;stroke-width:1.2962;stroke-linecap:round;stroke-miterlimit:10;}
	.st35{fill:#41B4E6;}
	.st36{fill:#AAC85A;}
	.st37{fill:#82BE50;}
	.st38{fill:#A56941;}
	.st39{fill:none;stroke:#FFFFFF;stroke-width:1.2962;stroke-miterlimit:10;}
	.st40{fill:#55C7A6;}
	.st41{fill:#FFF0F2;}
	.st42{fill:#965028;}
	.st43{fill:#EB7731;}
</style>
<g id="BACKGROUND">
	<g>
		<rect x="-41" y="-71.8" class="st0" width="500" height="500"/>
		<g>
			<path class="st1" d="M89.6,242.4c-0.5,0-0.9,0-1.4,0c0.4-1.5,0.6-3.1,0.6-4.8c0-12.3-11.4-22.2-25.4-22.2
				c-13.8,0-25.1,9.7-25.4,21.7c-10.4,4.7-17.6,14.7-17.6,26.4c0,16.1,13.9,29.2,31,29.2c7.4,0,14.2-2.5,19.5-6.5
				c5.1,3.4,11.7,5.4,18.8,5.4c16.6,0,30-11,30-24.6C119.5,253.4,106.1,242.4,89.6,242.4z"/>
			<line class="st1" x1="70.8" y1="254.1" x2="70.8" y2="318.8"/>
			<polyline class="st1" points="41,263.8 70.8,278.3 95.3,264.6 			"/>
			<polyline class="st1" points="56.9,238.1 70.8,263.8 82,252.8 			"/>
		</g>
		<path class="st2" d="M84.3,112L84.3,112c-1.5,0-2.5-1.5-2-2.9c0.4-1.3,0.6-2.6,0.3-4.1c-0.7-4-4.3-6.9-8.4-6.9H29
			c-4.1,0-7.8,2.9-8.4,7c-0.8,5.2,3.2,9.7,8.2,9.7h0.5c3.4,0,6,2.8,6,6.2c0,0,0,0,0,0.1l0,0c0,5,4,9,9,9h40c5,0,9-4,9-9l0,0
			C93.3,116.1,89.3,112,84.3,112z"/>
		<g>
			<path class="st1" d="M392.6,234.6c-1.2-1.2-3.8-1.2-6.7-0.7c-4.1,0.7-7.1-3.7-4.9-7.3c4.6-7.5,9.2-16.3,6.8-18.7
				c-2.2-2.2-10.9,0.6-16.7,2.8c-2.8,1.1-5.9-0.6-6.5-3.6c-1.8-9-5.6-25.5-10-25.5c-4.4,0-8.3,16.5-10,25.6
				c-0.6,2.9-3.6,4.6-6.4,3.6c-6.2-2.3-15.8-5.3-18.2-2.9c-2.4,2.4,2.2,11.2,6.8,18.7c2.2,3.5-0.8,8-4.9,7.3
				c-2.9-0.5-5.5-0.5-6.7,0.7c-4.9,4.9,2.4,20.2,16.3,34.1c2.4,2.4,4.9,4.6,7.3,6.6c1.2,1,1.9,2.6,1.7,4.2c-0.2,2.4,0.2,4.3,1.5,5.5
				c2,2,5.6,2,10.2,0.4c1-0.4,2.2-0.4,3.2,0c4.6,1.6,8.2,1.6,10.2-0.4c1.2-1.2,1.7-3.1,1.5-5.5c-0.2-1.6,0.5-3.1,1.7-4.2
				c2.4-2,4.9-4.2,7.3-6.6C390.3,254.8,397.6,239.5,392.6,234.6z"/>
			<line class="st1" x1="354" y1="207.1" x2="354" y2="320.1"/>
			<polyline class="st1" points="369.2,222.6 354,237.8 338.8,222.6 			"/>
			<polyline class="st1" points="369.2,251.1 354,266.3 338.8,251.1 			"/>
		</g>
		<path class="st2" d="M398.1,308.9c0-6.4-5.2-11.7-11.7-11.7H241v23.3h145.4C392.8,320.5,398.1,315.3,398.1,308.9L398.1,308.9z"/>
		<path class="st1" d="M364.2,42.6c-0.1-3.3-2.9-5.9-6.2-5.9c-7.6,0-13.2,0-17.1,0c-3.3,0-6.2-2.5-6.5-5.8c-0.3-2.5-1.3-4.9-4-4.9
			h-34.9c-3.3,0-6.1,2.5-6.1,5.8c-0.1,3.3,2.6,6,5.9,6c0.3,0,0.9,0,1.5,0c0.4,0,0.9,0,1.3,0.2c2.6,0.8,4,3.5,3.2,6
			c-0.6,2-2.6,3.3-4.7,3.3c-3.1,0-6.6,0-6.6,0c-3.1,0-5.8,2.4-5.8,5.5c0,3.2,2.5,5.7,5.6,5.7h59.7c4,0,6.3-3.5,5.8-6.7
			c-0.3-1.8,1-3.4,2.7-3.4c0.1,0,0.2,0,0.2,0C361.5,48.7,364.2,46,364.2,42.6z"/>
		<path class="st1" d="M386.5,48.3h-6.3c-2.9,0-5.2,2.3-5.2,5.2l0,0c0,2.9,2.3,5.2,5.2,5.2h6.3c2.9,0,5.2-2.3,5.2-5.2l0,0
			C391.7,50.7,389.4,48.3,386.5,48.3z"/>
		<path class="st1" d="M274.1,37.4h-7.2c-3.1,0-5.6-2.5-5.6-5.6l0,0c0-3.1,2.5-5.6,5.6-5.6h7.2c3.1,0,5.6,2.5,5.6,5.6l0,0
			C279.7,34.9,277.2,37.4,274.1,37.4z"/>
		<g>
			<path class="st1" d="M391.8,126.6v-5.9c0-3.5-2.8-6.3-6.3-6.3h-0.2c-2.7,0-5-1.7-6-4.2c-0.4-1-0.7-1.9-1.2-2.8
				c-1.1-2.4-0.7-5.3,1.2-7.2l0.2-0.2c2.5-2.5,2.5-6.5,0-8.9l-4.2-4.2c-2.5-2.5-6.5-2.5-8.9,0l-0.2,0.2c-1.9,1.9-4.8,2.3-7.2,1.2
				c-0.9-0.4-1.9-0.8-2.8-1.2c-2.5-0.9-4.2-3.3-4.2-6v-0.2c0-3.5-2.8-6.3-6.3-6.3h-5.9c-3.5,0-6.3,2.8-6.3,6.3v0.2
				c0,2.7-1.7,5-4.2,6c-1,0.4-1.9,0.7-2.8,1.2c-2.4,1.1-5.3,0.7-7.2-1.2l-0.2-0.2c-2.5-2.5-6.5-2.5-8.9,0l-4.2,4.2
				c-2.5,2.5-2.5,6.5,0,8.9l0.2,0.2c1.9,1.9,2.3,4.8,1.2,7.2c-0.4,0.9-0.8,1.9-1.2,2.8c-0.9,2.5-3.3,4.2-6,4.2H300
				c-3.5,0-6.3,2.8-6.3,6.3v5.9c0,3.5,2.8,6.3,6.3,6.3h0.2c2.7,0,5,1.7,6,4.2c0.4,1,0.7,1.9,1.2,2.8c1.1,2.4,0.7,5.3-1.2,7.2
				l-0.2,0.2c-2.5,2.5-2.5,6.5,0,8.9l4.2,4.2c2.5,2.5,6.5,2.5,8.9,0l0.2-0.2c1.9-1.9,4.8-2.3,7.2-1.2c0.9,0.4,1.9,0.8,2.8,1.2
				c2.5,0.9,4.2,3.3,4.2,6v0.2c0,3.5,2.8,6.3,6.3,6.3h5.9c3.5,0,6.3-2.8,6.3-6.3v-0.2c0-2.7,1.7-5,4.2-6c1-0.4,1.9-0.7,2.8-1.2
				c2.4-1.1,5.3-0.7,7.2,1.2l0.2,0.2c2.5,2.5,6.5,2.5,8.9,0l4.2-4.2c2.5-2.5,2.5-6.5,0-8.9l-0.2-0.2c-1.9-1.9-2.3-4.8-1.2-7.2
				c0.4-0.9,0.8-1.9,1.2-2.8c0.9-2.5,3.3-4.2,6-4.2h0.2C389,132.9,391.8,130.1,391.8,126.6z"/>
			<circle class="st1" cx="342.7" cy="123.7" r="25.5"/>
		</g>
		<g>
			<path class="st1" d="M83.4,182.8v-2.8c0-1.6-1.3-3-3-3h-0.1c-1.3,0-2.4-0.8-2.8-2c-0.2-0.5-0.4-0.9-0.6-1.3
				c-0.5-1.2-0.3-2.5,0.6-3.4l0.1-0.1c1.2-1.2,1.2-3.1,0-4.2l-2-2c-1.2-1.2-3.1-1.2-4.2,0l-0.1,0.1c-0.9,0.9-2.3,1.1-3.4,0.6
				c-0.4-0.2-0.9-0.4-1.3-0.6c-1.2-0.4-2-1.5-2-2.8v-0.1c0-1.6-1.3-3-3-3h-2.8c-1.6,0-3,1.3-3,3v0.1c0,1.3-0.8,2.4-2,2.8
				c-0.5,0.2-0.9,0.4-1.3,0.6c-1.2,0.5-2.5,0.3-3.4-0.6l-0.1-0.1c-1.2-1.2-3.1-1.2-4.2,0l-2,2c-1.2,1.2-1.2,3.1,0,4.2l0.1,0.1
				c0.9,0.9,1.1,2.3,0.6,3.4c-0.2,0.4-0.4,0.9-0.6,1.3c-0.4,1.2-1.5,2-2.8,2h-0.1c-1.6,0-3,1.3-3,3v2.8c0,1.6,1.3,3,3,3h0.1
				c1.3,0,2.4,0.8,2.8,2c0.2,0.5,0.4,0.9,0.6,1.3c0.5,1.2,0.3,2.5-0.6,3.4l-0.1,0.1c-1.2,1.2-1.2,3.1,0,4.2l2,2
				c1.2,1.2,3.1,1.2,4.2,0l0.1-0.1c0.9-0.9,2.3-1.1,3.4-0.6c0.4,0.2,0.9,0.4,1.3,0.6c1.2,0.4,2,1.5,2,2.8v0.1c0,1.6,1.3,3,3,3h2.8
				c1.6,0,3-1.3,3-3v-0.1c0-1.3,0.8-2.4,2-2.8c0.5-0.2,0.9-0.4,1.3-0.6c1.2-0.5,2.5-0.3,3.4,0.6l0.1,0.1c1.2,1.2,3.1,1.2,4.2,0l2-2
				c1.2-1.2,1.2-3.1,0-4.2l-0.1-0.1c-0.9-0.9-1.1-2.3-0.6-3.4c0.2-0.4,0.4-0.9,0.6-1.3c0.4-1.2,1.5-2,2.8-2h0.1
				C82.1,185.8,83.4,184.5,83.4,182.8z"/>
			<circle class="st1" cx="60.3" cy="181.5" r="12"/>
		</g>
		<g>
			<path class="st1" d="M44.3,161.2l0.3-1.9c0.2-1.1-0.7-2.2-1.8-2.3l-0.1,0c-0.9-0.1-1.6-0.8-1.8-1.6c-0.1-0.3-0.2-0.7-0.3-1
				c-0.3-0.8,0-1.8,0.7-2.3l0.1,0c0.9-0.7,1.1-2,0.4-2.9l-1.2-1.5c-0.7-0.9-2-1.1-2.9-0.4l-0.1,0c-0.7,0.5-1.7,0.6-2.4,0.1
				c-0.3-0.2-0.6-0.3-0.9-0.5c-0.8-0.4-1.2-1.3-1.1-2.1l0-0.1c0.2-1.1-0.7-2.2-1.8-2.3l-1.9-0.3c-1.1-0.2-2.2,0.7-2.3,1.8l0,0.1
				c-0.1,0.9-0.8,1.6-1.6,1.8c-0.3,0.1-0.7,0.2-1,0.3c-0.8,0.3-1.8,0-2.3-0.7l0-0.1c-0.7-0.9-2-1.1-2.9-0.4l-1.5,1.2
				c-0.9,0.7-1.1,2-0.4,2.9l0,0.1c0.5,0.7,0.6,1.7,0.1,2.4c-0.2,0.3-0.3,0.6-0.5,0.9c-0.4,0.8-1.3,1.2-2.1,1.1l-0.1,0
				c-1.1-0.2-2.2,0.7-2.3,1.8l-0.3,1.9c-0.2,1.1,0.7,2.2,1.8,2.3l0.1,0c0.9,0.1,1.6,0.8,1.8,1.6c0.1,0.3,0.2,0.7,0.3,1
				c0.3,0.8,0,1.8-0.7,2.3l-0.1,0c-0.9,0.7-1.1,2-0.4,2.9l1.2,1.5c0.7,0.9,2,1.1,2.9,0.4l0.1,0c0.7-0.5,1.7-0.6,2.4-0.1
				c0.3,0.2,0.6,0.3,0.9,0.5c0.8,0.4,1.2,1.3,1.1,2.1l0,0.1c-0.2,1.1,0.7,2.2,1.8,2.3l1.9,0.3c1.1,0.2,2.2-0.7,2.3-1.8l0-0.1
				c0.1-0.9,0.8-1.6,1.6-1.8c0.3-0.1,0.7-0.2,1-0.3c0.8-0.3,1.8,0,2.3,0.7l0,0.1c0.7,0.9,2,1.1,2.9,0.4l1.5-1.2
				c0.9-0.7,1.1-2,0.4-2.9l0-0.1c-0.5-0.7-0.6-1.7-0.1-2.4c0.2-0.3,0.3-0.6,0.5-0.9c0.4-0.8,1.3-1.2,2.1-1.1l0.1,0
				C43.1,163.1,44.2,162.3,44.3,161.2z"/>
			
				<ellipse transform="matrix(0.1314 -0.9913 0.9913 0.1314 -132.0537 165.4372)" class="st1" cx="28.4" cy="158.1" rx="8.4" ry="8.4"/>
		</g>
		<path class="st2" d="M404.4,320.5h-23c-3.5,0-6.3-2.8-6.3-6.3l0,0c0-3.5,2.8-6.3,6.3-6.3h23c3.5,0,6.3,2.8,6.3,6.3l0,0
			C410.7,317.7,407.9,320.5,404.4,320.5z"/>
	</g>
</g>
<g id="OBJECTS">
	<g>
		<path class="st3" d="M345.1,275.3c0,6.2-5,11.2-11.2,11.2H78.9c-6.2,0-11.2-5-11.2-11.2V98.2c0-6.2,5-11.2,11.2-11.2h254.9
			c6.2,0,11.2,5,11.2,11.2V275.3z"/>
		<g>
			<path class="st4" d="M333.8,98.2l0,177.1l-254.9,0l0-177.1H333.8L333.8,98.2 M333.8,86.9H78.9c-6.2,0-11.2,5-11.2,11.2v177.1
				c0,6.2,5,11.2,11.2,11.2h254.9c6.2,0,11.2-5,11.2-11.2V98.2C345.1,92,340,86.9,333.8,86.9L333.8,86.9z"/>
		</g>
		<g>
			<path class="st5" d="M305.3,262.5c0,4.2-3.4,7.6-7.6,7.6H114.2c-4.2,0-7.6-3.4-7.6-7.6V118.8c0-4.2,3.4-7.6,7.6-7.6h183.5
				c4.2,0,7.6,3.4,7.6,7.6V262.5z"/>
		</g>
		<path class="st6" d="M297.7,111.1H114.2c-4.2,0-7.6,3.4-7.6,7.6v14h198.7v-14C305.3,114.5,301.9,111.1,297.7,111.1z"/>
		<path class="st7" d="M177.3,272.8l-65-18.8c-2-0.6-3.1-2.6-2.5-4.6l28.6-99.1c0.6-2,2.6-3.1,4.6-2.5l65,18.8
			c2,0.6,3.1,2.6,2.5,4.6l-28.6,99.1C181.3,272.2,179.2,273.4,177.3,272.8z"/>
		<path class="st2" d="M175.1,268.7l-65-18.8c-2-0.6-3.1-2.6-2.5-4.6l28.6-99.1c0.6-2,2.6-3.1,4.6-2.5l65,18.8
			c2,0.6,3.1,2.6,2.5,4.6l-28.6,99.1C179.1,268.1,177.1,269.3,175.1,268.7z"/>
		<g>
			<path class="st8" d="M194.6,151.7v108.9h-73.3V151.7H194.6 M195.5,150.9h-75.1v110.6h75.1V150.9L195.5,150.9z"/>
		</g>
		<g>
			<line class="st9" x1="279.7" y1="117.5" x2="292.1" y2="117.5"/>
			<line class="st9" x1="279.7" y1="122.4" x2="292.1" y2="122.4"/>
			<line class="st9" x1="279.7" y1="127.3" x2="292.1" y2="127.3"/>
		</g>
		<path class="st10" d="M261.5,127.3h-84.1c-2.7,0-4.9-2.2-4.9-4.9l0,0c0-2.7,2.2-4.9,4.9-4.9h84.1c2.7,0,4.9,2.2,4.9,4.9l0,0
			C266.4,125.1,264.2,127.3,261.5,127.3z"/>
		<g>
			<line class="st11" x1="118.7" y1="119.7" x2="114.2" y2="124.2"/>
			<line class="st11" x1="118.7" y1="124.2" x2="114.2" y2="119.7"/>
		</g>
		<path class="st11" d="M137.8,124.2L137.8,124.2c-1.2,0-2.2-1-2.2-2.2l0,0c0-1.2,1-2.2,2.2-2.2l0,0c1.2,0,2.2,1,2.2,2.2l0,0
			C140,123.2,139,124.2,137.8,124.2z"/>
		<line class="st11" x1="124.4" y1="121.9" x2="129.2" y2="121.9"/>
		<rect x="163.1" y="286.5" class="st12" width="93.7" height="21.3"/>
		<path class="st4" d="M285.9,320.5H132.6l0,0c0-7,5.7-12.7,12.7-12.7h128C280.2,307.9,285.9,313.5,285.9,320.5L285.9,320.5z"/>
		<path class="st13" d="M268.9,206.7h-54.7c-2.8,0-5-2.2-5-5l0,0c0-2.8,2.2-5,5-5h54.7c2.8,0,5,2.2,5,5l0,0
			C273.9,204.4,271.7,206.7,268.9,206.7z"/>
		<path class="st13" d="M268.9,224.8h-54.7c-2.8,0-5-2.2-5-5l0,0c0-2.8,2.2-5,5-5h54.7c2.8,0,5,2.2,5,5l0,0
			C273.9,222.6,271.7,224.8,268.9,224.8z"/>
		<path class="st13" d="M285.8,206.7L285.8,206.7c-2.8,0-5-2.2-5-5l0,0c0-2.8,2.2-5,5-5h0c2.8,0,5,2.2,5,5l0,0
			C290.8,204.4,288.6,206.7,285.8,206.7z"/>
		<path class="st13" d="M285.8,224.8L285.8,224.8c-2.8,0-5-2.2-5-5l0,0c0-2.8,2.2-5,5-5h0c2.8,0,5,2.2,5,5l0,0
			C290.8,222.6,288.6,224.8,285.8,224.8z"/>
		<path class="st13" d="M273.9,238.8c0,2.8-2.2,5-5,5h-54.7c-2.8,0-5-2.2-5-5l0,0c0-2.8,2.2-5,5-5h54.7
			C271.7,233.8,273.9,236.1,273.9,238.8L273.9,238.8z"/>
		<path class="st13" d="M273.9,257c0,2.8-2.2,5-5,5h-54.7c-2.8,0-5-2.2-5-5l0,0c0-2.8,2.2-5,5-5h54.7
			C271.7,252,273.9,254.2,273.9,257L273.9,257z"/>
		<path class="st13" d="M285.8,243.8L285.8,243.8c-2.8,0-5-2.2-5-5l0,0c0-2.8,2.2-5,5-5h0c2.8,0,5,2.2,5,5l0,0
			C290.8,241.6,288.6,243.8,285.8,243.8z"/>
		<path class="st13" d="M290.8,257c0,2.8-2.2,5-5,5h0c-2.8,0-5-2.2-5-5l0,0c0-2.8,2.2-5,5-5h0C288.6,252,290.8,254.2,290.8,257
			L290.8,257z"/>
		<line class="st14" x1="299" y1="336" x2="365.8" y2="336"/>
		<line class="st15" x1="151.6" y1="320.6" x2="13.3" y2="320.6"/>
		<g>
			<path class="st16" d="M105.7,244.7c1.2,2.9,3.9,7.5,7.1,10.1c3.6,2.9,7.3,2.5,11.1,0c0.4-0.3,0.8-0.1,1,0.2
				c0.2,0.3,0.1,0.7-0.1,0.9c-8.6,8.2-18.5,1-23.8-9.1c-1.6-3,3-5.5,4.6-2.4C105.6,244.6,105.7,244.6,105.7,244.7L105.7,244.7z"/>
			<path class="st17" d="M108.7,250.3C108.7,250.2,108.7,250.2,108.7,250.3c-2-3-2.6-4.8-3.2-5.8c-0.7-1.3-2.2-1.8-3.5-1.1
				c-1.3,0.7-1.8,2.2-1.1,3.5c1.1,2.1,2.2,3.7,3.4,5.2C104.8,251.7,107.8,250.6,108.7,250.3z"/>
			<path class="st18" d="M104.7,262.7c1,0,1.9-0.8,1.9-1.9c0-1.2,0.1-2.5,0-3.8c-0.4-4.5-0.8-9.1-1-11.7c-0.1-1.3-1.2-2.2-2.4-2.2
				h-8.3c-1.4,0-2.5,1.1-2.5,2.5c-0.1,3.3-0.3,9.5-0.7,15c0,0,0,0,0,0c-0.1,1.1,0.8,2.1,1.9,2.1L104.7,262.7z"/>
			<path class="st16" d="M102.1,317.7c-0.9-1-1.1-3.3-1.1-5.4c0-1.2-1.6-1.7-2.3-0.8h0l0,6.5C99.9,318.4,101.3,318.4,102.1,317.7z"
				/>
			<path class="st19" d="M101.9,317.7C101.9,317.6,101.9,317.6,101.9,317.7c-0.6,0.2-1.2,0.3-1.8,0.3c-0.6,0-1.1-0.1-1.6-0.2
				l-0.3,1.5c-0.1,0.4,0.2,0.8,0.7,0.8c2.1,0.1,7.5,0.2,7.6,0C107.2,318.9,104.2,318.5,101.9,317.7z"/>
			<path class="st20" d="M98.3,291.7c-0.3,2-0.3,14.5,0.1,20.9l2.7,0c1.4-6.2,2.6-18.2,2.9-20.1c0,0,0,0,0-0.1
				c1.5-6.7,2.3-19.6,2.2-22.3c-0.1-3.6-2.4-6.4-5.2-6.3c-2.8,0.1-4.9,3-4.9,6.6C96.2,272.6,98.4,290.8,98.3,291.7z"/>
			<path class="st21" d="M106.2,270.2c-0.1-3.6-2.4-6.4-5.2-6.3c-2.8,0.1-4.9,3-4.9,6.6c0,1.6,1.2,11.6,1.8,17.3
				c0.6-1.3,1.2-2.6,1.7-3.9c0.3-4.5,2.8-8.6,6.5-11.3C106.2,271.5,106.2,270.6,106.2,270.2z"/>
			<path class="st18" d="M86.2,316.8c-0.2-1.9,0.7-4.1,1.5-6.2l0,0c-0.5-1.1-2-1-2.5,0l-1.7,3.8c-0.1,0.1-0.1,0.3,0,0.4
				C84.1,316,85.4,316.7,86.2,316.8z"/>
			<path class="st19" d="M87.7,318.1c-0.7-0.3-1.1-0.9-1.4-1.5c-1.3-0.4-2.2-1.3-2.7-2.4c-0.3,0.2-0.5,0.5-0.7,0.7
				c-0.2,0.3-0.5,0.8-0.8,1.1c-0.2,0.2-0.1,0.5,0.1,0.7l1,1c0.2,0.2,2.1,1.8,2.6,1.9c1.3,0.2,3.6,0.4,3.7,0.1
				C89.6,319.1,88.6,318.5,87.7,318.1z"/>
			<path class="st22" d="M91.2,290.1c-0.7,1.5-4.8,14.6-6.3,20.9c0.7,0.6,1.5,1.1,2.4,1c2.6-5,8.7-16,9.8-18.5
				c2.1-3.1,4.4-20.8,4.3-24.1c-0.1-3.6-2.4-6.4-5.2-6.3c-2.8,0.1-5.4,2.9-5.4,6.5C90.9,271.9,91.6,289.1,91.2,290.1z"/>
			<path class="st23" d="M103.2,243.1h-1.3c-0.5,1.1-1.5,1.9-3,1.9c-1.5,0-2.5-0.8-3-1.9h-1.2c-1.3,0-2.3,1-2.3,2.2
				c-0.1,3.3-0.2,7.5-0.6,13.2c-0.3,5.2-1.5,6.8-0.9,13.4c0,0,11.2,1.1,15.3-1c0.6-4.7,0.8-9.4,0.4-13.9c-0.4-4.5-0.8-9.1-1-11.8
				C105.5,244.1,104.5,243.1,103.2,243.1z"/>
			<path class="st16" d="M126.4,253.9c0,0-2.2-0.2-2.4,0.4c-0.3,0.6-0.4,1.1,0.6,1.6c0.9,0.4,2.4,0.6,3.3,0.5c0.9-0.1,2.4-0.8,2.5-1
				c0.4-0.7-1.2-0.4-2-0.3c-0.8,0.1-1.7,0.2-1.6-0.2c0.1-0.4,1.6-0.5,1.8-0.9C128.6,253.6,126.4,253.9,126.4,253.9z"/>
			<path class="st18" d="M96.7,245.8c3.6,8.1,21.2,7.5,26.5,7.6l0,0c0.4,0,0.7,0.3,0.7,0.8c0,0.9-1.1,0.8-4.7,1.5
				c-24.7,4.8-31.7-11.5-25.7-12.2C95.4,243.2,96.7,245.8,96.7,245.8z"/>
			<g>
				<path class="st17" d="M99.4,248.8c-2.4-1.7-2.8-3.4-2.8-3.4l0,0.1l-0.2-0.4c-0.6-1.4-2.2-2.2-3.7-1.6c0,0,0,0-0.1,0
					c-1.7,0.7-1.4,2.8-1.4,2.8c0,0.3,0.6,3.6,4.6,6.6C95.9,252.8,99.7,249,99.4,248.8z"/>
			</g>
			<path class="st24" d="M97.6,239.3h-0.2c-1.2,0-2.2-1-2.2-2.2v-3.2h2.3V239.3z"/>
			<g>
				<polygon class="st18" points="100.6,243.1 96.3,243.1 97.5,238.8 100.5,239.2 				"/>
			</g>
			<path class="st16" d="M100.5,239.2l-2.9-0.4l-0.6,2c0.7,0.7,1.6,1.9,2.7,1.9c0.3,0,0.7-0.1,0.9-0.3L100.5,239.2z"/>
			<path class="st18" d="M99.6,241.2L99.6,241.2c-2,0-3.6-1.6-3.6-3.6v-4h6.2c0,0,0,3.1-0.5,5.2C101.4,240.4,100.6,241.2,99.6,241.2
				z"/>
			<path class="st18" d="M97.1,236.8c0,0.8-0.4,1.4-0.8,1.4c-0.5,0-1-1-1-1.8s0.5-1,1-1C96.7,235.4,97.1,236,97.1,236.8z"/>
			<path class="st24" d="M102.8,231.6c0,0-1.4,0.4-3.2,0.2l-2.1,0c-1.3,0-2.3,1-2.3,2.3v0.5l0.7,0.9l0.7,1h0.1
				c0.4,0,0.7-0.3,0.7-0.7c0-0.6,0.5-1.2,1.1-1.2h1.9c1.1,0,1.7,0.6,1.7,1.4l-0.1,0.7C102.1,236.7,103.7,235.3,102.8,231.6z"/>
			<path class="st18" d="M124.9,253.5c0,0-2.1-0.5-2.5,0c-0.4,0.6-0.5,1.1,0.3,1.6c0.8,0.6,2.3,1,3.2,1.1c0.9,0.1,2.5-0.4,2.6-0.6
				c0.5-0.6-1.2-0.6-2-0.6c-0.8,0-1.7-0.1-1.6-0.5c0.1-0.4,1.6-0.2,1.9-0.6C127.1,253.5,124.9,253.5,124.9,253.5z"/>
		</g>
		<g>
			<path class="st16" d="M207.4,226.4c-2.1,1.1-4.6,0.4-6-1.5c-3-3.9-3.6-13.6-3.8-18.6c0-0.9,1.3-1.1,1.5-0.2
				c0.6,2.9,1.1,5.4,1.7,7.8c0.6,2.1,2.8,9.8,4.6,8.6c2.3-1.5,4.6-8.3,4.3-7.3c0.5-1.3,2-2,3.3-1.5c1.3,0.5,2,2,1.5,3.3
				C214.2,218.1,211.2,224.5,207.4,226.4z"/>
			<path class="st25" d="M206.7,220.7c0.6-0.9,1.1-1.8,1.7-2.7c0.5-0.9,1-1.9,1.4-2.8l0,0c0-0.1,0.1-0.1,0.1-0.2
				c0.7-1.3,2.2-1.8,3.5-1.1c1.3,0.7,1.8,2.2,1.1,3.5c-0.6,1.2-1.2,2.2-1.9,3.2c-0.5,0.7-1.1,1.8-1.6,2.4
				C207.7,222.8,206.6,220.7,206.7,220.7z"/>
			<path class="st18" d="M209.3,239.1c0.1,0.5,0.4,0.9,0.9,1.1c3.2,1.1,8,1.6,13.2,2.1c0.8,0.1,1.4-0.5,1.4-1.3c0-2.1-0.9-6-1.1-10
				c-0.3-4.9-0.5-10.3-0.6-13.8c-0.1-2.1-1.8-3.7-3.8-3.7h-5.8c-2,0-3.6,1.5-3.7,3.4c-0.2,2.7-0.5,6.6-0.9,10.5
				C208.5,231.2,209.1,237,209.3,239.1z"/>
			<path class="st16" d="M216.7,282l0,5.1l0.4,2.5c0.1,0.4-0.2,0.8-0.7,0.8c-2.1,0.1-7.5,0.2-7.6,0c-0.7-1.1,2.4-1.5,4.6-2.4
				c2.2-0.9,0.7-9.4,0.7-9.4L216.7,282z"/>
			<path class="st26" d="M213.4,288.1C213.5,288.1,213.5,288.1,213.4,288.1c0.6,0.2,1.2,0.3,1.8,0.3c0.6,0,1.1-0.1,1.6-0.2l0.3,1.5
				c0.1,0.4-0.2,0.8-0.7,0.8c-2.1,0.1-7.5,0.2-7.6,0C208.2,289.4,211.2,289,213.4,288.1z"/>
			<path class="st27" d="M209.2,240.6c-0.1,3.6,1.3,26.2,4.1,26.2c2.8,0.1,5.9-22.4,5.9-26c0.1-3.6-2.1-6.5-4.9-6.6
				C211.6,234.2,209.3,237,209.2,240.6z"/>
			<path class="st28" d="M217.1,262.1c0.3,2,0.3,14.5-0.1,20.9h-2.5c-1.4-6.2-2.8-18.2-3.1-20.1c0,0,0,0,0-0.1
				c-1.5-6.7-2.3-19.6-2.2-22.3c0.1-3.6,2.4-6.4,5.2-6.3c2.8,0.1,4.9,3,4.9,6.6C219.2,243.1,217,261.2,217.1,262.1z"/>
			<path class="st29" d="M215.7,253.9c0.6,1.5,1.2,3,1.7,4.5c0.6-5.7,1.8-16,1.8-17.6c0.1-3.6-2.1-6.5-4.9-6.6
				c-2.8-0.1-5.1,2.8-5.2,6.3c0,0.5,0,1.3,0,2.4C212.8,245.6,215.3,249.5,215.7,253.9z"/>
			<path class="st16" d="M222.8,282l0,5.1l0.4,2.5c0.1,0.4-0.2,0.8-0.7,0.8c-2.1,0.1-7.5,0.2-7.6,0c-0.7-1.1,2.4-1.5,4.6-2.4
				c2.2-0.9,0.7-9.4,0.7-9.4L222.8,282z"/>
			<path class="st30" d="M219.5,288.1C219.5,288.1,219.5,288.1,219.5,288.1c0.6,0.2,1.2,0.3,1.8,0.3c0.6,0,1.1-0.1,1.6-0.2l0.3,1.5
				c0.1,0.4-0.2,0.8-0.7,0.8c-2.1,0.1-7.5,0.2-7.6,0C214.2,289.4,217.3,289,219.5,288.1z"/>
			<path class="st27" d="M215.2,240.6c-0.1,3.6,1.3,26.2,4.1,26.2c2.8,0.1,5.3-22.5,5.3-26.1c0.1-3.6-1.5-6.4-4.3-6.5
				C217.6,234.2,215.3,237,215.2,240.6z"/>
			<path class="st27" d="M223.1,262.1c0.3,2,0.3,14.5-0.1,20.9h-2.5c-1.4-6.2-2.8-18.2-3.1-20.1c0,0,0,0,0-0.1
				c-1.5-6.7-2.9-19.7-2.8-22.3c0.1-3.6,3-6.3,5.8-6.3c2.8,0.1,4.3,2.9,4.3,6.5C224.6,243,223,261.2,223.1,262.1z"/>
			<path class="st31" d="M209.8,215.7c0.1-1.2,1.1-2.2,2.4-2.2h1.3c0.5,1.1,1.5,1.9,3,1.9c1.5,0,2.5-0.8,3-1.9h1.2
				c1.3,0,2.3,1,2.3,2.2c0.1,3.3,0.2,8.2,0.6,13.9c0.3,5.2,1.8,7.5,1.1,12.7c0,0-13.5,1-15.8-1.6c-0.3-2.7-0.4-8.9-0.1-13.4
				C209.2,223,209.6,218.3,209.8,215.7z"/>
			<path class="st16" d="M196.9,204.3c0,0,0.1,2.5,0.7,2.9c0.6,0.3,1,0.2,1.5-0.6c0.6-0.9,0.7-2.4,0.7-3.3c0-0.5-0.7-2.5-0.8-2.6
				c-0.6-0.4-0.3,1.4-0.2,2.2c0,0.8-0.2,1.2-0.6,1.1c-0.4-0.1-0.3-1.3-0.7-1.6C196.9,202.3,196.9,204.3,196.9,204.3z"/>
			<path class="st18" d="M223.5,217.8c-7.3,9.9-20.8,15.7-31,6.1c-0.6-0.6,0.1-1.6,0.9-1.2l0,0c4.7,2.7,9,3.9,14.4,1.6
				c4.5-1.9,8.6-5.7,11.4-9.6l0.1-0.1C221.4,212,225.5,215,223.5,217.8z"/>
			<g>
				<path class="st25" d="M215.5,218.9c1.7-1.6,4-4.6,4-4.6s1-1.2,3.2-0.3c1.7,0.7,1.4,2.8,1.4,2.8c0,0.3-0.6,3.6-4.6,6.6
					C219.5,223.3,216.3,221.8,215.5,218.9z"/>
			</g>
			<path class="st24" d="M216.8,210.5l0.2,0c1.2,0.3,2.4-0.5,2.6-1.7l0.7-3.2l-2.3-0.5L216.8,210.5z"/>
			<g>
				<polygon class="st18" points="214.8,213.6 219.1,213.6 217.9,209.2 214.9,209.6 				"/>
			</g>
			<path class="st16" d="M214.9,209.6l2.9-0.4l0.6,2c-0.7,0.7-1.6,1.9-2.7,1.9c-0.3,0-0.7-0.1-0.9-0.3L214.9,209.6z"/>
			<path class="st18" d="M214.5,211.9L214.5,211.9c1.9,0.4,3.9-0.8,4.3-2.7l0.9-3.9l-6-1.3c0,0-0.7,3.1-0.7,5.2
				C212.9,210.8,213.5,211.7,214.5,211.9z"/>
			<path class="st18" d="M217.9,208.2c-0.2,0.8,0.1,1.5,0.5,1.6c0.5,0.1,1.2-0.8,1.3-1.6c0.2-0.8-0.3-1.1-0.7-1.2
				C218.6,206.9,218.1,207.4,217.9,208.2z"/>
			<path class="st24" d="M212.8,205.4c0-0.5,0.1-1,0.2-1.5l0,0c0.5-1.2,1.8-1.7,3-1.3c0.1,0,0.3,0.1,0.4,0.1l2,0.5
				c1.2,0.3,2,1.5,1.7,2.7l-0.1,0.5l-0.9,0.7l-0.8,0.8l-0.1,0c-0.4-0.1-0.6-0.5-0.6-0.8c0.1-0.6-0.2-1.3-0.8-1.4l-1.8-0.4
				c-1.1-0.2-1.8,0.2-2,1l-0.1,0.7L212.8,205.4z"/>
			<path class="st18" d="M191.9,221.6c0,0,0.2,2.2,0.8,2.3c0.7,0.2,1.2,0.2,1.5-0.8s0.2-2.5,0-3.3c-0.2-0.9-1.2-2.2-1.4-2.3
				c-0.7-0.3-0.2,1.3,0.1,2.1s0.4,1.6,0,1.7c-0.4,0-0.7-1.5-1.2-1.6C191.2,219.4,191.9,221.6,191.9,221.6z"/>
			<g>
				<line class="st32" x1="218.6" y1="228.7" x2="235.3" y2="320.5"/>
				<line class="st32" x1="210.6" y1="320.5" x2="193.8" y2="228.7"/>
				<line class="st32" x1="195.8" y1="236" x2="220" y2="236"/>
				<line class="st32" x1="197.4" y1="247.1" x2="222" y2="247.1"/>
				<line class="st32" x1="199.7" y1="258.2" x2="224" y2="258.2"/>
				<line class="st32" x1="201.8" y1="269.3" x2="226" y2="269.3"/>
				<line class="st32" x1="203.6" y1="280.4" x2="228" y2="280.4"/>
				<line class="st32" x1="205.2" y1="291.3" x2="230" y2="291.3"/>
				<line class="st32" x1="207.6" y1="302.5" x2="232" y2="302.5"/>
				<line class="st32" x1="209.3" y1="313.6" x2="233.8" y2="313.6"/>
			</g>
			<g>
				<line class="st33" x1="193.8" y1="228.7" x2="177.1" y2="320.5"/>
				<line class="st33" x1="201.9" y1="320.5" x2="218.6" y2="228.7"/>
				<line class="st33" x1="216.6" y1="236" x2="192.5" y2="236"/>
				<line class="st33" x1="215" y1="247.1" x2="190.5" y2="247.1"/>
				<line class="st33" x1="212.8" y1="258.2" x2="188.5" y2="258.2"/>
				<line class="st33" x1="210.6" y1="269.3" x2="186.5" y2="269.3"/>
				<line class="st33" x1="208.9" y1="280.4" x2="184.4" y2="280.4"/>
				<line class="st33" x1="207.2" y1="291.3" x2="182.5" y2="291.3"/>
				<line class="st33" x1="204.8" y1="302.5" x2="180.4" y2="302.5"/>
				<line class="st33" x1="203.1" y1="313.6" x2="178.7" y2="313.6"/>
			</g>
			<path class="st24" d="M218.9,204c0.1,1.1-3.9,2.5-4.9,2.7c-1.1,0.1-2-0.7-2.2-1.8c-0.1-1.1,0.6-2.1,1.7-2.3
				C214.5,202.5,218.8,202.9,218.9,204z"/>
		</g>
		<rect x="209.4" y="150.9" class="st13" width="82.7" height="35.9"/>
		<path class="st7" d="M289.1,152.5l-74.6,15c-1.8,0.4-3.5-0.8-3.9-2.6l-5.8-28.7c-0.4-1.8,0.8-3.5,2.6-3.9l74.6-15
			c1.8-0.4,3.5,0.8,3.9,2.6l5.8,28.7C292,150.4,290.9,152.1,289.1,152.5z"/>
		<path class="st2" d="M289.5,148.8l-74.6,15c-1.8,0.4-3.5-0.8-3.9-2.6l-5.8-28.7c-0.4-1.8,0.8-3.5,2.6-3.9l74.6-15
			c1.8-0.4,3.5,0.8,3.9,2.6l5.8,28.7C292.4,146.7,291.2,148.4,289.5,148.8z"/>
		<polyline class="st34" points="206.6,143.4 216.6,127.3 218.4,19.4 275.7,115 287.9,124.2 		"/>
		<g>
			<path class="st35" d="M131.9,64.5c1.9,1.9,16.5,17.5,15.7,18c-0.7,0.4-17.9-12-19.8-13.9c-1.9-1.9-2.6-4.4-1.4-5.5
				C127.5,61.9,130,62.6,131.9,64.5z"/>
			<path class="st18" d="M152.4,84.6c-1.9-0.9-5.4-4.3-8.9-7.5l-0.9,2.3l5.6,5.2C149.5,85.2,151.5,85.2,152.4,84.6z"/>
			<path class="st30" d="M152.1,84.4c-1.3,0.4-2.8,0.5-3.9,0.2c0,0.4,0,1.5,0,1.9c0,0.3,0.2,0.5,0.5,0.5c0,0,8.6,0.1,8.6-0.3
				C157.2,84.5,152.7,84.8,152.1,84.4z"/>
			<path class="st18" d="M163,84.6c-1.9-0.9-5.4-4.3-8.9-7.5l-0.9,2.3l5.6,5.2C160.1,85.2,162.1,85.2,163,84.6z"/>
			<path class="st30" d="M162.7,84.4c-1.3,0.4-2.8,0.5-3.9,0.2c0,0.4,0,1.5,0,1.9c0,0.3,0.2,0.5,0.5,0.5c0,0,8.6,0.1,8.6-0.3
				C167.8,84.5,163.3,84.8,162.7,84.4z"/>
			<path class="st28" d="M138.4,68.5c1.2,1.2,11.9,9.6,17.3,13.3c0.7-0.5,1.2-1,1.8-1.7c-3.7-4.2-11.8-13.8-13.7-15.8
				c-2.1-3.1-17.8-11.6-20.9-12.8c-3.3-1.2-6.8-0.1-7.8,2.5c-1,2.6,0.8,6.1,4.1,7.4C121.4,62.1,137.6,67.7,138.4,68.5z"/>
			<path class="st29" d="M124.3,52.1c-0.6-0.3-1-0.5-1.3-0.6c-3.3-1.2-6.8-0.1-7.8,2.5c-1,2.6,0.8,6.1,4.1,7.4
				c1.1,0.4,5.7,2,10.2,3.6C126.8,61.2,124.9,56.9,124.3,52.1z"/>
			<path class="st27" d="M133.2,64.3c-1.3-1.9-8.1-6.1-13.6-9.1c-0.8-0.4-1.7-0.4-2.5,0.2c-1.6,1.2-3.4,2.2-5.1,3.3
				c-0.7,0.5-1.1,1.3-1.1,2.1c0,0.2,0,0.4,0,0.6c0,0.3-0.2,0.2-0.2,0.5c5.1,1.8,16.4,6,17,6.7c1.2,1.2,12,9.7,17.3,13.4
				c1.1-0.4,1.7-0.9,2.3-1.6C143.7,76.2,135.1,66.3,133.2,64.3z"/>
			<path class="st16" d="M110.4,31c6.5,6,20.2,6.6,29,6.3c1,0,1.1,1.3,0.2,1.5c-10.3,2-24.1,2.5-32.5-3.8c-2.7-2.1,0.4-6.2,3.1-4.2
				C110.3,30.9,110.4,31,110.4,31z"/>
			<path class="st36" d="M115.7,33.8c-0.9-0.5-4.6-2.3-5.4-2.9l0,0c-0.1,0-0.1-0.1-0.2-0.1c-1.2-0.8-2.8-0.4-3.6,0.8
				c-0.8,1.2-0.4,2.8,0.8,3.6c1.1,0.7,2.1,1.3,3.2,1.8c0.7,0.4,1.5,0.7,2.3,1C112.9,37.4,115.7,33.8,115.7,33.8z"/>
			<path class="st18" d="M122.3,51.7l-11.5,10.2c-1.4-0.5-2.7-5.6-4.9-10.3c-2.4-5-5.3-10.5-6.8-13.4c-0.6-1.2-0.2-2.7,1-3.4
				l7.2-4.1c1.1-0.6,2.5-0.3,3.2,0.8c1.5,2.2,3.6,7.3,6.1,11C119.2,46.3,122.3,51.7,122.3,51.7z"/>
			<path class="st37" d="M107.4,30.7l-1.2,0.7c0.1,1.2-0.3,2.4-1.7,3.1c-1.3,0.8-2.6,0.5-3.6-0.2l-1.1,0.6c-1.1,0.6-1.5,2-0.9,3.1
				c1.5,2.9,4.4,8.5,6.9,13.6c2.2,4.7,3.4,9.5,4.9,10.3c5.1-3.5,11.6-7.2,12.3-10.4c0,0-8-11.8-12.6-20.1
				C109.9,30.4,108.4,30.1,107.4,30.7z"/>
			<path class="st16" d="M141.6,38.8c0,0-2,0.9-2.5,0.4c-0.5-0.5-0.7-0.9,0-1.7c0.7-0.7,2.1-1.4,2.9-1.6c0.9-0.2,2.5,0,2.7,0.2
				c0.6,0.5-1.1,0.8-1.8,0.9c-0.8,0.2-1.7,0.4-1.5,0.8c0.2,0.4,1.7-0.1,2,0.3C143.8,38.4,141.6,38.8,141.6,38.8z"/>
			<path class="st38" d="M102.1,29.8l-0.2,0c-1.2,0.2-2.3-0.6-2.6-1.7l-0.6-3.2l2.3-0.4L102.1,29.8z"/>
			<g>
				<polygon class="st18" points="105.8,32.9 102.1,34.5 101.7,34 101.9,29.3 104.9,29.1 				"/>
			</g>
			<path class="st16" d="M104.9,29.1l-3,0.2l-0.1,1.9c0.8,0.6,1.7,1.3,2.8,1.1c0.3-0.1,0.7-0.3,0.9-0.5L104.9,29.1z"/>
			<path class="st18" d="M104.4,31.2L104.4,31.2c-2,0.4-3.8-0.9-4.2-2.9l-0.7-3.9l6.1-1.1c0,0,0.6,3.1,0.5,5.2
				C106.1,30.1,105.4,31,104.4,31.2z"/>
			<rect x="99.5" y="25.9" transform="matrix(0.9825 -0.186 0.186 0.9825 -3.1123 19.072)" class="st38" width="1.2" height="0.5"/>
			<path class="st18" d="M101.1,27.4c0.1,0.8-0.1,1.5-0.6,1.5c-0.5,0.1-1.1-0.8-1.3-1.6c-0.1-0.8,0.3-1.1,0.8-1.2
				C100.5,26.1,101,26.6,101.1,27.4z"/>
			<path class="st38" d="M106.3,24.8c0-0.5,0-1-0.2-1.5c0,0-0.3-1.8-1.1-2c-0.7-0.2-1.7,0.4-2.3,0.7c-0.5,0.2-2,0.4-2,0.4
				c-1.2,0.2-2,1.4-1.8,2.7l0.1,0.5l1.2,0.7l0.5,0.9l0.1,0c0.4-0.1,0.7-0.4,0.6-0.8c-0.1-0.6,0.3-1.3,0.9-1.4l1.8-0.3
				c1.1-0.2,1.8,0.3,2,1.1l0.1,0.7L106.3,24.8z"/>
			<line class="st39" x1="206" y1="10.6" x2="116.4" y2="48.9"/>
			<path class="st18" d="M108.5,40.9c3.2,1.8,6.2,2.4,9.5,2.7c5.6,0.7,15.6-2.7,14.6-2.4c0.9-0.3,1.3,0.9,0.6,1.4
				c-4.4,2.3-10.4,4.8-15.1,4.8l-2.4,0c-7.8-0.3-14.3-4.3-17.1-8.4c-0.8-1.2-0.5-2.8,0.6-3.6C102,33.5,102.8,37.7,108.5,40.9z"/>
			<g>
				<path class="st36" d="M106.4,39.4c-2.2-1.8-3.6-3.4-3.7-3.5l0,0.1l-1.4-1.1c0,0-1.5-0.6-3,1.3c-1.1,1.5,0.2,3.1,0.2,3.1
					c0.2,0.2,1,2.2,5.2,4.6C103.7,43.9,106.7,39.6,106.4,39.4z"/>
			</g>
			<path class="st18" d="M134.2,40.4c0,0-2.1,0.4-2.2,1.1s0,1.2,1,1.3c1,0.2,2.5-0.1,3.3-0.4c0.8-0.3,2-1.5,2.1-1.7
				c0.2-0.8-1.3,0-2,0.3c-0.7,0.3-1.6,0.6-1.6,0.2c-0.1-0.4,1.4-0.9,1.5-1.4C136.2,39.4,134.2,40.4,134.2,40.4z"/>
		</g>
		<circle class="st40" cx="285.8" cy="201.7" r="2.6"/>
		<circle class="st40" cx="285.8" cy="219.8" r="2.6"/>
		<g>
			<path class="st5" d="M310.8,248.9c0,0,0.7,1.6,0.2,3.2c-0.5,1.6-0.2,3.6,1.1,5c0,0,0.3-2.3,0.7-3.3
				C313.3,252.7,313,249.5,310.8,248.9z"/>
			<path class="st41" d="M314.3,248.2c0,0-2.4,1.5-2.1,3.5c0,0-1.3-0.9-1.6-4C310.4,245.6,314.3,248.2,314.3,248.2z"/>
			<path class="st5" d="M327.3,257.6c-1.2-0.5-2.2-1.4-2.7-2.6c-0.8-2-2.2-3.5-3.9-4.3c-0.9-0.4-1.4-1.2-1.4-2.2l0,0h-2.3v1.8
				c-3.2,0.7-5.7,4-5.7,8c0,4.3,2.9,7.9,6.6,8.1c0.5,3.9,3.4,6.9,6.9,6.9c3.9,0,7-3.6,7-8.1C331.8,261.8,329.9,258.8,327.3,257.6z"
				/>
			<g>
				<path class="st18" d="M313.8,260.7c0,0.3-0.1,0.4-0.1,0.6c0,0.2-0.1,0.3-0.1,0.5c-0.1,0.3-0.2,0.6-0.3,0.9
					c-0.2,0.6-0.5,1.2-0.8,1.7c-0.6,1.1-1.6,2.1-2.7,2.9c-0.6,0.3-1.2,0.7-1.8,0.9c-0.6,0.2-1.3,0.4-1.9,0.4c-0.6,0-1.2,0.1-1.8,0.1
					c-0.6-0.1-1.2-0.1-1.7-0.2c-2.2-0.5-4.2-1.3-5.9-2.3l-1.3-0.8c-0.4-0.2-0.9-0.5-1.3-0.8l-2.5-1.8c-0.3-0.2-0.4-0.7-0.2-1
					c0.2-0.3,0.6-0.4,0.9-0.2l0.1,0c1.8,0.8,3.5,1.6,5.4,2.2c1.8,0.6,3.6,1,5.3,1.1c1.7,0.1,3.2-0.4,4.1-1.2
					c0.4-0.5,0.8-0.9,1.1-1.6c0.1-0.3,0.3-0.6,0.3-1c0-0.2,0.1-0.3,0.1-0.5c0-0.1,0-0.2,0-0.2c0-0.1,0-0.2,0-0.2
					c0.1-1.4,1.4-2.5,2.8-2.4C312.8,258.1,313.9,259.3,313.8,260.7z"/>
			</g>
			<path class="st18" d="M308.3,283c2.3,2.6,15.3,3.7,15.3,3.7c1-1.1-3.5-13.9-3.5-13.9s2.2-9.2,2.1-12.5c0-1.4-1.2-2.5-2.5-2.5
				h-8.3c-1.3,0-2.3,1-2.4,2.2c-0.2,2.6,3.2,12.4,3.2,12.4S306.4,280.7,308.3,283z"/>
			<path class="st16" d="M315.5,333.2c-0.1,0.2-0.1,0.4,0,0.6c0.1,0.2,0.2,0.3,0.4,0.4c1.6,0.7,2.3,0.4,3.2-0.2l0-7.8l-1.5-2.3
				c-0.4-0.5-1.2-0.2-1.1,0.4c0.5,3.2,0.9,8.2-0.7,8.5C315.7,332.8,315.6,333,315.5,333.2z"/>
			<path class="st42" d="M317.1,333.6c-0.4,0-1.3-0.5-1.4-0.8c-3.3,0.3-4.9,1.4-4.9,2.3c0.1,0.2,5.8,0,7.9,0c0.4,0,0.6-0.4,0.5-0.9
				L319,333C318.7,333.4,318.1,333.7,317.1,333.6z"/>
			<path class="st18" d="M339.6,296.2c-6.3,1.7-16.9,5.2-18.6,6.1c-2.4,1.2-3.2,3.6-2.4,5c0.7,1.4,2.6,1.4,5.1,0.1
				c1.7-0.9,11.4-6.4,16.9-9.7C340.3,297,339.8,296.8,339.6,296.2z"/>
			<path class="st18" d="M345.2,296.8c0.2,0,0.4-0.1,0.5-0.2c0.1-0.1,0.2-0.3,0.2-0.5c-0.1-1.7-0.6-2.2-1.6-2.8
				c-2.2,1.3-4.4,2.6-7.9,3.9l0,0c-0.6,1.2,0.7,2.5,1.9,1.8c2.6-1.4,5.7-2.9,6.4-2.2C344.6,296.8,344.9,296.8,345.2,296.8z"/>
			<path class="st42" d="M344.8,295.2c0.1,0.4,0.1,1.3-0.1,1.6c1.7,2.8,3.4,3.7,4.2,3.3c0.1-0.2-2.5-5.2-3.5-7
				c-0.2-0.4-0.7-0.4-1-0.1l-1,0.7C343.9,293.8,344.4,294.2,344.8,295.2z"/>
			<path class="st16" d="M316.7,326.2c0.7,0.4,1.6,0.3,2.3,0.7c0.2-6.5,0-17.2-0.4-19.1c-0.5-2.7-2.1-4.6-3.7-4.4
				c-1.6,0.3-2.5,2.7-2,5.4C313.2,310.6,315.1,320,316.7,326.2z"/>
			<path class="st16" d="M308.6,285.2c0.2,3.6,3.4,26,6.2,25.8c2.8-0.2,4-22.8,3.8-26.4c-0.2-3.6-2.6-6.3-5.4-6.2
				C310.4,278.6,308.4,281.6,308.6,285.2z"/>
			<path class="st18" d="M312.8,284.3c0.1,3.6,4.1,23.9,6.8,23.8c2.8,0,3.8-20.5,3.7-24.1c-0.1-3.6-2.9-6.3-5.6-6.3
				C314.9,277.9,312.7,280.8,312.8,284.3z"/>
			<g>
				<polygon class="st18" points="314.3,258.4 318,258 316.8,253.9 314.4,254.2 				"/>
			</g>
			<path class="st16" d="M314.4,254.2l2.4-0.3l0.4,1.3c-0.5,0.6-1.2,1.9-2.1,1.9c-0.3,0-0.5-0.1-0.8-0.2L314.4,254.2z"/>
			<path class="st18" d="M314.3,256.2c0.8,0,1.7-0.4,2.9-1.5c0.7-0.6,1.2-1.7,1.2-2.4v-4h-6.2c0,0-0.5,2.1,0,4.2
				C312.6,254.1,313.7,256.2,314.3,256.2z"/>
			
				<rect x="317.7" y="249.8" transform="matrix(-1 -1.224647e-16 1.224647e-16 -1 636.4716 500.0962)" class="st5" width="1.2" height="0.5"/>
			<path class="st18" d="M317.4,251.5c0,0.8,0.4,1.4,0.8,1.4c0.5,0,1-1,1-1.8c0-0.8-0.5-1-1-1C317.8,250.1,317.4,250.7,317.4,251.5z
				"/>
			<path class="st5" d="M317,246.5l-2.1,0c-0.6,0-1.1-0.1-1.6-0.4c-0.8-0.4-1.8-0.3-2.3,0.4c-0.5,0.7-0.7,1.7,0.7,2.6
				c0.7,0.5,1.7,0,2.4,0.2c0,0,0.1,0,0.1,0h1.9c0.6,0,1.1,0.5,1.1,1.2c0,0.4,0.4,0.7,0.7,0.7h0.1l0.3-0.9l1-0.9v-0.5
				C319.2,247.5,318.2,246.5,317,246.5z"/>
			<path class="st18" d="M289.6,262.9c0,0,2.1,0.6,2.5,0c0.4-0.6,0.6-1-0.3-1.6c-0.8-0.6-2.2-1-3.1-1.1c-0.9-0.1-2.5,0.4-2.6,0.6
				c-0.5,0.6,1.2,0.6,2,0.6c0.8,0,1.7,0.2,1.6,0.5c-0.1,0.4-1.7,0.2-1.9,0.6C287.4,262.8,289.6,262.9,289.6,262.9z"/>
			<circle class="st40" cx="287.4" cy="265" r="5"/>
			<path class="st18" d="M289.6,268.2c0,0,2.1-0.5,2.5,0c0.4,0.6,0.5,1.1-0.3,1.6c-0.8,0.6-2.3,1-3.2,1.1c-0.9,0.1-2.5-0.4-2.6-0.6
				c-0.5-0.6,1.2-0.6,2-0.6c0.8,0,1.7-0.1,1.6-0.5c-0.1-0.4-1.6-0.2-1.9-0.6C287.4,268.2,289.6,268.2,289.6,268.2z"/>
			<path class="st30" d="M320.7,273.6c-0.4-0.4-0.5-1-0.4-1.6c0.6-2.7,1.9-9.4,1.8-11.9c0-1.3-1.1-2.2-2.3-2.2h-1.2
				c-0.5,1.1-1.5,1.9-3,1.9c-1.5,0-2.5-0.8-3-1.9h-1.2c1.1,2.4,0.9,5.5-0.7,7.6c-0.4,0.5-0.5,1.1-0.3,1.7c0.5,1.6,0.9,3.1,1.3,4.1
				c0.2,0.7,0,1.4-0.5,1.9c-3.5,3.5-5.9,11-5.9,19.7c0,0.7,0,1.5,0.1,2.2c0.1,1,0.9,1.8,1.9,1.8h17c1,0,1.9-0.8,1.9-1.8
				c0-0.7,0.1-1.4,0.1-2.2C326.2,284.5,324,277.3,320.7,273.6z"/>
			<path class="st43" d="M321,268.2c0.4-2.2,0.9-4.8,1-6.6c-1.5,4.4-5.5,7.8-10.2,8.3c1,0.4,2.5,0.9,3.8,1.4
				C318,272.1,320.6,270.6,321,268.2z"/>
			<path class="st5" d="M312.6,248.7c0.4,0.8,0.2,1.4,3.1,2.1c2.9,0.7,3.6-0.1,4.8,1.2c0,0-0.9-2.3-2.5-2.8
				c-1.6-0.5-4.3-0.4-5.5-2.1C312.5,247,312.4,248.1,312.6,248.7z"/>
			<g>
				<path class="st18" d="M323.1,260.9c-0.1,0.8-0.3,1.1-0.5,1.6c-0.2,0.4-0.4,0.8-0.6,1.2c-0.2,0.4-0.5,0.8-0.7,1.1
					c-0.3,0.3-0.5,0.7-0.8,1c-0.6,0.6-1.2,1.2-1.9,1.6c-0.3,0.2-0.7,0.5-1,0.7l-1,0.6c-2.8,1.4-5.7,2-8.6,2.4
					c-2.9,0.2-5.7,0.2-8.5-0.1c-1.4-0.2-2.8-0.3-4.1-0.5c-1.4-0.3-2.7-0.5-4.1-0.8c-0.4-0.1-0.7-0.5-0.6-0.9
					c0.1-0.3,0.4-0.6,0.7-0.6l0,0c1.4,0,2.7,0,4.1,0c1.3,0,2.7-0.1,4-0.1l1,0l1-0.1l2-0.2c0.7,0,1.3-0.2,1.9-0.3
					c0.6-0.1,1.3-0.2,1.9-0.3c2.5-0.6,4.9-1.4,6.9-2.6l0.7-0.4l0.7-0.5c0.5-0.3,0.8-0.7,1.2-1.1c0.1-0.2,0.3-0.4,0.5-0.6
					c0.2-0.2,0.3-0.4,0.4-0.6c0.1-0.2,0.2-0.4,0.3-0.6l0.1-0.3l0-0.1l0,0c0,0,0,0,0,0.1c0.2-1.4,1.5-2.4,2.9-2.2
					C322.3,258.1,323.3,259.5,323.1,260.9z"/>
			</g>
		</g>
		<circle class="st1" cx="209.1" cy="19.4" r="9.4"/>
		<circle class="st1" cx="209.1" cy="19.4" r="3.9"/>
	</g>
</g>
</svg>
