<?xml version="1.0" encoding="windows-1252"?>
<!-- Generator: Adobe Illustrator 19.0.0, SVG Export Plug-In . SVG Version: 6.00 Build 0)  -->
<svg version="1.1" id="Capa_1" xmlns="http://www.w3.org/2000/svg" xmlns:xlink="http://www.w3.org/1999/xlink" x="0px" y="0px" viewBox="0 0 512 512" style="enable-background:new 0 0 512 512;" xml:space="preserve">
<path style="fill:#FF4B6E;" d="M511.983,253.028c0.91,80.191-35.062,152.004-92,199.551c-3.963,3.309-9.983,0.536-9.983-4.628V190  c0-5.523-4.477-10-10-10H21.184c-4.833,0-8.224-4.783-6.613-9.34C49.682,71.33,144.355,0.138,255.676,0  C395.621-0.173,510.395,113.092,511.983,253.028z"/>
<path style="fill:#DC325F;" d="M512,256.005c0,15.807-1.443,31.275-4.186,46.29c-1.639,1.175-3.643,1.875-5.814,1.875H374.853  l-25.317,25.317c-1.953,1.953-5.118,1.953-7.071,0l-25.317-25.317H190c-5.523,0-10-4.477-10-10v-180c0-5.523,4.477-10,10-10h272.118  c31.343,42.479,49.881,94.984,49.882,151.826V256.005z"/>
<path style="fill:#B9DCFF;" d="M1.322,230c2.107-20.838,6.703-40.94,13.5-60H410c5.523,0,10,4.477,10,10v50H1.322z"/>
<path style="fill:#E1FFFA;" d="M2.678,218.952H420v233.609C375.58,489.663,318.402,512,256,512C114.615,512,0,397.385,0,256  C0,243.416,0.925,231.05,2.678,218.952z"/>
<path style="fill:#DC64D2;" d="M380,260v115c0,2.761-2.239,5-5,5H32.002C11.621,343.261,0,300.991,0,256  c0-0.334,0.011-0.666,0.013-1H375C377.762,255,380,257.239,380,260z"/>
<path style="fill:#9BF5F0;" d="M130,417v61.88c-29.931-16.958-56.103-39.769-76.971-66.88H125C127.761,412,130,414.239,130,417z   M375,452H185c-2.761,0-5,2.239-5,5v10c0,2.761,2.239,5,5,5h190c2.761,0,5-2.239,5-5v-10C380,454.239,377.761,452,375,452z M287,492  H185c-2.761,0-5,2.239-5,5v3.528C204.012,507.983,229.537,512,256,512c11.968,0,23.737-0.84,35.268-2.429  c0.455-0.753,0.732-1.626,0.732-2.571v-10C292,494.239,289.761,492,287,492z M375,412H185c-2.761,0-5,2.239-5,5v10  c0,2.761,2.239,5,5,5h190c2.761,0,5-2.239,5-5v-10C380,414.239,377.761,412,375,412z"/>
<path style="fill:#91B9FF;" d="M40,194.997c0,5.523-4.477,10-10,10s-10-4.477-10-10s4.477-10,10-10S40,189.474,40,194.997z   M60,184.997c-5.523,0-10,4.477-10,10s4.477,10,10,10s10-4.477,10-10S65.523,184.997,60,184.997z M90,184.997  c-5.523,0-10,4.477-10,10s4.477,10,10,10s10-4.477,10-10S95.523,184.997,90,184.997z"/>
<path style="fill:#C341C3;" d="M270,292.5v10c0,2.761-2.239,5-5,5H75c-2.761,0-5-2.239-5-5v-10c0-2.761,2.239-5,5-5h190  C267.761,287.5,270,289.739,270,292.5z M221,327.5H119c-2.761,0-5,2.239-5,5v10c0,2.761,2.239,5,5,5h102c2.761,0,5-2.239,5-5v-10  C226,329.739,223.761,327.5,221,327.5z"/>
<path style="fill:#FFEB50;" d="M512,76v180c0,5.523-4.477,10-10,10H374.853l-25.317,25.317c-1.953,1.953-5.118,1.953-7.071,0  L317.147,266H190c-5.523,0-10-4.477-10-10V76c0-5.523,4.477-10,10-10h312C507.523,66,512,70.477,512,76z"/>
<path style="fill:#F7D139;" d="M483.5,165v10c0,2.761-2.239,5-5,5h-125c-2.761,0-5-2.239-5-5v-10c0-2.761,2.239-5,5-5h125  C481.261,160,483.5,162.239,483.5,165z M478.5,120h-125c-2.761,0-5,2.239-5,5v10c0,2.761,2.239,5,5,5h125c2.761,0,5-2.239,5-5v-10  C483.5,122.239,481.261,120,478.5,120z M435.5,200h-82c-2.761,0-5,2.239-5,5v10c0,2.761,2.239,5,5,5h82c2.761,0,5-2.239,5-5v-10  C440.5,202.239,438.261,200,435.5,200z M326.751,164.501l-19.581-6.963c-2.792-0.993-4.113-4.182-2.841-6.858l8.922-18.77  c2.02-4.249-2.413-8.682-6.662-6.662l-18.77,8.922c-2.676,1.272-5.865-0.049-6.858-2.841l-6.963-19.581  c-1.576-4.433-7.846-4.433-9.422,0l-6.963,19.581c-0.993,2.792-4.182,4.113-6.858,2.841l-18.77-8.922  c-4.249-2.02-8.682,2.413-6.662,6.662l8.922,18.77c1.272,2.676-0.049,5.865-2.84,6.858l-19.581,6.963  c-4.433,1.576-4.433,7.846,0,9.422l19.581,6.963c2.792,0.993,4.112,4.182,2.84,6.858l-8.922,18.77  c-2.02,4.249,2.413,8.682,6.662,6.662l18.77-8.922c2.676-1.272,5.865,0.049,6.858,2.84l6.963,19.581  c1.576,4.433,7.846,4.433,9.422,0l6.963-19.581c0.993-2.792,4.182-4.112,6.858-2.84l18.77,8.922c4.249,2.02,8.682-2.413,6.662-6.662  l-8.922-18.77c-1.272-2.676,0.049-5.865,2.841-6.858l19.581-6.963C331.184,172.347,331.184,166.078,326.751,164.501z"/>
<g>
</g>
<g>
</g>
<g>
</g>
<g>
</g>
<g>
</g>
<g>
</g>
<g>
</g>
<g>
</g>
<g>
</g>
<g>
</g>
<g>
</g>
<g>
</g>
<g>
</g>
<g>
</g>
<g>
</g>
</svg>