<?xml version="1.0" encoding="utf-8"?>
<!-- Generator: Adobe Illustrator 15.1.0, SVG Export Plug-In . SVG Version: 6.00 Build 0)  -->
<!DOCTYPE svg PUBLIC "-//W3C//DTD SVG 1.1 Basic//EN" "http://www.w3.org/Graphics/SVG/1.1/DTD/svg11-basic.dtd">
<svg version="1.1" baseProfile="basic" id="Layer_1"
	 xmlns="http://www.w3.org/2000/svg" xmlns:xlink="http://www.w3.org/1999/xlink" x="0px" y="0px" width="242.615px"
	 height="201.686px" viewBox="0 0 242.615 201.686" xml:space="preserve">
<path fill="#67321A" d="M106.141,28.711c0.178-1.852,0.539-3.58-0.27-5.333c-0.807-1.76-2.662-3.821-2.662-3.821
	s-2.191,2.042-2.713,5.08c-0.52,3.035,0.78,4.726,1.679,5.623c0.901,0.898,2.642,2.426,2.642,2.426l-1.499-10.079l2.095,9.828
	C105.412,32.435,105.966,30.564,106.141,28.711 M174.375,12.541c-3.051-0.722-3.271-1.334-7.696-1.806
	c-3.255-0.35-6.078-0.125-9.234,0.327C156.545,21.432,173.345,22.311,174.375,12.541 M178.383,17.715
	c0.556-0.757,1.072-1.516,1.546-2.253c-0.964-0.626-2.052-1.218-3.347-1.862c-0.502-0.25-0.953-0.454-1.246-0.563
	c-1.231,5.017-5.196,7.703-10.346,7.318c-5.132-0.386-8.449-3.913-8.578-9.085c-1.272,0.199-3.123,0.989-5.216,1.536
	c0.145,0.675,0.408,1.649,0.859,2.772c0.314-0.116,0.652-0.181,1.006-0.181c0.806,0,1.535,0.326,2.063,0.855
	c0.525,0.528,0.854,1.256,0.854,2.062c0,0.804-0.326,1.53-0.854,2.063v0.001l-0.075,0.072c0.825,0.935,1.817,1.846,3.009,2.667
	l0.068-0.073h0.004c0.525-0.525,1.255-0.854,2.057-0.854c0.808,0,1.537,0.328,2.063,0.854c0.528,0.528,0.854,1.258,0.854,2.063
	c0,0.142-0.008,0.275-0.028,0.412l0.448,0.135c1.183,0.338,2.328,0.425,3.438,0.313l-0.006-0.189c0-0.802,0.326-1.534,0.854-2.062
	h0.004c0.525-0.524,1.256-0.854,2.057-0.854c0.809,0,1.539,0.325,2.064,0.854c0.08,0.082,0.158,0.168,0.229,0.26
	c0.927-0.616,1.812-1.344,2.646-2.137c-0.224-0.414-0.351-0.884-0.351-1.383c0-0.806,0.326-1.536,0.854-2.063h0.004
	c0.525-0.526,1.255-0.854,2.058-0.854C177.729,17.538,178.067,17.599,178.383,17.715 M153.062,16.664
	c-0.457,0-0.871,0.185-1.168,0.481c-0.3,0.298-0.484,0.715-0.484,1.17c0,0.458,0.186,0.874,0.484,1.172
	c0.297,0.297,0.711,0.479,1.168,0.479s0.871-0.183,1.168-0.481l0.004,0.004c0.297-0.299,0.481-0.715,0.481-1.173
	c0-0.455-0.187-0.872-0.485-1.17C153.933,16.848,153.519,16.664,153.062,16.664 M159.021,23.937v0.002
	c-0.299,0.298-0.484,0.711-0.484,1.169s0.186,0.871,0.484,1.17c0.297,0.296,0.711,0.481,1.168,0.481s0.873-0.184,1.17-0.481h0.002
	c0.297-0.299,0.482-0.712,0.482-1.17s-0.185-0.871-0.484-1.169c-0.297-0.298-0.713-0.484-1.17-0.484
	C159.729,23.454,159.315,23.641,159.021,23.937 M169.871,24.125c-0.455,0-0.871,0.187-1.166,0.482
	c-0.299,0.299-0.483,0.715-0.483,1.169c0,0.459,0.186,0.875,0.483,1.171c0.295,0.299,0.711,0.483,1.166,0.483
	c0.459,0,0.875-0.186,1.17-0.483c0.299-0.296,0.485-0.712,0.485-1.171c0-0.456-0.188-0.87-0.485-1.169
	C170.746,24.311,170.332,24.125,169.871,24.125 M177.377,18.8c-0.457,0-0.871,0.188-1.17,0.482
	c-0.297,0.299-0.481,0.715-0.481,1.173s0.188,0.871,0.481,1.169c0.299,0.295,0.713,0.482,1.17,0.482s0.873-0.187,1.172-0.484v0.002
	c0.295-0.298,0.481-0.711,0.481-1.169s-0.186-0.874-0.481-1.173C178.25,18.986,177.834,18.8,177.377,18.8 M145.526,162.336
	c-0.272,1.574-0.387,3.026-0.35,4.362c0.029,1.031,0.143,2.002,0.355,2.896c0.479,2.067,1.805,3.1,3.99,3.1
	c3.906,0,6.475-3.548,7.692-10.659c0.211-1.263,0.306-2.458,0.275-3.584c-0.029-1.069-0.179-2.083-0.445-3.025
	c-0.565-1.911-1.883-2.871-3.959-2.871c-2.135,0-3.817,0.996-5.045,2.971C146.791,157.509,145.959,159.781,145.526,162.336
	 M51.99,161.806l-5.06-8.244c-1.882,1.368-2.974,2.946-3.29,4.735c-0.073,0.418-0.1,0.813-0.087,1.204
	c0.014,0.502,0.093,0.978,0.255,1.413c0.3,0.771,0.779,1.374,1.441,1.797c0.651,0.429,1.437,0.643,2.351,0.643
	c0.797,0,1.511-0.118,2.146-0.37C50.361,162.74,51.111,162.348,51.99,161.806 M55.635,144.014c0.042-0.258,0.061-0.502,0.054-0.73
	c-0.015-0.569-0.188-1.052-0.517-1.454c-0.447-0.581-1.088-0.872-1.92-0.872c-0.76,0-1.461,0.276-2.094,0.832
	c-0.627,0.543-1.004,1.21-1.136,1.996c-0.055,0.311-0.077,0.604-0.067,0.892c0.012,0.464,0.099,0.919,0.252,1.354
	c0.238,0.707,0.619,1.561,1.142,2.556c1.149-0.632,2.117-1.307,2.89-2.013C55.002,145.868,55.472,145.012,55.635,144.014
	 M72.584,105.348c-1.43,2.06-2.355,4.362-2.779,6.911c2.275-0.174,4.473-0.776,6.58-1.792c2.092-1.013,3.306-2.549,3.648-4.605
	c0.076-0.377,0.107-0.732,0.099-1.069c-0.017-0.612-0.169-1.125-0.446-1.555c-0.419-0.642-1.129-0.959-2.128-0.959
	C75.633,102.279,73.979,103.3,72.584,105.348 M79.086,67.423c-0.348,0.074-0.648,0.229-0.898,0.464
	c-0.249,0.236-0.396,0.55-0.447,0.94c-0.05,0.311-0.045,0.705,0.014,1.179c0.06,0.479,0.152,1.02,0.281,1.622
	c0.094,0.46,0.201,0.896,0.313,1.304c0.111,0.406,0.254,0.75,0.429,1.029c0.421,0.657,1.013,0.906,1.774,0.745
	c0.365-0.079,0.68-0.24,0.943-0.487c0.263-0.247,0.401-0.652,0.414-1.22c0.017-0.236-0.009-0.571-0.076-1.004
	c-0.066-0.435-0.157-0.922-0.271-1.461c-0.102-0.479-0.21-0.914-0.327-1.313c-0.116-0.396-0.252-0.721-0.403-0.972
	C80.398,67.543,79.816,67.27,79.086,67.423 M94.554,70.807c0.03-0.232,0.028-0.569-0.011-1.007
	c-0.039-0.437-0.096-0.931-0.176-1.475c-0.07-0.483-0.15-0.927-0.24-1.331c-0.092-0.406-0.207-0.738-0.34-0.999
	c-0.385-0.73-0.947-1.042-1.686-0.936c-0.355,0.051-0.663,0.186-0.927,0.403c-0.265,0.218-0.435,0.521-0.509,0.91
	c-0.07,0.305-0.092,0.697-0.064,1.177c0.029,0.48,0.086,1.025,0.175,1.636c0.066,0.466,0.144,0.907,0.228,1.321
	c0.084,0.413,0.205,0.765,0.363,1.056c0.375,0.684,0.949,0.97,1.721,0.857c0.369-0.053,0.693-0.194,0.973-0.423
	C94.341,71.769,94.504,71.373,94.554,70.807 M93.313,122.281h10.792c-0.761-8.56-1.598-14.31-2.52-17.278
	C99.16,108.969,96.41,114.729,93.313,122.281 M117.109,65.554l3.529-0.056c-0.012-0.763-0.155-1.373-0.43-1.833
	c-0.275-0.458-0.738-0.681-1.387-0.67c-0.65,0.01-1.092,0.261-1.328,0.752C117.259,64.238,117.129,64.84,117.109,65.554
	 M133.651,67.064c0.023-0.503,0.027-0.979,0.009-1.427c-0.021-0.446-0.082-0.842-0.188-1.18c-0.104-0.339-0.267-0.605-0.486-0.804
	c-0.219-0.196-0.521-0.307-0.908-0.323c-0.422-0.021-0.756,0.068-1,0.268c-0.248,0.202-0.436,0.478-0.564,0.827
	c-0.131,0.353-0.221,0.751-0.266,1.195c-0.043,0.444-0.08,0.901-0.102,1.374c-0.021,0.387-0.021,0.784-0.008,1.192
	c0.014,0.406,0.067,0.778,0.166,1.116c0.098,0.34,0.254,0.622,0.471,0.854c0.219,0.229,0.527,0.354,0.934,0.372
	c0.389,0.019,0.707-0.067,0.951-0.259s0.436-0.455,0.572-0.79c0.141-0.335,0.238-0.711,0.299-1.131
	C133.59,67.928,133.629,67.5,133.651,67.064 M131.867,113.256c-1.158-0.411-2.927-0.62-5.302-0.62l-1.416,8.254v0.027
	c0.035,1.262,0.906,1.901,2.634,1.901c1.719,0,3.228-0.41,4.547-1.233c1.31-0.841,2.104-2.075,2.373-3.703
	c0.063-0.301,0.08-0.604,0.069-0.905c-0.021-0.692-0.217-1.36-0.602-1.982C133.606,114.134,132.849,113.558,131.867,113.256
	 M135.218,105.083c0.043-0.247,0.063-0.485,0.057-0.694c-0.021-0.767-0.326-1.369-0.922-1.816c-0.75-0.522-1.767-0.78-3.031-0.78
	c-1.699,0-2.768,0.596-3.205,1.792l-1.014,5.842l0.371-0.083C132.147,109.342,134.731,107.926,135.218,105.083 M145.646,70.182
	l0.131-1.161l-1.911-0.213c-0.533-0.059-0.966,0.02-1.289,0.235c-0.326,0.217-0.519,0.566-0.572,1.051
	c-0.041,0.372,0.058,0.708,0.291,1.013c0.238,0.308,0.662,0.491,1.272,0.56c0.517,0.058,0.976-0.027,1.377-0.25
	C145.347,71.192,145.58,70.781,145.646,70.182 M158.408,105.348c-1.429,2.06-2.356,4.362-2.779,6.911
	c2.274-0.174,4.474-0.776,6.58-1.792c2.092-1.013,3.306-2.549,3.647-4.605c0.076-0.377,0.108-0.732,0.099-1.069
	c-0.017-0.612-0.166-1.125-0.445-1.555c-0.42-0.642-1.129-0.959-2.129-0.959C161.459,102.279,159.804,103.3,158.408,105.348
	 M181.531,77.124l-1.685-0.606l-0.979,2.729l1.614,0.58c0.485,0.175,0.918,0.195,1.302,0.063c0.379-0.131,0.655-0.433,0.825-0.905
	c0.142-0.396,0.132-0.761-0.032-1.086C182.41,77.573,182.063,77.314,181.531,77.124 M184.028,74.527
	c0.148-0.41,0.117-0.769-0.096-1.068c-0.209-0.301-0.553-0.536-1.022-0.705l-1.517-0.544l-0.881,2.453l1.514,0.544
	c0.474,0.169,0.884,0.216,1.229,0.143C183.603,75.276,183.858,75.001,184.028,74.527 M179.138,122.281h10.793
	c-0.761-8.56-1.599-14.31-2.519-17.278C184.983,108.969,182.231,114.729,179.138,122.281 M213.408,111.428l-1.457,8.604
	c-0.062,0.339-0.086,0.639-0.08,0.905c0.017,0.52,0.153,0.912,0.41,1.18c0.413,0.41,1.223,0.619,2.42,0.619
	c1.485,0,2.678-0.43,3.569-1.287c0.914-0.88,1.488-2.031,1.73-3.456c0.09-0.485,0.127-0.942,0.115-1.39
	c-0.031-1.018-0.311-1.919-0.854-2.706C218.133,112.251,216.179,111.428,213.408,111.428 M214.979,101.389
	c0.011,0.321-0.015,0.668-0.071,1.043l-1.074,6.244c5.556,0,9.548,0.678,11.972,2.031c2.221,1.231,3.369,3.098,3.438,5.604
	c0.019,0.656-0.039,1.354-0.164,2.083c-0.509,2.916-2.233,5.037-5.179,6.372c-1.95,0.88-4.631,1.316-8.047,1.316h-9.342
	c-2.453,0-3.712-1.034-3.771-3.108c-0.013-0.41,0.026-0.868,0.114-1.36l3.156-18.516c0.523-2.979,2.25-4.469,5.182-4.469
	C213.666,98.629,214.931,99.552,214.979,101.389 M200.002,125.223c0.019,0.612-0.032,1.243-0.151,1.902
	c-0.104,0.538-0.373,1.005-0.806,1.396c-0.442,0.394-0.933,0.587-1.463,0.587c-0.61-0.129-1.176-0.504-1.715-1.125
	c-0.515-0.641-0.953-1.098-1.312-1.361c-0.324-0.256-0.959-0.383-1.918-0.403h-14.143c-0.949,0.021-1.627,0.147-2.041,0.403
	c-0.428,0.265-1.023,0.722-1.789,1.361c-0.77,0.621-1.467,0.996-2.098,1.125c-0.537,0-0.953-0.193-1.273-0.587
	c-0.219-0.31-0.342-0.638-0.35-0.996c-0.004-0.118,0.008-0.255,0.039-0.4c0.623-2.157,1.031-3.392,1.221-3.694
	c0.195-0.32,0.471-0.586,0.832-0.774c0.551-0.212,0.939-0.33,1.195-0.35l0.819-0.056c4.759-11.335,8.375-18.539,10.861-21.611
	c1.229-1.554,2.627-2.356,4.188-2.411h0.18c1.734,0,2.961,0.767,3.695,2.303c1.235,2.644,2.574,9.846,4.006,21.612
	c0.531,0.316,0.906,0.574,1.15,0.747c0.376,0.274,0.598,0.55,0.674,0.832C199.924,124.209,199.99,124.71,200.002,125.223
	 M186.586,75.265c-0.17,0.475-0.435,0.879-0.789,1.218c-0.353,0.338-0.813,0.525-1.379,0.563c0.474,0.411,0.746,0.89,0.817,1.434
	c0.072,0.543,0.019,1.066-0.161,1.571c-0.209,0.579-0.492,1.055-0.847,1.417c-0.356,0.364-0.756,0.625-1.201,0.783
	c-0.444,0.16-0.936,0.228-1.469,0.198c-0.533-0.027-1.084-0.145-1.646-0.346l-4.356-1.563l4.075-11.345l4.285,1.538
	c1.301,0.469,2.155,1.095,2.571,1.884C186.903,73.403,186.938,74.286,186.586,75.265 M174.446,67.7l-2.881,11.68l-2.602-0.643
	l1.695-6.88l-0.069-0.019l-1.761,1.748l-4.191,4.083l-2.389-0.588l2.879-11.681l2.602,0.641l-1.789,7.259l0.047,0.013
	c0.291-0.298,0.574-0.591,0.853-0.882c0.281-0.29,0.574-0.58,0.882-0.872c0.719-0.761,1.444-1.506,2.178-2.234
	c0.727-0.733,1.451-1.471,2.166-2.214L174.446,67.7z M173.64,56.069l-0.795-0.192c-0.193-2.271-0.679-5.278-0.808-6.381l-2.709-0.11
	l0.659,5.813c-3.348-0.768-6.771-1.447-10.268-2.043c0.209-1.964,0.322-3.871,0.283-4.875l-2.424-0.635
	c0.055,0.923-0.223,2.963-0.547,5.068l-0.943-0.141l0.059-0.516c0.117-1.039,0.191-3.024,0.373-4.354
	c0.133-0.977-0.006-1.136,0.691-1.172c1.201,0.291,7.965,1.546,10.521,1.772c1.483,0.129,3.668,0.063,4.981,0.287
	C173.474,49.872,173.388,53.483,173.64,56.069 M161.375,64.546l-0.392,2.205l-3.045-0.54l-1.713,9.664l-2.591-0.458l1.714-9.664
	l-2.998-0.532l0.392-2.205L161.375,64.546z M156.64,100.182c2.598-1.215,5.264-1.815,7.981-1.815c1.642,0,3.224,0.28,4.758,0.849
	c1.537,0.576,2.742,1.474,3.631,2.681c0.591,0.858,0.906,1.864,0.939,3.007c0.014,0.493-0.021,1.022-0.111,1.571
	c-0.332,1.864-1.287,3.41-2.877,4.663c-1.612,1.233-3.45,2.195-5.498,2.897c-0.957,0.302-2,0.567-3.129,0.804
	c-1.099,0.229-2.34,0.44-3.742,0.641c-1.396,0.212-2.452,0.375-3.167,0.484c0.085,1.766,0.637,3.201,1.651,4.307
	c1.03,1.088,2.377,1.636,4.026,1.636c1.316,0,2.582-0.273,3.778-0.83c1.192-0.567,2.448-1.399,3.786-2.487
	c0.652-0.521,1.096-0.858,1.332-1.023c0.189-0.139,0.521-0.211,0.992-0.211c0.367,0,0.686,0.146,0.963,0.459
	c0.193,0.21,0.285,0.468,0.293,0.749c0.002,0.09-0.004,0.183-0.02,0.292c-0.136,0.914-0.758,1.856-1.865,2.842
	c-1.094,0.979-2.166,1.757-3.217,2.322c-2.677,1.557-5.67,2.331-8.978,2.331c-1.735,0-3.394-0.301-4.981-0.903
	c-1.58-0.612-2.932-1.48-4.047-2.623c-1.119-1.127-1.916-2.517-2.398-4.161c-0.256-0.849-0.4-1.763-0.428-2.724
	c-0.023-0.858,0.045-1.757,0.199-2.68c0.504-2.987,1.661-5.611,3.485-7.88C151.826,103.128,154.033,101.401,156.64,100.182
	 M148.8,66.075l-0.935,8.374l-2.662-0.298l0.104-0.92l-0.095-0.059c-0.332,0.354-0.75,0.589-1.254,0.705
	c-0.502,0.115-1.004,0.146-1.504,0.089c-1.179-0.131-2.013-0.559-2.502-1.284c-0.492-0.724-0.679-1.626-0.558-2.709
	c0.06-0.515,0.191-0.985,0.402-1.411s0.506-0.785,0.881-1.079c0.375-0.292,0.834-0.506,1.369-0.645
	c0.537-0.135,1.162-0.164,1.871-0.084l2.082,0.233l0.123-1.091c0.045-0.402-0.057-0.762-0.297-1.074
	c-0.244-0.313-0.68-0.504-1.311-0.574c-0.437-0.048-0.849-0.018-1.234,0.095c-0.387,0.112-0.709,0.357-0.963,0.738
	c-0.063-0.041-0.184-0.131-0.363-0.274c-0.18-0.142-0.371-0.288-0.575-0.441c-0.202-0.154-0.39-0.302-0.563-0.443
	c-0.172-0.142-0.286-0.24-0.346-0.296c0.457-0.732,1.068-1.237,1.834-1.511c0.767-0.274,1.609-0.359,2.527-0.257
	c0.629,0.068,1.205,0.193,1.719,0.375c0.516,0.181,0.957,0.438,1.316,0.771c0.355,0.333,0.621,0.751,0.795,1.253
	C148.832,64.758,148.877,65.365,148.8,66.075 M136.463,98.629c2.47,0,4.302,0.376,5.492,1.125c1.086,0.73,1.651,1.884,1.694,3.454
	c0.015,0.522-0.021,1.088-0.123,1.711c-0.198,1.143-0.86,2.229-1.985,3.245c-1.142,1.052-2.351,1.828-3.617,2.333l-0.795,0.345
	l0.711,0.266c1.054,0.396,2.009,0.927,2.871,1.583c0.838,0.656,1.494,1.463,1.976,2.414c0.299,0.62,0.461,1.277,0.479,1.981
	c0.013,0.338-0.015,0.697-0.071,1.07c-0.453,2.678-1.619,4.672-3.488,5.996c-1.877,1.29-4.211,1.93-6.979,1.93h-12.613
	c-2.141-0.109-3.236-1.133-3.292-3.081c-0.009-0.411,0.028-0.877,0.108-1.39l3.162-18.515c0.516-2.979,2.139-4.469,4.855-4.469
	L136.463,98.629L136.463,98.629z M136.377,67.193c-0.035,0.729-0.114,1.458-0.237,2.183c-0.125,0.728-0.336,1.374-0.63,1.944
	c-0.297,0.571-0.704,1.022-1.223,1.355c-0.521,0.333-1.193,0.48-2.022,0.441c-0.402-0.021-0.814-0.13-1.238-0.327
	c-0.42-0.2-0.769-0.494-1.043-0.879c-0.017,0-0.027,0.001-0.035,0.01c-0.012,0.008-0.023,0.011-0.037,0.011l-0.278,5.813
	l-2.677-0.127l0.807-16.906l2.678,0.127l-0.047,0.997c0.015,0.001,0.025,0.006,0.033,0.015c0.008,0.01,0.02,0.014,0.035,0.015
	c0.33-0.392,0.711-0.664,1.15-0.823c0.438-0.158,0.885-0.226,1.338-0.203c0.844,0.04,1.5,0.253,1.969,0.643
	c0.471,0.388,0.82,0.885,1.05,1.488c0.231,0.604,0.366,1.276,0.403,2.02C136.41,65.729,136.412,66.461,136.377,67.193
	 M123.42,67.333l-6.307,0.099c0.008,0.395,0.037,0.771,0.092,1.139c0.054,0.369,0.158,0.69,0.307,0.967
	c0.15,0.276,0.35,0.493,0.596,0.656c0.245,0.155,0.563,0.232,0.953,0.228c0.389-0.005,0.745-0.122,1.066-0.345
	c0.32-0.227,0.601-0.526,0.838-0.903c0.376,0.189,0.748,0.379,1.117,0.567s0.739,0.387,1.117,0.592
	c-0.361,0.81-0.902,1.426-1.627,1.848c-0.724,0.42-1.533,0.639-2.426,0.651c-1.704,0.026-2.918-0.456-3.64-1.453
	c-0.722-0.996-1.099-2.532-1.132-4.61c-0.014-0.859,0.041-1.663,0.168-2.413c0.127-0.748,0.361-1.404,0.701-1.971
	c0.34-0.566,0.799-1.016,1.381-1.351c0.578-0.333,1.314-0.507,2.207-0.521c0.828-0.012,1.529,0.114,2.101,0.384
	c0.573,0.267,1.04,0.641,1.403,1.12c0.367,0.48,0.632,1.057,0.796,1.718c0.163,0.663,0.253,1.393,0.265,2.187L123.42,67.333z
	 M114.18,125.223c0.018,0.612-0.033,1.243-0.152,1.902c-0.104,0.538-0.373,1.005-0.807,1.396c-0.443,0.394-0.932,0.587-1.462,0.587
	c-0.612-0.129-1.177-0.504-1.716-1.125c-0.514-0.641-0.955-1.098-1.311-1.361c-0.324-0.256-0.962-0.383-1.919-0.403H92.67
	c-0.947,0.021-1.627,0.147-2.038,0.403c-0.429,0.265-1.023,0.722-1.79,1.361c-0.77,0.621-1.469,0.996-2.096,1.125
	c-0.539,0-0.955-0.193-1.274-0.587c-0.224-0.31-0.343-0.638-0.351-0.996c-0.004-0.118,0.008-0.255,0.037-0.4
	c0.625-2.157,1.032-3.392,1.224-3.694c0.196-0.32,0.47-0.586,0.831-0.774c0.551-0.212,0.938-0.33,1.195-0.35l0.817-0.056
	c4.758-11.335,8.377-18.539,10.862-21.611c1.229-1.554,2.625-2.356,4.188-2.411h0.179c1.736,0,2.963,0.767,3.697,2.303
	c1.235,2.644,2.576,9.846,4.008,21.612c0.53,0.316,0.905,0.574,1.149,0.747c0.375,0.274,0.597,0.55,0.673,0.832
	C114.1,124.209,114.164,124.71,114.18,125.223 M110.596,72.932l-2.671,0.213l-0.782-9.833l-3.423,0.272l0.782,9.831l-2.67,0.213
	l-0.957-12.041l8.764-0.696L110.596,72.932z M97.218,70.177c0.022,0.718-0.022,1.309-0.138,1.769
	c-0.112,0.475-0.289,0.882-0.525,1.22c-0.239,0.337-0.525,0.625-0.859,0.861c-0.336,0.237-0.705,0.426-1.111,0.564
	c-0.407,0.143-0.828,0.242-1.262,0.307c-0.867,0.125-1.617,0.068-2.25-0.168c-0.633-0.235-1.148-0.597-1.547-1.08
	c-0.357-0.426-0.648-0.998-0.875-1.721c-0.228-0.722-0.406-1.549-0.543-2.479c-0.104-0.723-0.169-1.434-0.193-2.125
	c-0.028-0.692,0.017-1.262,0.133-1.704c0.215-0.804,0.626-1.47,1.238-2c0.611-0.532,1.447-0.872,2.508-1.026
	c1.029-0.146,1.869-0.06,2.523,0.265c0.654,0.321,1.178,0.768,1.57,1.335c0.291,0.416,0.529,0.985,0.715,1.705
	s0.335,1.466,0.446,2.235C97.14,68.779,97.197,69.458,97.218,70.177 M93.537,37.547h-2.258c-0.678,0-1.232,0.553-1.232,1.23
	c0,0.518,0.322,0.96,0.777,1.144c-0.584,1.543-0.902,3.218-0.902,4.97c0,2.534,0.668,4.909,1.834,6.957
	c-1.984,0.249-3.951,0.522-5.895,0.823c-0.295-0.609-0.939-1.104-1.482-1.382c-1.094-0.567-2.862,0.677-2.862,0.677
	s0.136-0.967,0.228-2.499c0.088-1.535-0.146-3.066-0.146-3.066s1.178-5.002,0.995-7.422c-0.183-2.424-3.632-5.568-3.632-5.568
	l1.39-4.439l1.019-0.889c0,0,0.746-0.32,2.439-0.32s1.648-0.564,1.648-0.564s0.773,1.938,2.404,3.066
	c1.631,1.128,2.446-0.483,3.467-2.746c1.019-2.259-1.756-4.517-2.658-5.646c-0.901-1.13-3.713-1.371-3.713-1.371
	s2.047-3.31,3.054-5.325c1.006-2.017,0.847-2.1,0.847-2.1s0.801-0.462,1.76-0.894L93.537,37.547z M78.621,64.984
	c1.015-0.214,1.86-0.183,2.535,0.1c0.674,0.278,1.223,0.688,1.653,1.229c0.315,0.396,0.59,0.949,0.823,1.654
	c0.232,0.705,0.428,1.441,0.589,2.202c0.136,0.636,0.237,1.312,0.305,2.026c0.068,0.716,0.06,1.308-0.024,1.773
	c-0.079,0.481-0.229,0.898-0.442,1.251c-0.218,0.353-0.483,0.657-0.804,0.916c-0.318,0.259-0.674,0.47-1.071,0.637
	c-0.396,0.168-0.81,0.297-1.239,0.389c-0.855,0.18-1.609,0.173-2.256-0.021s-1.186-0.521-1.611-0.977
	c-0.386-0.401-0.713-0.954-0.987-1.659c-0.274-0.706-0.509-1.521-0.702-2.439c-0.152-0.716-0.264-1.419-0.335-2.108
	c-0.07-0.689-0.062-1.258,0.024-1.709c0.162-0.814,0.529-1.505,1.104-2.075C76.759,65.602,77.572,65.206,78.621,64.984
	 M76.336,54.386c-2.256,0.467-4.477,0.972-6.664,1.515c-0.287-0.277-0.686-0.54-1.168-0.786c-1.096-0.563-1.238-0.887-0.916-2.259
	c0.32-1.372,1.503-0.89,2.58-2.743c1.074-1.857,0.494-2.984,1.32-3.309c0.824-0.325,1.664-2.26,1.664-2.26s0.862,1.855,1.555,3.792
	c0.695,1.937,0.474,1.614,1.396,5.164L76.336,54.386z M67.371,72.824c0.146-0.167,0.262-0.387,0.347-0.656
	c0.084-0.269,0.12-0.602,0.108-1.003l-0.058-3.248l2.508-0.709l0.039,3.634c0.002,0.605-0.081,1.14-0.255,1.603
	c-0.173,0.462-0.453,0.815-0.839,1.059c0.55-0.019,1.017,0.138,1.397,0.467c0.379,0.332,0.729,0.766,1.049,1.298l2.09,3.459
	l-2.602,0.734l-1.566-2.771c-0.416-0.693-0.814-1.104-1.195-1.231c-0.383-0.129-0.809-0.126-1.277,0.006l-1.076,0.306l1.342,4.756
	l-2.578,0.729l-3.27-11.578l2.58-0.728l1.33,4.712l0.889-0.252c0.188-0.054,0.371-0.122,0.55-0.208
	C67.062,73.118,67.225,72.993,67.371,72.824 M60.689,113.256c0.506-2.987,1.662-5.611,3.486-7.88
	c1.826-2.248,4.033-3.977,6.641-5.194c2.598-1.215,5.264-1.815,7.981-1.815c1.64,0,3.223,0.28,4.758,0.849
	c1.537,0.576,2.741,1.474,3.631,2.681c0.586,0.858,0.905,1.864,0.938,3.007c0.014,0.493-0.023,1.022-0.109,1.571
	c-0.333,1.864-1.29,3.41-2.879,4.663c-1.614,1.233-3.449,2.195-5.498,2.897c-0.957,0.302-2,0.567-3.13,0.804
	c-1.095,0.229-2.339,0.44-3.744,0.641c-1.396,0.212-2.45,0.375-3.163,0.484c0.083,1.766,0.637,3.201,1.65,4.307
	c1.029,1.088,2.377,1.636,4.029,1.636c1.314,0,2.582-0.273,3.777-0.83c1.191-0.567,2.447-1.399,3.783-2.487
	c0.654-0.521,1.097-0.858,1.332-1.023c0.193-0.139,0.523-0.211,0.992-0.211c0.369,0,0.688,0.146,0.963,0.459
	c0.195,0.21,0.287,0.468,0.295,0.749c0.002,0.09-0.004,0.183-0.018,0.292c-0.136,0.914-0.76,1.856-1.869,2.842
	c-1.09,0.979-2.164,1.757-3.215,2.322c-2.677,1.557-5.67,2.331-8.978,2.331c-1.735,0-3.392-0.301-4.981-0.903
	c-1.582-0.612-2.932-1.48-4.048-2.623c-1.116-1.127-1.917-2.517-2.399-4.161c-0.254-0.849-0.398-1.763-0.426-2.724
	C60.467,115.077,60.535,114.179,60.689,113.256 M60.177,142.84c0.013,0.396-0.019,0.818-0.087,1.255
	c-0.193,1.069-0.67,2.063-1.442,2.959c-0.776,0.906-1.704,1.688-2.774,2.346c-1.051,0.643-2.116,1.183-3.191,1.604l4.104,6.853
	l0.361,0.561c1.99-2.041,3.157-4.048,3.498-6.037c0.227-1.354,0.969-2.033,2.221-2.033c1.037,0,1.569,0.461,1.594,1.374
	c0.008,0.21-0.012,0.429-0.047,0.659c-0.022,0.14-0.066,0.29-0.136,0.444c-0.583,1.921-2.512,4.466-5.776,7.629
	c1.168,1.638,2.662,2.457,4.483,2.457c0.277,0,0.652-0.061,1.12-0.179c0.453-0.099,0.791-0.151,1.008-0.151
	c0.227,0,0.41,0.099,0.555,0.312c0.1,0.138,0.147,0.304,0.154,0.482c0.002,0.064-0.002,0.13-0.014,0.19
	c-0.1,0.646-0.609,1.189-1.521,1.625c-1.383,0.713-2.894,1.071-4.535,1.071c-1.193,0-2.266-0.206-3.217-0.603
	c-0.943-0.416-1.869-1.037-2.787-1.863c-1.304,0.879-2.602,1.533-3.904,1.956c-1.305,0.441-2.664,0.66-4.069,0.66
	c-1.416,0-2.739-0.266-3.969-0.792c-1.243-0.529-2.199-1.335-2.854-2.419c-0.447-0.729-0.678-1.552-0.703-2.479
	c-0.014-0.453,0.021-0.923,0.106-1.415c0.589-3.447,3.003-6.137,7.246-8.071c-0.827-1.532-1.267-3.024-1.306-4.474
	c-0.012-0.515,0.021-1.024,0.105-1.524c0.176-1.071,0.602-2.089,1.285-3.061c0.689-0.957,1.496-1.718,2.438-2.283
	c1.744-1.031,3.711-1.548,5.902-1.548c1.186,0,2.286,0.199,3.299,0.604c0.998,0.408,1.764,1.043,2.295,1.896
	C59.973,141.412,60.156,142.074,60.177,142.84 M59.425,91.454c0.011,0.339-0.011,0.694-0.07,1.069l-4.879,28.687
	c-0.226,1.354-0.877,2.505-1.953,3.456c-1.06,0.94-2.241,1.417-3.54,1.417c-1.29,0-2.303-0.477-3.048-1.417
	c-0.532-0.694-0.821-1.489-0.847-2.385c-0.008-0.339,0.017-0.695,0.074-1.071l3.033-17.762l-9.365,15.97
	c-0.627,1.373-1.617,2.358-2.977,2.973c-0.689,0.319-1.37,0.477-2.037,0.477c-0.512,0-1.025-0.093-1.537-0.293
	c-1.142-0.448-1.882-1.271-2.216-2.487c-0.017,0-1.791-5.687-5.313-17.06l-3.543,20.808c-0.258,1.5-1.119,2.249-2.572,2.249
	c-1.188,0-1.791-0.511-1.819-1.525c-0.006-0.213,0.013-0.458,0.058-0.724l5.307-30.989c0.014-0.156,0.033-0.32,0.064-0.485
	c0.33-1.938,1.453-3.355,3.359-4.223c0.71-0.332,1.406-0.485,2.072-0.485c0.511,0,1.027,0.102,1.529,0.293
	c1.131,0.446,1.875,1.279,2.224,2.495c-0.019-0.035,2.177,7.542,6.575,22.735l13.145-23.165c1.186-1.554,2.652-2.332,4.387-2.332
	c1.307,0,2.33,0.477,3.073,1.417C59.125,89.772,59.401,90.557,59.425,91.454 M74.529,161.451c-0.037-1.307,0.061-2.669,0.313-4.098
	c0.484-2.823,1.468-5.476,2.953-7.952c1.494-2.505,3.33-4.671,5.5-6.511c2.181-1.845,4.566-3.27,7.137-4.285
	c2.578-1.031,5.169-1.556,7.766-1.556c1.993,0,3.914,0.293,5.785,0.888c1.889,0.585,3.485,1.429,4.807,2.515
	c0.068,0.056,0.184,0.183,0.361,0.377c0.184,0.218,0.289,0.336,0.309,0.372c0.344,0.411,0.529,0.896,0.543,1.445
	c0.007,0.221-0.012,0.43-0.057,0.648c-0.33,1.938-1.414,2.916-3.25,2.916c-0.968,0-1.654-0.429-2.063-1.29
	c-0.425-0.839-0.957-1.555-1.589-2.138c-1.354-1.311-2.993-1.955-4.908-1.955c-1.684,0-3.331,0.428-4.922,1.287
	c-1.582,0.85-2.992,2.049-4.231,3.584c-2.321,2.842-3.846,6.382-4.558,10.604c-0.266,1.499-0.364,3.079-0.319,4.744l0.022,0.721
	c0.103,1.911,0.416,3.583,0.943,5.013c0.422,1.104,1.049,2.037,1.855,2.787c0.799,0.749,1.727,1.299,2.771,1.654
	c1.028,0.356,2.161,0.538,3.391,0.538c1.488,0,3.031-0.354,4.627-1.068c1.605-0.713,3.072-1.691,4.406-2.925
	c0.633-0.586,0.982-0.913,1.049-0.986c0.392-0.357,0.775-0.644,1.146-0.861c0.377-0.229,0.751-0.346,1.117-0.346
	c0.473,0,0.835,0.182,1.094,0.537c0.211,0.266,0.313,0.558,0.323,0.879c0.004,0.127-0.01,0.265-0.032,0.402
	c-0.191,1.088-0.921,2.212-2.189,3.354c-1.264,1.142-2.571,2.095-3.899,2.861c-3.103,1.78-6.479,2.679-10.137,2.679
	c-2.521,0-4.851-0.45-6.978-1.346c-2.16-0.887-3.984-2.184-5.467-3.874c-1.484-1.701-2.531-3.724-3.145-6.054
	C74.717,163.891,74.563,162.705,74.529,161.451 M108.174,174.844c-0.006-0.202,0.014-0.422,0.057-0.668l0.105-0.483
	c4.766-11.693,8.537-19.28,11.31-22.744c1.239-1.527,2.636-2.323,4.188-2.378h0.353c2.383,0,3.856,0.713,4.418,2.14
	c1.19,3.181,2.406,9.652,3.647,19.417c0.076,0.266,0.115,0.557,0.125,0.859c0.009,0.284-0.019,0.575-0.076,0.887
	c-0.5,2.944-2.151,4.416-4.938,4.416c-2.053-0.09-3.215-1.354-3.48-3.804c-1.105-8.356-1.884-14.106-2.339-17.252
	c-2.166,2.605-5.262,8.925-9.287,18.942c-0.458,1.372-1.256,2.074-2.393,2.112C108.76,176.289,108.201,175.803,108.174,174.844
	 M136.31,165.519c-0.027-0.923,0.041-1.884,0.221-2.86c0.328-1.895,1.031-3.713,2.117-5.467c1.088-1.766,2.42-3.312,4.006-4.637
	c3.293-2.659,7.102-3.984,11.428-3.984c1.854,0,3.578,0.319,5.188,0.961c1.598,0.656,2.994,1.606,4.153,2.843
	c1.138,1.245,1.955,2.725,2.457,4.416c0.259,0.895,0.401,1.818,0.431,2.788c0.024,0.903-0.053,1.846-0.222,2.806
	c-0.478,2.771-1.588,5.239-3.321,7.396c-1.775,2.177-3.9,3.848-6.371,5.011c-2.486,1.179-5.002,1.764-7.539,1.764
	c-4.103,0-7.271-1.149-9.48-3.457c-1.26-1.313-2.141-2.877-2.635-4.679C136.476,167.465,136.336,166.507,136.31,165.519
	 M168.615,173.208c-0.013-0.411,0.024-0.879,0.114-1.39l3.154-18.514c0.523-2.979,2.199-4.472,5.035-4.472
	c2.332,0,3.533,1.016,3.59,3.056c0.012,0.429-0.027,0.902-0.115,1.416l-1.022,6.136h8.64l1.024-6.136
	c0.512-2.979,2.198-4.472,5.037-4.472c2.331,0,3.53,1.016,3.59,3.056c0.01,0.429-0.028,0.902-0.115,1.416l-3.155,18.514
	c-0.506,2.979-2.172,4.471-5.011,4.471c-2.35,0-3.557-1.023-3.614-3.081c-0.013-0.411,0.024-0.879,0.114-1.39l1.461-8.492h-8.639
	l-1.463,8.492c-0.507,2.979-2.173,4.471-5.011,4.471C169.879,176.289,168.67,175.265,168.615,173.208 M132.406,19.422
	c-0.408,0.737-1.337,1.001-2.074,0.591c-0.731-0.407-0.998-1.334-0.59-2.068c0.409-0.736,1.338-1.001,2.069-0.591
	C132.549,17.761,132.812,18.688,132.406,19.422 M130.25,23.347c1.104,0.628,1.869,2.511,1.278,3.63
	c-0.834,1.596-10.282,2.395-11.091,1.043c0.541-0.447,1.826-0.65,2.477-0.84C128.66,25.508,128.556,24.216,130.25,23.347
	 M78.768,3.049c0.098-0.442,0.537-0.726,0.979-0.627c0.444,0.095,0.728,0.534,0.629,0.978c-0.096,0.445-0.534,0.727-0.978,0.629
	C78.951,3.931,78.67,3.493,78.768,3.049 M181.313,58.208c0.467-2.229,0.806-7.038,1.088-9.168
	c0.382-2.846,2.188-12.999,3.451-14.592c2.394,2.312,1.031,8.854,1.301,9.765l0.226,0.405c1.513,1.355,2.162-6.438,2.211-7.177
	c0.211-3.11-0.104-6.316-0.86-9.154c-0.674-2.521-1.762-5.116-3.305-7.29c-1.544-2.172-2.851-3.603-4.474-4.819
	c-0.466,0.72-0.976,1.464-1.521,2.204l0.008,0.011c0.527,0.527,0.854,1.256,0.854,2.063c0,0.801-0.326,1.53-0.854,2.057v0.003
	c-0.524,0.527-1.258,0.855-2.063,0.855c-0.662,0-1.271-0.223-1.762-0.597c-0.914,0.863-1.883,1.653-2.906,2.323
	c0.053,0.22,0.082,0.445,0.082,0.679c0,0.805-0.328,1.531-0.855,2.063v0.002c-0.524,0.527-1.256,0.854-2.063,0.854
	c-0.802,0-1.53-0.326-2.056-0.854l-0.006-0.002c-0.188-0.192-0.354-0.407-0.483-0.644c-1.33,0.167-2.714,0.085-4.144-0.326
	c-0.188-0.053-0.373-0.109-0.557-0.164c-0.109,0.167-0.236,0.321-0.377,0.463c-0.525,0.53-1.256,0.854-2.063,0.854
	c-0.803,0-1.531-0.327-2.058-0.854h-0.004c-0.524-0.529-0.854-1.256-0.854-2.061c0-0.314,0.051-0.614,0.145-0.9
	c-1.393-0.95-2.535-2.017-3.471-3.111c-0.279,0.088-0.576,0.138-0.885,0.138c-0.803,0-1.529-0.326-2.06-0.854v-0.003
	c-0.526-0.531-0.853-1.259-0.853-2.063c0-0.797,0.318-1.521,0.84-2.049c-0.538-1.279-0.844-2.398-1.016-3.179
	c-1.084,0.212-2.211,0.322-3.342,0.228c-2.346-0.193-4.166-1.339-6.922-1.854c-5.404-1.01-8.5-0.733-12.465,2.88
	c-5.658,5.161-8.556,14.911-18.224,17.218c-0.558,0.134-1.03,0.27-1.63,0.265c-0.996-0.01-1.043-0.257-1.598,0.722l0.811,0.822
	c-2.158,1.729,0.605,1.627,1.995,1.696c5.338,0.269,7.151-0.844,12.082-2.696c6.774-2.547,10.274-3.14,10.595,3.053
	c0.039,0.746-0.08,1.452-0.174,2.096c-0.168,1.159-0.246,2.13,0.854,2.799c1.508,0.914,2.715,0.501,4.062-0.086
	c6.754-2.944,12.237-8.273,12.078-16.219c-0.039-1.782-0.425-3.955-1.023-5.486c-0.268-0.679-0.553-0.979-0.391-1.464l0.155-0.245
	c0.677-1.132,1.735,3.287,1.822,3.672c1.565,7.047-1.354,14.08-6.923,17.95c-0.922,0.643-1.387,0.738-0.561,1.571
	c0.779,0.787,2.367,2.028,3.576,3.381c0.882,0.985,1.563,2.028,1.591,2.999c0.026,1.07,0.022,2.952,0.032,4.947
	c-8.09-0.845-16.473-1.271-25.068-1.271c-1.645,0-3.277,0.021-4.906,0.053c0.643-1.614,0.999-3.378,0.999-5.228
	c0-1.752-0.321-3.427-0.901-4.97c0.453-0.184,0.775-0.626,0.775-1.144c0-0.679-0.554-1.23-1.23-1.23H95.957l-3.895-25.914
	c0.12-0.036,0.241-0.065,0.354-0.093c1.473-0.319,1.117-2.58,0.82-4.354c-0.214-1.265-0.947-1.301-1.98-0.898l-0.129-0.852
	c0.392-0.229,0.687-0.614,0.789-1.086c0.197-0.904-0.377-1.796-1.279-1.992c-0.904-0.195-1.795,0.377-1.993,1.28
	c-0.19,0.881,0.351,1.75,1.218,1.975l0.143,1.259l-0.143,0.072c-1.75,0.888-2.957,2.259-4.463,3.146
	c-1.5,0.888-3.168,3.146-4.761,4.195c-1.593,1.048-2.339,0-2.339,0s-0.016-1.13,0.894-1.533c0.912-0.403,1.425-2.258,1.425-2.258
	s0.625-1.05,2.025-1.534c1.398-0.485,1.773-1.373,1.773-1.373l0.228-1.127c0,0,0.806-1.372,1.123-2.665
	c0.315-1.29-0.183-1.049-1.231-1.049c-1.048,0-2.506,0.082-2.506,0.082s-0.793-1.615-2.474-1.856
	c-1.681-0.242-3.162,0.241-3.162,0.241s-1.302-1.596-2.412-1.127c-0.954,0.397-0.505,1.37-0.505,1.37s-0.98-0.793-2.119-0.095
	c-1.135,0.7-0.324,2.403-0.318,2.416c-0.016,0.007-0.172,0.128-1.4,1.229c-1.531,1.371-2.37,3.309-2.37,3.309
	s-2.472,2.259-3.226,4.113c-0.754,1.856-0.105,3.229-0.295,6.455c-0.188,3.228,1.268,5.973,0.563,8.393
	c-0.704,2.423-1.772,4.114-2.577,5.487c-0.805,1.371-0.359,2.017-0.32,4.115c0.041,2.1-0.803,4.115-0.803,4.115l1.864-1.534
	c0,0-0.353,0.484-0.252,1.534c0.101,1.049,0.917,5.084,0.502,6.614c-0.411,1.534-1.364,4.115-1.278,6.779
	c0.053,1.586,0.828,2.538,1.795,3.236C25.562,68.605,0,91.492,0,125.875c0,50.121,54.312,75.812,121.309,75.812
	c66.995,0,121.307-25.689,121.307-75.812C242.615,92.084,217.929,69.403,181.313,58.208"/>
</svg>
