<?xml version="1.0" encoding="utf-8"?>
<!-- Generator: Adobe Illustrator 21.0.2, SVG Export Plug-In . SVG Version: 6.00 Build 0)  -->
<svg version="1.1" id="Layer_1" xmlns="http://www.w3.org/2000/svg" xmlns:xlink="http://www.w3.org/1999/xlink" x="0px" y="0px"
	 viewBox="0 0 238.3 58.6" style="enable-background:new 0 0 238.3 58.6;" xml:space="preserve">
<style type="text/css">
	.st0{fill:#00CC45;}
	.st1{fill:#F9FBFD;}
	.st2{fill:#FCFDFF;}
</style>
<g>
	<g>
		<g>
			<polygon class="st0" points="67.1,0 28.9,56.6 89.4,56.7 			"/>
		</g>
	</g>
	<g>
		<g>
			<polygon class="st0" points="0,0.2 0,0.5 22.3,56.6 60.3,0.2 			"/>
		</g>
	</g>
	<g>
		<g>
			<polygon class="st1" points="26.8,16.3 35.5,5.3 29.8,5.2 23,13.8 23.1,5.2 18.3,5.2 18.2,30 23,30.1 23,19 30.6,30.1 36.2,30.1 
							"/>
		</g>
	</g>
	<g>
		<g>
			<path class="st2" d="M71,37.4c-0.9-1.3-2-2.2-3.3-2.6c-1.3-0.5-3-0.7-5.1-0.7l-1,0l0-4.8l8.3,0l0-4.6l-13-0.1l-0.1,24.9l7,0
				c2.1,0,3.7-0.3,4.8-0.9c1.2-0.6,2.1-1.5,2.8-2.5c0.7-1,1-2.4,1-4.1C72.3,40.2,71.9,38.6,71,37.4z M66.8,44.2
				c-0.6,0.6-1.9,0.8-4.1,0.8l-1.2,0l0-6.7l1,0c3.4,0,5.2,1.2,5.2,3.6C67.7,42.8,67.4,43.6,66.8,44.2z"/>
		</g>
	</g>
	<g>
		<g>
			<path class="st0" d="M105.5,0.3l-3.3,0l-10,9.3l0-9.3l-2.5,0l-0.1,24.9l2.5,0l0.1-11.6L103,25.1l3.3,0L93.5,11.4L105.5,0.3z
				 M120.8,0.7c-1-0.3-2.9-0.4-5.7-0.4l-5,0L110,25.2l2.5,0l0.1-11.6l1.8,0c3.1,0,5.2-0.1,6.3-0.4c1.5-0.4,2.8-1.1,3.6-2.2
				c0.9-1.1,1.3-2.4,1.3-4.1c0-1.6-0.4-3-1.3-4.1C123.4,1.8,122.3,1.1,120.8,0.7z M122.4,9.3c-0.5,0.7-1.1,1.2-1.9,1.5
				c-0.8,0.3-2,0.5-3.7,0.4l-4.2-0.1l0-8.4l4.4,0c1.7,0,2.9,0.2,3.6,0.5c0.7,0.3,1.3,0.8,1.8,1.5c0.4,0.7,0.7,1.5,0.7,2.3
				C123.1,7.9,122.8,8.6,122.4,9.3z M140.2,0.5l-11.9,24.8l2.8,0l3.9-8.2l10.7,0.1l3.9,8.2l2.7,0L140.8,0.5L140.2,0.5z M136.2,14.7
				l4.3-9l4.2,9L136.2,14.7z M163,3.9c1.7-0.9,3.5-1.4,5.5-1.4c1.8,0,3.5,0.4,5,1.1c1.5,0.7,2.8,1.8,3.9,3.2l2-1.5
				c-1.2-1.7-2.7-3-4.6-3.9c-1.9-0.9-4-1.4-6.3-1.4c-3.8,0-7,1.2-9.6,3.7c-2.6,2.5-3.9,5.5-3.9,9.2c0,3.5,1,6.4,3.1,8.9
				c2.5,2.9,5.9,4.4,10.3,4.4c2.3,0,4.4-0.4,6.2-1.3c1.9-0.9,3.4-2.1,4.7-3.6l-2-1.5c-2.4,2.7-5.3,4.1-8.8,4c-3.2,0-5.8-1-7.9-3.1
				s-3.1-4.6-3.1-7.6c0-2,0.5-3.8,1.4-5.4C160,6.1,161.3,4.8,163,3.9z M194.7,12c-1.4-0.6-3.6-0.8-6.7-0.9l-1.2,0l0-8l10,0.1l0-2.4
				l-12.5-0.1l-0.1,24.9l6.8,0c2.5,0,4.5-0.7,5.9-2.1c1.4-1.4,2.1-3.1,2.2-5c0-1.4-0.4-2.8-1.2-3.9C197.2,13.4,196.1,12.5,194.7,12z
				 M195.8,21c-0.5,0.7-1.2,1.3-2,1.6c-0.8,0.4-2.2,0.5-4,0.5l-3.1,0l0-9.5l1.4,0c2.1,0,3.7,0.1,4.7,0.4c1.1,0.3,1.9,0.8,2.6,1.6
				c0.7,0.8,1.1,1.8,1,2.9C196.6,19.5,196.3,20.3,195.8,21z M204.1,25.7l14.1,0.1l0-2.4l-11.7-0.1l0.1-9.8l11.7,0.1l0-2.4l-11.7-0.1
				l0-7.8l11.8,0.1l0-2.4l-14.2-0.1L204.1,25.7z M236.9,3.5c-0.9-1.1-2.1-1.8-3.5-2.2c-1-0.3-2.9-0.4-5.7-0.4l-5,0l-0.1,24.9l2.5,0
				l0.1-11.6l1.8,0c3.1,0,5.2-0.1,6.3-0.4c1.5-0.4,2.8-1.1,3.6-2.2c0.9-1.1,1.3-2.4,1.3-4.1C238.3,6,237.8,4.6,236.9,3.5z M235,9.9
				c-0.5,0.7-1.1,1.2-1.9,1.5c-0.8,0.3-2,0.5-3.7,0.4l-4.2-0.1l0-8.4l4.4,0c1.7,0,2.9,0.2,3.6,0.5c0.7,0.3,1.3,0.8,1.8,1.5
				c0.4,0.7,0.7,1.5,0.7,2.3C235.7,8.5,235.5,9.2,235,9.9z"/>
		</g>
	</g>
	<g>
		<g>
			<path class="st0" d="M106.1,47.7c-0.5-0.4-1.1-0.7-2-1c0.7-0.4,1.2-0.9,1.6-1.4c0.4-0.6,0.5-1.3,0.5-2c0-0.8-0.2-1.5-0.6-2.1
				c-0.4-0.6-1-1.1-1.6-1.4c-0.7-0.3-1.7-0.5-3-0.5l-3.2,0l-0.1,16.4l4.5,0c1.6,0,2.9-0.4,3.9-1.3c1-0.9,1.5-2,1.5-3.3
				c0-0.6-0.1-1.2-0.4-1.8C106.9,48.6,106.6,48.1,106.1,47.7z M99.4,40.8l1.9,0c1.1,0,2,0.2,2.5,0.7c0.5,0.4,0.8,1,0.8,1.8
				c0,0.6-0.2,1.1-0.5,1.5c-0.3,0.5-0.7,0.8-1.3,1s-1.4,0.3-2.5,0.3l-0.9,0L99.4,40.8z M105.3,52.6c-0.3,0.5-0.8,0.9-1.4,1.1
				c-0.6,0.2-1.4,0.3-2.6,0.3l-2,0l0-6.3l0.9,0c1.4,0,2.4,0.1,2.9,0.2c0.8,0.2,1.5,0.6,2,1.1c0.5,0.5,0.7,1.2,0.7,1.9
				C105.9,51.5,105.7,52.1,105.3,52.6z M110.8,55.7l9.3,0l0-1.6l-7.7,0l0-6.4l7.7,0l0-1.6l-7.7,0l0-5.1l7.8,0l0-1.6l-9.4,0
				L110.8,55.7z M129.9,46.7c-0.9-0.4-2.4-0.6-4.5-0.6l-0.8,0l0-5.3l6.6,0l0-1.6l-8.2,0L123,55.7l4.5,0c1.7,0,3-0.5,3.9-1.4
				c0.9-0.9,1.4-2,1.4-3.3c0-1-0.3-1.8-0.8-2.6C131.6,47.7,130.8,47.1,129.9,46.7z M130.6,52.7c-0.3,0.5-0.8,0.8-1.3,1.1
				c-0.6,0.2-1.4,0.3-2.6,0.3l-2,0l0-6.3l0.9,0c1.4,0,2.4,0.1,3.1,0.3c0.7,0.2,1.3,0.5,1.7,1.1s0.7,1.2,0.7,1.9
				C131.1,51.7,131,52.2,130.6,52.7z M134.9,50.3l6.1,0l0-1.4l-6.1,0L134.9,50.3z M148.3,41.6c1.1-0.6,2.3-0.9,3.6-0.9
				c1.2,0,2.3,0.3,3.3,0.7c1,0.5,1.9,1.2,2.6,2.1l1.3-1c-0.8-1.1-1.8-2-3-2.6c-1.2-0.6-2.6-0.9-4.1-0.9c-2.5,0-4.7,0.8-6.3,2.4
				c-1.7,1.6-2.5,3.6-2.6,6.1c0,2.3,0.7,4.2,2.1,5.9c1.6,1.9,3.9,2.9,6.8,2.9c1.5,0,2.9-0.3,4.1-0.8c1.2-0.6,2.3-1.4,3.1-2.4l-1.3-1
				c-1.6,1.8-3.5,2.7-5.8,2.7c-2.1,0-3.8-0.7-5.2-2c-1.4-1.3-2-3-2-5c0-1.3,0.3-2.5,0.9-3.6C146.3,43,147.1,42.2,148.3,41.6z
				 M160.7,41.1l3.7,0l-0.1,14.8l1.7,0l0.1-14.8l3.7,0l0-1.6l-9,0L160.7,41.1z M177.6,50.8l-4.9-11.2l-1.9,0l5.9,13.2
				c-0.4,0.9-0.7,1.5-1.1,1.7c-0.3,0.2-0.7,0.3-1.1,0.3c-0.3,0-0.6-0.1-0.8-0.2c-0.3-0.1-0.8-0.6-1.6-1.4l-1.2,1
				c0.8,0.9,1.5,1.5,2,1.7c0.5,0.2,1.1,0.4,1.7,0.4c1.5,0,2.5-0.7,3.1-2.1l6.3-14.7l-1.8,0L177.6,50.8z M193.5,39.7l-0.6,0
				l-6.5,14.8l-1.3,0l0,4l1.6,0l0-2.5l13.2,0.1l0,2.5l1.6,0l0-4l-1.3,0L193.5,39.7z M188.3,54.5l4.9-11.5l5.1,11.5L188.3,54.5z
				 M205.5,52.5l0.1-12.8l-1.6,0l-0.1,16.4l0.4,0l10.9-12.5L215,56.2l1.7,0l0.1-16.4l-0.4,0L205.5,52.5z M226.9,39.8
				c-1.8,0-3.1,0.1-3.7,0.2c-1,0.2-1.8,0.7-2.4,1.4c-0.6,0.7-0.9,1.6-0.9,2.7c0,0.9,0.2,1.7,0.6,2.4c0.4,0.7,1,1.2,1.8,1.5
				c0.8,0.4,1.9,0.5,3.2,0.5l-5.9,7.6l2,0l5.9-7.6l0.9,0l0,7.6l1.6,0l0.1-16.4L226.9,39.8z M228.5,47l-2.8,0c-1.1,0-1.9-0.1-2.4-0.3
				c-0.5-0.2-0.9-0.5-1.2-1c-0.3-0.5-0.4-1-0.4-1.5c0-0.6,0.2-1,0.5-1.5c0.3-0.4,0.7-0.8,1.2-1c0.5-0.2,1.3-0.3,2.4-0.3l2.9,0
				L228.5,47z"/>
		</g>
	</g>
</g>
</svg>
