<svg height="512pt" viewBox="-97 0 512 512.00004" width="512pt" xmlns="http://www.w3.org/2000/svg"><path d="m273.644531 335.4375h-229.507812v-220.683594c0-63.375 51.375-114.753906 114.753906-114.753906 63.375 0 114.753906 51.378906 114.753906 114.753906zm0 0" fill="#62666a"/><path d="m123.582031 264.820312h70.617188v61.789063h-70.617188zm0 0" fill="#fdc9a6"/><path d="m123.582031 286.117188c8.410157 3.421874 17.402344 5.183593 26.480469 5.183593h17.65625c9.078125 0 18.070312-1.761719 26.480469-5.183593v-21.296876h-70.617188zm0 0" fill="#f6bb92"/><path d="m238.335938 61.789062v141.238282c0 39-31.617188 70.617187-70.617188 70.617187h-17.65625c-39 0-70.617188-31.617187-70.617188-70.617187v-132.410156zm0 0" fill="#fdc9a6"/><g fill="#62666a"><path d="m114.753906 186.167969c-4.875 0-8.828125-3.953125-8.828125-8.828125v-9.621094c0-4.875 3.953125-8.828125 8.828125-8.828125s8.828125 3.953125 8.828125 8.828125v9.621094c0 4.875-3.953125 8.828125-8.828125 8.828125zm0 0"/><path d="m203.027344 186.167969c-4.875 0-8.828125-3.953125-8.828125-8.828125v-9.621094c0-4.875 3.953125-8.828125 8.828125-8.828125s8.828125 3.953125 8.828125 8.828125v9.621094c0 4.875-3.953125 8.828125-8.828125 8.828125zm0 0"/><path d="m158.890625 211.855469c-2.339844 0-4.585937-.933594-6.242187-2.585938l-8.828126-8.828125c-2.6875-2.683594-3.355468-6.789062-1.65625-10.1875l8.824219-17.65625c2.179688-4.363281 7.484375-6.132812 11.847657-3.953125 4.363281 2.179688 6.132812 7.484375 3.953124 11.847657l-5.984374 11.941406 4.328124 4.328125c3.460938 3.429687 3.484376 9.019531.050782 12.480469-1.664063 1.679687-3.929688 2.621093-6.292969 2.613281zm0 0"/></g><path d="m255.992188 203.027344h-17.65625v-44.136719h17.65625c9.75 0 17.652343 7.90625 17.652343 17.65625v8.824219c0 9.753906-7.902343 17.65625-17.652343 17.65625zm0 0" fill="#f6bb92"/><path d="m79.445312 35.308594-8.828124 132.410156 8.828124 8.828125 36.234376-27.179687c22.613281-16.957032 40.964843-38.949219 53.601562-64.226563l7.261719-14.523437 18.265625 36.535156c5.4375 10.878906 12.589844 20.8125 21.183594 29.414062l22.34375 22.324219 8.828124-8.828125-8.828124-114.753906zm0 0" fill="#62666a"/><path d="m158.800781 242.539062c-7.351562 0-14.605469-1.707031-21.183593-4.988281-4.394532-2.179687-6.222657-7.488281-4.097657-11.910156 2.078125-4.328125 7.269531-6.15625 11.601563-4.078125.03125.015625.0625.03125.097656.046875l.289062.148437c8.449219 4.210938 18.386719 4.210938 26.835938 0 4.386719-2.199218 9.722656-.46875 11.988281 3.882813 2.210938 4.265625.546875 9.511719-3.71875 11.722656-.027343.015625-.058593.03125-.085937.046875-6.746094 3.371094-14.183594 5.125-21.726563 5.128906zm0 0" fill="#62666a"/><path d="m264.816406 335.4375h-70.617187v-26.484375h-70.617188v26.484375h-70.617187c-29.253906 0-52.964844 23.710938-52.964844 52.964844v123.582031h317.78125v-123.582031c0-29.253906-23.710938-52.964844-52.964844-52.964844zm0 0" fill="#a8a8a8"/><path d="m158.890625 423.710938c-34.109375-.046876-61.746094-27.683594-61.792969-61.792969v-26.480469c0-4.875 3.953125-8.828125 8.828125-8.828125s8.828125 3.953125 8.828125 8.828125v26.480469c0 24.375 19.761719 44.136719 44.136719 44.136719s44.136719-19.761719 44.136719-44.136719v-26.480469c0-4.875 3.953125-8.828125 8.828125-8.828125s8.828125 3.953125 8.828125 8.828125v26.480469c-.046875 34.109375-27.683594 61.746093-61.792969 61.792969zm0 0" fill="#ebebeb"/><path d="m176.542969 432.535156c0 9.75-7.902344 17.65625-17.652344 17.65625s-17.65625-7.90625-17.65625-17.65625 7.90625-17.652344 17.65625-17.652344 17.652344 7.902344 17.652344 17.652344zm0 0" fill="#ebebeb"/><path d="m158.890625 459.019531c-14.625 0-26.484375-11.859375-26.484375-26.484375s11.859375-26.480468 26.484375-26.480468 26.480469 11.855468 26.480469 26.480468-11.855469 26.484375-26.480469 26.484375zm0-35.308593c-4.875 0-8.828125 3.949218-8.828125 8.824218 0 4.878906 3.953125 8.828125 8.828125 8.828125s8.828125-3.949219 8.828125-8.828125c0-4.875-3.953125-8.824218-8.828125-8.824218zm0 0" fill="#a83b32"/><path d="m71.09375 511.417969c-.066406-1.175781-.367188-2.324219-.882812-3.382813l-1.863282-3.722656c-8.648437-17.410156-8.648437-37.867188 0-55.277344l1.863282-3.734375c.605468-1.222656.914062-2.574219.902343-3.9375l-.054687-26.535156c-.027344-4.855469-3.972656-8.773437-8.828125-8.773437h-.050781c-4.875.027343-8.804688 4.003906-8.777344 8.878906l.054687 24.355468-.933593 1.863282c-11.074219 22.304687-11.109376 48.496094-.097657 70.828125h18.703125zm0 0" fill="#787d82"/><path d="m265.699219 441.363281-.882813-1.941406v-24.539063c0-4.875-3.949218-8.828124-8.828125-8.828124-4.875 0-8.824219 3.953124-8.824219 8.828124v26.480469c.011719 1.308594.3125 2.601563.882813 3.777344l1.761719 3.734375c8.242187 17.621094 8.242187 37.992188 0 55.613281l-1.761719 3.726563c-.546875 1.183594-.816406 2.480468-.796875 3.785156h18.539062c10.4375-22.394531 10.40625-48.265625-.089843-70.636719zm0 0" fill="#787d82"/></svg>