<svg version="1.1" xmlns="http://www.w3.org/2000/svg" xmlns:xlink="http://www.w3.org/1999/xlink">
<defs>
<symbol id="fb" viewBox="0 0 32 32">
<path d="M22.362 0h-3.333c-2.55 0-4.382 0.605-5.495 1.816s-1.67 2.994-1.67 5.35v2.246c0 0.594-0.481 1.075-1.075 1.075h-1.152c-0.594 0-1.075 0.481-1.075 1.075v3.365c0 0.594 0.481 1.075 1.075 1.075h1.152c0.594 0 1.075 0.481 1.075 1.075v13.851c0 0.593 0.481 1.075 1.075 1.075h4.472c0.593 0 1.075-0.481 1.075-1.075v-13.851c0-0.594 0.481-1.075 1.075-1.075h2.259c0.594 0 1.125-0.479 1.187-1.068l0.357-3.378c0.062-0.59-0.368-1.068-0.962-1.068h-2.841c-0.593 0-1.075-0.481-1.075-1.075v-1.683c0-0.414 0.019-0.735 0.058-0.961s0.126-0.45 0.262-0.67c0.136-0.22 0.356-0.372 0.66-0.456s0.709-0.126 1.213-0.126h1.683c0.593 0 1.074-0.481 1.074-1.075v-3.365c0-0.594-0.481-1.075-1.074-1.075z"></path>
</symbol>
<symbol id="insta" viewBox="0 0 32 32">
<path d="M28.8 0h-25.6c-1.76 0-3.2 1.44-3.2 3.2v25.6c0 1.76 1.44 3.2 3.2 3.2h25.6c1.76 0 3.2-1.44 3.2-3.2v-25.6c0-1.76-1.44-3.2-3.2-3.2zM16 9.6c3.52 0 6.4 2.88 6.4 6.4s-2.88 6.4-6.4 6.4c-3.52 0-6.4-2.88-6.4-6.4s2.88-6.4 6.4-6.4zM4 28.8c-0.48 0-0.8-0.32-0.8-0.8v-13.6h3.36c-0.16 0.48-0.16 1.12-0.16 1.6 0 5.28 4.32 9.6 9.6 9.6s9.6-4.32 9.6-9.6c0-0.48 0-1.12-0.16-1.6h3.36v13.6c0 0.48-0.32 0.8-0.8 0.8h-24zM28.8 7.2c0 0.48-0.32 0.8-0.8 0.8h-3.2c-0.48 0-0.8-0.32-0.8-0.8v-3.2c0-0.48 0.32-0.8 0.8-0.8h3.2c0.48 0 0.8 0.32 0.8 0.8v3.2z"></path>
</symbol>
<symbol id="map" viewBox="0 0 32 32">
<path d="M16 0c-6.39 0-11.589 5.199-11.589 11.589 0 7.93 10.371 19.573 10.813 20.065 0.415 0.462 1.139 0.461 1.553 0 0.442-0.492 10.813-12.134 10.813-20.065-0-6.39-5.199-11.589-11.589-11.589zM16 17.42c-3.215 0-5.831-2.616-5.831-5.831s2.616-5.831 5.831-5.831 5.831 2.616 5.831 5.831-2.616 5.831-5.831 5.831z"></path>
</symbol>
<symbol id="ok" viewBox="0 0 32 32">
<path d="M14.425 22.54c-2.481-0.259-4.718-0.87-6.633-2.367-0.238-0.186-0.483-0.366-0.7-0.574-0.838-0.805-0.923-1.727-0.259-2.677 0.567-0.813 1.52-1.031 2.51-0.564 0.192 0.090 0.374 0.203 0.549 0.325 3.569 2.452 8.472 2.52 12.054 0.11 0.355-0.272 0.734-0.494 1.174-0.607 0.855-0.22 1.652 0.095 2.111 0.843 0.524 0.854 0.517 1.688-0.128 2.351-0.991 1.017-2.182 1.752-3.506 2.266-1.252 0.485-2.623 0.73-3.98 0.892 0.205 0.223 0.301 0.332 0.429 0.461 1.843 1.851 3.693 3.695 5.53 5.552 0.626 0.633 0.756 1.417 0.412 2.153-0.377 0.804-1.22 1.334-2.047 1.277-0.524-0.036-0.932-0.297-1.295-0.663-1.391-1.399-2.807-2.773-4.17-4.198-0.396-0.415-0.587-0.336-0.937 0.024-1.399 1.44-2.821 2.858-4.251 4.268-0.642 0.633-1.406 0.747-2.151 0.385-0.792-0.384-1.295-1.192-1.256-2.004 0.027-0.549 0.297-0.969 0.674-1.345 1.824-1.821 3.642-3.646 5.461-5.47 0.12-0.121 0.233-0.25 0.408-0.437z"></path>
<path d="M15.936 16.197c-4.426-0.015-8.055-3.684-8.029-8.117 0.025-4.482 3.657-8.093 8.126-8.081 4.478 0.012 8.073 3.676 8.050 8.204-0.023 4.424-3.677 8.009-8.147 7.994zM19.958 8.091c-0.008-2.201-1.761-3.953-3.957-3.955-2.215-0.002-3.984 1.782-3.966 4.003 0.016 2.193 1.784 3.932 3.987 3.924 2.196-0.008 3.944-1.771 3.937-3.972z"></path>
</symbol>
<symbol id="phone" viewBox="0 0 32 32">
<path d="M24.329 21.169c-1.045-1.032-2.351-1.032-3.389 0-0.792 0.786-1.585 1.572-2.364 2.371-0.213 0.22-0.393 0.266-0.653 0.12-0.513-0.28-1.059-0.506-1.552-0.812-2.297-1.445-4.222-3.303-5.926-5.394-0.846-1.039-1.598-2.151-2.124-3.403-0.107-0.253-0.087-0.419 0.12-0.626 0.792-0.766 1.565-1.552 2.344-2.337 1.085-1.092 1.085-2.371-0.007-3.469-0.619-0.626-1.239-1.239-1.858-1.864-0.639-0.639-1.272-1.285-1.918-1.918-1.045-1.019-2.351-1.019-3.389 0.007-0.799 0.786-1.565 1.591-2.377 2.364-0.752 0.713-1.132 1.585-1.212 2.604-0.127 1.658 0.28 3.223 0.852 4.748 1.172 3.156 2.957 5.96 5.121 8.53 2.923 3.476 6.413 6.226 10.494 8.21 1.838 0.892 3.742 1.578 5.813 1.691 1.425 0.080 2.664-0.28 3.656-1.392 0.679-0.759 1.445-1.452 2.164-2.177 1.065-1.079 1.072-2.384 0.013-3.449-1.265-1.272-2.537-2.537-3.809-3.802z"></path>
<path d="M23.057 15.861l2.457-0.419c-0.386-2.257-1.452-4.302-3.070-5.926-1.711-1.711-3.875-2.79-6.259-3.123l-0.346 2.47c1.844 0.26 3.523 1.092 4.848 2.417 1.252 1.252 2.071 2.837 2.371 4.581z"></path>
<path d="M26.899 5.181c-2.837-2.837-6.426-4.628-10.388-5.181l-0.346 2.47c3.423 0.479 6.526 2.031 8.976 4.475 2.324 2.324 3.849 5.261 4.402 8.49l2.457-0.419c-0.646-3.742-2.411-7.138-5.101-9.835z"></path>
</symbol>
<symbol id="search" viewBox="0 0 32 32">
<path d="M30.978 29.147l-7.616-7.921c1.958-2.328 3.031-5.257 3.031-8.306 0-7.124-5.796-12.92-12.92-12.92s-12.92 5.796-12.92 12.92 5.796 12.92 12.92 12.92c2.674 0 5.223-0.807 7.402-2.338l7.674 7.981c0.321 0.333 0.752 0.517 1.214 0.517 0.438 0 0.853-0.167 1.168-0.47 0.67-0.644 0.691-1.713 0.047-2.383zM13.473 3.37c5.266 0 9.55 4.284 9.55 9.55s-4.284 9.55-9.55 9.55-9.55-4.284-9.55-9.55 4.284-9.55 9.55-9.55z"></path>
</symbol>
<symbol id="twitter" viewBox="0 0 32 32">
<path d="M32 6.079c-1.178 0.522-2.442 0.876-3.769 1.034 1.356-0.812 2.394-2.1 2.885-3.629-1.272 0.752-2.675 1.298-4.171 1.594-1.198-1.278-2.901-2.074-4.791-2.074-3.625 0-6.565 2.939-6.565 6.563 0 0.514 0.058 1.016 0.17 1.496-5.455-0.274-10.292-2.887-13.529-6.859-0.566 0.968-0.888 2.096-0.888 3.299 0 2.278 1.16 4.287 2.919 5.463-1.076-0.036-2.088-0.332-2.973-0.824v0.082c0 3.179 2.264 5.833 5.265 6.437-0.55 0.148-1.13 0.23-1.73 0.23-0.424 0-0.834-0.042-1.236-0.122 0.836 2.61 3.259 4.507 6.131 4.559-2.246 1.76-5.077 2.805-8.152 2.805-0.53 0-1.052-0.032-1.566-0.090 2.905 1.866 6.355 2.953 10.062 2.953 12.076 0 18.677-10.002 18.677-18.677l-0.022-0.85c1.29-0.92 2.405-2.076 3.283-3.391z"></path>
</symbol>
<symbol id="vk" viewBox="0 0 32 32">
<path d="M31.83 23.36c-0.039-0.084-0.075-0.153-0.108-0.208-0.555-1-1.616-2.227-3.182-3.682l-0.033-0.033-0.017-0.016-0.017-0.017h-0.017c-0.711-0.678-1.161-1.133-1.349-1.366-0.345-0.444-0.422-0.894-0.234-1.35 0.133-0.344 0.633-1.071 1.5-2.182 0.456-0.589 0.816-1.061 1.083-1.416 1.922-2.555 2.755-4.187 2.499-4.898l-0.099-0.166c-0.067-0.1-0.239-0.192-0.516-0.275s-0.633-0.097-1.067-0.042l-4.798 0.033c-0.078-0.028-0.189-0.025-0.333 0.008s-0.217 0.050-0.217 0.050l-0.084 0.042-0.066 0.050c-0.056 0.033-0.117 0.091-0.183 0.175s-0.122 0.181-0.166 0.292c-0.522 1.344-1.116 2.594-1.783 3.749-0.411 0.689-0.788 1.286-1.133 1.791s-0.633 0.877-0.866 1.116c-0.233 0.239-0.444 0.43-0.633 0.575s-0.333 0.206-0.433 0.183c-0.1-0.022-0.194-0.045-0.284-0.067-0.155-0.1-0.28-0.236-0.375-0.408s-0.158-0.389-0.192-0.65c-0.033-0.261-0.053-0.486-0.058-0.675s-0.003-0.456 0.008-0.8c0.012-0.344 0.017-0.578 0.017-0.7 0-0.422 0.008-0.88 0.025-1.375s0.030-0.886 0.042-1.174c0.011-0.289 0.017-0.594 0.017-0.916s-0.020-0.575-0.058-0.758c-0.038-0.183-0.097-0.361-0.174-0.533s-0.192-0.305-0.342-0.4c-0.15-0.094-0.336-0.169-0.558-0.225-0.589-0.133-1.338-0.205-2.249-0.216-2.066-0.022-3.393 0.111-3.982 0.4-0.233 0.122-0.444 0.289-0.633 0.5-0.2 0.244-0.228 0.378-0.084 0.4 0.667 0.1 1.138 0.339 1.416 0.716l0.1 0.2c0.078 0.144 0.156 0.4 0.233 0.766s0.128 0.772 0.15 1.216c0.055 0.811 0.055 1.505 0 2.083s-0.108 1.027-0.158 1.35-0.125 0.583-0.225 0.783c-0.1 0.2-0.167 0.322-0.2 0.366s-0.061 0.072-0.083 0.083c-0.144 0.055-0.295 0.084-0.45 0.084s-0.344-0.078-0.566-0.233c-0.222-0.156-0.453-0.369-0.691-0.641s-0.508-0.653-0.808-1.141c-0.3-0.489-0.611-1.066-0.933-1.733l-0.267-0.483c-0.167-0.311-0.394-0.764-0.683-1.358s-0.544-1.169-0.766-1.725c-0.089-0.233-0.222-0.411-0.4-0.533l-0.083-0.050c-0.055-0.044-0.144-0.091-0.266-0.142s-0.25-0.086-0.383-0.108l-4.565 0.033c-0.467 0-0.783 0.106-0.95 0.317l-0.067 0.1c-0.033 0.056-0.050 0.144-0.050 0.267s0.033 0.272 0.1 0.45c0.666 1.566 1.391 3.077 2.174 4.532s1.463 2.627 2.041 3.515c0.578 0.889 1.166 1.727 1.766 2.516s0.997 1.294 1.191 1.516c0.194 0.222 0.347 0.389 0.458 0.5l0.417 0.4c0.267 0.267 0.658 0.586 1.175 0.958s1.089 0.739 1.716 1.1c0.628 0.361 1.358 0.655 2.191 0.883s1.644 0.319 2.433 0.275h1.916c0.389-0.034 0.683-0.156 0.883-0.367l0.066-0.084c0.045-0.066 0.086-0.169 0.125-0.308s0.058-0.292 0.058-0.458c-0.011-0.478 0.025-0.908 0.108-1.291s0.178-0.672 0.284-0.866c0.106-0.194 0.225-0.358 0.358-0.491s0.228-0.214 0.284-0.242c0.055-0.028 0.099-0.047 0.133-0.058 0.267-0.089 0.58-0.003 0.942 0.258s0.7 0.583 1.016 0.966c0.317 0.383 0.697 0.814 1.141 1.291s0.833 0.833 1.166 1.066l0.333 0.2c0.222 0.133 0.511 0.256 0.867 0.367s0.666 0.139 0.933 0.083l4.265-0.067c0.422 0 0.75-0.070 0.983-0.208s0.372-0.292 0.417-0.458c0.045-0.167 0.047-0.355 0.008-0.567s-0.078-0.358-0.117-0.441z"></path>
</symbol>
<symbol id="telegram" viewBox="0 31 512 512">
<path d="M123.195 260.738l63.68 159.188 82.902-82.903L411.918 450 512 0 0 213.266zm242.5-131.629L208.98 272.051l-19.52 73.566-36.058-90.164zm0 0"></path>
</symbol>
</defs>
</svg>
