<svg xmlns="http://www.w3.org/2000/svg" xmlns:xlink="http://www.w3.org/1999/xlink" width="0" height="0" style="position:absolute">
	
		<symbol id="arrow_down" viewBox="0 0 56.7 56.7">
			<path class="st0" d="M56.7 26.6v3.5c0 .1-.1.3-.1.4-.4 4.9-1.9 9.4-4.6 13.5-5.4 7.9-12.9 12.1-22.4 12.7-5.1.3-10-.8-14.5-3.3C5.8 48.2.7 40.2.1 29.6c-.4-6.1 1.2-11.8 4.7-16.9C9.2 6.1 15.4 2 23.3.5c1.1-.2 2.2-.3 3.3-.5h3.5c.1 0 .3.1.4.1C34.9.4 39 1.7 42.8 4c7.3 4.5 11.8 10.9 13.5 19.4.1 1 .2 2.1.4 3.2zM3.8 28.3c0 13.5 10.9 24.6 24.5 24.6C41.8 53 52.8 42 52.9 28.4 53 14.9 42 3.8 28.4 3.8S3.8 14.7 3.8 28.3z"></path><path class="st0" d="M30.4 38c2.8-2.9 5.7-5.7 8.5-8.5l2.6 2.6c-4.4 4.3-8.7 8.7-13 13L15.4 32c.8-.8 1.6-1.6 2.5-2.4 2.8 2.8 5.6 5.6 8.4 8.5.1 0 .1-.1.2-.1V11.4h3.8V38h.1z"></path>
		</symbol>
	
		<symbol id="clock" viewBox="0 0 372.96 372.96">
			<path d="M186.48 0C83.49 0 0 83.49 0 186.48s83.49 186.48 186.48 186.48 186.48-83.49 186.48-186.48C372.828 83.545 289.415.132 186.48 0zm8 356.56v-32.8a8 8 0 0 0-16 0v32.8C90.759 352.372 20.588 282.201 16.4 194.48h32.8a8 8 0 0 0 0-16H16.4C20.588 90.759 90.759 20.588 178.48 16.4v32.8a8 8 0 0 0 16 0V16.4c87.721 4.188 157.892 74.359 162.08 162.08h-32.8a8 8 0 0 0 0 16H356.64c-4.191 87.75-74.408 157.932-162.16 162.08z"></path><path d="M270.88 260.88l-76.4-77.68v-80.72a8 8 0 0 0-16 0v84a8 8 0 0 0 2.32 5.6l78.64 80a8.005 8.005 0 1 0 11.44-11.2z"></path>
		</symbol>
	
		<symbol id="close" viewBox="0 0 60 60">
			<path class="st0" d="M60 29.3v1.4c0 .2-.1.5-.1.7-.1 1-.1 2.1-.3 3.1-1 6.4-3.8 12-8.4 16.6-4.7 4.7-10.4 7.6-17.1 8.5-.9.1-1.9.2-2.8.3h-2.7c-.5-.1-1-.1-1.4-.2-5.5-.6-10.5-2.4-14.9-5.7C5.9 49.4 1.9 43.1.5 35.2.3 34.1.2 33 0 31.9v-3.8c0-.4.1-.8.1-1.2.8-6.3 3.1-11.9 7.4-16.7 4.9-5.5 11-8.8 18.2-9.9.8-.1 1.7-.2 2.5-.3h3.4c.2 0 .4.1.6.1 1.3.2 2.6.3 3.8.5 6.6 1.4 12.2 4.7 16.6 9.8 3.9 4.5 6.2 9.6 7 15.5.2 1.1.3 2.3.4 3.4zM29.9 56c14.3 0 26-11.6 26.1-26 .1-14.2-11.6-26-25.9-26C15.7 3.9 4 15.5 3.9 30c0 14.3 11.6 26 26 26z"></path><path class="st0" d="M32.7 30.1c.2.3.5.5.7.8 2.7 2.9 5.5 5.8 8.2 8.6 1.1 1.2.6 3-.9 3.3-.8.2-1.4-.1-2-.7-2.7-2.9-5.4-5.7-8.2-8.6-.2-.2-.3-.4-.6-.7-.2.2-.3.4-.4.6-2.7 2.9-5.5 5.8-8.2 8.7-.9.9-2 1-2.9.2-.9-.8-.9-2 0-2.9 2.1-2.2 4.2-4.5 6.4-6.7.8-.9 1.6-1.7 2.5-2.6-.1-.2-.2-.3-.4-.4-2.8-3-5.6-5.9-8.4-8.9-.5-.5-.8-1-.7-1.7.1-.8.5-1.4 1.3-1.7.8-.3 1.5-.1 2.1.5 2.1 2.2 4.1 4.4 6.2 6.5.8.9 1.7 1.8 2.6 2.8.2-.2.3-.4.4-.6 2.8-3 5.5-5.9 8.3-8.9.9-.9 2-1 2.9-.2.9.8.9 2 0 3-2.8 3-5.6 6-8.5 8.9 0 .3-.2.5-.4.7z"></path>
		</symbol>
	
		<symbol id="de-01" viewBox="0 0 167.2 170.1">
			<path class="st0" d="M0 77.8c.4-1.1.8-2.9 1.6-4.4C10 58.5 21.6 46.2 34.4 35 54.9 17.1 79.1 7 105.5 1.5c3.9-.8 8-1.2 12-1.5 1.5-.1 3.1.3 4.4.9 6.5 3.2 12.5 7.2 16.8 13.1 2.1 2.9 3.6 6.4 5.1 9.6 1 2 .5 4.1-.8 5.8-1.8 2.2-3.6 4.5-5.9 6-3.6 2.5-7.5 4.6-11.4 6.5-3.6 1.8-7.5 2.9-11.2 4.6-6.5 2.9-12.8-1.2-15.4-5.5-2-3.4-3.1-7-3.5-10.9-.1-1.1-.6-1.5-1.6-1.8-4.9-1.4-9.7-.7-14.3 1-9.1 3.3-17.3 8.3-25.2 13.9-4.6 3.3-9.1 6.8-12.7 11.2-2.5 3.1-4.3 6.5-5 10.5-.2 1 .1 1.5.9 2 3.6 2.3 6.5 5.3 8.8 8.9 2.7 4.2 3.2 10.1-1.3 14.5-5.7 5.6-11.2 11.5-18.2 15.4-2.9 1.6-6.3 2.7-9.5 3.7-2.1.7-4.1-.1-5.8-1.6-5.8-5.2-8.7-12-10.2-19.4-.7-3.3-1-6.6-1.5-10.6zM75.6 152.4c-.2.1-.7.6-1.2 1-4.3 3.3-9.1 3.7-14 1.9-4.7-1.7-7.3-5.3-8.1-10.2-1.9-12.4 5.6-21.1 18.1-20.6 3.5.1 6.9.9 10.3 1.4 1.3.2 1.8.8 1.7 2.3-.3 5.1-.5 10.2-.7 15.3 0 1.1-.1 2.4.3 3.4.3.9 1.2 2.1 2 2.2.9.2 2.3-.4 2.9-1.1.9-1.2 1.6-2.7 2-4.2 1.1-4.3 1.2-8.7 0-13-2.3-8.7-9.9-14.1-19.5-13.5-3.1.2-6.4.6-9.3 1.8-8.4 3.2-12.6 9.9-13.7 18.6-.4 3.4-.4 7 .2 10.4 1.6 9.1 8.2 14.5 17.5 15 5.9.3 11.6-.5 17.2-2.5.5-.2.9-.3 1.4-.4h.5c0 1.9.1 3.8-.1 5.7 0 .5-.7 1.3-1.3 1.4-3.2.9-6.3 1.9-9.6 2.3-5.6.7-11.2.5-16.6-1.1-10.2-3.1-16.7-11.2-17.5-21.8-.5-6.6.1-13.1 3.2-19.1 5.2-10.5 13.9-15.8 25.4-16.8 5.4-.5 10.8 0 15.9 2.3 9.9 4.3 15.6 14 14.8 25.4-.3 4.1-1.1 8-3.2 11.5-3 4.8-7.6 7-13.1 5.8-1.8-.5-3.4-2.1-5.5-3.4zm-1.3-16.9H74c.1-1 .2-1.9.2-2.9 0-.4-.3-1.1-.6-1.2-5-1-11.1-.2-12.8 6.6-.5 1.9-.5 4.1-.2 6 .5 3.8 2.7 5.5 6.5 5.4 2.9-.1 5-1.6 5.8-4.8.6-2.9.9-6.1 1.4-9.1z"></path><path class="st0" d="M103.3 132.6c13.1 3.9 26 7.6 39.2 11.5 6.4-21.7 12.7-43.3 19.2-65.1-29-8.5-57.8-17-86.9-25.6-1.1 3.7-2.1 7.2-3.1 10.7-4 13.4-7.9 26.8-11.8 40.3-.3 1.2-.8 1.8-2.1 2.1-1.6.4-3 1-4.9 1.7.6-2.1 1.1-3.9 1.6-5.7 4.9-16.6 9.8-33.3 14.7-49.9 1.1-3.9 3.9-5.4 7.7-4.3 28.5 8.4 57.1 16.8 85.6 25.2 3.9 1.2 5.4 3.9 4.3 7.9-6.2 21.2-12.4 42.4-18.7 63.6-1.2 3.9-4 5.5-7.9 4.3-11.8-3.4-23.5-6.9-35.3-10.4-1-.3-1.5-.7-1.5-1.8.2-1.3 0-2.7-.1-4.5z"></path><path class="st0" d="M156.4 84.4c0 1.1-1.1 1.8-2.4 2.4-9.6 4.5-19.2 8.9-28.7 13.4-5.3 2.5-10.7 4.9-16 7.5-1.1.5-1.7.5-2.5-.6C97 92.9 87.2 78.8 77.4 64.7c-1.3-1.8-1.2-3.5.2-4.5 1.4-1.1 3.1-.6 4.4 1.3 8.9 12.7 17.7 25.5 26.5 38.2.8 1.2 1.5 1.5 2.9.8 13.3-6.3 26.7-12.5 40-18.7.6-.3 1.3-.6 2-.7 1.7-.1 3 1.1 3 3.3zM142.2 137c0 1.6-.6 2.6-2 3-1.4.4-2.5 0-3.2-1.3-1.1-2.1-2.2-4.2-3.2-6.2-3.4-6.6-6.8-13.2-10.2-19.9l-.3-.6c-.7-1.6-.2-3.2 1.2-3.9 1.4-.7 3-.2 3.8 1.4 1.7 3.1 3.3 6.3 4.9 9.4l8.4 16.5c.3.6.5 1.2.6 1.6zM75.4 104.8c4.5-2.5 8.7-5 13-7.3 1.3-.7 2.7-.3 3.6 1.2.8 1.3.4 2.9-1 3.7-2.4 1.4-4.8 2.7-7.2 4.1-.3.2-.7.3-1 .2-2.4-.6-4.7-1.2-7.4-1.9z"></path>
		</symbol>
	
		<symbol id="de-02" viewBox="0 0 122.1 170.1">
			<path class="st0" d="M11.8 158.4h98.5v-131H87V15.7h23.4c7.8 0 11.6 3.7 11.6 11.6v129.5c0 2.9-.4 5.7-2 8.3-1.9 3.2-4.7 5-8.4 5H13.4c-6.7 0-13.5-6.2-13.5-13.5.1-42.5.1-85 .1-127.5 0-7.8 3.7-12.6 11.5-13.2 8.3-.6 16.6-.1 25.1-.1v11.4H11.8v131.2z"></path><path class="st0" d="M73.2 11.1c.1.1.2.1.3.1 6 .5 7.4 2.1 7.3 8.1v6.2c0 3.6-2.5 6.2-6.1 6.2H48.8c-3.7 0-6.1-2.5-6.1-6.1v-7.5c0-4.5 2.1-6.7 6.6-6.8.4 0 .7-.1 1.1-.1C52.8 3.1 56 0 61.9 0c5.8 0 9 3.1 11.3 11.1zm-16.7 0h10.7c-.3-3.4-2.7-5.6-5.6-5.4-2.9.1-5.1 2.4-5.1 5.4zM75.8 58.3h20.8c2.7 0 4.2 2.1 3 4.2-.7 1.3-1.9 1.6-3.3 1.6H55c-2.1 0-3.4-1.1-3.4-2.8 0-1.7 1.3-2.9 3.5-2.9 6.9-.1 13.8-.1 20.7-.1zM75.8 89.1H55c-2.2 0-3.6-1.4-3.4-3.2.2-1.6 1.4-2.6 3.4-2.6H96.6c2.2 0 3.6 1.4 3.4 3.2-.2 1.6-1.4 2.6-3.4 2.6H75.8zM75.7 114.1H55.3c-2.4 0-3.7-1.1-3.7-2.9 0-1.8 1.4-2.9 3.7-2.9h41c2.3 0 3.7 1.1 3.7 2.8 0 1.8-1.4 2.9-3.7 2.9-6.9.2-13.7.1-20.6.1zM75.8 133.4h20.9c1.4 0 2.7.5 3 1.9.2.9 0 2.2-.6 2.8-.6.6-1.8 1-2.8 1-5.9.1-11.8 0-17.6 0H54.9c-1.9-.1-3.2-1.2-3.3-2.8-.1-1.7 1.3-2.9 3.3-2.9h20.9zM32.5 60.9c2.7-2.8 5.1-5.2 7.5-7.6 1.5-1.5 3.3-1.5 4.5-.1 1.1 1.3.9 2.7-.2 3.8-3.2 3.3-6.4 6.5-9.7 9.7-1.2 1.2-2.7 1.2-4 0-2.1-2-4.1-4-6.1-6.1-1.2-1.3-1.2-2.8-.1-4 1.1-1.2 2.8-1.3 4.1 0 1.3 1.3 2.5 2.7 4 4.3zM32.4 85.9c2.7-2.7 5.1-5.2 7.6-7.6.7-.6 1.8-1.2 2.7-1.1.8.1 1.9 1 2.2 1.8.3.8.1 2.2-.5 2.8-3.2 3.4-6.5 6.7-9.8 9.9-1.2 1.2-2.8 1.1-4.1-.2-2-1.9-3.9-3.9-5.8-5.8-1.3-1.4-1.3-2.9-.1-4.1 1.2-1.2 2.7-1.2 4.1.1 1.2 1.3 2.3 2.7 3.7 4.2zM33.8 105.5c3.2 0 5.9 2.6 5.9 5.8 0 3.1-2.7 5.9-5.8 5.9-3.1 0-5.7-2.6-5.8-5.7-.1-3.3 2.5-6 5.7-6zM39.7 136.3c0 3.2-2.8 5.8-5.9 5.8-3.1-.1-5.7-2.7-5.7-5.8 0-3.2 2.6-5.8 5.8-5.9 3.1.1 5.8 2.8 5.8 5.9z"></path>
		</symbol>
	
		<symbol id="de-03" viewBox="0 0 119.9 170.1">
			<path class="st0" d="M91.6 162.5c1.1-2.1 2.2-3.9 3.3-5.9h12.3c4.2 0 6.7-2.5 6.7-6.7V12.8c0-4.2-2.5-6.7-6.7-6.7C81.2 6 55.1 6 29 6c-.5 0-1 0-1.8.1v9.1c0 2.5-.6 4.9-2 7-2.3 3.4-5.6 5-9.7 5.1-3.1.1-6.2 0-9.5 0v122.2c0 4.8 2.3 7.1 7.1 7.1h15.3c1 2 2.1 3.9 3.2 5.9H15.3c-1.7 0-3.4.1-5.1-.2C4 161.1 0 156.3 0 150V75.2 29.4c0-1.4.4-2.4 1.4-3.5C9.6 17.8 17.8 9.7 25.9 1.5c1-1 2-1.5 3.5-1.5h77.9c7.5 0 12.7 5.2 12.7 12.7v137.1c0 7.4-5.2 12.6-12.7 12.6-5.3.1-10.4.1-15.7.1z"></path><path class="st0" d="M76 111c.4-.5.8-1.1 1.3-1.7 3.1-3.2 5.9-3.2 9.1-.1 1.7 1.6 2.6 3.5 1.9 5.8-.4 1.3-1.4 2.5-2.4 3.5-1 1.1-1.5 1.9-.7 3.4.7 1.2 1.2 2.5 1.5 3.9.4 1.6 1.2 1.9 2.7 1.9 4.8-.1 6.2 1.4 6.1 6.2 0 1.2-.1 2.4-.4 3.6-.7 2.6-2.2 3.9-4.9 3.7-2.2-.2-3.4.6-3.8 2.7 0 .2-.1.4-.2.5-1.5 2.4-1.9 4.4 1 6.2.7.4 1 1.7 1.2 2.6.6 2.9-1.5 5.3-4.3 7-2.1 1.2-4.6.7-6.5-1.4-1.4-1.6-2.5-1.8-4.6-.9-3.1 1.3-5.2 2.3-5.1 6.4.1 4-3.3 6.1-7.3 5.8-3-.2-5.8-3.5-5.9-6.9v-.9c.3-1.6-.3-2.6-2-3-1.2-.3-2.4-.8-3.5-1.4-1.5-.9-2.4-.6-3.5.7-1.7 2.2-4.5 2.8-6.6 1.6-3.2-1.9-5-4.3-4.2-7.1.4-1.3 1.4-2.5 2.4-3.5.7-.8 1.1-1.3.5-2.4-.7-1.2-1.3-2.5-1.7-3.8-.5-1.7-1.4-2.3-3.2-2.3-4 .1-7-3-7.1-7.1 0-3.8 2.3-6.2 6.2-6.4 3.3-.2 3.3-.2 4.4-3.2.1-.2.1-.5.2-.7 1.6-2.6 1.9-4.9-.9-7.1-.8-.7-1-2.6-.9-3.9.4-2.8 2.4-4.6 4.9-5.6 2.5-.9 4.6.1 6.2 2.2.8 1 1.6 1.3 2.9.6 1.4-.8 3-1.3 4.6-1.8 1-.3 1.3-.9 1.3-1.9 0-4.5 1.5-5.9 6.1-5.9 1.3 0 2.5 0 3.8.2 2.7.5 3.8 1.7 3.6 4.4-.1 2.2.5 3.4 2.7 3.9 1.6.5 3.1 1.3 5.1 2.2zm-28 22.8c0 7.5 5.9 13.3 13.4 13.3 7.3-.1 13.3-6 13.2-13.3 0-7.4-6.1-13.4-13.5-13.3-7.2.1-13.1 6-13.1 13.3zM60.5 40.9H30.8c-2.1-.1-3.4-1.3-3.4-3.1.1-1.7 1.4-2.8 3.4-2.9h59.9c2 .1 3.3 1.2 3.4 2.9.1 1.7-1.3 3-3.4 3H72.5c-4 .1-8 .1-12 .1zM60.5 56.1H30.8c-2.1-.1-3.4-1.3-3.4-3.1.1-1.7 1.4-2.9 3.4-2.9h59.1c.5 0 1-.1 1.5 0 1.5.3 2.5 1.2 2.6 2.8.1 1.4-1.1 2.8-2.6 3-.5.1-1 0-1.5 0-9.8.2-19.6.2-29.4.2zM60.9 65.4h30.5c1.5.2 2.7 1.6 2.6 3-.1 1.6-1.1 2.5-2.6 2.8-.4.1-.8 0-1.1 0H30.7c-2.1-.1-3.4-1.3-3.4-3 .1-1.7 1.4-2.9 3.4-2.9h18.2c4 .1 8 .1 12 .1zM60.7 80.6h30.7c1.6.2 2.7 1.5 2.6 3-.1 1.6-1.1 2.5-2.6 2.9-.4.1-.8 0-1.1 0H30.9c-2.2 0-3.6-1.2-3.6-3 0-1.7 1.4-2.9 3.5-2.9h18.4c3.9-.1 7.7-.1 11.5 0z"></path>
		</symbol>
	
		<symbol id="de-04" viewBox="0 0 170.1 143.1">
			<path class="st0" d="M0 121.7h12.9v-3.3-80c0-7.9 4.7-12.6 12.5-12.6h44.5c-2.1 2-3.7 3.7-5.5 5.2-.4.4-1.2.3-1.8.4H25.2c-4.5 0-6.7 2.2-6.7 6.7v83.6h44.3c.1 1.1.1 2 .3 2.8.6 2.5 2.8 4.3 5.5 4.3h31.7c3.2 0 5.6-2.4 5.7-5.7 0-.4 0-.8.1-1.5h47.1c0-.7.1-1.2.1-1.8V37.6c0-1.3-.3-2.6-.9-3.7-1-1.8-2.6-2.7-4.7-2.7H142v-5.8c3 .3 6.1.1 9 .9 5 1.3 8 5.8 8 11.2V121.4h11.1c0 4.4.5 8.7-.1 12.8-.7 5.1-5.8 8.6-11.4 8.6H12.5C5 142.8.2 138 .2 130.5c-.2-2.6-.2-5.6-.2-8.8z"></path><path class="st0" d="M125.3 15.9c-2-1.9-3.7-3.5-5.5-5.2-.2.2-.7.7-1.2 1.1-14.4 14.4-28.9 28.8-43.3 43.3-.4.4-.8 1.1-1.3 1.2-.8.2-1.9.3-2.5 0-.9-.6-.8-1.6-.1-2.5.3-.4.7-.8 1.1-1.2l43.4-43.4c.5-.5.9-1 1.8-1.9-1.2-.1-1.9-.2-2.7-.2-2.6 0-5.4-.6-7.6.3-2.1.9-3.7 3.3-5.4 5.1C90.4 24 78.9 35.6 67.3 47.1c-.8.8-2 1.5-3.1 1.8-1.5.4-2.8-.4-3.6-1.8-.8-1.4-.7-2.9.3-4.2.4-.5.8-.9 1.2-1.3 13.3-13.3 26.7-26.6 40-40 1.2-1.2 2.5-1.8 4.3-1.8 3.9.1 7.8 0 11.6 0 1.6 0 2.9.5 4.1 1.7 3.9 4 7.8 7.9 11.7 11.8 1.4 1.4 2.1 2.9 2 4.9-.1 3.6.1 7.3-.1 10.9-.1 1.2-.6 2.8-1.5 3.6C120.6 46.4 107 60 93.4 73.6c-1.9 1.9-4.2 2.1-5.8.4-1.6-1.6-1.4-3.8.5-5.7 13-13 26-25.9 39.1-38.8 1.1-1.1 1.6-2.2 1.5-3.7-.1-2.1 0-4.3-.1-6.4 0-.4-.2-1-.5-1.2-.3-.1-.8.2-1.2.5-.4.3-.7.7-1 1l-43 43c-.4.4-.7.8-1.1 1.1-.9.8-2 1-2.6-.1-.4-.6-.2-1.7 0-2.5.1-.4.7-.8 1.1-1.2 14.4-14.4 28.8-28.9 43.3-43.3.6-.1 1.2-.4 1.7-.8zM61.1 54.7c-.2.8-.6 2.2-.9 3.5-1.2 4.1-2.3 8.1-3.6 12.2-.3 1.1-.3 1.9.6 2.7 1.5 1.3 2.9 2.7 4.2 4.2.9 1.1 1.8 1.1 3.1.8 5.2-1.4 10.4-2.7 15.6-3.9 1.7-.4 3 .3 4 1.7.9 1.4.9 2.9-.1 4.2-.6.7-1.5 1.4-2.5 1.6-10.7 2.8-21.4 5.5-32.2 8.2-3.3.8-5.7-1.7-4.8-5 3-10.5 6.1-21 9.2-31.5.6-2 2.3-3.1 4.2-2.8 2 0 3.3 1.5 3.2 4.1z"></path>
		</symbol>
	
		<symbol id="de-05" viewBox="0 0 146.7 170.1">
			<path class="st0" d="M36.6 15.7v11.6H11.8v131.2H80c1.4 0 2.4.4 3.3 1.4 3.2 3.3 6.6 6.6 10.1 10.1-.7.1-1.2.2-1.6.2h-78c-6.5 0-12.4-4.7-13.6-10.8-.2-.9-.2-1.7-.2-2.5V27.6C0 21 5.2 15.9 12.4 15.7c8-.2 16 0 24.2 0zM110.4 135.6V27.4H87V15.7H110.8c7.3 0 11.3 3.9 11.3 11.2v95.6c0 .7-.2 1.5-.6 2l-11.1 11.1z"></path><path class="st0" d="M101.7 153.6c.7-1 1-1.7 1.5-2.2 11-11 22-22 33-33.1 1.8-1.8 3.8-2.8 6.4-1.9 3.8 1.3 5.3 5.8 2.8 9-.4.5-.9 1-1.4 1.5l-37.7 37.7c-3.4 3.4-6.4 3.4-9.8 0l-20.3-20.3c-1.7-1.7-2.4-3.7-1.7-6 .7-2.2 2.2-3.5 4.4-4s4 .3 5.5 1.8l14.4 14.4c.9.9 1.6 1.7 2.9 3.1zM50.3 11.1C52.8 3 55.9 0 61.8 0s9.1 3.2 11.3 11c.1.1.2.1.3.2 5.6.3 7.3 2.1 7.4 7.7v6.6c0 3.7-2.4 6.2-6.1 6.2H48.8c-3.7 0-6.1-2.5-6.1-6.1v-7.5c0-4.5 2.1-6.7 6.6-6.8.3-.1.7-.1 1-.2zm16.8.1c-.1-3.3-2.7-5.7-5.7-5.5-2.9.2-5.2 2.7-4.9 5.5h10.6zM61.8 52.5h32.9c.9 0 2.1.2 2.7.8.6.7 1.1 2 .9 2.9-.3 1.6-1.7 2.1-3.2 2.1H28.3c-1.8-.1-3.1-1.4-3.1-3 .1-1.6 1.3-2.7 3.1-2.8h13.6c6.5-.1 13.2-.1 19.9 0 0-.1 0 0 0 0zM61.8 67.2h34c1.6.2 2.6 1.1 2.7 2.8.1 1.5-1.1 2.7-2.7 2.9H28.3c-1.9-.1-3.2-1.2-3.2-2.8-.1-1.7 1.3-2.9 3.3-2.9h33.4zM61.8 87.6H28.7c-1.5 0-2.7-.3-3.4-1.7-1-2.1.5-4 3.1-4h66c.5 0 1-.1 1.5 0 1.5.3 2.4 1.2 2.6 2.7.1 1.4-1 2.7-2.5 2.9-.7.1-1.3.1-2 .1-10.8.1-21.5.1-32.2 0zM61.7 98.1h34.2c1.5.2 2.6 1.5 2.5 2.9-.1 1.5-1 2.4-2.5 2.8-.4.1-.7 0-1.1 0-22.1 0-44.1 0-66.2-.1-1.1 0-2.4-.6-3.1-1.4-.5-.5-.5-2.1-.1-2.6.7-.8 2-1.6 3-1.6 6.4-.1 12.7-.1 19.1-.1 4.8.1 9.5.1 14.2.1zM61.7 112.8h34.2c1.5.2 2.6 1.5 2.5 2.9-.1 1.5-1 2.5-2.5 2.8-.5.1-1 0-1.5 0h-66c-2.1 0-3.5-1.2-3.5-2.9s1.4-2.8 3.4-2.8H61.7z"></path>
		</symbol>
	
		<symbol id="de-06" viewBox="0 0 170.1 117.2">
			<path class="st0" d="M158.6 95.8h11.3c0 3.9.4 7.8-.1 11.5-.7 6-5.5 9.8-11.5 9.8h-146c-7.5 0-12.3-4.8-12.3-12.3v-9h12.9v-2.5V12c0-7.1 4.9-12 12.1-12h121.2c5.9 0 10.2 2.8 11.8 7.9.4 1.4.6 2.9.6 4.4v83.5zm-95.9 0c.5 5.6 2.3 7.2 7.6 7.2h29.1c4 0 6.2-2.1 6.4-6.1 0-.3.1-.7.2-1.1h47v-2.1-23.1V12c0-3.3-1.7-5.7-4.5-6.2-1.1-.2-2.3-.1-3.4-.1H24.8c-4.1 0-6.4 2.3-6.4 6.4v83.7h44.3z"></path><path class="st0" d="M101.7 82.5c-.1-.3-.1-.3-.1-.4-.3-5.7-.3-5.7 4.7-8.3 3.4-1.8 6.8-3.5 10.1-5.3.5-.3 1-.6 1.8-1-5.7-3-11.2-5.8-16.6-8.7v-6.2c.6.2 1 .4 1.5.6 7.1 3.7 14.1 7.4 21.2 11 1 .5 1.6 1.1 1.4 2.3-.1.8.1 1.7-.1 2.5-.1.5-.4 1.2-.8 1.4-7.5 4.1-15.2 8.1-23.1 12.1zM68.5 82.6c-2.9-1.6-5.6-3.1-8.3-4.6-4.3-2.4-8.6-4.8-13-7.1-1.1-.6-1.6-1.2-1.5-2.5.1-.8-.1-1.7.1-2.5.1-.5.3-1.1.7-1.3 7.2-4 14.5-8 22-12.2 0 2.1.1 4-.1 5.8 0 .4-.7.9-1.2 1.1-4.5 2.4-9 4.7-13.4 7-.6.3-1.1.6-2 1.1.8.4 1.4.8 2 1.1 4.4 2.3 8.8 4.6 13.3 6.9 1.1.5 1.4 1.2 1.4 2.3-.1 1.6 0 3.1 0 4.9zM94.6 47.2c-1.8 5.6-3.6 11-5.3 16.3-2.7 8.2-5.5 16.4-8.1 24.6-.5 1.6-1.2 2.1-2.7 1.9-.9-.1-1.9 0-3.1 0 .2-.8.3-1.4.5-2 4.2-12.9 8.5-25.9 12.7-38.8.5-1.6 1.2-2.2 2.9-2 .8.1 1.8 0 3.1 0zM92.7 28.1c4.3-2.3 5.5-2.2 8.4.5 1.5-.7 2.9-1.6 4.4-2 2.4-.7 4.9.8 5.1 3.2.3 3.6.1 7.2.1 10.9h-4.2v-8.1c0-2.4-1.5-3.4-3.6-2.4-.6.3-1.2 1.2-1.2 1.8-.1 2.2-.2 4.4 0 6.6.1 1.8-.6 2.3-2.2 2.1-.6-.1-1.3 0-2.1 0v-8.2c0-2.4-1.5-3.4-3.7-2.4-.5.3-1.1 1.1-1.1 1.7-.1 2.3-.1 4.6 0 7 .1 1.5-.4 2.1-1.9 1.9-.8-.1-1.5 0-2.4 0V26.9c2.7-.4 3.6-.2 4.4 1.2zM56.6 21.5h4.2v6.6c1.5-.6 2.8-1.2 4.1-1.5 3-.6 5.3 1.1 5.5 4.1.2 3 .1 5.9.1 8.9 0 .9-.3 1.3-1.3 1.3h-3.1V33c-.1-2.6-1.4-3.5-3.9-2.7-1 .3-1.4.9-1.4 1.9.1 2.3-.1 4.6 0 7 .1 1.4-.5 1.9-1.9 1.8-.8-.1-1.5 0-2.4 0 .1-6.6.1-12.9.1-19.5zM79.5 23v3.8h4.1v2.9c-1.3.1-2.6.1-4 .2 0 2.2-.1 4.4 0 6.5.1 1.7 1.1 2.1 3.7 1.6.8 2.5.5 3-1.9 3.1H80c-3.6-.1-4.8-1.4-4.9-4.9V30c-.6-.1-1.1-.2-1.7-.3V27c.5-.1 1-.2 1.7-.3V23h4.4zM114.6 21.6h3.9v19.7h-3.9V21.6z"></path>
		</symbol>
	
		<symbol id="de-07" viewBox="0 0 170 170.1">
			<path class="st0" d="M128.4 110.9c6.8 6.8 13.5 13.4 20.2 20.1 5.9 5.9 11.8 11.7 17.6 17.6 6.7 6.8 4.1 18-4.8 20.8-5 1.6-9.3.3-12.9-3.3-11.9-11.9-23.8-23.7-35.6-35.6-.6-.6-1.2-1.4-1.8-2.2-19.3 12.6-39.7 16.1-61.4 9.5-16.4-5-29.3-15-38.6-29.4-18.5-28.6-13.3-67.3 12-90 26.1-23.5 64.4-24.6 91.8-2.6 26.5 21.2 35.9 62 13.5 95.1zm-116-40.6c-.1 32.3 25.9 58.3 58.2 58.3 31.6.1 57.9-26 58-57.6.1-32.4-25.8-58.6-57.9-58.6-32.2 0-58.3 25.9-58.3 57.9z"></path><path class="st0" d="M40.5 89.9c-1.3-3.1-2.6-5.9-3.7-8.8-.4-1-.8-1.3-1.8-1.3-1.8-.1-3.7-.1-5.3-.8-4.4-1.9-6.3-9-3.7-13.1 1.6-2.4 4-3.2 6.8-3.2 3.6-.1 3.6-.1 4.8-3.4.8-2.1 1.6-4.1 2.6-6.1.5-.9.4-1.5-.3-2.2-.9-.9-1.7-1.8-2.5-2.8-1.3-1.5-1.8-3.4-1.5-5.3.7-3.8 3.2-6.2 6.6-7.6 3.3-1.3 6.1 0 8.1 2.6 1.3 1.7 2.5 1.9 4.4.8 2-1.1 4.2-1.8 6.4-2.5 1-.3 1.4-.8 1.3-1.8-.1-.6 0-1.3 0-2 0-4.1 1.9-6.6 6-7.1 2-.3 4.2-.2 6.2.2 3.2.6 4.9 2.9 4.9 6.1 0 1.4-.4 3.2.3 4.2.6.9 2.4 1 3.7 1.5 1.2.5 2.5.9 3.6 1.6 1.9 1.4 3.2.9 4.6-.8 1.6-2 3.6-3.5 6.4-3.3 4.2.2 6.6 3 8.3 6.4 1.5 3 .6 6-1.9 8.1-2.4 2.1-3.2 4-1.3 6.9.9 1.4 1.4 3.2 1.8 4.9.3 1.3 1 1.6 2.2 1.6 1.8 0 3.7 0 5.4.4 2.4.5 4.1 2 4.4 4.5.2 2.4.2 4.9-.4 7.1-.9 3.6-3.6 5.1-7.6 5.1-3.4 0-3.4 0-4.6 3.1-.8 2.1-1.8 4-2.8 6.3.9.8 1.8 1.6 2.8 2.5 3.2 2.9 3.5 7.3.5 10.4-1.7 1.8-3.3 3.6-5.9 3.9-3.1.4-5.5-1-7.3-3.3-1.4-1.7-2.6-2-4.6-.8-1.7 1.1-3.8 1.8-5.8 2.4-1.4.4-1.8 1.1-1.7 2.5 0 1.6 0 3.2-.3 4.7-1.1 4.5-4.5 6.5-9.8 5.9-3.6-.4-7.1-3.9-6.8-7.6.3-3.7-1-5.4-4.5-6.1-1.4-.2-2.8-.9-3.9-1.7-1.4-.9-2.3-.6-3.2.6-1.9 2.4-4.2 3.9-7.4 3.5-3-.4-7.2-4.3-7.7-7.3-.4-2.6.2-4.8 2.1-6.6.5-.8 1.4-1.6 2.1-2.3zm13-19.4C53.4 80.1 61.2 88 71 88.2c9.5.1 17.6-7.8 17.7-17.3 0-9.9-7.7-17.9-17.4-18-9.8-.2-17.8 7.7-17.8 17.6z"></path>
		</symbol>
	
		<symbol id="de-08" viewBox="0 0 170.1 147">
			<path class="st0" d="M154.6 101.8c-1.4-.5-2.4.1-3.4 1l-17.5 17.5c-.3.3-.4.6-.8 1.2-.7-.8-1-1.2-1.4-1.6-2.5-2.6-5.1-5.1-7.6-7.6-.8-.8-1.8-1.2-2.9-1-1.2.3-2 .9-2.3 2.1-.4 1.3 0 2.3.9 3.2l10.7 10.7c1.8 1.8 3.4 1.8 5.2 0l20-20c.3-.3.5-.5.7-.8 1.2-1.6.5-4-1.6-4.7z"></path><path class="st0" d="M12.1 121.3V47.1h138v30.4c4.1 2.3 8 4.4 11.9 6.6 0 0 .1-.2.1-.3 0-21.5.1-43.1 0-64.6 0-5.5-4.2-10.1-9.6-11.2-.9-.2-1.9-.3-2.8-.3h-16.1v12.1H150V41H12.1V19.7h18v-12H12.6C5.2 7.6 0 12.7 0 20.2v100.6c0 7.2 5.2 12.4 12.5 12.4h89.7c.5 0 .9 0 1.3-.1-1.4-4-2.8-7.9-4.3-12-28.9.2-58 .2-87.1.2z"></path><path class="st0" d="M137.6 82.1c-17.7-.2-32.3 14.4-32.4 32.2-.1 17.9 14.3 32.6 32.1 32.7 17.8.1 32.6-14.3 32.8-31.9.2-18.3-14.2-32.9-32.5-33zm0 58.9c-14.5 0-26.5-11.9-26.5-26.5 0-14.5 11.9-26.6 26.4-26.6 14.5 0 26.7 11.8 26.7 26.2 0 15-11.7 26.9-26.6 26.9zM72.6 7.7H48.7v11.8h23.9V7.7zM115 7.7H91.1v11.7H115V7.7zM43.5 32.3c2.5-2.4 2.5-6.2-.1-8.6-.9-.8-1.1-1.7-1.1-2.8v-8.3c0-3.2.1-6.3 0-9.5C42.2.7 40.1-.7 38.1.3c-1.4.7-1.8 1.8-1.7 3.3 0 5.8.1 11.6 0 17.4 0 .9-.5 1.9-1.1 2.5-2.4 2.5-2.6 6.1-.3 8.5 2.3 2.5 6.1 2.6 8.5.3zM86.1 32.1c2.4-2.5 2.2-6.1-.3-8.6-.5-.5-.9-1.5-1-2.2-.1-2.9 0-5.8 0-8.7V3.7c0-2.3-1.1-3.7-2.9-3.7-1.8 0-3 1.4-3 3.8v17.4c0 .8-.5 1.8-1 2.4-2.5 2.6-2.6 6.2-.2 8.6 2.3 2.4 6.1 2.3 8.4-.1zM128.1 32.5c2.4-2 3.1-5.7.9-7.9-1.8-1.8-1.8-3.8-1.8-6v-6.2-8.7c0-2.3-1.1-3.7-2.9-3.7-1.8-.1-3 1.4-3 3.7v17c0 1.3-.3 2.2-1.3 3.1-2.4 2.2-2.3 5.8-.1 8.2 2.2 2.4 5.7 2.6 8.2.5zM57.6 71.1c3.3-.1 6-2.9 5.9-6.1-.1-3.3-2.9-6-6.2-5.9-3.2.1-5.8 2.8-5.8 6 .1 3.3 2.9 6.1 6.1 6zM81.9 71.1c3.2 0 5.9-2.7 6-5.9.1-3.2-2.7-6.1-5.9-6.1-3.3 0-6 2.7-6.1 6-.1 3.3 2.7 6 6 6zM112.1 65.2c0-3.3-2.7-6-6-6.1-3.2 0-5.9 2.7-6 5.8-.1 3.2 2.6 6.1 5.9 6.1 3.2.2 6-2.5 6.1-5.8zM124.4 65.1c0 3.3 2.7 6 6 6.1 3.3 0 6-2.8 6-6 0-3.3-2.8-6-6.1-6-3.2 0-5.9 2.7-5.9 5.9zM39.3 84.8c0-3.3-2.8-6-6.1-6-3.2 0-5.9 2.7-5.9 5.9 0 3.3 2.7 6.1 6 6.1 3.2.1 6-2.7 6-6zM57.6 78.9c-3.2 0-5.9 2.7-6 5.9-.1 3.3 2.6 6.1 5.9 6.1 3.2.1 6.1-2.7 6.1-6s-2.8-6-6-6zM82 78.9c-3.3-.1-6.1 2.6-6.1 5.9-.1 3.3 2.7 6.1 5.9 6.1s5.9-2.6 6.1-5.8c.1-3.3-2.6-6.1-5.9-6.2zM106.2 90.8c3.3-.1 6-2.8 5.9-6.1-.1-3.3-2.9-6-6.1-5.9-3.2.1-5.8 2.8-5.8 6-.1 3.3 2.7 6.1 6 6zM33.2 110.6c3.3 0 6-2.7 6.1-6 0-3.2-2.7-6-6-6-3.2 0-5.9 2.7-6 5.9-.1 3.2 2.7 6 5.9 6.1zM51.6 104.6c0 3.3 2.8 6 6.1 6 3.2 0 5.9-2.7 5.9-5.9 0-3.3-2.7-6.1-6-6.1s-6 2.7-6 6zM75.8 104.5c-.1 3.3 2.7 6.1 5.9 6.1 3.3 0 6-2.7 6.1-6 0-3.3-2.8-6-6-6s-5.9 2.7-6 5.9z"></path>
		</symbol>
	
		<symbol id="de-09" viewBox="0 0 170.1 141.3">
			<path class="st0" d="M170 141.3H.1v-5.8C.1 94.9.2 54.3 0 13.7 0 4.9 6.8 0 13.8 0h143.4c8 0 12.8 4.8 12.8 12.9v126.4c.1.6 0 1.2 0 2zM163.8 35H6.4v100h157.4V35zM19.2 25.4c3.5 0 6.4-3 6.3-6.5 0-3.6-2.9-6.4-6.5-6.3-3.6 0-6.4 2.9-6.3 6.5 0 3.6 2.9 6.4 6.5 6.3zm50.6 0c3.6.1 6.5-2.7 6.6-6.3.1-3.6-2.7-6.5-6.3-6.6-3.6-.1-6.5 2.7-6.6 6.3 0 3.6 2.8 6.6 6.3 6.6zM44.6 12.6c-3.6 0-6.4 2.8-6.5 6.4 0 3.6 2.8 6.5 6.4 6.5 3.6 0 6.5-2.8 6.5-6.4 0-3.6-2.9-6.5-6.4-6.5z"></path><path class="st0" d="M129.1 90.4c2 4.9 3.8 9.6 5.8 14.5h6.2c6.2 0 9.9 3.7 9.9 9.9 0 2.1 0 4.3-.4 6.3-.9 4.4-4.6 7.4-8.9 7.5-8.7.1-17.5 0-26.2 0-.2 0-.5-.1-.9-.1 3.1-8.1 3.3-16.1.1-24.1-2.4-6-6.3-10.8-11.7-14.5-10.7-7.3-25-7.6-35.5-.1-13.6 9.7-16.9 22.9-11.9 38.7H30.7c-6.8 0-11.5-4.7-11.5-11.5 0-7.4 2.7-11 9.2-12.1.8-.1 1.7-.1 2.6-.1h4.4c2.1-5.1 4.1-10 6.2-15.4-1-1.1-2.3-2.5-3.6-4-4.3-4.6-4-10.2.2-14.9 5.9-6.8 13.1-7.2 19 .1 1.3 1.6 2.3 1.6 4.1.7 3.4-1.7 7.1-2.9 10.7-4.3 1-.4 1.5-.7 1.5-1.9-.1-1.4 0-2.9 0-4.4.1-4.8 3.1-8.7 7.9-9.6 2.6-.5 5.3-.6 7.9-.3 4.8.5 7.7 4.1 7.9 9.2.1 1.9-.1 3.7.1 5.6 0 .6.6 1.4 1.2 1.6 4.1 1.8 8.1 3.4 12.3 5.1.5.2 1.4.1 1.9-.2 1.6-1.3 3-2.8 4.6-4.1 4.2-3.7 10.2-3.6 14.2.4 1.8 1.8 3.7 3.8 4.7 6 1.8 3.8 1 7.5-1.8 10.7-2 2-3.8 3.7-5.3 5.3z"></path>
		</symbol>
	
		<symbol id="design" viewBox="0 0 73.7 73.7">
			<path d="M44.3 19h-6.9v-.6c0-.9-.2-1.1-1.1-1.1H25.2c-.7 0-.9.2-.9.9v.8h-6.8c-.9 0-1.1.2-1.1 1.1v35.2c0 1 .2 1.1 1.1 1.1h26.4c1.2 0 1.2-.1 1.2-1.2V20c.2-.9 0-1-.8-1zm-18.5-.3H36v2H25.8v-2zM43.7 52H17.9V20.5h6.3v.8c0 .7.2.9.9.9h11.3c.6 0 .8-.2.9-.9v-.9h6.4V52zM57.1 31.9c0-.3-.1-.7-.2-1-.8-1.8-1.7-3.5-2.6-5.3-.5-1-.9-2-.8-3.2v-.3c-.2-.2-.5-.5-.7-.5-.2 0-.5.3-.6.6-.1.2-.1.5 0 .8.1.7-.1 1.4-.5 2.1-.9 1.9-1.9 3.8-2.8 5.7-.2.4-.3 1-.3 1.5v19.9c0 1.8 1.1 3.2 2.8 3.6.6.1 1.3.1 1.9.1 2.2 0 3.7-1.5 3.7-3.7.1-6.9.1-13.6.1-20.3zm-4.3-6c1 2 1.9 3.8 2.8 5.7-1.2.9-4.1.9-5.6 0 .9-1.9 1.9-3.8 2.8-5.7zm2.3 23.5c-1.6.5-3.1.5-4.6 0-.3-.1-.5-.3-.5-.7V33.8v-.4c1.9.5 3.7.6 5.6 0v15.2c.1.4-.1.6-.5.8z"></path><path d="M22.2 28.2c-.8 0-1 .2-1 1v8.9c0 .9.1 1.1 1.1 1.1h17.5c.8 0 1-.2 1-1v-9.1c0-.7-.2-.9-1-.9H22.2zm17.3 9.5H22.7v-8h16.8v8zM28.2 41.2h-6c-.7 0-.9.2-.9.9V48c0 .7.2.9.9.9h6.1c.7 0 .9-.2.9-.9v-5.9c0-.7-.2-.9-1-.9zm-.5 6.3h-5.1v-4.8h5.1v4.8zM31.7 45.8h8.7v-1.4h-8.7v1.4zM40.4 41.5h-8.7v1.4h8.7v-1.4zM31.7 48.7h8.7v-1.3h-8.7v1.3zM25.9 24.7h-4.6v1.4h4.6v-1.4zM33.1 24.7h-4.6V26h4.6v-1.3zM35.9 26h4.6v-1.3h-4.6V26z"></path>
		</symbol>
	
		<symbol id="domain_hosting" viewBox="0 0 52 52">
			<g transform="matrix(.62359 0 0 .6695 10.227 9.034)"><path d="M19 48h16v2H19z"></path><path d="M26 38.719h2V49h-2z"></path><path d="M50 38.754H2V2h48zm-46-2h44V4H4z"></path><path d="M3 9.723h46v2H3zM3 19.377h46v2H3zM3 28.065h46v2H3zM38 5.861h3v2h-3zM38 14.55h3v2h-3zM38 23.238h3v2h-3zM38 31.927h3v2h-3z"></path><g><path d="M11.5 5.861h10v2h-10z"></path></g><g><path d="M11.5 14.55h10v2h-10z"></path></g><g><path d="M11.5 23.238h10v2h-10z"></path></g><g><path d="M11.5 31.927h10v2h-10z"></path></g></g>
		</symbol>
	
		<symbol id="facebook" viewBox="0 0 26.3 56.7">
			<path class="st0" d="M17.3 28.4v28.3H5.6V28.4H0V18.3h5.5v-5.7c0-1.4.1-2.9.4-4.3 1-4.6 4.2-7.7 8.9-8.2C18.5-.3 22.2 0 26 0v9.6h-5.7c-2.3 0-3.1.8-3.1 3v5.6h9c-.3 2.6-.5 5.1-.7 7.6-.3 2.5-.3 2.5-2.9 2.5-1.7.1-3.4.1-5.3.1z"></path>
		</symbol>
	
		<symbol id="free_audit" viewBox="0 0 73.7 73.7">
			<path d="M50.7 33.3c0-4.6-1.8-8.9-5.1-12.2-3.3-3.3-7.5-5.1-12.1-5.1s-9 1.8-12.2 5.1c-3.2 3.3-5 7.6-5 12.3 0 4.5 1.8 8.8 5.1 12.1 3.3 3.2 7.6 5 12.1 5 9.5 0 17.2-7.8 17.2-17.2zM33.2 48.6c-8.2-.1-15.1-7.1-15.1-15.4.1-8.5 6.9-15.3 15.4-15.3h.1c4.1 0 7.9 1.7 10.8 4.6 2.9 2.9 4.5 6.8 4.4 10.8 0 4.1-1.7 8-4.6 10.8-2.9 3-6.9 4.5-11 4.5z"></path><path d="M57 52.3c-.9-.9-1.9-1.9-2.8-2.9-1.5-1.5-3-3-4.5-4.6-.2-.2-.5-.4-.8-.5-.1-.1-.2-.1-.3-.2l-.3-.1-.3.2c-.1.1-.2.1-.4.2-.3.1-.5.3-.8.5-.7.7-1.4 1.4-2.1 2l-.2.2c-.8.8-.8 2 0 2.8l4.2 4.2c1.1 1.1 2.2 2.1 3.2 3.2.2.2.5.4.8.4.3 0 .5-.1.8-.4 1.2-1.2 2.3-2.3 3.4-3.3.3-.3.4-.5.4-.8.1-.4 0-.7-.3-.9zM42.2 31.4c-.4-.1-.8-.1-1.1-.1-.3 0-.4-.1-.5-.3-.1-.4-.2-.7-.4-1-.4-.6-.2-1 .3-1.4.5-.4.7-1.1.4-1.7-.3-.7-.9-1.3-1.7-1.3-.6 0-1 .3-1.3.7-.3.3-.6.5-1 .2-.2-.2-.5-.2-.7-.3-.3-.1-.6-.1-.8-.3-.1-.2-.1-.6-.1-.9 0-.7-.4-1.2-1-1.3-.4-.1-.9-.1-1.3 0-.9.1-1.2.6-1.2 1.5v.4c0 .2-.1.3-.3.4-.5.1-.9.3-1.3.5s-.6.2-.9-.2c-.4-.5-1-.8-1.7-.5-.7.3-1.2.8-1.4 1.6-.1.4 0 .8.3 1.1.2.2.3.4.5.6.1.1.2.3.1.5-.2.4-.4.8-.5 1.3-.3.7-.2.7-1 .7-.6 0-1.1.2-1.4.7-.5.9-.1 2.3.8 2.7.3.1.7.1 1.1.2.2 0 .3.1.4.3.2.6.5 1.2.8 1.8-.2.1-.3.3-.5.5-.4.4-.5.8-.4 1.4.1.6 1 1.4 1.6 1.5.7.1 1.2-.2 1.6-.7.2-.3.4-.3.7-.1.2.2.5.3.8.4.7.1 1 .5.9 1.3-.1.8.7 1.5 1.4 1.6 1.1.1 1.8-.3 2-1.2.1-.3.1-.6.1-1 0-.3.1-.4.4-.5.4-.1.8-.3 1.2-.5.4-.3.7-.2 1 .2.4.5.9.8 1.5.7.5-.1.9-.5 1.2-.8.6-.7.6-1.6-.1-2.2-.2-.2-.4-.4-.6-.5.2-.5.4-.9.6-1.3.3-.7.2-.7 1-.7s1.4-.3 1.6-1.1c.1-.5.1-1 .1-1.5-.4-.9-.7-1.3-1.2-1.4zm-8.8 5.3c-2 0-3.7-1.7-3.7-3.7 0-2.1 1.7-3.7 3.7-3.7S37 31 37 33.1c.1 2-1.6 3.6-3.6 3.6z"></path>
		</symbol>
	
		<symbol id="garantii" viewBox="0 0 138.2 170.1">
			<path d="M112.3 75.9v62.7c0 8.2-5 13.2-13.2 13.3H12.7c-7.5 0-12.7-5.2-12.7-12.7V12.9C0 5.1 5.1 0 12.9 0h86.4c8 0 13.1 5.1 13.1 13.1-.1 20.9-.1 41.9-.1 62.8zm-106.4 0v63.3c0 4.2 2.5 6.7 6.7 6.7h86.8c4.5 0 6.9-2.4 6.9-6.9V13.1c0-4.8-2.3-7.1-7.1-7.1H12.8c-4.5 0-6.9 2.4-6.9 6.9v63z"></path><path d="M25.9 158.1h5.3c.8 1.4 1.3 2.9 2.3 4.1 1.2 1.5 3 1.9 4.9 1.9h87.4c3.8 0 6.4-2.6 6.4-6.3V30.6c0-3.9-2.6-6.4-6.5-6.4h-7.1v-5.8c3.1 0 6.3-.4 9.3.1 6.3.9 10.2 5.9 10.2 12.2v126.1c0 8.2-5 13.3-13.2 13.3H38.5c-6.7 0-11.6-4.2-12.6-10.6v-1.4z"></path><path d="M75.1 86.5H62.8c-4 0-6.5-2.5-6.5-6.6v-23c0-4.4 2.4-6.8 6.8-6.8h24.3c4.3 0 6.7 2.4 6.7 6.7v23c0 4.1-2.5 6.6-6.7 6.6h-6.3c-2 .1-4 .1-6 .1zM56.2 25.7H20.9c-1.5-.2-2.7-1.6-2.6-3 .1-1.6 1-2.5 2.6-2.8.5-.1 1.1 0 1.7 0h68.9c1.6.2 2.7 1.6 2.6 3-.1 1.6-1.1 2.5-2.6 2.8-.5.1-1 0-1.5 0H56.2zM56.1 35h35.3c1.6.2 2.7 1.5 2.6 3-.1 1.6-1 2.5-2.6 2.9-.5.1-1 0-1.5.1H21.8c-2.2 0-3.6-1.2-3.6-3 0-1.7 1.4-2.9 3.5-2.9h19.7c5-.1 9.9-.1 14.7-.1zM56.3 95.7H91c1.8.1 3.1 1.4 3.1 3s-1.3 2.9-3.1 2.9c-3.5.1-7.1 0-10.6 0H21.2c-1.7-.2-2.9-1.4-2.9-3 0-1.5 1.2-2.8 2.9-2.9 1.6-.1 3.2 0 4.7 0h30.4zM56.2 116.9H21.5c-1.9-.1-3.2-1.4-3.2-3 .1-1.6 1.3-2.8 3.2-2.9 4-.1 8.1 0 12.1 0h57.9c1.6.2 2.7 1.6 2.6 3-.1 1.6-1.1 2.5-2.6 2.8-.5.1-1 0-1.5 0-11.3.1-22.6.1-33.8.1zM56 132.1H22.1c-2.4 0-3.8-1.2-3.8-3s1.5-2.9 3.9-2.9h68.6c2.1.1 3.5 1.3 3.4 3 0 1.7-1.4 2.9-3.5 2.9H56zM34 56.1H21.9c-2.2 0-3.7-1.2-3.7-3s1.4-3 3.6-3h24.4c2.2 0 3.7 1.2 3.7 2.9 0 1.8-1.4 3-3.6 3-4 .1-8.2.1-12.3.1zM34.3 65.4h11.9c2.3 0 3.7 1.1 3.7 2.9.1 1.8-1.4 3-3.8 3H21.8c-2.3 0-3.7-1.1-3.7-2.9-.1-1.9 1.4-3 3.8-3 4.2-.1 8.3 0 12.4 0zM33.9 86.5H22c-2.4 0-3.8-1.2-3.8-3 .1-1.8 1.4-2.9 3.7-2.9h24.3c2.4 0 3.8 1.2 3.8 3-.1 1.8-1.5 2.9-3.7 2.9H33.9z"></path>
		</symbol>
	
		<symbol id="hosting" viewBox="0 0 100 100">
			<g transform="matrix(.87567 0 0 .84727 7.488 8.696)"><path d="M46.559 76.544h-3.25v-4.771h11.408V59.817c0-2.482 2.02-4.5 4.5-4.5h4.609a1.973 1.973 0 0 0-.965-.258H43.309v-3.156h19.553a2 2 0 0 0 2-2V37.19a2 2 0 0 0-2-2H43.309v-3.156h19.715a2 2 0 0 0 2-2V17.319a2 2 0 0 0-2-2h-44.94a2 2 0 0 0-2 2v12.715a2 2 0 0 0 2 2h19.391v3.156H17.92a2 2 0 0 0-2 2v12.713a2 2 0 0 0 2 2h19.555v3.156H17.92a2 2 0 0 0-2 2v12.713a2 2 0 0 0 2 2h19.555v4.771h-3.25c-1.656 0-3 1.344-3 3v1.916c0 1.656 1.344 3 3 3h12.334c1.656 0 3-1.344 3-3v-1.916a3 3 0 0 0-3-2.999zm.345-17.627h1v9h-1zm13.157-21.521a2.218 2.218 0 1 1 .001 4.437 2.218 2.218 0 0 1-.001-4.437zm-3.881.984a1.234 1.234 0 1 1 0 2.468 1.234 1.234 0 0 1 0-2.468zm-9.276.668h1v9h-1zM20.775 28.177h-1v-9h1zm4.166 0h-1v-9h1zm4.75 0h-1v-9h1zm4.625 0h-1v-9h1zm25.907-10.651a2.218 2.218 0 1 1 .001 4.437 2.218 2.218 0 0 1-.001-4.437zm-3.881.985a1.234 1.234 0 1 1 0 2.468 1.234 1.234 0 0 1 0-2.468zm-9.276.666h1v9h-1zm-4.75 0h1v9h-1zM20.611 48.048h-1v-9h1zm4.168 0h-1v-9h1zm4.75 0h-1v-9h1zm4.625 0h-1v-9h1zM20.611 67.917h-1v-9h1zm4.168 0h-1v-9h1zm4.75 0h-1v-9h1zm4.625 0h-1v-9h1zm4.25 0h-1v-9h1zm0-19.869h-1v-9h1zm.162-19.871h-1v-9h1zm4.588 39.74h-1v-9h1zm0-19.869h-1v-9h1z"></path><path d="M29.896 77.749h-5.299v5.332h5.299a4.477 4.477 0 0 1-.34-1.707v-1.916a4.518 4.518 0 0 1 .34-1.709zM50.547 77.749c.219.527.342 1.104.342 1.709v1.916c0 .604-.123 1.18-.342 1.707h4.17v-5.332z"></path><g><path d="M81.08 57.817H60.217a3 3 0 0 0-3 3V81.68c0 1.656 1.344 3 3 3H81.08a3 3 0 0 0 3-3V60.817c0-1.658-1.342-3-3-3zM70.648 80.165c-4.916 0-8.916-4-8.916-8.916 0-4.918 4-8.918 8.916-8.918 4.918 0 8.918 4 8.918 8.918 0 4.916-4 8.916-8.918 8.916z"></path></g><path d="M69.529 66.911a3.652 3.652 0 0 0 .754 4.602 1.905 1.905 0 0 0-.063.086l-.342.582a.714.714 0 0 0-.037.08.46.46 0 0 0-.428.221l-2.42 4.107a.454.454 0 0 0 .162.617l.816.479a.445.445 0 0 0 .615-.16l2.42-4.105a.45.45 0 0 0-.014-.477.609.609 0 0 0 .051-.074l.342-.582c.02-.031.033-.064.047-.098a3.647 3.647 0 0 0 4.389-1.57 3.646 3.646 0 0 0-1.299-4.99 3.64 3.64 0 0 0-4.993 1.282zm5.301 3.098a2.48 2.48 0 0 1-3.402.875 2.48 2.48 0 1 1 2.519-4.277 2.484 2.484 0 0 1 .883 3.402z"></path></g>
		</symbol>
	
		<symbol id="insta" viewBox="0 0 56.7 56.6">
			<path class="st0" d="M28.5 56.6c-3.9 0-7.8.1-11.7 0C7.1 56.4.6 50.6.2 41c-.3-8.9-.2-17.8.1-26.7C.7 6.4 7 .3 14.9.2c9-.2 17.9-.2 26.9 0 8 .2 14.5 6.7 14.7 14.8.2 8.9.2 17.8 0 26.7-.2 7.9-6.3 14.2-14.2 14.7-4.6.3-9.2 0-13.9 0 .1.1.1.1.1.2zm23.1-28.3c-.1-4.3.1-8.6-.1-12.9-.2-5.7-4.1-9.5-9.8-10h-.5c-8.5 0-17.1-.2-25.6.1-6.5.1-10.2 4.3-10.2 10.9 0 7.9-.1 15.8 0 23.7 0 1.6.3 3.3.9 4.8 1.5 4.1 5.3 6.4 10.4 6.4H40c7.2 0 11.5-4.4 11.6-11.6V28.3z"></path><path class="st0" d="M13.8 28.1c0-8.1 6.6-14.6 14.7-14.6 8 .1 14.5 6.7 14.5 14.7 0 8-6.7 14.5-14.7 14.5-8.1 0-14.5-6.5-14.5-14.6zm23.9.1c0-5.1-4.2-9.3-9.3-9.4-5.1 0-9.4 4.2-9.4 9.4 0 5.1 4.2 9.3 9.3 9.3 5.2 0 9.4-4.1 9.4-9.3zM46.8 13.3c0 1.8-1.5 3.2-3.3 3.2-1.8 0-3.3-1.5-3.3-3.3 0-1.8 1.5-3.3 3.4-3.3 1.8.1 3.3 1.6 3.2 3.4z"></path>
		</symbol>
	
		<symbol id="konsultaciya" viewBox="0 0 167.2 170.1">
			<path d="M0 77.8c.4-1.1.8-2.9 1.6-4.4C10 58.5 21.6 46.2 34.4 35 54.9 17.1 79.1 7 105.5 1.5c3.9-.8 8-1.2 12-1.5 1.5-.1 3.1.3 4.4.9 6.5 3.2 12.5 7.2 16.8 13.1 2.1 2.9 3.6 6.4 5.1 9.6 1 2 .5 4.1-.8 5.8-1.8 2.2-3.6 4.5-5.9 6-3.6 2.5-7.5 4.6-11.4 6.5-3.6 1.8-7.5 2.9-11.2 4.6-6.5 2.9-12.8-1.2-15.4-5.5-2-3.4-3.1-7-3.5-10.9-.1-1.1-.6-1.5-1.6-1.8-4.9-1.4-9.7-.7-14.3 1-9.1 3.3-17.3 8.3-25.2 13.9-4.6 3.3-9.1 6.8-12.7 11.2-2.5 3.1-4.3 6.5-5 10.5-.2 1 .1 1.5.9 2 3.6 2.3 6.5 5.3 8.8 8.9 2.7 4.2 3.2 10.1-1.3 14.5-5.7 5.6-11.2 11.5-18.2 15.4-2.9 1.6-6.3 2.7-9.5 3.7-2.1.7-4.1-.1-5.8-1.6-5.8-5.2-8.7-12-10.2-19.4-.7-3.3-1-6.6-1.5-10.6zM75.6 152.4c-.2.1-.7.6-1.2 1-4.3 3.3-9.1 3.7-14 1.9-4.7-1.7-7.3-5.3-8.1-10.2-1.9-12.4 5.6-21.1 18.1-20.6 3.5.1 6.9.9 10.3 1.4 1.3.2 1.8.8 1.7 2.3-.3 5.1-.5 10.2-.7 15.3 0 1.1-.1 2.4.3 3.4.3.9 1.2 2.1 2 2.2.9.2 2.3-.4 2.9-1.1.9-1.2 1.6-2.7 2-4.2 1.1-4.3 1.2-8.7 0-13-2.3-8.7-9.9-14.1-19.5-13.5-3.1.2-6.4.6-9.3 1.8-8.4 3.2-12.6 9.9-13.7 18.6-.4 3.4-.4 7 .2 10.4 1.6 9.1 8.2 14.5 17.5 15 5.9.3 11.6-.5 17.2-2.5.5-.2.9-.3 1.4-.4h.5c0 1.9.1 3.8-.1 5.7 0 .5-.7 1.3-1.3 1.4-3.2.9-6.3 1.9-9.6 2.3-5.6.7-11.2.5-16.6-1.1-10.2-3.1-16.7-11.2-17.5-21.8-.5-6.6.1-13.1 3.2-19.1 5.2-10.5 13.9-15.8 25.4-16.8 5.4-.5 10.8 0 15.9 2.3 9.9 4.3 15.6 14 14.8 25.4-.3 4.1-1.1 8-3.2 11.5-3 4.8-7.6 7-13.1 5.8-1.8-.5-3.4-2.1-5.5-3.4zm-1.3-16.9H74c.1-1 .2-1.9.2-2.9 0-.4-.3-1.1-.6-1.2-5-1-11.1-.2-12.8 6.6-.5 1.9-.5 4.1-.2 6 .5 3.8 2.7 5.5 6.5 5.4 2.9-.1 5-1.6 5.8-4.8.6-2.9.9-6.1 1.4-9.1z"></path><path d="M103.3 132.6c13.1 3.9 26 7.6 39.2 11.5 6.4-21.7 12.7-43.3 19.2-65.1-29-8.5-57.8-17-86.9-25.6-1.1 3.7-2.1 7.2-3.1 10.7-4 13.4-7.9 26.8-11.8 40.3-.3 1.2-.8 1.8-2.1 2.1-1.6.4-3 1-4.9 1.7.6-2.1 1.1-3.9 1.6-5.7 4.9-16.6 9.8-33.3 14.7-49.9 1.1-3.9 3.9-5.4 7.7-4.3 28.5 8.4 57.1 16.8 85.6 25.2 3.9 1.2 5.4 3.9 4.3 7.9-6.2 21.2-12.4 42.4-18.7 63.6-1.2 3.9-4 5.5-7.9 4.3-11.8-3.4-23.5-6.9-35.3-10.4-1-.3-1.5-.7-1.5-1.8.2-1.3 0-2.7-.1-4.5z"></path><path d="M156.4 84.4c0 1.1-1.1 1.8-2.4 2.4-9.6 4.5-19.2 8.9-28.7 13.4-5.3 2.5-10.7 4.9-16 7.5-1.1.5-1.7.5-2.5-.6C97 92.9 87.2 78.8 77.4 64.7c-1.3-1.8-1.2-3.5.2-4.5 1.4-1.1 3.1-.6 4.4 1.3 8.9 12.7 17.7 25.5 26.5 38.2.8 1.2 1.5 1.5 2.9.8 13.3-6.3 26.7-12.5 40-18.7.6-.3 1.3-.6 2-.7 1.7-.1 3 1.1 3 3.3zM142.2 137c0 1.6-.6 2.6-2 3-1.4.4-2.5 0-3.2-1.3-1.1-2.1-2.2-4.2-3.2-6.2-3.4-6.6-6.8-13.2-10.2-19.9l-.3-.6c-.7-1.6-.2-3.2 1.2-3.9 1.4-.7 3-.2 3.8 1.4 1.7 3.1 3.3 6.3 4.9 9.4l8.4 16.5c.3.6.5 1.2.6 1.6zM75.4 104.8c4.5-2.5 8.7-5 13-7.3 1.3-.7 2.7-.3 3.6 1.2.8 1.3.4 2.9-1 3.7-2.4 1.4-4.8 2.7-7.2 4.1-.3.2-.7.3-1 .2-2.4-.6-4.7-1.2-7.4-1.9z"></path>
		</symbol>
	
		<symbol id="kontekst" viewBox="0 0 73.7 73.7">
			<path d="M35 53c-3.9.2-7.3-.5-10.2-3.1-2.9-2.5-4.3-5.7-4.5-9.5-.2.2-.3.3-.5.4l-1.6 1.6c-1.5 1.5-2.8 1.5-4.4.1-.5-.5-.9-1.1-1.2-1.7-.5-1-.3-1.9.5-2.8 2.5-2.4 4.9-4.9 7.3-7.3.3-.3.4-.5.2-.9C17 21.5 23.7 12.2 32.7 13c4.4.4 7.6 2.6 9.7 6.4.2.4.4.5.8.5h7.1c6.1 0 10.6 4.8 10.2 10.9-.1 1.1-.5 2.1-.8 3.2-.1.4-.1.6 0 1 3.3 7.4-1 16.7-9.9 17.9-1.4.2-2.9.1-4.3.2-.3 0-.7.2-1 .4-2.8 2.4-5.6 4.8-8.3 7.1-.3.3-.7.6-1.1.3-.3-.2-.5-.7-.5-1v-5.8c.4-.5.4-.8.4-1.1zm-9.7-17.8l-3 3c-.2.2-.2.5-.3.7-.6 5.3 2.7 10.3 7.8 11.9 1.8.5 3.5.5 5.3.5 1.3 0 1.4.1 1.4 1.3v5.5c.3-.2.5-.4.7-.5 2.3-2 4.6-3.9 6.9-5.9.3-.2.8-.4 1.2-.4 1.6-.1 3.3.1 4.9-.2 5.9-1 9.9-6.5 9.2-12.4-.1-.9-.4-1.7-.6-2.8-2.4 2.9-5.4 4.2-8.9 4.1v6c0 .4 0 .9-.5 1.1-.5.2-.9-.1-1.2-.4-1.6-1.6-3.4-3.2-4.9-4.9-1.2-1.4-2.5-2-4.4-1.8-2.6.2-5-.8-7-2.5-.2-.1-.4-.3-.6-.3-2.1-.1-4.1-.8-6-2zm6.5.2c5.8 0 10.6-4.7 10.6-10.5 0-5.7-4.7-10.4-10.4-10.4-5.8 0-10.7 4.7-10.7 10.4.1 5.7 4.8 10.5 10.5 10.5zm2.5 1.5c0 .1 0 .1-.1.2.8.3 1.7.8 2.5.9 1.5.2 3 .2 4.5.3.7 0 1.3.2 1.8.7 1.5 1.6 3.1 3.2 4.7 4.7l.6.6v-4.8c0-.9.2-1.1 1.1-1.2 1 0 2.1 0 3.1-.2 3.8-.7 7.1-4.5 6.7-9.1-.3-4-3.5-7.3-7.7-7.6-2.5-.1-5.1 0-7.7-.1h-.1c.2 1.6.3 3.3.5 5h8.9c.6 0 1 .3 1 .8s-.3.8-1 .8h-9.5c-1.4 5-4.5 7.9-9.3 9zm-12.7-5.2l-.5.5c-2.2 2.1-4.3 4.3-6.5 6.4-.8.8-.9 1.2-.1 2.1.3.4.8.7 1.3.9.2.1.6 0 .8-.2l6.9-6.9c.1-.1.2-.3.4-.4-.8-.8-1.5-1.5-2.3-2.4z"></path><path d="M34.5 43.7h4.6c.2 0 .5 0 .7.1.2.2.6.5.5.7 0 .3-.3.6-.5.8-.1.1-.4.1-.6.1h-9.8c-.5-.1-.8-.3-.8-.8s.3-.8.8-.8h2.3c1-.1 1.9-.1 2.8-.1zM28.4 41.1h-2.2c-.6 0-1-.3-1-.8.1-.6.5-.8 1-.8h4.4c.6 0 1 .3 1 .8 0 .6-.4.8-1 .8h-2.2zM40.2 24.5c-.2 3.6-1.5 6-4.3 7.6-.6.4-1.1.3-1.3-.2-.2-.5 0-.9.6-1.3 3.1-1.8 4.2-5.1 2.8-8.4-.2-.5-.1-1 .3-1.2.4-.2.9 0 1.1.6.3 1.1.6 2.2.8 2.9zM49.3 31.5h3.9c.3 0 .6.2.8.5.1.2.1.6-.1.8-.1.2-.5.3-.7.3h-7.8c-.6 0-1-.4-1-.8.1-.6.5-.8 1-.8h3.9z"></path>
		</symbol>
	
		<symbol id="landing_page" viewBox="0 0 73.7 73.7">
			<path d="M18.458 11.738h36.807V63.98H18.458zm1.938 2.087h32.93V61.89h-32.93zm3.874 41.8h25.182v2.09H24.27zm0-6.27h25.182v2.09H24.27zm0-6.269h25.182v2.088H24.27zm0-6.27h25.182v2.089H24.27zm0-6.268h25.182v2.088H24.27zm0-6.27h25.182v2.088H24.27zm0-6.268h25.182v2.087H24.27z" fill-rule="evenodd" stroke-width="2.884"></path>
		</symbol>
	
		<symbol id="link" viewBox="0 0 80 80">
			<path d="M29.3 63.5l-4 4c-3.5 3.5-9.2 3.5-12.7 0-1.7-1.7-2.6-3.9-2.6-6.3s.9-4.6 2.6-6.3l14.9-14.8c3.1-3.1 8.9-7.6 13.1-3.4 1.9 1.9 5.1 1.9 7 0 1.9-1.9 1.9-5.1 0-7-7.2-7.1-17.8-5.8-27.1 3.4l-15 14.8C2 51.5 0 56.2 0 61.2S2 71 5.5 74.5C9.2 78.2 14 80 18.8 80c4.8 0 9.7-1.8 13.3-5.5l4.1-4c1.9-1.9 2-5.1 0-7-1.8-1.9-5-2-6.9 0zM74.5 6C66.8-1.7 56-2.1 48.8 5l-5 5c-1.9 1.9-2 5.1 0 7s5.1 2 7 0l5-5c3.7-3.7 8.6-2.2 11.7 1 1.7 1.7 2.6 3.9 2.6 6.3s-.9 4.6-2.6 6.3L51.6 41.4c-7.3 7.2-10.7 3.8-12.1 2.4-1.9-1.9-5.1-1.9-7 0s-1.9 5.1 0 7c3.3 3.3 7.1 5 11.1 5 4.9 0 10.1-2.5 15-7.3l15.9-15.8C78 29.1 80 24.4 80 19.3c0-5-2-9.7-5.5-13.3z"></path>
		</symbol>
	
		<symbol id="maintenance" viewBox="0 0 30 30">
			<path d="M16.37 19.69l3.323 3.338c.717.72 1.879.72 2.595 0a1.85 1.85 0 0 0 0-2.609l-3.322-3.338zM21.362 12.485l-2.207-.554-.551-2.218 2.555-2.567a4.24 4.24 0 0 0-4.302 1.047c-1.662 1.67-1.13 3.843.532 5.513 1.661 1.67 3.824 2.204 5.486.534a4.285 4.285 0 0 0 1.043-4.322z" stroke-width=".691"></path><path d="M6.195 8.326l1.379 2.772 2.068.692 2.414 2.425 1.379-1.385-2.414-2.425-.69-2.079-2.757-1.385z"></path><path d="M17.143 11.014L8.18 20.02a2.085 2.085 0 0 0 0 2.94 2.061 2.061 0 0 0 2.925 0l8.964-9.007zm-7.5 11.168a.691.691 0 1 1 0-1.386c.38 0 .689.311.689.694a.691.691 0 0 1-.69.692z" stroke-width=".691"></path>
		</symbol>
	
		<symbol id="menu" viewBox="0 0 23 17">
			<defs><path id="a" d="M22.5 16.93v-2.26H45v2.26zm0 6.77v-2.26H45v2.26zm0 6.77v-2.26H45v2.26z"></path></defs><use fill="#00cc45" xlink:href="#a" transform="translate(-22 -14)"></use>
		</symbol>
	
		<symbol id="oneseo" viewBox="0 0 73.7 73.7">
			<path d="M50.7 33.3c0-4.6-1.8-8.9-5.1-12.2-3.3-3.3-7.5-5.1-12.1-5.1s-9 1.8-12.2 5.1c-3.2 3.3-5 7.6-5 12.3 0 4.5 1.8 8.8 5.1 12.1 3.3 3.2 7.6 5 12.1 5 9.5 0 17.2-7.8 17.2-17.2zm-1.9.1c0 4.1-1.7 8-4.6 10.8-2.9 2.9-6.9 4.4-11 4.4-8.2-.1-15.1-7.1-15.1-15.4.1-8.5 6.9-15.3 15.4-15.3h.1c4.1 0 7.9 1.7 10.8 4.6 2.9 2.9 4.4 6.8 4.4 10.9z"></path><path d="M57 52.3c-.9-.9-1.9-1.9-2.8-2.9-1.5-1.5-3-3-4.5-4.6-.2-.2-.5-.4-.8-.5-.1-.1-.2-.1-.3-.2l-.3-.1-.3.2c-.1.1-.2.1-.4.2-.3.1-.5.3-.8.5-.7.7-1.4 1.4-2.1 2l-.2.2c-.8.8-.8 2 0 2.8l4.2 4.2c1.1 1.1 2.2 2.1 3.2 3.2.2.2.5.4.8.4.3 0 .5-.1.8-.4 1.2-1.2 2.3-2.3 3.4-3.3.3-.3.4-.5.4-.8.1-.4 0-.7-.3-.9zM37.1 31.4c-.3 1.1-.3 2.2-.1 3.4.4 2 1.8 3.6 3.7 4 .4.1.8.1 1.2.1 1.6 0 3.1-.7 4-2.1.6-1 1-2.1 1-3.5v-.4c0-.3-.1-.7-.1-1-.4-2.4-2.2-4.1-4.5-4.1-2.7-.3-4.5 1.1-5.2 3.6zm7-.3c.2.5.4 1 .5 1.5 0 .1 0 .2.1.3v.4c0 1-.2 1.7-.6 2.3-.5.8-1.3 1.2-2.2 1.2-.9 0-1.6-.5-2.1-1.2-.9-1.5-.9-3.2 0-4.7.5-.8 1.3-1.2 2.1-1.2h.1c.8 0 1.6.5 2.1 1.4zM31.3 34.2h4.9V32h-5v-.3-1.8h5.6v-2.1H29v10.9h7.8v-2.2h-5.5v-2.3zM26.9 33c-.5-.3-1.1-.4-1.7-.6l-.9-.3-.2-.1c-.4-.1-.9-.3-1.2-.5-.3-.2-.5-.5-.4-.8 0-.3.3-.6.6-.8.6-.3 1.2-.3 1.7-.1.5.2.9.6 1.1 1.3.1.2.3.6.7.7h1.5v-.5c.2-1.5-.7-2.8-2.1-3.4-1.3-.5-2.6-.5-3.9.1-1.1.5-1.7 1.3-1.9 2.4-.1 1.2.4 2.3 1.4 2.9.6.3 1.2.6 1.8.8.1.1.3.1.4.2.3.1.5.2.8.2.4.1.7.2 1 .3.3.1.5.4.5.6.1.3 0 .6-.2.8-.5.6-1.3.8-2.4.6-.7-.1-1.2-.8-1.3-1.5v-.2l-.1-.6H20v.5c-.1 1.1.3 2 1 2.8.8.8 2 1.3 3.3 1.3 1.4 0 2.6-.5 3.4-1.4.7-.8.9-1.7.8-2.6-.1-.9-.7-1.6-1.6-2.1z"></path>
		</symbol>
	
		<symbol id="opit" viewBox="0 0 145.9 170.1">
			<path d="M89 148.4c-2.8-1.1-6.2-2.5-9.6-3.8-5.4-2.1-10.7-4.2-16.1-6.2-5.8-2.1-11.8-2.5-17.9-1.2-2 .4-4 .6-6.1.6-4.3.1-6.5-3.1-5.1-7.3.8-2.5 2.8-4 4.9-5.3 4.6-2.7 9.7-4.3 15-4.6 5.3-.3 10.7-.1 16.3-.1-.2-.8-.4-1.3-.6-1.9-7-20-13.9-40-20.9-60-.8-2.3-1.1-4.6-.6-7.1 1-4.2 4.8-6.3 8.8-4.6 3 1.2 5.1 3.5 6.5 6.4 3.8 8 7.5 16.1 11.3 24.1 1.5 3.3 4.1 4.8 7.7 4.2 3.8-.6 7.6-1.6 11.4-2.4 5.3-1.1 10.7-2.3 16-3.3 6.8-1.3 10.9.6 14.1 6.8 4.5 8.7 7.6 17.9 9.8 27.4 1.6 6.7 2.5 13.5 3.7 20.3.1.5.6.9.9 1.4.8 1.1 1.9 2 2.4 3.3 1.6 4 2.9 8.1 4.3 12.2 1.4 4.2 0 7.2-4.2 8.6-12.7 4.4-25.5 8.9-38.2 13.3-4.5 1.6-7.8 0-9.3-4.5-1.3-3.6-2.6-7.1-3.7-10.7-.4-1.4-.4-3.3-.8-5.6zm5.7 2.6c1.7 4.7 3.2 9.2 4.8 13.8 13.8-4.8 27.3-9.5 41-14.3-1.6-4.7-3.2-9.2-4.8-13.8-13.8 4.8-27.3 9.5-41 14.3z"></path><path d="M101 71.8c.8-3.6 1.8-7.1 2.2-10.7 2-16.9-3.3-31.3-15.8-42.8-9.6-8.9-21.2-13-34.3-12.7-23.3.5-43.6 18.5-47 41.6-3.8 26.2 12.7 50 38.6 55.6 3.9.8 8 .7 12 .9 1 .1 1.7.2 2 1.3.3 1.3.8 2.6 1.3 4-.6.1-.9.3-1.3.3-27.6 2.3-53.3-17.7-57.8-45-5-29.7 13.2-56.9 42.7-63.1 31.5-6.6 60.1 14.9 65 44.5 1.3 7.8.9 15.5-1.1 23.2-.3 1.2-.7 1.9-2.1 2-1.4.1-2.8.6-4.2.8-.1.1-.2 0-.2.1z"></path><path d="M80.9 76.1c1.7-3.1 3.4-5.7 4.6-8.4 9.7-22.9-8.3-48-33.1-46.4-16 1-29.5 13.8-31.1 30.2-1.6 17.1 10 33.2 27.4 36.1 3.8.6 5.1 2.4 5.8 5.5 0 .2 0 .4.1.7-4.2 0-8.2-.6-12.1-2C25 86.1 14 69.3 15.7 51c1.6-17.8 15.7-32.6 33.5-35C70.6 13.1 90 27.5 93.3 48.8c1.3 8.6-.1 16.7-4.3 24.4-.4.7-1.3 1.4-2.1 1.6-1.8.5-3.8.8-6 1.3z"></path><path d="M75.6 64.6c-1.1-2.3-2.5-4.5-3.2-6.9-.5-1.8 0-3.8-.2-5.7-1.1-8.3-8.4-15-16.7-15.2-9-.3-16.7 5.6-18.4 14.1-1.6 7.7 1.7 15.1 8.4 19.1.7.4 1.3 1.2 1.6 2 .7 1.6 1.2 3.3 1.8 5.1-7.4-.5-15.6-9.1-17.4-18.1-2-10.3 3.3-20.8 12.8-25.5 9.4-4.6 20.9-2.3 27.8 5.4 7.6 8.6 6.9 20.3 3.5 25.7z"></path>
		</symbol>
	
		<symbol id="opit_v_razrabotke" viewBox="0 0 170.1 141.3">
			<path d="M170.1 141.3H.1v-2.8C.1 96.9.2 55.4 0 13.9 0 4.8 7.2 0 13.9 0h143.5c7.9 0 12.7 4.8 12.7 12.8v128.5zM6.4 34.9V135h157.3V34.9H6.4zm38.1-9.5c3.6 0 6.5-2.8 6.5-6.3 0-3.6-2.8-6.5-6.4-6.5-3.6-.1-6.5 2.8-6.5 6.3 0 3.6 2.8 6.5 6.4 6.5zm25.4 0c3.6 0 6.5-2.8 6.5-6.4 0-3.6-2.8-6.5-6.4-6.5-3.6 0-6.5 2.8-6.5 6.3 0 3.7 2.8 6.6 6.4 6.6zm-44.4-6.3c0-3.6-2.8-6.5-6.3-6.5-3.6 0-6.5 2.8-6.5 6.3 0 3.6 2.8 6.5 6.3 6.5 3.6.1 6.5-2.8 6.5-6.3z"></path><path d="M19.3 122.2V47.8h58.5v74.4H19.3zM150.9 82.5H84.5V47.9h66.4v34.6zM84.5 122.2v-33h29.9v33H84.5zM122.6 122.2v-33h28.3v33h-28.3z"></path>
		</symbol>
	
		<symbol id="phone" viewBox="0 0 32.666 32.666">
			<path d="M28.189 16.504h-1.666c0-5.437-4.422-9.858-9.856-9.858l-.001-1.664c6.355-.003 11.523 5.167 11.523 11.522zM16.666 7.856l-.001 1.664a6.987 6.987 0 0 1 6.981 6.983l1.666-.001c0-4.767-3.876-8.646-8.646-8.646zM16.333 0C7.326 0 0 7.326 0 16.334c0 9.006 7.326 16.332 16.333 16.332a1.007 1.007 0 1 0 0-2.016c-7.896 0-14.318-6.424-14.318-14.316 0-7.896 6.422-14.319 14.318-14.319S30.65 8.439 30.65 16.334c0 3.299-1.756 6.568-4.269 7.954a6.172 6.172 0 0 1-2.959.761 4.733 4.733 0 0 0 1.591-1.529c.08-.121.186-.228.238-.359.328-.789.357-1.684.555-2.518.243-1.064-4.658-3.143-5.084-1.814-.154.492-.39 2.048-.699 2.458-.275.366-.953.192-1.377-.168-1.117-.952-2.364-2.351-3.458-3.457l.002-.001-.092-.092c-.031-.029-.062-.062-.093-.092v.002c-1.106-1.096-2.506-2.34-3.457-3.459-.36-.424-.534-1.102-.168-1.377.41-.311 1.966-.543 2.458-.699 1.326-.424-.75-5.328-1.816-5.084-.832.195-1.727.227-2.516.553-.134.057-.238.16-.359.24-2.799 1.774-3.16 6.082-.428 9.292a75.688 75.688 0 0 0 3.245 3.576l-.006.004c.031.031.063.06.095.09.03.031.059.062.088.095l.006-.006c1.16 1.118 2.535 2.765 4.769 4.255 4.703 3.141 8.312 2.264 10.438 1.098 3.67-2.021 5.312-6.338 5.312-9.719C32.666 7.326 25.339 0 16.333 0z"></path>
		</symbol>
	
		<symbol id="podhod" viewBox="0 0 125.5 170.1">
			<path d="M125.5 85.3v71.2c0 8.4-5.3 13.6-13.7 13.6h-98c-8.6 0-13.8-5.3-13.8-13.9v-125c0-1.8.6-3.1 1.8-4.3C10.3 18.4 18.7 10 27.1 1.5 28.2.5 29.3 0 30.8 0h81.7c7.5 0 13 5.6 13 13.1.1 24.1 0 48.1 0 72.2zM6.3 28.5v128.3c0 1.4.5 3 1.2 4.3 1.2 2.1 3.4 2.7 5.8 2.7h98.8c4.7 0 7.2-2.5 7.2-7.2V13.5c0-4.8-2.5-7.3-7.2-7.3H30.6c-.6 0-1.3.1-2.1.1v8.8c0 8.4-5 13.3-13.4 13.4H6.3z"></path><path d="M60.7 26.7h7.9v4.7c5.4 1.3 10.5 2.6 16 4-1.7 4.1-3.2 7.7-4.6 11.1-3.9-1-7.6-2.3-11.4-2.9-2.3-.4-4.7-.2-7.1.2-.9.1-2.1 1.3-2.2 2.1-.1.9.5 2.5 1.3 3 2.2 1.3 4.6 2.3 7 3.3 3.6 1.6 7.4 3 10.8 4.9 5.4 3 7.2 8 6.6 14-.6 5.5-3.4 9.4-8.4 11.6-2 .9-4.1 1.5-6.2 1.9-1.3.3-1.8.8-1.7 2.1.1 1.9 0 3.8 0 5.8h-7.9c0-1.8-.1-3.5 0-5.2.1-1.6-.4-2-2-2.3-4.5-.8-8.9-2-13.3-3.1-.5-.1-1.3-.9-1.3-1.4-.1-3.9-.1-7.8-.1-11.9 2.2.9 4.2 1.8 6.2 2.5 4.9 1.7 9.9 3.1 15.1 2.6.5-.1 1.1-.1 1.6-.2 1.5-.4 2.6-1.1 2.8-2.7.2-1.5-.6-2.6-1.8-3.2-1.9-1-3.9-1.9-5.9-2.8-3.2-1.4-6.5-2.4-9.5-4-6.8-3.6-10.1-8.8-8.1-18.3.7-3.4 2.8-6 5.9-7.4 2.7-1.2 5.6-2.1 8.4-2.7 1.6-.3 2-.9 1.9-2.3v-3.4zM63.5 105h31c2.5 0 4 1.2 4 3.1 0 1.9-1.5 3.1-4 3.1H32.7c-1.1 0-2.5-.5-3.3-1.3-.6-.6-.8-2.4-.3-3 .7-.9 2.1-1.7 3.2-1.8 5.3-.2 10.6-.1 15.9-.1h15.3zM63.8 120.9h30.8c1.7 0 3 .4 3.7 2.1.9 2.2-.7 4.2-3.5 4.2H32.7c-2.5 0-4-1.3-3.9-3.2.1-1.9 1.5-3 3.9-3h24.2c2.2-.1 4.5-.1 6.9-.1zM63.6 143h-30c-.7 0-1.5.1-2.2-.1-1.6-.3-2.8-1.7-2.7-3.2.2-1.7 1.1-2.6 2.7-2.9.5-.1 1.1 0 1.6 0h62.2c1.9.1 3.3 1.3 3.3 3 .1 1.8-1.3 3.1-3.3 3.2-4.6.1-9.1 0-13.7 0H63.6z"></path>
		</symbol>
	
		<symbol id="razrabotka" viewBox="0 0 73.7 73.7">
			<path d="M55 46h2.8c0 1 .1 1.9 0 2.8-.2 1.5-1.4 2.4-2.8 2.4H19c-1.9 0-3-1.2-3-3V46h3.2v-.6-20c0-1.8 1.2-3 3-3h29.9c1.5 0 2.5.7 2.9 1.9.1.3.1.7.1 1.1v20c-.1.2-.1.4-.1.6zm-23.7 0c.1 1.4.6 1.8 1.9 1.8h7.2c1 0 1.5-.5 1.6-1.5V46h11.6v-.5-5.7-14.5c0-.8-.4-1.4-1.1-1.5-.3-.1-.6 0-.8 0H22c-1 0-1.6.6-1.6 1.6V46.1c3.7-.1 7.3-.1 10.9-.1z"></path><path d="M40.9 42.7s0-.1 0 0c-.1-1.5-.1-1.5 1.1-2.1.8-.4 1.7-.9 2.5-1.3.1-.1.2-.1.4-.3-1.4-.7-2.8-1.4-4.1-2.1v-1.5c.1.1.3.1.4.2 1.7.9 3.5 1.8 5.2 2.7.3.1.4.3.4.6v.6c0 .1-.1.3-.2.3-1.8 1-3.7 1.9-5.7 2.9zM32.8 42.8c-.7-.4-1.4-.8-2.1-1.1-1.1-.6-2.1-1.2-3.2-1.8-.3-.1-.4-.3-.4-.6v-.6c0-.1.1-.3.2-.3l5.4-3v1.4c0 .1-.2.2-.3.3-1.1.6-2.2 1.2-3.3 1.7-.1.1-.3.2-.5.3.2.1.3.2.5.3 1.1.6 2.2 1.1 3.3 1.7.3.1.4.3.3.6 0 .3.1.6.1 1.1zM39.2 34c-.5 1.4-.9 2.7-1.3 4-.7 2-1.3 4-2 6.1-.1.4-.3.5-.7.5h-.8c0-.2.1-.3.1-.5 1-3.2 2.1-6.4 3.1-9.6.1-.4.3-.5.7-.5.3.1.6 0 .9 0zM38.7 29.3c1.1-.6 1.4-.5 2.1.1.4-.2.7-.4 1.1-.5.6-.2 1.2.2 1.3.8.1.9 0 1.8 0 2.7h-1v-2c0-.6-.4-.8-.9-.6-.1.1-.3.3-.3.5v1.6c0 .4-.1.6-.6.5h-.5v-2c0-.6-.4-.8-.9-.6-.1.1-.3.3-.3.4v1.7c0 .4-.1.5-.5.5h-.6V29c.7-.1.9 0 1.1.3zM29.8 27.7h1v1.6c.4-.1.7-.3 1-.4.7-.1 1.3.3 1.3 1v2.2c0 .2-.1.3-.3.3H32v-2c0-.6-.3-.9-1-.7-.3.1-.4.2-.3.5v1.7c0 .4-.1.5-.5.4h-.6c.2-1.4.2-3 .2-4.6zM35.5 28.1v.9h1v.7h-1v1.6c0 .4.3.5.9.4.2.6.1.7-.5.8h-.4c-.9 0-1.2-.3-1.2-1.2v-1.5c-.1 0-.3 0-.4-.1V29c.1 0 .3-.1.4-.1V28c.4.1.8.1 1.2.1zM44.1 27.7h1v4.9h-1v-4.9z"></path>
		</symbol>
	
		<symbol id="redesign" viewBox="0 0 73.7 73.7">
			<path d="M59.9 50.5h-3V50v-8.3-14.1c0-1.5-.8-2.7-2.2-3.1-.8-.2-1.6-.2-2.4-.2v1.6h1.5c.6 0 1 .3 1.3.7.2.3.2.7.2 1v22.8H42.5v.4c0 .9-.7 1.5-1.6 1.5h-8.6c-.7 0-1.3-.5-1.5-1.2-.1-.2-.1-.5-.1-.8h-12v-.6-22.1c0-1.2.6-1.8 1.8-1.8h10.2c.2 0 .4 0 .5-.1.5-.4.9-.9 1.5-1.4h-12c-2.1 0-3.4 1.3-3.4 3.4v22.7h-3.5v2.5c0 2 1.3 3.4 3.3 3.3h39.7c1.5 0 2.9-.9 3.1-2.3.1-1.1 0-2.2 0-3.4z"></path><path d="M30.3 29.1c-.3.4-.3.8-.1 1.1.2.4.6.6 1 .5.3-.1.6-.3.8-.5l9.4-9.4c.5-.5.9-1.1 1.5-1.4.6-.2 1.4-.1 2.1-.1.2 0 .4 0 .7.1-.2.2-.3.4-.5.5L33.4 31.7l-.3.3c-.2.2-.2.5 0 .7.2.1.5.1.7 0 .1 0 .2-.2.4-.3L46 20.6l.3-.3c.5.5.9.9 1.5 1.4-.2.1-.3.2-.4.3L35.6 33.8c-.1.1-.3.2-.3.3-.1.2-.1.5 0 .7.2.3.5.2.7 0l.3-.3L48 22.8l.3-.3c.1-.1.2-.2.3-.1.1 0 .1.2.1.3v1.8c0 .4-.1.7-.4 1-3.6 3.5-7.1 7-10.6 10.6-.5.5-.6 1.1-.1 1.5.4.5 1 .4 1.6-.1l11.1-11.1c.2-.2.4-.6.4-1 .1-1 0-2 0-3 0-.5-.2-1-.6-1.3-1.1-1.1-2.1-2.2-3.2-3.3-.3-.3-.7-.5-1.1-.5h-3.2c-.5 0-.8.1-1.2.5L30.5 28.7c0 .1-.1.3-.2.4zM30.1 33.2c.1-.4.2-.7.3-.9 0-.7-.3-1.1-.9-1.2-.5-.1-1 .2-1.1.8-.8 2.9-1.7 5.7-2.5 8.6-.3.9.4 1.6 1.3 1.4 2.9-.7 5.8-1.5 8.7-2.2.2-.1.5-.2.7-.4.3-.3.3-.8 0-1.1-.3-.4-.6-.6-1.1-.5-1.4.3-2.8.7-4.2 1.1-.3.1-.6.1-.8-.2-.3-.4-.7-.8-1.1-1.1-.4-.5-.4-.7-.3-1 .4-1.1.7-2.2 1-3.3z"></path>
		</symbol>
	
		<symbol id="ruble" viewBox="0 0 220 220">
			<path d="M110 0C49.346 0 0 49.346 0 110s49.346 110 110 110 110-49.346 110-110S170.654 0 110 0zm0 210c-55.141 0-100-44.86-100-100S54.859 10 110 10s100 44.86 100 100-44.859 100-100 100z"></path><path d="M110 19.5c-49.902 0-90.5 40.598-90.5 90.5s40.598 90.5 90.5 90.5 90.5-40.598 90.5-90.5-40.598-90.5-90.5-90.5zm0 178c-48.248 0-87.5-39.252-87.5-87.5S61.752 22.5 110 22.5s87.5 39.252 87.5 87.5-39.252 87.5-87.5 87.5z"></path><path d="M103.382 133.87h-10v11.017h-8.75v10h27.5v-10h-8.75zM123.062 57.773H83.077v12h10.305v33.876H83.077v12h10.305v2.22h10v-2.22h19.68c15.957 0 28.938-12.981 28.938-28.938s-12.981-28.938-28.938-28.938zm0 45.877h-19.68V69.773h19.68c9.34 0 16.938 7.599 16.938 16.938s-7.599 16.939-16.938 16.939zM83.077 119.87h53.989v12H83.077z"></path>
		</symbol>
	
		<symbol id="sajt_katalog" viewBox="0 0 64 64">
			<g transform="matrix(.76899 0 0 .71877 7.121 9.813)"><path d="M57 43H45c-1.1 0-2 .9-2 2v12c0 1.1.9 2 2 2h12c1.1 0 2-.9 2-2V45c0-1.1-.9-2-2-2zm1 14a1 1 0 0 1-1 1H45a1 1 0 0 1-1-1V45a1 1 0 0 1 1-1h12a1 1 0 0 1 1 1z"></path><path d="M51 48a3 3 0 1 0 0 6 3 3 0 0 0 0-6zm0 5c-1.103 0-2-.897-2-2s.897-2 2-2 2 .897 2 2-.897 2-2 2zM24 45v12c0 1.1.9 2 2 2h12c1.1 0 2-.9 2-2V45c0-1.1-.9-2-2-2H26c-1.1 0-2 .9-2 2zm14-1a1 1 0 0 1 1 1v12a1 1 0 0 1-1 1H26c-.551 0-1-.448-1-1V45c0-.552.449-1 1-1z"></path><path d="M32 54a3 3 0 1 0 0-6 3 3 0 0 0 0 6zm0-5c1.103 0 2 .897 2 2s-.897 2-2 2-2-.897-2-2 .897-2 2-2zM5 45v12c0 1.1.9 2 2 2h12c1.1 0 2-.9 2-2V45c0-1.1-.9-2-2-2H7c-1.1 0-2 .9-2 2zm14-1c.551 0 1 .448 1 1v12c0 .552-.449 1-1 1H7c-.551 0-1-.448-1-1V45c0-.552.449-1 1-1zM53 33H34v-8h11c1.1 0 2-.9 2-2V7c0-1.1-.9-2-2-2H19c-1.1 0-2 .9-2 2v16c0 1.1.9 2 2 2h11v8H11v8l2 2 2-2v-4h15v4l2 2 2-2v-4h15v4l2 2 2-2zm-34-9c-.551 0-1-.449-1-1V7c0-.551.449-1 1-1h26c.552 0 1 .449 1 1v16c0 .551-.448 1-1 1H30zm33 16.586l-1 1-1-1V36H33v4.586l-1 1-1-1V36H14v4.586l-1 1-1-1V34h19v-9h2v9h19z"></path><path d="M13 54a3 3 0 1 0 0-6 3 3 0 0 0 0 6zm0-5c1.103 0 2 .897 2 2s-.897 2-2 2-2-.897-2-2 .897-2 2-2zM22 19h20v1H22zM22 14h20v1H22zM22 9h20v1H22z"></path><path d="M17.5 57H9a.5.5 0 0 1 0-1h8.5a.5.5 0 0 0 .5-.5V47a.5.5 0 0 1 1 0v8.5c0 .827-.673 1.5-1.5 1.5zM43.5 23H35a.5.5 0 0 1 0-1h8.5a.5.5 0 0 0 .5-.5V8a.5.5 0 0 1 1 0v13.5c0 .827-.673 1.5-1.5 1.5zM36.5 57H28a.5.5 0 0 1 0-1h8.5a.5.5 0 0 0 .5-.5V47a.5.5 0 0 1 1 0v8.5c0 .827-.673 1.5-1.5 1.5zM55.5 57H47a.5.5 0 0 1 0-1h8.5a.5.5 0 0 0 .5-.5V47a.5.5 0 0 1 1 0v8.5c0 .827-.673 1.5-1.5 1.5z"></path></g>
		</symbol>
	
		<symbol id="seo" viewBox="0 0 73.7 73.7">
			<path d="M47.7 40.9c0-2.1-.3-3.7-.9-5.3-.2-.6-.1-1.1.4-1.3.5-.2 1.3.1 1.5.6 2.9 8.1-.8 16.8-8.6 20.4-7.9 3.6-17.5-.1-21.1-8-3.5-7.8-.6-16.7 6.8-20.9 4-2.2 8.3-2.6 12.7-1.3.7.2.9.7.8 1.2-.2.5-.6.7-1.3.6-1.6-.4-3.1-.7-4.7-.6-6.4.3-11.7 4.5-13.3 10.6-2 7.9 3 15.9 11 17.5 7.8 1.5 15.4-3.8 16.6-11.6 0-.7.1-1.5.1-1.9z"></path><path d="M32 40.7c0-.7.5-1.3 1.3-1.4.2 0 .4-.1.5-.2l7.8-7.8c.2-.2.2-.3.2-.5-.3-1.7-.7-3.4-1-5.2-.1-.4 0-.7.3-1l6.4-6.4c.3-.3.7-.4 1.1-.3.4.1.6.4.6.9.3 1.7.6 3.3.8 5 0 .2.1.3.3.4l5.1.9c.4.1.6.3.7.7.1.3 0 .7-.2.9L49.6 33c-.4.4-.9.6-1.5.4-1.5-.3-3.1-.6-4.7-.9-.2 0-.4 0-.5.2l-8 8c-.1.1-.2.3-.2.5-.2.7-.8 1.2-1.6 1.2-.6-.3-1.1-.9-1.1-1.7zM43.6 29l.1.1c.1-.1.1-.2.2-.3l3.9-3.9c.3-.3.4-.5.3-.9-.1-.4-.1-.7-.1-1.1-.1-.7-.3-1.4-.4-2.1h-.1L43 25.3c-.1.1-.1.2-.1.3.2 1.2.5 2.3.7 3.4zm9.6-2.3c-.1 0-.1-.1-.2-.1-1-.2-2-.4-2.9-.5-.3-.1-.4 0-.6.2-1.2 1.3-2.5 2.5-3.8 3.8-.2.2-.4.3-.6.5.2.1.2.1.3.1 1 .2 2 .4 3.1.6.2 0 .4-.1.5-.2 1.4-1.3 2.7-2.7 4.1-4.1-.1-.1 0-.2.1-.3z"></path><path d="M33.6 30c1.4.1 2.7.3 4 .8.1.1.3.1.4.2.5.3.6.8.4 1.2-.2.4-.8.6-1.3.4-.6-.2-1.2-.5-1.8-.6-4.7-1-9.6 2.2-10.4 7-.8 4.8 2.1 9.1 6.8 10.2 4.8 1.1 9.8-2.3 10.5-7.1.3-1.7.1-3.3-.6-4.8-.3-.6-.1-1.2.4-1.4.5-.3 1-.1 1.3.5.4.8.7 1.7.8 2.7.5 3.7-.5 6.9-3.2 9.4-3 2.9-6.7 3.7-10.6 2.5-4-1.3-6.5-4.1-7.3-8.3-1.1-5.8 2.8-11.4 8.6-12.3.6-.3 1.3-.4 2-.4z"></path><path d="M33.5 45.7c-2.8 0-5-2.2-5.2-4.9-.2-2.7 1.9-5.2 4.6-5.5h.6c.7 0 1 .4 1 1s-.4 1-1 1.1c-.9 0-1.7.3-2.4 1-1 1-1.2 2.7-.5 3.9.7 1.3 2.2 1.9 3.7 1.5 1.4-.4 2.4-1.6 2.4-3.1 0-.2 0-.3.1-.5.1-.5.5-.8.9-.8.5 0 1 .4 1 .9 0 .6-.1 1.3-.3 1.8-.6 2.2-2.7 3.6-4.9 3.6z"></path>
		</symbol>
	
		<symbol id="sertifikat" viewBox="0 0 127.2 170.1">
			<path d="M30.5 11.3c1.1.3 3.2.8 5.2 1.3 7.4 1.8 13.6-.1 18.6-5.9 1.1-1.3 2.1-2.7 3.3-3.9 3.5-3.7 8.6-3.7 12.1 0 1 1.1 1.9 2.3 2.9 3.5 5.1 6.1 11.4 8.2 19.1 6.3 1.9-.5 3.9-1.1 5.9-1.2 4.7-.2 8.2 3.1 8.5 7.8l.3 4.5c.6 7.5 4.5 12.7 11.4 15.6 1.5.6 3.1 1.1 4.5 1.8 4.6 2.2 6.2 7.1 3.8 11.5-.8 1.4-1.7 2.7-2.6 4.1-4 6.5-4 13.1 0 19.6.9 1.4 1.8 2.7 2.6 4.1 2.4 4.6.8 9.4-4 11.6-1.4.6-2.8 1.1-4.2 1.7-7.1 2.8-10.9 8-11.6 15.6-.2 2.1-.2 4.2-.6 6.1-1.1 4.6-5.2 7.1-9.9 6.1-1.5-.3-2.9-.8-4.4-1.1-7.5-1.8-13.8.2-18.8 6.2-1.1 1.3-2.1 2.7-3.3 3.9-3.4 3.4-8.3 3.4-11.7-.1-1.2-1.3-2.2-2.7-3.4-4-4.8-5.6-10.9-7.5-18-6.1-1.6.3-3.1.9-4.7 1.2-5.4 1.3-10.1-2.2-10.4-7.8-.1-2.3 0-4.7-.6-6.9-1.5-6.2-5.1-10.7-11.1-13-1.4-.6-2.9-1.1-4.3-1.8-4.9-2.2-6.5-7.3-3.8-11.9.7-1.3 1.6-2.5 2.4-3.8 4-6.5 4-13.1 0-19.6-.7-1.2-1.6-2.4-2.3-3.7-2.8-4.8-1.2-9.9 3.9-12.2 1.4-.6 2.8-1.1 4.2-1.7 7-2.9 10.8-8.1 11.5-15.5.2-2.1.2-4.3.6-6.3.8-3.8 3.9-6.1 8.9-6zm-6.3 55.1c.1 21.9 17.8 39.6 39.5 39.5C85.3 105.8 103 88 103 66.5c0-21.8-17.8-39.4-39.7-39.4-21.4 0-39.2 17.9-39.1 39.3z"></path><path d="M117.1 170.1c-7.5-4.4-14.4-8.4-21.4-12.6-1.2-.7-2-.7-3.1.3-4.7 4.1-9.5 8.1-14.6 12.3-.9-3.3-1.8-6.3-2.6-9.4-2-7-3.9-14.1-5.9-21.1-.4-1.2 0-1.6.9-2.4 2.4-2 4.7-4.1 6.7-6.5 3.6-4.2 7.9-5.8 13.2-4.2 4.8 1.4 9.5 2.3 14.5-.3 4.1 14.6 8.2 29 12.3 43.9zm-9.8-12.6c0-.5.1-.8 0-1-2-7.3-4-14.6-6.1-21.8-.1-.4-.9-1-1.3-.9-4 .3-7.8-.7-11.6-1.8-2.4-.7-4.5.1-6.2 2.1-1.7 2.1-3.6 4-5.3 6-.3.4-.5 1.2-.4 1.7.5 2.1 1.1 4.2 1.7 6.3 1.1 3.8 2.1 7.5 3.3 11.6 3.4-2.8 6.5-5.5 9.7-8.1 2.6-2.2 2.6-2.2 5.5-.5 3.4 2.2 6.9 4.2 10.7 6.4zM10 170c4.2-14.8 8.2-29.2 12.3-43.8 4.8 2.6 9.6 1.8 14.3.4 5.4-1.6 9.8-.2 13.3 4.2 2.1 2.6 4.1 5.2 7.2 6.8.4.2.6 1.4.4 2-2.4 8.8-4.9 17.6-7.3 26.4-.4 1.3-.7 2.5-1.2 4-.6-.5-1.2-.8-1.7-1.2-4.5-3.5-9-7-13.4-10.6-1.5-1.3-2.6-1.2-4.2-.2-5.7 3.6-11.5 7.1-17.3 10.6-.5.3-1.2.7-2.4 1.4zm35.8-9.9c1.8-6.4 3.5-12.5 5.2-18.7.1-.4-.2-.9-.5-1.2-1.7-2-3.6-3.8-5.2-5.9-1.8-2.3-4.1-3-6.8-2.2-3.6 1-7.2 1.9-11.1 1.7-.5 0-1.3.7-1.4 1.2-1.1 3.5-2.1 7.1-3 10.6-1 3.7-2.1 7.4-3.2 11.6.9-.5 1.5-.8 2-1.1 3-1.9 6.1-3.6 9.1-5.6 1.3-.9 2.1-.7 3.2.3 2.3 2 4.8 3.8 7.2 5.7 1.4 1.1 2.8 2.2 4.5 3.6zM63.6 84c-2.1.7-4.2 1.2-6.2 2-2.2 1-4.3 2.3-6.5 3.3-.9.4-2.4.5-3.1 0-.7-.5-.9-2-.8-3 .2-2.3.7-4.6 1.1-6.8.8-4.6-.3-8.7-3.8-12-1.7-1.7-3.5-3.4-5.2-5.1-2.1-2.2-1.5-4.1 1.4-4.7 2.7-.5 5.4-.8 8.1-1.3 4-.8 7.1-3.1 9-6.7 1.1-2.1 2.1-4.3 3.2-6.4.6-1.2 1.3-2.7 2.8-2.3 1 .2 2 1.3 2.6 2.3 1.1 1.9 2 3.9 3 5.9 2.2 4.5 5.7 7 10.6 7.6 2.1.3 4.2.4 6.3.9 1.1.2 2.6.9 2.8 1.7.3.9-.4 2.3-1.1 3.2-1 1.3-2.2 2.4-3.5 3.4-5.1 4.2-6.5 9.5-4.9 15.8.4 1.6.6 3.2.8 4.8.4 2.6-1.4 4-3.8 2.8-2.4-1.1-4.6-2.5-7-3.6-1.7-.7-3.7-1.1-5.8-1.8zm0-32.9c-3.3 6.8-8.5 10.5-15.9 11.5 5.6 5.2 7.3 11.4 6.1 18.7 6.7-3.6 13.1-3.5 19.6 0-1.3-7.4.6-13.5 6-18.7-7.4-1-12.5-4.8-15.8-11.5z"></path>
		</symbol>
	
		<symbol id="shop" viewBox="0 0 30 30">
			<path d="M11.558 10.586l3.203-3.574c.308-.344.555-.481 1.048 0 .431.48 3.327 3.505 3.388 3.574a.447.447 0 0 0 .308.137.447.447 0 0 0 .308-.137.585.585 0 0 0 0-.756c-.123-.138-2.957-3.093-3.388-3.574-.74-.756-1.602-.756-2.28 0A375.746 375.746 0 0 0 10.88 9.83a.585.585 0 0 0 0 .756.449.449 0 0 0 .678 0zm12.383.55H6.567c-.246 0-.492.206-.492.55v3.024c0 .274.184.55.492.55h1.171l.863 7.285c0 .687.492 1.306 1.17 1.306h10.843c.616 0 1.11-.55 1.17-1.237l.863-7.355v-.068h1.294c.246 0 .493-.207.493-.55v-3.024c-.062-.275-.247-.481-.493-.481zm-3.08 11.271v.07c0 .137-.124.274-.247.274H9.771c-.123 0-.246-.137-.246-.344l-.863-7.216h13.061zm2.587-8.247H7.06v-1.994h16.45v1.994z" stroke-width=".651"></path>
		</symbol>
	
		<symbol id="skype" viewBox="0 0 56.2 56.7">
			<path class="st0" d="M53.8 32.1c.2-1.3.3-2.7.3-4.1 0-14.5-11.7-26.2-26.2-26.2-1.3 0-2.6.1-3.9.3C21.7.7 19 0 16.1 0 7.2 0 0 7.2 0 16.1c0 2.8.7 5.4 2 7.7-.2 1.4-.3 2.7-.3 4.1 0 14.5 11.7 26.2 26.2 26.2 1.1 0 2.2-.1 3.3-.2 2.5 1.7 5.6 2.7 8.9 2.7 8.9 0 16.1-7.2 16.1-16.1 0-3-.9-6-2.4-8.4zm-17.3 8.1c-2.1 1.7-5 2.6-8.8 2.6-3.8 0-6.8-.8-9.1-2.5-1.9-1.4-2.9-3-2.9-4.8 0-.8.3-1.4.8-2 .5-.5 1.2-.8 2-.8.9 0 1.8.5 2.5 1.4 1.2 1.5 1.9 2.3 2.2 2.5 1.1.9 2.6 1.4 4.5 1.4 1.6 0 2.9-.4 3.9-1.2.9-.7 1.4-1.6 1.4-2.6 0-1.5-.9-2.5-2.8-3l-7.4-1.9c-4.7-1.2-7-3.8-7-7.8 0-2.9 1.2-5.2 3.6-6.8 2.1-1.3 4.7-2 7.8-2 2.7 0 5.2.6 7.5 1.9 2.4 1.4 3.6 2.9 3.6 4.8 0 .8-.3 1.4-.9 1.9-.6.5-1.3.7-2.1.7s-1.5-.4-2.2-1.1c-1.1-1.1-1.8-1.8-2.1-2-1.1-.7-2.5-1.1-4.3-1.1-1.5 0-2.6.3-3.5.9-.8.6-1.2 1.4-1.2 2.4 0 1.4 1.5 2.4 4.5 3.1l5.5 1.2c5 1.1 7.5 3.9 7.5 8.2-.1 2.8-1.1 5-3 6.6z"></path>
		</symbol>
	
		<symbol id="smm" viewBox="0 0 73.7 73.7">
			<path d="M51.1 28.7c0-3.5-2.5-6-6.1-6.1H28.7c-3.6 0-6.1 2.5-6.1 6.1v16.5c0 3.3 2.6 5.8 5.8 5.9h16.7c.7 0 1.4-.1 2-.3 2.4-.8 3.9-3 3.9-5.6.1-5.6.1-11.1.1-16.5zm-1.7 16.4c0 2.5-1.8 4.3-4.3 4.3H28.6c-2.6 0-4.4-1.8-4.4-4.4V28.6c0-2.5 1.8-4.4 4.3-4.4h16.4c2.5 0 4.4 1.8 4.4 4.3.1 5.6.1 11.1.1 16.6zM22.9 21.8c-1.4-1.4-2.7-2.7-4-4.1l-1.1 1.1c1.3 1.3 2.7 2.7 4.1 4l1-1zM55.8 18.8l-1-1c-1.3 1.3-2.7 2.7-4.1 4l1 1c1.5-1.4 2.8-2.7 4.1-4zM17.8 54.8c.3.4.7.8 1 1.2l4-4c-.4-.4-.7-.8-1-1.1-1.3 1.3-2.7 2.6-4 3.9zM50.8 51.8l4.1 4.1 1-1c-1.4-1.4-2.7-2.8-4-4.1-.4.3-.8.7-1.1 1zM37.6 13.8H36v5.8h1.6v-5.8zM19.7 36h-5.8v1.6h5.8V36zM54 36v1.6h5.8V36H54zM36 59.8h1.6V54H36v5.8z"></path><path d="M36.8 30.1c-4.1 0-7.5 3.4-7.5 7.5 0 4.2 3.4 7.6 7.5 7.6s7.5-3.4 7.5-7.5c0-4.2-3.3-7.6-7.5-7.6zm0 13.4c-3.2 0-5.8-2.7-5.8-5.9s2.7-5.8 5.9-5.8 5.8 2.7 5.8 5.9-2.7 5.8-5.9 5.8zM44.8 26.4c-1.3 0-2.5 1.2-2.5 2.5 0 1.4 1.1 2.5 2.5 2.5s2.5-1.2 2.5-2.5c0-1.4-1.2-2.5-2.5-2.5z"></path><path d="M36.8 32.6c-2.8 0-5 2.3-5 5.1 0 2.7 2.3 5 5 5 2.8 0 5-2.3 5-5 0-2.8-2.2-5.1-5-5.1z"></path>
		</symbol>
	
		<symbol id="telegram" viewBox="0 0 56.7 44.7">
			<path class="st0" d="M30.8 37.7c-.2-.1-.4-.3-.6-.4-2.2 2.1-4.3 4.2-6.5 6.3-.7.7-1.6 1.1-2.7 1.1-.7 0-1.1-.4-1.4-1.1-1.6-5.1-3.3-10.1-4.9-15.2-.2-.5-.4-.7-.9-.9-3.9-1.2-7.7-2.4-11.5-3.6-.6-.2-1.2-.4-1.7-.8-.8-.5-.9-1.4-.2-2 .7-.6 1.4-1.1 2.2-1.4 4.7-1.9 9.4-3.7 14.2-5.5 12-4.6 24-9.3 36-13.9 2.3-.9 4 .4 3.8 2.8-.2 1.6-.6 3.1-.9 4.7l-7.8 36.9M21.2 41h.1c0-.1.1-.2.1-.3.3-2.8.5-5.6.8-8.4.1-.6.3-1.1.7-1.5 3.7-3.3 7.4-6.7 11.1-10L46.3 9.7c.3-.2.4-.6.5-.9-.4 0-.8-.2-1.1-.1-.5.1-.9.4-1.3.7-9 5.7-18 11.4-27.1 17.1-.5.3-.6.6-.4 1.2.7 1.9 1.3 3.8 1.9 5.8.7 2.4 1.5 4.9 2.4 7.5z"></path>
		</symbol>
	
		<symbol id="telegram_bot" viewBox="0 0 56.7 44.7">
			<path class="st0" d="M29.993 31.829c-.12-.065-.242-.195-.363-.26-1.333 1.362-2.605 2.723-3.937 4.084-.424.454-.97.713-1.636.713-.424 0-.666-.26-.848-.713-.969-3.306-1.998-6.547-2.968-9.853-.12-.324-.242-.453-.545-.583-2.362-.778-4.664-1.556-6.965-2.333-.364-.13-.727-.26-1.03-.519-.485-.324-.545-.907-.121-1.296.424-.39.848-.713 1.332-.908a347.858 347.858 0 0 1 8.601-3.565c7.269-2.982 14.537-6.028 21.806-9.01 1.393-.583 2.423.26 2.302 1.815-.121 1.037-.364 2.01-.545 3.047L40.35 36.366m-16.172-2.398h.06c0-.065.06-.13.06-.195.182-1.815.304-3.63.485-5.445.06-.388.182-.713.424-.972 2.241-2.139 4.483-4.343 6.724-6.482l7.45-7.195c.182-.13.242-.389.303-.583-.243 0-.485-.13-.667-.065-.302.065-.545.26-.787.454-5.451 3.694-10.903 7.39-16.415 11.084-.303.194-.363.389-.242.778a67.025 67.025 0 0 1 1.15 3.76c.425 1.555.91 3.175 1.455 4.86z" id="path4" fill="#00cc45" stroke-width=".627"></path>
		</symbol>
	
		<symbol id="usable_audit" viewBox="0 0 512 512">
			<path d="M317.639 338.006h93.877v-46.943h-93.878zm44.116 50.345h-44.116V426.822h44.116zm49.76 0H367.4v38.471h44.116zm-44.114-5.937h44.116v-38.472H367.4zm-49.762 0h44.116v-38.472h-44.116zm81.367-77.618H330.15v17.352h68.857zm-71.68-5.938h74.48c1.563 0 2.823 1.327 2.823 2.969v23.266c0 1.641-1.26 2.969-2.823 2.969h-74.48c-1.54 0-2.824-1.328-2.824-2.97v-23.265c0-1.642 1.284-2.969 2.823-2.969zM213.893 110.34c.046.217.067.459.067.7 0 .242-.022.483-.067.7l-.094 22.398h87.702l.14-37.458h-24.077c-1.54 0-2.803-1.328-2.803-2.968 0-4.852-1.835-9.244-4.817-12.43l-.16-.17c-3.055-3.21-7.302-5.212-11.983-5.212-4.614 0-8.792 1.93-11.822 5.044l-.16.169c-3.03 3.21-4.932 7.65-4.957 12.526v.073c0 1.64-1.263 2.968-2.823 2.968h-24.1zm-107.74 108.246v125.84l11.682 19.597 11.683-19.598v-18.487h-13.864c-1.56 0-2.824-1.327-2.824-2.969 0-1.641 1.264-2.968 2.824-2.968h13.864V218.586h-8.86v74.022c0 1.618-1.263 2.969-2.823 2.969s-2.824-1.352-2.824-2.969v-74.022zm0-9.558v3.621h23.365v-3.621zm0-14.674v8.737h23.365v-8.737a8.96 8.96 0 0 0-2.433-6.154c-1.515-1.593-3.581-2.558-5.875-2.558h-6.75c-2.272 0-4.36.99-5.85 2.558-1.516 1.568-2.458 3.765-2.458 6.154zm216.075-21.021H180.497v10.233h141.732zm-144.555-5.937h147.38c1.559 0 2.822 1.327 2.822 2.968v16.17c0 1.618-1.263 2.969-2.823 2.969h-147.38c-1.538 0-2.799-1.352-2.799-2.968v-16.17c0-1.642 1.26-2.97 2.8-2.97zm0 154.27c-1.54 0-2.8-1.327-2.8-2.944 0-1.641 1.26-2.969 2.8-2.969H245.2c1.56 0 2.824 1.328 2.824 2.969 0 1.617-1.263 2.944-2.824 2.944zm0 17.908c-1.54 0-2.8-1.326-2.8-2.968s1.26-2.968 2.8-2.968h123.783c1.56 0 2.824 1.326 2.824 2.968s-1.263 2.968-2.824 2.968zm0 17.884c-1.54 0-2.8-1.328-2.8-2.969 0-1.617 1.26-2.968 2.8-2.968h123.783c1.56 0 2.824 1.352 2.824 2.968 0 1.641-1.263 2.97-2.824 2.97zm0 17.908c-1.54 0-2.8-1.327-2.8-2.969 0-1.641 1.26-2.968 2.8-2.968H245.2c1.56 0 2.824 1.327 2.824 2.968 0 1.642-1.263 2.969-2.824 2.969zm30.504-241.228l.069-20.13H153.23c-2.112 0-4.018.87-5.442 2.293l-.115.145a8.495 8.495 0 0 0-2.317 5.841v275.331c0 2.293.897 4.368 2.317 5.865 1.424 1.496 3.376 2.437 5.557 2.437h158.762v-20.153H175.24c-3.49 0-6.68-1.52-8.974-3.933-2.318-2.414-3.741-5.767-3.741-9.438V147.507c0-3.644 1.423-6.999 3.717-9.412l.046-.049c2.296-2.413 5.463-3.909 8.953-3.909h32.936zm144.924 150.988h17.167V122.288a8.48 8.48 0 0 0-2.318-5.841c-1.424-1.52-3.396-2.438-5.578-2.438h-55.178l-.07 20.13h33.261c3.487 0 6.657 1.52 8.95 3.933 2.318 2.414 3.766 5.767 3.766 9.437v137.617zm-90.57-176.258c-1.219-1.254-2.87-2.052-4.73-2.052-1.836 0-3.511.797-4.705 2.052a7.206 7.206 0 0 0-1.976 4.972c0 1.955.758 3.692 1.976 4.972 1.193 1.254 2.869 2.05 4.705 2.05 1.86 0 3.511-.795 4.73-2.05 1.214-1.28 1.95-3.018 1.95-4.972 0-1.931-.736-3.692-1.95-4.972zm-4.73-7.989c3.42 0 6.496 1.472 8.723 3.813 2.227 2.342 3.603 5.576 3.603 9.148 0 3.595-1.376 6.83-3.603 9.171-2.227 2.342-5.303 3.79-8.723 3.79-3.397 0-6.472-1.448-8.699-3.79-2.226-2.341-3.626-5.599-3.626-9.171 0-3.573 1.4-6.806 3.626-9.148 2.227-2.34 5.302-3.813 8.699-3.813zM177.674 212.31c-1.54 0-2.8-1.326-2.8-2.968 0-1.617 1.26-2.969 2.8-2.969h123.783c1.56 0 2.824 1.352 2.824 2.97 0 1.64-1.263 2.967-2.824 2.967zm0 17.908c-1.54 0-2.8-1.327-2.8-2.968 0-1.642 1.26-2.969 2.8-2.969H245.2c1.56 0 2.824 1.327 2.824 2.969 0 1.641-1.263 2.968-2.824 2.968zm153.369 135.808c-1.536 0-2.823-1.352-2.823-2.969 0-1.64 1.287-2.968 2.823-2.968h17.306c1.54 0 2.823 1.327 2.823 2.968 0 1.618-1.284 2.969-2.823 2.969zm48.315 0c-1.56 0-2.823-1.352-2.823-2.969 0-1.64 1.263-2.968 2.823-2.968h5.83v-6.131c0-1.64 1.263-2.968 2.824-2.968 1.56 0 2.823 1.327 2.823 2.968v6.131h5.808c1.56 0 2.823 1.327 2.823 2.968 0 1.618-1.263 2.969-2.823 2.969h-5.808v6.106c0 1.641-1.263 2.968-2.823 2.968s-2.824-1.327-2.824-2.968v-6.106zm-37.571 33.62c1.078-1.159 2.869-1.159 3.969 0 1.102 1.135 1.102 3.017.024 4.176l-4.133 4.344 4.133 4.32c1.102 1.158 1.102 3.04 0 4.2a2.73 2.73 0 0 1-3.993 0l-4.133-4.32-4.109 4.32c-1.078 1.158-2.869 1.158-3.97 0-1.101-1.135-1.101-3.017-.023-4.176l4.13-4.344-4.13-4.32c-1.102-1.158-1.102-3.041 0-4.2a2.727 2.727 0 0 1 3.993 0l4.133 4.32zm57.564 1.955c1.561 0 2.824 1.327 2.824 2.968 0 1.618-1.263 2.969-2.824 2.969h-19.35c-1.537 0-2.8-1.351-2.8-2.969 0-1.641 1.263-2.968 2.8-2.968zm0 7.988c1.561 0 2.824 1.327 2.824 2.97 0 1.616-1.263 2.967-2.824 2.967h-19.35c-1.537 0-2.8-1.352-2.8-2.967 0-1.643 1.263-2.97 2.8-2.97zm-285.005 24.305c-1.56 0-2.82-1.328-2.82-2.97 0-1.64 1.26-2.968 2.82-2.968h169.967c1.56 0 2.823 1.328 2.823 2.969 0 1.641-1.263 2.97-2.823 2.97zm99.525 10.885c-1.56 0-2.824-1.352-2.824-2.97 0-1.64 1.263-2.967 2.824-2.967h117.633c1.56 0 2.824 1.326 2.824 2.967 0 1.618-1.263 2.97-2.824 2.97zm129.658 0c-1.56 0-2.821-1.352-2.821-2.97 0-1.64 1.26-2.967 2.82-2.967h14.717c1.56 0 2.82 1.326 2.82 2.967 0 1.618-1.26 2.97-2.82 2.97zm-235.885-.339c-1.56 0-2.82-1.327-2.82-2.968s1.26-2.968 2.82-2.968h55.73c1.56 0 2.824 1.327 2.824 2.968s-1.264 2.968-2.824 2.968zm207.172-159.314h32.639V147.508a7.607 7.607 0 0 0-2.088-5.236c-1.262-1.352-3.053-2.197-4.98-2.197H175.24c-1.95 0-3.718.845-5.005 2.172-1.285 1.352-2.064 3.234-2.064 5.262v224.889c0 2.027.779 3.91 2.064 5.236 1.287 1.353 3.053 2.197 5.005 2.197h136.75V288.095c0-1.642 1.264-2.969 2.825-2.969z" clip-rule="evenodd" fill-rule="evenodd"></path>
		</symbol>
	
		<symbol id="viber" viewBox="0 0 52.6 56.7">
			<path class="st0" d="M52.2 16.3c-.3-1.9-.9-3.8-1.7-5.6-1.4-2.9-3.4-5.1-6.1-6.8-2.2-1.4-4.6-2.4-7.2-3C34.5.3 31.8 0 29 0h-6.4c-1.8 0-3.6.2-5.4.5-2.8.5-5.5 1.4-8.1 2.9C5.7 5.3 3.2 8 1.7 11.6.6 14.1.1 16.8 0 19.5c0 1.2.1 2.4 0 3.6v1.8c0 .8.1 1.7.1 2.5 0 .9.1 1.8.2 2.6.3 2.2.9 4.4 1.9 6.5 1 2.1 2.5 3.9 4.3 5.5 1.7 1.5 3.6 2.5 5.7 3.3.4.2.3.1.3.5 0 1.7 0 3.3-.1 5v5.4c.1.5.6.7 1 .4.2-.1.3-.3.5-.4l4.2-4.8c1.1-1.3 2.3-2.6 3.4-3.9.1-.2.3-.2.5-.2.7.1 1.4.1 2.1.1h4.2c2.3 0 4.5-.2 6.8-.6 2.9-.5 5.6-1.4 8.1-2.8 3.1-1.7 5.4-4.1 7-7.3 1.3-2.6 1.9-5.4 2-8.2 0-1 0-2.1.1-3.1.1-1.5.1-3 .1-4.6.2-1.6.1-3-.2-4.5zM40.5 34.8c-.2.8-.6 1.6-1.2 2.2-1 1.2-2.1 2-3.6 2.5-.4.1-.8.2-1.2.2-.5 0-1-.1-1.5-.3-.5-.1-.9-.4-1.3-.6-2.2-1-4.3-2.1-6.3-3.5-3-2-5.7-4.3-8-7.1-1.7-2-3.2-4.3-4.5-6.6-.8-1.5-1.6-3.1-2.2-4.7-.2-.7-.4-1.6-.4-2.3 0-2 1-3.5 2.6-4.5.7-.5 1.4-.8 2.2-1 .8-.2 1.7-.1 2.4.5.5.3.9.8 1.2 1.2 1.3 1.4 2.4 3 3.3 4.7.1.3.3.6.4.9.3.9.1 1.7-.6 2.5-.2.3-.5.5-.8.7-.3.2-.5.4-.8.6-.6.5-.7 1.2-.6 1.9l.3.9c.7 1.5 1.6 2.8 2.7 3.9.7.7 1.4 1.2 2.2 1.8.8.5 1.6.9 2.4 1.2.8.3 1.4.1 2-.6.2-.3.4-.6.7-.9.5-.5 1-.9 1.7-1.1.8-.2 1.5 0 2.2.3.7.3 1.2.7 1.8 1.1 1.2.8 2.3 1.7 3.4 2.6.3.2.6.5.8.8.8 1 .9 1.8.7 2.7zm-3.2-12.6c-.1.6-.5.9-1.2 1-.7 0-1.1-.3-1.2-.9-.1-.2-.1-.5-.1-.7-.1-1.1-.4-2.2-.8-3.2-.6-1.5-1.6-2.5-3.1-3.1-1-.4-2-.7-3.1-.9-.3 0-.6-.1-.8-.2-.1-.1-.2-.1-.3-.3-.4-.4-.3-.9-.1-1.4.2-.4.5-.7 1-.7.4 0 .8 0 1.2.1 1.1.2 2.1.4 3.1.9 1.3.6 2.4 1.5 3.3 2.5.8.9 1.4 1.9 1.8 3.1.3.9.4 1.8.4 2.8-.1.3-.1.6-.1 1zm-4-1.3c0 .3 0 .6-.1 1-.2.5-.5.7-1 .8-.5.1-.9-.1-1.2-.5-.1-.2-.2-.4-.2-.7-.1-.4-.1-.8-.3-1.2-.3-.8-1-1.3-1.8-1.5-.2 0-.3-.1-.5-.1-.1 0-.3-.1-.4-.1-.6-.2-.9-.6-.9-1.1 0-.6.3-1.1.9-1.3.6-.2 1.1-.1 1.7 0 1.3.4 2.3 1.2 3.1 2.3.3.6.7 1.5.7 2.4zm8.2 1.9c-.1.9-.9 1.4-1.8 1.1-.5-.2-.7-.7-.7-1.2 0-.6-.1-1.2-.2-1.9-.3-1.9-.8-3.7-1.9-5.4-.8-1.2-1.8-2.2-3-3-1.4-.9-3-1.5-4.7-1.8-.7-.2-1.4-.3-2.2-.4-.2 0-.3 0-.5-.1-.5-.2-.8-.6-.7-1.1.1-.9.6-1.3 1.3-1.3 2.8 0 5.3.7 7.6 2.2 1.4.9 2.6 1.9 3.6 3.2 1.9 2.5 3.1 5.3 3.1 8.4.1.5.2.9.1 1.3z"></path>
		</symbol>
	
		<symbol id="vk" viewBox="0 0 56.7 33.1">
			<path class="st0" d="M21 16.8c.3-3.7.6-7-.1-10.3-.2-.8-.4-1.6-1.4-2-.9-.4-.7-1.4-.3-1.9.6-.7 1.3-1.4 2.1-1.7 3.2-1.2 6.6-1.1 10-.7C32.5.3 33 1.3 33 2.8v10.1c0 .8.2 1.7.4 2.5.1.4.4.8.7 1.3.5-.4.9-.7 1.2-1.1 2.5-3.3 5-6.5 7.4-9.8.5-.7.8-1.5 1-2.3.3-.8.8-1.2 1.6-1.2h9.8c1.5 0 2 .8 1.3 2.1-.7 1.4-1.6 2.7-2.4 4.1-2 3-3.9 6.1-6 9.1-.7 1-.6 1.7.2 2.5 2.2 2.4 4.3 4.8 6.4 7.2.5.6.9 1.1 1.4 1.7 1.4 1.9.8 3.6-1.6 3.7-3.2.2-6.3.2-9.5.2-.7 0-1.4-.5-1.9-.9-1.7-1.3-3.3-2.7-5-4.1-.8-.6-1.6-1.2-2.5-1.6-1.2-.7-1.6-.4-1.8 1-.1 1.1-.2 2.3-.4 3.4-.3 1.7-1.1 2.3-2.8 2.4h-4.1c-2.4 0-4.4-1-6.4-2.3-3-2-5.5-4.5-7.8-7.1C7.6 18.5 3.7 13 1 6.8.6 5.9.3 5 .1 4c-.3-1 .2-1.6 1.2-1.6h9.2c.8 0 1.1.5 1.4 1.2 1.5 2.9 2.9 5.9 4.5 8.8.6 1.1 1.6 2.1 2.5 3.1.5.4 1.2.7 2.1 1.3z"></path>
		</symbol>
	
		<symbol id="website" viewBox="0 0 32 32">
			<path fill="none" d="M0 0h32v32H0z"></path><path d="M23.661 12.738H17.39v1.312h6.271zm0 2.623H17.39v1.312h6.271zm-2.508 2.623H17.39v1.312h3.763zm-6.272-5.246h-6.27v6.558h6.27zm-8.78-5.246v17.05H26.17V7.492zM24.916 23.23H7.355l.051-13.116h17.51z"></path>
		</symbol>
	
		<symbol id="yandex_direct" viewBox="0 0 25.600005 25.600001">
			<g transform="matrix(.38267 0 0 .369 4.881 20.393)"><path d="M6.27-10.131v-19.713c0-2.168 1.84-3.894 4.035-3.894h15.027c.557.004 1.073-.018 1.456.165l.051.029.14.086c.357.262.606.79.915 1.303l6.587 10.798.2.3c.468.834.295 1.636-.17 2.372L27.412-7.337c-.658 1.136-1.2 1.1-2.1 1.1H10.305c-2.195 0-4.035-1.725-4.035-3.894zm19.735 2.605c.018-.008.097-.041.336-.456l7.113-11.368c.331-.523.35-.854.003-1.3l-.041-.057-6.59-10.8c-.348-.578-.455-.784-.521-.876l-.065-.063-.057-.017c-.091-.013-.296-.02-.856-.025H10.305c-1.557 0-2.786 1.218-2.786 2.644v19.713c0 1.428 1.229 2.644 2.786 2.644h15.007c.522 0 .628-.01.693-.039z"></path><path d="M0-3.652v-32.676a3.654 3.654 0 0 1 3.65-3.652h32.668a3.655 3.655 0 0 1 3.65 3.652v32.676A3.654 3.654 0 0 1 36.319 0H3.65A3.652 3.652 0 0 1 0-3.652zm38.72 0v-32.676a2.407 2.407 0 0 0-2.402-2.403H3.65a2.406 2.406 0 0 0-2.401 2.403v32.676A2.405 2.405 0 0 0 3.65-1.25h32.668a2.406 2.406 0 0 0 2.402-2.402z"></path><path d="M13.739-11.24l3.347-6.697a5.662 5.662 0 0 1-3.347-5.176c0-2.91 2.188-5.307 4.995-5.621l3.749.001v1.248h-.003v8.747h.003v1.248h-.003v6.25h-1.248v-6.25l-2.498.001a5.495 5.495 0 0 1-.577-.094l-3.171 6.342zm7.493-7.498v-8.747h-2.498c-2.116.307-3.746 2.158-3.746 4.372 0 2.219 1.628 4.068 3.746 4.375z"></path></g>
		</symbol>
	
</svg>
